%TF.GenerationSoftware,KiCad,Pcbnew,(6.0.8-1)-1*%
%TF.CreationDate,2022-09-30T17:55:38+02:00*%
%TF.ProjectId,LivSynth_Hardware,4c697653-796e-4746-985f-486172647761,0v01*%
%TF.SameCoordinates,Original*%
%TF.FileFunction,Legend,Top*%
%TF.FilePolarity,Positive*%
%FSLAX46Y46*%
G04 Gerber Fmt 4.6, Leading zero omitted, Abs format (unit mm)*
G04 Created by KiCad (PCBNEW (6.0.8-1)-1) date 2022-09-30 17:55:38*
%MOMM*%
%LPD*%
G01*
G04 APERTURE LIST*
%ADD10C,0.150000*%
%ADD11C,1.075000*%
%ADD12C,0.300000*%
%ADD13C,0.500000*%
%ADD14C,1.000000*%
%ADD15C,0.400000*%
%ADD16C,0.120000*%
%ADD17C,0.260000*%
%ADD18C,0.100000*%
G04 APERTURE END LIST*
D10*
X306000000Y-135000000D02*
G75*
G03*
X306000000Y-135000000I-25000000J0D01*
G01*
X304000000Y-135000000D02*
G75*
G03*
X304000000Y-135000000I-23000000J0D01*
G01*
D11*
X281537500Y-135000000D02*
G75*
G03*
X281537500Y-135000000I-537500J0D01*
G01*
D10*
X287000000Y-135000000D02*
G75*
G03*
X287000000Y-135000000I-6000000J0D01*
G01*
D12*
X256642857Y-75357142D02*
X255214285Y-75357142D01*
X255214285Y-72357142D01*
X257642857Y-75357142D02*
X257642857Y-73357142D01*
X257642857Y-72357142D02*
X257500000Y-72500000D01*
X257642857Y-72642857D01*
X257785714Y-72500000D01*
X257642857Y-72357142D01*
X257642857Y-72642857D01*
X259071428Y-73357142D02*
X259071428Y-75357142D01*
X259071428Y-73642857D02*
X259214285Y-73500000D01*
X259500000Y-73357142D01*
X259928571Y-73357142D01*
X260214285Y-73500000D01*
X260357142Y-73785714D01*
X260357142Y-75357142D01*
X262928571Y-75214285D02*
X262642857Y-75357142D01*
X262071428Y-75357142D01*
X261785714Y-75214285D01*
X261642857Y-74928571D01*
X261642857Y-73785714D01*
X261785714Y-73500000D01*
X262071428Y-73357142D01*
X262642857Y-73357142D01*
X262928571Y-73500000D01*
X263071428Y-73785714D01*
X263071428Y-74071428D01*
X261642857Y-74357142D01*
X267214285Y-72357142D02*
X267785714Y-72357142D01*
X268071428Y-72500000D01*
X268357142Y-72785714D01*
X268500000Y-73357142D01*
X268500000Y-74357142D01*
X268357142Y-74928571D01*
X268071428Y-75214285D01*
X267785714Y-75357142D01*
X267214285Y-75357142D01*
X266928571Y-75214285D01*
X266642857Y-74928571D01*
X266500000Y-74357142D01*
X266500000Y-73357142D01*
X266642857Y-72785714D01*
X266928571Y-72500000D01*
X267214285Y-72357142D01*
X271071428Y-73357142D02*
X271071428Y-75357142D01*
X269785714Y-73357142D02*
X269785714Y-74928571D01*
X269928571Y-75214285D01*
X270214285Y-75357142D01*
X270642857Y-75357142D01*
X270928571Y-75214285D01*
X271071428Y-75071428D01*
X272071428Y-73357142D02*
X273214285Y-73357142D01*
X272500000Y-72357142D02*
X272500000Y-74928571D01*
X272642857Y-75214285D01*
X272928571Y-75357142D01*
X273214285Y-75357142D01*
D10*
X83650238Y-183535714D02*
X83602619Y-183678571D01*
X83602619Y-183916666D01*
X83650238Y-184011904D01*
X83697857Y-184059523D01*
X83793095Y-184107142D01*
X83888333Y-184107142D01*
X83983571Y-184059523D01*
X84031190Y-184011904D01*
X84078809Y-183916666D01*
X84126428Y-183726190D01*
X84174047Y-183630952D01*
X84221666Y-183583333D01*
X84316904Y-183535714D01*
X84412142Y-183535714D01*
X84507380Y-183583333D01*
X84555000Y-183630952D01*
X84602619Y-183726190D01*
X84602619Y-183964285D01*
X84555000Y-184107142D01*
X83507380Y-185202380D02*
X83555000Y-185107142D01*
X83650238Y-185011904D01*
X83793095Y-184869047D01*
X83840714Y-184773809D01*
X83840714Y-184678571D01*
X83602619Y-184726190D02*
X83650238Y-184630952D01*
X83745476Y-184535714D01*
X83935952Y-184488095D01*
X84269285Y-184488095D01*
X84459761Y-184535714D01*
X84555000Y-184630952D01*
X84602619Y-184726190D01*
X84602619Y-184916666D01*
X84555000Y-185011904D01*
X84459761Y-185107142D01*
X84269285Y-185154761D01*
X83935952Y-185154761D01*
X83745476Y-185107142D01*
X83650238Y-185011904D01*
X83602619Y-184916666D01*
X83602619Y-184726190D01*
X84602619Y-185583333D02*
X83793095Y-185583333D01*
X83697857Y-185630952D01*
X83650238Y-185678571D01*
X83602619Y-185773809D01*
X83602619Y-185964285D01*
X83650238Y-186059523D01*
X83697857Y-186107142D01*
X83793095Y-186154761D01*
X84602619Y-186154761D01*
X83888333Y-186583333D02*
X83888333Y-187059523D01*
X83602619Y-186488095D02*
X84602619Y-186821428D01*
X83602619Y-187154761D01*
X83602619Y-188059523D02*
X84078809Y-187726190D01*
X83602619Y-187488095D02*
X84602619Y-187488095D01*
X84602619Y-187869047D01*
X84555000Y-187964285D01*
X84507380Y-188011904D01*
X84412142Y-188059523D01*
X84269285Y-188059523D01*
X84174047Y-188011904D01*
X84126428Y-187964285D01*
X84078809Y-187869047D01*
X84078809Y-187488095D01*
X84126428Y-188488095D02*
X84126428Y-188821428D01*
X83602619Y-188964285D02*
X83602619Y-188488095D01*
X84602619Y-188488095D01*
X84602619Y-188964285D01*
X82278333Y-182773809D02*
X82278333Y-183250000D01*
X81992619Y-182678571D02*
X82992619Y-183011904D01*
X81992619Y-183345238D01*
X81992619Y-183678571D02*
X82659285Y-183678571D01*
X82564047Y-183678571D02*
X82611666Y-183726190D01*
X82659285Y-183821428D01*
X82659285Y-183964285D01*
X82611666Y-184059523D01*
X82516428Y-184107142D01*
X81992619Y-184107142D01*
X82516428Y-184107142D02*
X82611666Y-184154761D01*
X82659285Y-184250000D01*
X82659285Y-184392857D01*
X82611666Y-184488095D01*
X82516428Y-184535714D01*
X81992619Y-184535714D01*
X82659285Y-185011904D02*
X81659285Y-185011904D01*
X82611666Y-185011904D02*
X82659285Y-185107142D01*
X82659285Y-185297619D01*
X82611666Y-185392857D01*
X82564047Y-185440476D01*
X82468809Y-185488095D01*
X82183095Y-185488095D01*
X82087857Y-185440476D01*
X82040238Y-185392857D01*
X81992619Y-185297619D01*
X81992619Y-185107142D01*
X82040238Y-185011904D01*
X81992619Y-186059523D02*
X82040238Y-185964285D01*
X82135476Y-185916666D01*
X82992619Y-185916666D01*
X81992619Y-186440476D02*
X82659285Y-186440476D01*
X82992619Y-186440476D02*
X82945000Y-186392857D01*
X82897380Y-186440476D01*
X82945000Y-186488095D01*
X82992619Y-186440476D01*
X82897380Y-186440476D01*
X82659285Y-186773809D02*
X82659285Y-187154761D01*
X82992619Y-186916666D02*
X82135476Y-186916666D01*
X82040238Y-186964285D01*
X81992619Y-187059523D01*
X81992619Y-187154761D01*
X82659285Y-187916666D02*
X81992619Y-187916666D01*
X82659285Y-187488095D02*
X82135476Y-187488095D01*
X82040238Y-187535714D01*
X81992619Y-187630952D01*
X81992619Y-187773809D01*
X82040238Y-187869047D01*
X82087857Y-187916666D01*
X81992619Y-188821428D02*
X82992619Y-188821428D01*
X82040238Y-188821428D02*
X81992619Y-188726190D01*
X81992619Y-188535714D01*
X82040238Y-188440476D01*
X82087857Y-188392857D01*
X82183095Y-188345238D01*
X82468809Y-188345238D01*
X82564047Y-188392857D01*
X82611666Y-188440476D01*
X82659285Y-188535714D01*
X82659285Y-188726190D01*
X82611666Y-188821428D01*
X82040238Y-189678571D02*
X81992619Y-189583333D01*
X81992619Y-189392857D01*
X82040238Y-189297619D01*
X82135476Y-189250000D01*
X82516428Y-189250000D01*
X82611666Y-189297619D01*
X82659285Y-189392857D01*
X82659285Y-189583333D01*
X82611666Y-189678571D01*
X82516428Y-189726190D01*
X82421190Y-189726190D01*
X82325952Y-189250000D01*
D13*
X207428571Y-86357142D02*
X206428571Y-84928571D01*
X205714285Y-86357142D02*
X205714285Y-83357142D01*
X206857142Y-83357142D01*
X207142857Y-83500000D01*
X207285714Y-83642857D01*
X207428571Y-83928571D01*
X207428571Y-84357142D01*
X207285714Y-84642857D01*
X207142857Y-84785714D01*
X206857142Y-84928571D01*
X205714285Y-84928571D01*
X210000000Y-86357142D02*
X210000000Y-84785714D01*
X209857142Y-84500000D01*
X209571428Y-84357142D01*
X209000000Y-84357142D01*
X208714285Y-84500000D01*
X210000000Y-86214285D02*
X209714285Y-86357142D01*
X209000000Y-86357142D01*
X208714285Y-86214285D01*
X208571428Y-85928571D01*
X208571428Y-85642857D01*
X208714285Y-85357142D01*
X209000000Y-85214285D01*
X209714285Y-85214285D01*
X210000000Y-85071428D01*
X211000000Y-84357142D02*
X212142857Y-84357142D01*
X211428571Y-83357142D02*
X211428571Y-85928571D01*
X211571428Y-86214285D01*
X211857142Y-86357142D01*
X212142857Y-86357142D01*
X214285714Y-86214285D02*
X214000000Y-86357142D01*
X213428571Y-86357142D01*
X213142857Y-86214285D01*
X213000000Y-85928571D01*
X213000000Y-84785714D01*
X213142857Y-84500000D01*
X213428571Y-84357142D01*
X214000000Y-84357142D01*
X214285714Y-84500000D01*
X214428571Y-84785714D01*
X214428571Y-85071428D01*
X213000000Y-85357142D01*
X206214285Y-146214285D02*
X206642857Y-146357142D01*
X207357142Y-146357142D01*
X207642857Y-146214285D01*
X207785714Y-146071428D01*
X207928571Y-145785714D01*
X207928571Y-145500000D01*
X207785714Y-145214285D01*
X207642857Y-145071428D01*
X207357142Y-144928571D01*
X206785714Y-144785714D01*
X206500000Y-144642857D01*
X206357142Y-144500000D01*
X206214285Y-144214285D01*
X206214285Y-143928571D01*
X206357142Y-143642857D01*
X206500000Y-143500000D01*
X206785714Y-143357142D01*
X207500000Y-143357142D01*
X207928571Y-143500000D01*
X210500000Y-146357142D02*
X210500000Y-144785714D01*
X210357142Y-144500000D01*
X210071428Y-144357142D01*
X209500000Y-144357142D01*
X209214285Y-144500000D01*
X210500000Y-146214285D02*
X210214285Y-146357142D01*
X209500000Y-146357142D01*
X209214285Y-146214285D01*
X209071428Y-145928571D01*
X209071428Y-145642857D01*
X209214285Y-145357142D01*
X209500000Y-145214285D01*
X210214285Y-145214285D01*
X210500000Y-145071428D01*
X211642857Y-144357142D02*
X212214285Y-146357142D01*
X212785714Y-144928571D01*
X213357142Y-146357142D01*
X213928571Y-144357142D01*
X195714285Y-196357142D02*
X194285714Y-196357142D01*
X194142857Y-197785714D01*
X194285714Y-197642857D01*
X194571428Y-197500000D01*
X195285714Y-197500000D01*
X195571428Y-197642857D01*
X195714285Y-197785714D01*
X195857142Y-198071428D01*
X195857142Y-198785714D01*
X195714285Y-199071428D01*
X195571428Y-199214285D01*
X195285714Y-199357142D01*
X194571428Y-199357142D01*
X194285714Y-199214285D01*
X194142857Y-199071428D01*
X102857142Y-144785714D02*
X103857142Y-144785714D01*
X104285714Y-146357142D02*
X102857142Y-146357142D01*
X102857142Y-143357142D01*
X104285714Y-143357142D01*
X107142857Y-143500000D02*
X106857142Y-143357142D01*
X106428571Y-143357142D01*
X106000000Y-143500000D01*
X105714285Y-143785714D01*
X105571428Y-144071428D01*
X105428571Y-144642857D01*
X105428571Y-145071428D01*
X105571428Y-145642857D01*
X105714285Y-145928571D01*
X106000000Y-146214285D01*
X106428571Y-146357142D01*
X106714285Y-146357142D01*
X107142857Y-146214285D01*
X107285714Y-146071428D01*
X107285714Y-145071428D01*
X106714285Y-145071428D01*
D14*
X133690476Y-75276904D02*
X135357142Y-80276904D01*
X137023809Y-75276904D01*
X141547619Y-79800714D02*
X141309523Y-80038809D01*
X140595238Y-80276904D01*
X140119047Y-80276904D01*
X139404761Y-80038809D01*
X138928571Y-79562619D01*
X138690476Y-79086428D01*
X138452380Y-78134047D01*
X138452380Y-77419761D01*
X138690476Y-76467380D01*
X138928571Y-75991190D01*
X139404761Y-75515000D01*
X140119047Y-75276904D01*
X140595238Y-75276904D01*
X141309523Y-75515000D01*
X141547619Y-75753095D01*
X145357142Y-77657857D02*
X143690476Y-77657857D01*
X143690476Y-80276904D02*
X143690476Y-75276904D01*
X146071428Y-75276904D01*
D13*
X236214285Y-113357142D02*
X237214285Y-116357142D01*
X238214285Y-113357142D01*
X240928571Y-116071428D02*
X240785714Y-116214285D01*
X240357142Y-116357142D01*
X240071428Y-116357142D01*
X239642857Y-116214285D01*
X239357142Y-115928571D01*
X239214285Y-115642857D01*
X239071428Y-115071428D01*
X239071428Y-114642857D01*
X239214285Y-114071428D01*
X239357142Y-113785714D01*
X239642857Y-113500000D01*
X240071428Y-113357142D01*
X240357142Y-113357142D01*
X240785714Y-113500000D01*
X240928571Y-113642857D01*
X242071428Y-115500000D02*
X243500000Y-115500000D01*
X241785714Y-116357142D02*
X242785714Y-113357142D01*
X243785714Y-116357142D01*
X262214285Y-197642857D02*
X261928571Y-197500000D01*
X261785714Y-197357142D01*
X261642857Y-197071428D01*
X261642857Y-196928571D01*
X261785714Y-196642857D01*
X261928571Y-196500000D01*
X262214285Y-196357142D01*
X262785714Y-196357142D01*
X263071428Y-196500000D01*
X263214285Y-196642857D01*
X263357142Y-196928571D01*
X263357142Y-197071428D01*
X263214285Y-197357142D01*
X263071428Y-197500000D01*
X262785714Y-197642857D01*
X262214285Y-197642857D01*
X261928571Y-197785714D01*
X261785714Y-197928571D01*
X261642857Y-198214285D01*
X261642857Y-198785714D01*
X261785714Y-199071428D01*
X261928571Y-199214285D01*
X262214285Y-199357142D01*
X262785714Y-199357142D01*
X263071428Y-199214285D01*
X263214285Y-199071428D01*
X263357142Y-198785714D01*
X263357142Y-198214285D01*
X263214285Y-197928571D01*
X263071428Y-197785714D01*
X262785714Y-197642857D01*
X277857142Y-199214285D02*
X278285714Y-199357142D01*
X279000000Y-199357142D01*
X279285714Y-199214285D01*
X279428571Y-199071428D01*
X279571428Y-198785714D01*
X279571428Y-198500000D01*
X279428571Y-198214285D01*
X279285714Y-198071428D01*
X279000000Y-197928571D01*
X278428571Y-197785714D01*
X278142857Y-197642857D01*
X278000000Y-197500000D01*
X277857142Y-197214285D01*
X277857142Y-196928571D01*
X278000000Y-196642857D01*
X278142857Y-196500000D01*
X278428571Y-196357142D01*
X279142857Y-196357142D01*
X279571428Y-196500000D01*
X280857142Y-199357142D02*
X280857142Y-196357142D01*
X282142857Y-199357142D02*
X282142857Y-197785714D01*
X282000000Y-197500000D01*
X281714285Y-197357142D01*
X281285714Y-197357142D01*
X281000000Y-197500000D01*
X280857142Y-197642857D01*
X283571428Y-199357142D02*
X283571428Y-197357142D01*
X283571428Y-196357142D02*
X283428571Y-196500000D01*
X283571428Y-196642857D01*
X283714285Y-196500000D01*
X283571428Y-196357142D01*
X283571428Y-196642857D01*
X284571428Y-197357142D02*
X285714285Y-197357142D01*
X285000000Y-199357142D02*
X285000000Y-196785714D01*
X285142857Y-196500000D01*
X285428571Y-196357142D01*
X285714285Y-196357142D01*
X286285714Y-197357142D02*
X287428571Y-197357142D01*
X286714285Y-196357142D02*
X286714285Y-198928571D01*
X286857142Y-199214285D01*
X287142857Y-199357142D01*
X287428571Y-199357142D01*
X203785714Y-116214285D02*
X204214285Y-116357142D01*
X204928571Y-116357142D01*
X205214285Y-116214285D01*
X205357142Y-116071428D01*
X205500000Y-115785714D01*
X205500000Y-115500000D01*
X205357142Y-115214285D01*
X205214285Y-115071428D01*
X204928571Y-114928571D01*
X204357142Y-114785714D01*
X204071428Y-114642857D01*
X203928571Y-114500000D01*
X203785714Y-114214285D01*
X203785714Y-113928571D01*
X203928571Y-113642857D01*
X204071428Y-113500000D01*
X204357142Y-113357142D01*
X205071428Y-113357142D01*
X205500000Y-113500000D01*
X206785714Y-116357142D02*
X206785714Y-113357142D01*
X208071428Y-116357142D02*
X208071428Y-114785714D01*
X207928571Y-114500000D01*
X207642857Y-114357142D01*
X207214285Y-114357142D01*
X206928571Y-114500000D01*
X206785714Y-114642857D01*
X210785714Y-116357142D02*
X210785714Y-114785714D01*
X210642857Y-114500000D01*
X210357142Y-114357142D01*
X209785714Y-114357142D01*
X209500000Y-114500000D01*
X210785714Y-116214285D02*
X210500000Y-116357142D01*
X209785714Y-116357142D01*
X209500000Y-116214285D01*
X209357142Y-115928571D01*
X209357142Y-115642857D01*
X209500000Y-115357142D01*
X209785714Y-115214285D01*
X210500000Y-115214285D01*
X210785714Y-115071428D01*
X212214285Y-114357142D02*
X212214285Y-117357142D01*
X212214285Y-114500000D02*
X212500000Y-114357142D01*
X213071428Y-114357142D01*
X213357142Y-114500000D01*
X213500000Y-114642857D01*
X213642857Y-114928571D01*
X213642857Y-115785714D01*
X213500000Y-116071428D01*
X213357142Y-116214285D01*
X213071428Y-116357142D01*
X212500000Y-116357142D01*
X212214285Y-116214285D01*
X216071428Y-116214285D02*
X215785714Y-116357142D01*
X215214285Y-116357142D01*
X214928571Y-116214285D01*
X214785714Y-115928571D01*
X214785714Y-114785714D01*
X214928571Y-114500000D01*
X215214285Y-114357142D01*
X215785714Y-114357142D01*
X216071428Y-114500000D01*
X216214285Y-114785714D01*
X216214285Y-115071428D01*
X214785714Y-115357142D01*
D14*
X206785714Y-80276904D02*
X204404761Y-80276904D01*
X204404761Y-75276904D01*
X210119047Y-77657857D02*
X208452380Y-77657857D01*
X208452380Y-80276904D02*
X208452380Y-75276904D01*
X210833333Y-75276904D01*
X213690476Y-75276904D02*
X214642857Y-75276904D01*
X215119047Y-75515000D01*
X215595238Y-75991190D01*
X215833333Y-76943571D01*
X215833333Y-78610238D01*
X215595238Y-79562619D01*
X215119047Y-80038809D01*
X214642857Y-80276904D01*
X213690476Y-80276904D01*
X213214285Y-80038809D01*
X212738095Y-79562619D01*
X212500000Y-78610238D01*
X212500000Y-76943571D01*
X212738095Y-75991190D01*
X213214285Y-75515000D01*
X213690476Y-75276904D01*
D13*
X275642857Y-168357142D02*
X277357142Y-168357142D01*
X276500000Y-171357142D02*
X276500000Y-168357142D01*
X279500000Y-171214285D02*
X279214285Y-171357142D01*
X278642857Y-171357142D01*
X278357142Y-171214285D01*
X278214285Y-170928571D01*
X278214285Y-169785714D01*
X278357142Y-169500000D01*
X278642857Y-169357142D01*
X279214285Y-169357142D01*
X279500000Y-169500000D01*
X279642857Y-169785714D01*
X279642857Y-170071428D01*
X278214285Y-170357142D01*
X280928571Y-171357142D02*
X280928571Y-169357142D01*
X280928571Y-169642857D02*
X281071428Y-169500000D01*
X281357142Y-169357142D01*
X281785714Y-169357142D01*
X282071428Y-169500000D01*
X282214285Y-169785714D01*
X282214285Y-171357142D01*
X282214285Y-169785714D02*
X282357142Y-169500000D01*
X282642857Y-169357142D01*
X283071428Y-169357142D01*
X283357142Y-169500000D01*
X283500000Y-169785714D01*
X283500000Y-171357142D01*
X284928571Y-169357142D02*
X284928571Y-172357142D01*
X284928571Y-169500000D02*
X285214285Y-169357142D01*
X285785714Y-169357142D01*
X286071428Y-169500000D01*
X286214285Y-169642857D01*
X286357142Y-169928571D01*
X286357142Y-170785714D01*
X286214285Y-171071428D01*
X286071428Y-171214285D01*
X285785714Y-171357142D01*
X285214285Y-171357142D01*
X284928571Y-171214285D01*
X288071428Y-171357142D02*
X287785714Y-171214285D01*
X287642857Y-171071428D01*
X287500000Y-170785714D01*
X287500000Y-169928571D01*
X287642857Y-169642857D01*
X287785714Y-169500000D01*
X288071428Y-169357142D01*
X288500000Y-169357142D01*
X288785714Y-169500000D01*
X288928571Y-169642857D01*
X289071428Y-169928571D01*
X289071428Y-170785714D01*
X288928571Y-171071428D01*
X288785714Y-171214285D01*
X288500000Y-171357142D01*
X288071428Y-171357142D01*
X237857142Y-144785714D02*
X238857142Y-144785714D01*
X239285714Y-146357142D02*
X237857142Y-146357142D01*
X237857142Y-143357142D01*
X239285714Y-143357142D01*
X242142857Y-143500000D02*
X241857142Y-143357142D01*
X241428571Y-143357142D01*
X241000000Y-143500000D01*
X240714285Y-143785714D01*
X240571428Y-144071428D01*
X240428571Y-144642857D01*
X240428571Y-145071428D01*
X240571428Y-145642857D01*
X240714285Y-145928571D01*
X241000000Y-146214285D01*
X241428571Y-146357142D01*
X241714285Y-146357142D01*
X242142857Y-146214285D01*
X242285714Y-146071428D01*
X242285714Y-145071428D01*
X241714285Y-145071428D01*
X260714285Y-171357142D02*
X259714285Y-169928571D01*
X259000000Y-171357142D02*
X259000000Y-168357142D01*
X260142857Y-168357142D01*
X260428571Y-168500000D01*
X260571428Y-168642857D01*
X260714285Y-168928571D01*
X260714285Y-169357142D01*
X260571428Y-169642857D01*
X260428571Y-169785714D01*
X260142857Y-169928571D01*
X259000000Y-169928571D01*
X263285714Y-169357142D02*
X263285714Y-171357142D01*
X262000000Y-169357142D02*
X262000000Y-170928571D01*
X262142857Y-171214285D01*
X262428571Y-171357142D01*
X262857142Y-171357142D01*
X263142857Y-171214285D01*
X263285714Y-171071428D01*
X264714285Y-169357142D02*
X264714285Y-171357142D01*
X264714285Y-169642857D02*
X264857142Y-169500000D01*
X265142857Y-169357142D01*
X265571428Y-169357142D01*
X265857142Y-169500000D01*
X266000000Y-169785714D01*
X266000000Y-171357142D01*
X171857142Y-146357142D02*
X170428571Y-146357142D01*
X170428571Y-143357142D01*
X173285714Y-146357142D02*
X173000000Y-146214285D01*
X172857142Y-146071428D01*
X172714285Y-145785714D01*
X172714285Y-144928571D01*
X172857142Y-144642857D01*
X173000000Y-144500000D01*
X173285714Y-144357142D01*
X173714285Y-144357142D01*
X174000000Y-144500000D01*
X174142857Y-144642857D01*
X174285714Y-144928571D01*
X174285714Y-145785714D01*
X174142857Y-146071428D01*
X174000000Y-146214285D01*
X173714285Y-146357142D01*
X173285714Y-146357142D01*
X176000000Y-146357142D02*
X175714285Y-146214285D01*
X175571428Y-146071428D01*
X175428571Y-145785714D01*
X175428571Y-144928571D01*
X175571428Y-144642857D01*
X175714285Y-144500000D01*
X176000000Y-144357142D01*
X176428571Y-144357142D01*
X176714285Y-144500000D01*
X176857142Y-144642857D01*
X177000000Y-144928571D01*
X177000000Y-145785714D01*
X176857142Y-146071428D01*
X176714285Y-146214285D01*
X176428571Y-146357142D01*
X176000000Y-146357142D01*
X178285714Y-144357142D02*
X178285714Y-147357142D01*
X178285714Y-144500000D02*
X178571428Y-144357142D01*
X179142857Y-144357142D01*
X179428571Y-144500000D01*
X179571428Y-144642857D01*
X179714285Y-144928571D01*
X179714285Y-145785714D01*
X179571428Y-146071428D01*
X179428571Y-146214285D01*
X179142857Y-146357142D01*
X178571428Y-146357142D01*
X178285714Y-146214285D01*
X149000000Y-196357142D02*
X150857142Y-196357142D01*
X149857142Y-197500000D01*
X150285714Y-197500000D01*
X150571428Y-197642857D01*
X150714285Y-197785714D01*
X150857142Y-198071428D01*
X150857142Y-198785714D01*
X150714285Y-199071428D01*
X150571428Y-199214285D01*
X150285714Y-199357142D01*
X149428571Y-199357142D01*
X149142857Y-199214285D01*
X149000000Y-199071428D01*
X286142857Y-72372142D02*
X286714285Y-72372142D01*
X287000000Y-72229285D01*
X287142857Y-72086428D01*
X287428571Y-71657857D01*
X287571428Y-71086428D01*
X287571428Y-69943571D01*
X287428571Y-69657857D01*
X287285714Y-69515000D01*
X287000000Y-69372142D01*
X286428571Y-69372142D01*
X286142857Y-69515000D01*
X286000000Y-69657857D01*
X285857142Y-69943571D01*
X285857142Y-70657857D01*
X286000000Y-70943571D01*
X286142857Y-71086428D01*
X286428571Y-71229285D01*
X287000000Y-71229285D01*
X287285714Y-71086428D01*
X287428571Y-70943571D01*
X287571428Y-70657857D01*
X288428571Y-69372142D02*
X289428571Y-72372142D01*
X290428571Y-69372142D01*
X173071428Y-197357142D02*
X173071428Y-199357142D01*
X172357142Y-196214285D02*
X171642857Y-198357142D01*
X173500000Y-198357142D01*
D15*
X106999999Y-224714285D02*
X107428571Y-224857142D01*
X108142857Y-224857142D01*
X108428571Y-224714285D01*
X108571428Y-224571428D01*
X108714285Y-224285714D01*
X108714285Y-224000000D01*
X108571428Y-223714285D01*
X108428571Y-223571428D01*
X108142857Y-223428571D01*
X107571428Y-223285714D01*
X107285714Y-223142857D01*
X107142857Y-223000000D01*
X106999999Y-222714285D01*
X106999999Y-222428571D01*
X107142857Y-222142857D01*
X107285714Y-222000000D01*
X107571428Y-221857142D01*
X108285714Y-221857142D01*
X108714285Y-222000000D01*
X110428571Y-224857142D02*
X110142857Y-224714285D01*
X109999999Y-224428571D01*
X109999999Y-221857142D01*
X111999999Y-224857142D02*
X111714285Y-224714285D01*
X111571428Y-224571428D01*
X111428571Y-224285714D01*
X111428571Y-223428571D01*
X111571428Y-223142857D01*
X111714285Y-223000000D01*
X111999999Y-222857142D01*
X112428571Y-222857142D01*
X112714285Y-223000000D01*
X112857142Y-223142857D01*
X112999999Y-223428571D01*
X112999999Y-224285714D01*
X112857142Y-224571428D01*
X112714285Y-224714285D01*
X112428571Y-224857142D01*
X111999999Y-224857142D01*
X115285714Y-223285714D02*
X115714285Y-223428571D01*
X115857142Y-223571428D01*
X115999999Y-223857142D01*
X115999999Y-224285714D01*
X115857142Y-224571428D01*
X115714285Y-224714285D01*
X115428571Y-224857142D01*
X114285714Y-224857142D01*
X114285714Y-221857142D01*
X115285714Y-221857142D01*
X115571428Y-222000000D01*
X115714285Y-222142857D01*
X115857142Y-222428571D01*
X115857142Y-222714285D01*
X115714285Y-223000000D01*
X115571428Y-223142857D01*
X115285714Y-223285714D01*
X114285714Y-223285714D01*
X117714285Y-224857142D02*
X117428571Y-224714285D01*
X117285714Y-224428571D01*
X117285714Y-221857142D01*
X119285714Y-224857142D02*
X118999999Y-224714285D01*
X118857142Y-224571428D01*
X118714285Y-224285714D01*
X118714285Y-223428571D01*
X118857142Y-223142857D01*
X118999999Y-223000000D01*
X119285714Y-222857142D01*
X119714285Y-222857142D01*
X119999999Y-223000000D01*
X120142857Y-223142857D01*
X120285714Y-223428571D01*
X120285714Y-224285714D01*
X120142857Y-224571428D01*
X119999999Y-224714285D01*
X119714285Y-224857142D01*
X119285714Y-224857142D01*
X125285714Y-224857142D02*
X123857142Y-224857142D01*
X123857142Y-221857142D01*
X127571428Y-224857142D02*
X127571428Y-223285714D01*
X127428571Y-223000000D01*
X127142857Y-222857142D01*
X126571428Y-222857142D01*
X126285714Y-223000000D01*
X127571428Y-224714285D02*
X127285714Y-224857142D01*
X126571428Y-224857142D01*
X126285714Y-224714285D01*
X126142857Y-224428571D01*
X126142857Y-224142857D01*
X126285714Y-223857142D01*
X126571428Y-223714285D01*
X127285714Y-223714285D01*
X127571428Y-223571428D01*
X128999999Y-224857142D02*
X128999999Y-221857142D01*
X128999999Y-223000000D02*
X129285714Y-222857142D01*
X129857142Y-222857142D01*
X130142857Y-223000000D01*
X130285714Y-223142857D01*
X130428571Y-223428571D01*
X130428571Y-224285714D01*
X130285714Y-224571428D01*
X130142857Y-224714285D01*
X129857142Y-224857142D01*
X129285714Y-224857142D01*
X128999999Y-224714285D01*
X131571428Y-224714285D02*
X131857142Y-224857142D01*
X132428571Y-224857142D01*
X132714285Y-224714285D01*
X132857142Y-224428571D01*
X132857142Y-224285714D01*
X132714285Y-224000000D01*
X132428571Y-223857142D01*
X131999999Y-223857142D01*
X131714285Y-223714285D01*
X131571428Y-223428571D01*
X131571428Y-223285714D01*
X131714285Y-223000000D01*
X131999999Y-222857142D01*
X132428571Y-222857142D01*
X132714285Y-223000000D01*
X136428571Y-223714285D02*
X138714285Y-223714285D01*
X143857142Y-224857142D02*
X142428571Y-224857142D01*
X142428571Y-221857142D01*
X144857142Y-224857142D02*
X144857142Y-222857142D01*
X144857142Y-221857142D02*
X144714285Y-222000000D01*
X144857142Y-222142857D01*
X145000000Y-222000000D01*
X144857142Y-221857142D01*
X144857142Y-222142857D01*
X145999999Y-222857142D02*
X146714285Y-224857142D01*
X147428571Y-222857142D01*
X150714285Y-224714285D02*
X151142857Y-224857142D01*
X151857142Y-224857142D01*
X152142857Y-224714285D01*
X152285714Y-224571428D01*
X152428571Y-224285714D01*
X152428571Y-224000000D01*
X152285714Y-223714285D01*
X152142857Y-223571428D01*
X151857142Y-223428571D01*
X151285714Y-223285714D01*
X150999999Y-223142857D01*
X150857142Y-223000000D01*
X150714285Y-222714285D01*
X150714285Y-222428571D01*
X150857142Y-222142857D01*
X150999999Y-222000000D01*
X151285714Y-221857142D01*
X151999999Y-221857142D01*
X152428571Y-222000000D01*
X153428571Y-222857142D02*
X154142857Y-224857142D01*
X154857142Y-222857142D02*
X154142857Y-224857142D01*
X153857142Y-225571428D01*
X153714285Y-225714285D01*
X153428571Y-225857142D01*
X155999999Y-222857142D02*
X155999999Y-224857142D01*
X155999999Y-223142857D02*
X156142857Y-223000000D01*
X156428571Y-222857142D01*
X156857142Y-222857142D01*
X157142857Y-223000000D01*
X157285714Y-223285714D01*
X157285714Y-224857142D01*
X158285714Y-222857142D02*
X159428571Y-222857142D01*
X158714285Y-221857142D02*
X158714285Y-224428571D01*
X158857142Y-224714285D01*
X159142857Y-224857142D01*
X159428571Y-224857142D01*
X160428571Y-224857142D02*
X160428571Y-221857142D01*
X161714285Y-224857142D02*
X161714285Y-223285714D01*
X161571428Y-223000000D01*
X161285714Y-222857142D01*
X160857142Y-222857142D01*
X160571428Y-223000000D01*
X160428571Y-223142857D01*
X165999999Y-221857142D02*
X166285714Y-221857142D01*
X166571428Y-222000000D01*
X166714285Y-222142857D01*
X166857142Y-222428571D01*
X166999999Y-223000000D01*
X166999999Y-223714285D01*
X166857142Y-224285714D01*
X166714285Y-224571428D01*
X166571428Y-224714285D01*
X166285714Y-224857142D01*
X165999999Y-224857142D01*
X165714285Y-224714285D01*
X165571428Y-224571428D01*
X165428571Y-224285714D01*
X165285714Y-223714285D01*
X165285714Y-223000000D01*
X165428571Y-222428571D01*
X165571428Y-222142857D01*
X165714285Y-222000000D01*
X165999999Y-221857142D01*
X167999999Y-222857142D02*
X168714285Y-224857142D01*
X169428571Y-222857142D01*
X171142857Y-221857142D02*
X171428571Y-221857142D01*
X171714285Y-222000000D01*
X171857142Y-222142857D01*
X171999999Y-222428571D01*
X172142857Y-223000000D01*
X172142857Y-223714285D01*
X171999999Y-224285714D01*
X171857142Y-224571428D01*
X171714285Y-224714285D01*
X171428571Y-224857142D01*
X171142857Y-224857142D01*
X170857142Y-224714285D01*
X170714285Y-224571428D01*
X170571428Y-224285714D01*
X170428571Y-223714285D01*
X170428571Y-223000000D01*
X170571428Y-222428571D01*
X170714285Y-222142857D01*
X170857142Y-222000000D01*
X171142857Y-221857142D01*
X175000000Y-224857142D02*
X173285714Y-224857142D01*
X174142857Y-224857142D02*
X174142857Y-221857142D01*
X173857142Y-222285714D01*
X173571428Y-222571428D01*
X173285714Y-222714285D01*
D10*
X83650238Y-173964285D02*
X83602619Y-174107142D01*
X83602619Y-174345238D01*
X83650238Y-174440476D01*
X83697857Y-174488095D01*
X83793095Y-174535714D01*
X83888333Y-174535714D01*
X83983571Y-174488095D01*
X84031190Y-174440476D01*
X84078809Y-174345238D01*
X84126428Y-174154761D01*
X84174047Y-174059523D01*
X84221666Y-174011904D01*
X84316904Y-173964285D01*
X84412142Y-173964285D01*
X84507380Y-174011904D01*
X84555000Y-174059523D01*
X84602619Y-174154761D01*
X84602619Y-174392857D01*
X84555000Y-174535714D01*
X83888333Y-174916666D02*
X83888333Y-175392857D01*
X83602619Y-174821428D02*
X84602619Y-175154761D01*
X83602619Y-175488095D01*
X84602619Y-175726190D02*
X83602619Y-175964285D01*
X84316904Y-176154761D01*
X83602619Y-176345238D01*
X84602619Y-176583333D01*
X82992619Y-173464285D02*
X82992619Y-173654761D01*
X82945000Y-173750000D01*
X82849761Y-173845238D01*
X82659285Y-173892857D01*
X82325952Y-173892857D01*
X82135476Y-173845238D01*
X82040238Y-173750000D01*
X81992619Y-173654761D01*
X81992619Y-173464285D01*
X82040238Y-173369047D01*
X82135476Y-173273809D01*
X82325952Y-173226190D01*
X82659285Y-173226190D01*
X82849761Y-173273809D01*
X82945000Y-173369047D01*
X82992619Y-173464285D01*
X82659285Y-174178571D02*
X82659285Y-174559523D01*
X81992619Y-174321428D02*
X82849761Y-174321428D01*
X82945000Y-174369047D01*
X82992619Y-174464285D01*
X82992619Y-174559523D01*
X82659285Y-174750000D02*
X82659285Y-175130952D01*
X81992619Y-174892857D02*
X82849761Y-174892857D01*
X82945000Y-174940476D01*
X82992619Y-175035714D01*
X82992619Y-175130952D01*
X82040238Y-175416666D02*
X81992619Y-175511904D01*
X81992619Y-175702380D01*
X82040238Y-175797619D01*
X82135476Y-175845238D01*
X82183095Y-175845238D01*
X82278333Y-175797619D01*
X82325952Y-175702380D01*
X82325952Y-175559523D01*
X82373571Y-175464285D01*
X82468809Y-175416666D01*
X82516428Y-175416666D01*
X82611666Y-175464285D01*
X82659285Y-175559523D01*
X82659285Y-175702380D01*
X82611666Y-175797619D01*
X82040238Y-176654761D02*
X81992619Y-176559523D01*
X81992619Y-176369047D01*
X82040238Y-176273809D01*
X82135476Y-176226190D01*
X82516428Y-176226190D01*
X82611666Y-176273809D01*
X82659285Y-176369047D01*
X82659285Y-176559523D01*
X82611666Y-176654761D01*
X82516428Y-176702380D01*
X82421190Y-176702380D01*
X82325952Y-176226190D01*
X82659285Y-176988095D02*
X82659285Y-177369047D01*
X82992619Y-177130952D02*
X82135476Y-177130952D01*
X82040238Y-177178571D01*
X81992619Y-177273809D01*
X81992619Y-177369047D01*
D13*
X138071428Y-171357142D02*
X136642857Y-171357142D01*
X136642857Y-168357142D01*
X140071428Y-169785714D02*
X139071428Y-169785714D01*
X139071428Y-171357142D02*
X139071428Y-168357142D01*
X140500000Y-168357142D01*
X142214285Y-168357142D02*
X142785714Y-168357142D01*
X143071428Y-168500000D01*
X143357142Y-168785714D01*
X143500000Y-169357142D01*
X143500000Y-170357142D01*
X143357142Y-170928571D01*
X143071428Y-171214285D01*
X142785714Y-171357142D01*
X142214285Y-171357142D01*
X141928571Y-171214285D01*
X141642857Y-170928571D01*
X141500000Y-170357142D01*
X141500000Y-169357142D01*
X141642857Y-168785714D01*
X141928571Y-168500000D01*
X142214285Y-168357142D01*
X135642857Y-86071428D02*
X135500000Y-86214285D01*
X135071428Y-86357142D01*
X134785714Y-86357142D01*
X134357142Y-86214285D01*
X134071428Y-85928571D01*
X133928571Y-85642857D01*
X133785714Y-85071428D01*
X133785714Y-84642857D01*
X133928571Y-84071428D01*
X134071428Y-83785714D01*
X134357142Y-83500000D01*
X134785714Y-83357142D01*
X135071428Y-83357142D01*
X135500000Y-83500000D01*
X135642857Y-83642857D01*
X138214285Y-84357142D02*
X138214285Y-86357142D01*
X136928571Y-84357142D02*
X136928571Y-85928571D01*
X137071428Y-86214285D01*
X137357142Y-86357142D01*
X137785714Y-86357142D01*
X138071428Y-86214285D01*
X138214285Y-86071428D01*
X139214285Y-84357142D02*
X140357142Y-84357142D01*
X139642857Y-83357142D02*
X139642857Y-85928571D01*
X139785714Y-86214285D01*
X140071428Y-86357142D01*
X140357142Y-86357142D01*
X141785714Y-86357142D02*
X141500000Y-86214285D01*
X141357142Y-86071428D01*
X141214285Y-85785714D01*
X141214285Y-84928571D01*
X141357142Y-84642857D01*
X141500000Y-84500000D01*
X141785714Y-84357142D01*
X142214285Y-84357142D01*
X142500000Y-84500000D01*
X142642857Y-84642857D01*
X142785714Y-84928571D01*
X142785714Y-85785714D01*
X142642857Y-86071428D01*
X142500000Y-86214285D01*
X142214285Y-86357142D01*
X141785714Y-86357142D01*
X143642857Y-84357142D02*
X144785714Y-84357142D01*
X144071428Y-86357142D02*
X144071428Y-83785714D01*
X144214285Y-83500000D01*
X144500000Y-83357142D01*
X144785714Y-83357142D01*
X145357142Y-84357142D02*
X146500000Y-84357142D01*
X145785714Y-86357142D02*
X145785714Y-83785714D01*
X145928571Y-83500000D01*
X146214285Y-83357142D01*
X146500000Y-83357142D01*
X101214285Y-119229285D02*
X101642857Y-119372142D01*
X102357142Y-119372142D01*
X102642857Y-119229285D01*
X102785714Y-119086428D01*
X102928571Y-118800714D01*
X102928571Y-118515000D01*
X102785714Y-118229285D01*
X102642857Y-118086428D01*
X102357142Y-117943571D01*
X101785714Y-117800714D01*
X101500000Y-117657857D01*
X101357142Y-117515000D01*
X101214285Y-117229285D01*
X101214285Y-116943571D01*
X101357142Y-116657857D01*
X101500000Y-116515000D01*
X101785714Y-116372142D01*
X102500000Y-116372142D01*
X102928571Y-116515000D01*
X105500000Y-119372142D02*
X105500000Y-117800714D01*
X105357142Y-117515000D01*
X105071428Y-117372142D01*
X104500000Y-117372142D01*
X104214285Y-117515000D01*
X105500000Y-119229285D02*
X105214285Y-119372142D01*
X104500000Y-119372142D01*
X104214285Y-119229285D01*
X104071428Y-118943571D01*
X104071428Y-118657857D01*
X104214285Y-118372142D01*
X104500000Y-118229285D01*
X105214285Y-118229285D01*
X105500000Y-118086428D01*
X106642857Y-117372142D02*
X107214285Y-119372142D01*
X107785714Y-117943571D01*
X108357142Y-119372142D01*
X108928571Y-117372142D01*
X105857142Y-199357142D02*
X104142857Y-199357142D01*
X105000000Y-199357142D02*
X105000000Y-196357142D01*
X104714285Y-196785714D01*
X104428571Y-197071428D01*
X104142857Y-197214285D01*
X205500000Y-171964285D02*
X205928571Y-172107142D01*
X206642857Y-172107142D01*
X206928571Y-171964285D01*
X207071428Y-171821428D01*
X207214285Y-171535714D01*
X207214285Y-171250000D01*
X207071428Y-170964285D01*
X206928571Y-170821428D01*
X206642857Y-170678571D01*
X206071428Y-170535714D01*
X205785714Y-170392857D01*
X205642857Y-170250000D01*
X205500000Y-169964285D01*
X205500000Y-169678571D01*
X205642857Y-169392857D01*
X205785714Y-169250000D01*
X206071428Y-169107142D01*
X206785714Y-169107142D01*
X207214285Y-169250000D01*
X208928571Y-172107142D02*
X208642857Y-171964285D01*
X208500000Y-171678571D01*
X208500000Y-169107142D01*
X211214285Y-171964285D02*
X210928571Y-172107142D01*
X210357142Y-172107142D01*
X210071428Y-171964285D01*
X209928571Y-171678571D01*
X209928571Y-170535714D01*
X210071428Y-170250000D01*
X210357142Y-170107142D01*
X210928571Y-170107142D01*
X211214285Y-170250000D01*
X211357142Y-170535714D01*
X211357142Y-170821428D01*
X209928571Y-171107142D01*
X212357142Y-170107142D02*
X212928571Y-172107142D01*
X213500000Y-170678571D01*
X214071428Y-172107142D01*
X214642857Y-170107142D01*
X117071428Y-87800714D02*
X116071428Y-87800714D01*
X116071428Y-89372142D02*
X116071428Y-86372142D01*
X117500000Y-86372142D01*
X118642857Y-89372142D02*
X118642857Y-87372142D01*
X118642857Y-86372142D02*
X118500000Y-86515000D01*
X118642857Y-86657857D01*
X118785714Y-86515000D01*
X118642857Y-86372142D01*
X118642857Y-86657857D01*
X120071428Y-87372142D02*
X120071428Y-89372142D01*
X120071428Y-87657857D02*
X120214285Y-87515000D01*
X120500000Y-87372142D01*
X120928571Y-87372142D01*
X121214285Y-87515000D01*
X121357142Y-87800714D01*
X121357142Y-89372142D01*
X123928571Y-89229285D02*
X123642857Y-89372142D01*
X123071428Y-89372142D01*
X122785714Y-89229285D01*
X122642857Y-88943571D01*
X122642857Y-87800714D01*
X122785714Y-87515000D01*
X123071428Y-87372142D01*
X123642857Y-87372142D01*
X123928571Y-87515000D01*
X124071428Y-87800714D01*
X124071428Y-88086428D01*
X122642857Y-88372142D01*
X103071428Y-171357142D02*
X101642857Y-171357142D01*
X101642857Y-168357142D01*
X105071428Y-169785714D02*
X104071428Y-169785714D01*
X104071428Y-171357142D02*
X104071428Y-168357142D01*
X105500000Y-168357142D01*
X107214285Y-168357142D02*
X107785714Y-168357142D01*
X108071428Y-168500000D01*
X108357142Y-168785714D01*
X108500000Y-169357142D01*
X108500000Y-170357142D01*
X108357142Y-170928571D01*
X108071428Y-171214285D01*
X107785714Y-171357142D01*
X107214285Y-171357142D01*
X106928571Y-171214285D01*
X106642857Y-170928571D01*
X106500000Y-170357142D01*
X106500000Y-169357142D01*
X106642857Y-168785714D01*
X106928571Y-168500000D01*
X107214285Y-168357142D01*
X218071428Y-196357142D02*
X217500000Y-196357142D01*
X217214285Y-196500000D01*
X217071428Y-196642857D01*
X216785714Y-197071428D01*
X216642857Y-197642857D01*
X216642857Y-198785714D01*
X216785714Y-199071428D01*
X216928571Y-199214285D01*
X217214285Y-199357142D01*
X217785714Y-199357142D01*
X218071428Y-199214285D01*
X218214285Y-199071428D01*
X218357142Y-198785714D01*
X218357142Y-198071428D01*
X218214285Y-197785714D01*
X218071428Y-197642857D01*
X217785714Y-197500000D01*
X217214285Y-197500000D01*
X216928571Y-197642857D01*
X216785714Y-197785714D01*
X216642857Y-198071428D01*
X168714285Y-85500000D02*
X170142857Y-85500000D01*
X168428571Y-86357142D02*
X169428571Y-83357142D01*
X170428571Y-86357142D01*
X171000000Y-84357142D02*
X172142857Y-84357142D01*
X171428571Y-83357142D02*
X171428571Y-85928571D01*
X171571428Y-86214285D01*
X171857142Y-86357142D01*
X172142857Y-86357142D01*
X172714285Y-84357142D02*
X173857142Y-84357142D01*
X173142857Y-83357142D02*
X173142857Y-85928571D01*
X173285714Y-86214285D01*
X173571428Y-86357142D01*
X173857142Y-86357142D01*
X176142857Y-86357142D02*
X176142857Y-84785714D01*
X176000000Y-84500000D01*
X175714285Y-84357142D01*
X175142857Y-84357142D01*
X174857142Y-84500000D01*
X176142857Y-86214285D02*
X175857142Y-86357142D01*
X175142857Y-86357142D01*
X174857142Y-86214285D01*
X174714285Y-85928571D01*
X174714285Y-85642857D01*
X174857142Y-85357142D01*
X175142857Y-85214285D01*
X175857142Y-85214285D01*
X176142857Y-85071428D01*
X178857142Y-86214285D02*
X178571428Y-86357142D01*
X178000000Y-86357142D01*
X177714285Y-86214285D01*
X177571428Y-86071428D01*
X177428571Y-85785714D01*
X177428571Y-84928571D01*
X177571428Y-84642857D01*
X177714285Y-84500000D01*
X178000000Y-84357142D01*
X178571428Y-84357142D01*
X178857142Y-84500000D01*
X180142857Y-86357142D02*
X180142857Y-83357142D01*
X180428571Y-85214285D02*
X181285714Y-86357142D01*
X181285714Y-84357142D02*
X180142857Y-85500000D01*
X169142857Y-116357142D02*
X169142857Y-113357142D01*
X169857142Y-113357142D01*
X170285714Y-113500000D01*
X170571428Y-113785714D01*
X170714285Y-114071428D01*
X170857142Y-114642857D01*
X170857142Y-115071428D01*
X170714285Y-115642857D01*
X170571428Y-115928571D01*
X170285714Y-116214285D01*
X169857142Y-116357142D01*
X169142857Y-116357142D01*
X173285714Y-116214285D02*
X173000000Y-116357142D01*
X172428571Y-116357142D01*
X172142857Y-116214285D01*
X172000000Y-115928571D01*
X172000000Y-114785714D01*
X172142857Y-114500000D01*
X172428571Y-114357142D01*
X173000000Y-114357142D01*
X173285714Y-114500000D01*
X173428571Y-114785714D01*
X173428571Y-115071428D01*
X172000000Y-115357142D01*
X176000000Y-116214285D02*
X175714285Y-116357142D01*
X175142857Y-116357142D01*
X174857142Y-116214285D01*
X174714285Y-116071428D01*
X174571428Y-115785714D01*
X174571428Y-114928571D01*
X174714285Y-114642857D01*
X174857142Y-114500000D01*
X175142857Y-114357142D01*
X175714285Y-114357142D01*
X176000000Y-114500000D01*
X178571428Y-116357142D02*
X178571428Y-114785714D01*
X178428571Y-114500000D01*
X178142857Y-114357142D01*
X177571428Y-114357142D01*
X177285714Y-114500000D01*
X178571428Y-116214285D02*
X178285714Y-116357142D01*
X177571428Y-116357142D01*
X177285714Y-116214285D01*
X177142857Y-115928571D01*
X177142857Y-115642857D01*
X177285714Y-115357142D01*
X177571428Y-115214285D01*
X178285714Y-115214285D01*
X178571428Y-115071428D01*
X179714285Y-114357142D02*
X180428571Y-116357142D01*
X181142857Y-114357142D02*
X180428571Y-116357142D01*
X180142857Y-117071428D01*
X180000000Y-117214285D01*
X179714285Y-117357142D01*
D10*
X83797619Y-150226190D02*
X83797619Y-150797619D01*
X82797619Y-150511904D02*
X83797619Y-150511904D01*
X82797619Y-151130952D02*
X83464285Y-151130952D01*
X83273809Y-151130952D02*
X83369047Y-151178571D01*
X83416666Y-151226190D01*
X83464285Y-151321428D01*
X83464285Y-151416666D01*
X82797619Y-152178571D02*
X83321428Y-152178571D01*
X83416666Y-152130952D01*
X83464285Y-152035714D01*
X83464285Y-151845238D01*
X83416666Y-151750000D01*
X82845238Y-152178571D02*
X82797619Y-152083333D01*
X82797619Y-151845238D01*
X82845238Y-151750000D01*
X82940476Y-151702380D01*
X83035714Y-151702380D01*
X83130952Y-151750000D01*
X83178571Y-151845238D01*
X83178571Y-152083333D01*
X83226190Y-152178571D01*
X82845238Y-153083333D02*
X82797619Y-152988095D01*
X82797619Y-152797619D01*
X82845238Y-152702380D01*
X82892857Y-152654761D01*
X82988095Y-152607142D01*
X83273809Y-152607142D01*
X83369047Y-152654761D01*
X83416666Y-152702380D01*
X83464285Y-152797619D01*
X83464285Y-152988095D01*
X83416666Y-153083333D01*
X82797619Y-153511904D02*
X83797619Y-153511904D01*
X83178571Y-153607142D02*
X82797619Y-153892857D01*
X83464285Y-153892857D02*
X83083333Y-153511904D01*
X82797619Y-154321428D02*
X83464285Y-154321428D01*
X83797619Y-154321428D02*
X83750000Y-154273809D01*
X83702380Y-154321428D01*
X83750000Y-154369047D01*
X83797619Y-154321428D01*
X83702380Y-154321428D01*
X83464285Y-154797619D02*
X82797619Y-154797619D01*
X83369047Y-154797619D02*
X83416666Y-154845238D01*
X83464285Y-154940476D01*
X83464285Y-155083333D01*
X83416666Y-155178571D01*
X83321428Y-155226190D01*
X82797619Y-155226190D01*
X83464285Y-156130952D02*
X82654761Y-156130952D01*
X82559523Y-156083333D01*
X82511904Y-156035714D01*
X82464285Y-155940476D01*
X82464285Y-155797619D01*
X82511904Y-155702380D01*
X82845238Y-156130952D02*
X82797619Y-156035714D01*
X82797619Y-155845238D01*
X82845238Y-155750000D01*
X82892857Y-155702380D01*
X82988095Y-155654761D01*
X83273809Y-155654761D01*
X83369047Y-155702380D01*
X83416666Y-155750000D01*
X83464285Y-155845238D01*
X83464285Y-156035714D01*
X83416666Y-156130952D01*
D13*
X238071428Y-166357142D02*
X236642857Y-166357142D01*
X236642857Y-163357142D01*
X240071428Y-164785714D02*
X239071428Y-164785714D01*
X239071428Y-166357142D02*
X239071428Y-163357142D01*
X240500000Y-163357142D01*
X242214285Y-163357142D02*
X242785714Y-163357142D01*
X243071428Y-163500000D01*
X243357142Y-163785714D01*
X243500000Y-164357142D01*
X243500000Y-165357142D01*
X243357142Y-165928571D01*
X243071428Y-166214285D01*
X242785714Y-166357142D01*
X242214285Y-166357142D01*
X241928571Y-166214285D01*
X241642857Y-165928571D01*
X241500000Y-165357142D01*
X241500000Y-164357142D01*
X241642857Y-163785714D01*
X241928571Y-163500000D01*
X242214285Y-163357142D01*
X126642857Y-196642857D02*
X126785714Y-196500000D01*
X127071428Y-196357142D01*
X127785714Y-196357142D01*
X128071428Y-196500000D01*
X128214285Y-196642857D01*
X128357142Y-196928571D01*
X128357142Y-197214285D01*
X128214285Y-197642857D01*
X126500000Y-199357142D01*
X128357142Y-199357142D01*
X100142857Y-83357142D02*
X101857142Y-83357142D01*
X101000000Y-86357142D02*
X101000000Y-83357142D01*
X104142857Y-84357142D02*
X104142857Y-86357142D01*
X102857142Y-84357142D02*
X102857142Y-85928571D01*
X103000000Y-86214285D01*
X103285714Y-86357142D01*
X103714285Y-86357142D01*
X104000000Y-86214285D01*
X104142857Y-86071428D01*
X105571428Y-84357142D02*
X105571428Y-86357142D01*
X105571428Y-84642857D02*
X105714285Y-84500000D01*
X106000000Y-84357142D01*
X106428571Y-84357142D01*
X106714285Y-84500000D01*
X106857142Y-84785714D01*
X106857142Y-86357142D01*
X109428571Y-86214285D02*
X109142857Y-86357142D01*
X108571428Y-86357142D01*
X108285714Y-86214285D01*
X108142857Y-85928571D01*
X108142857Y-84785714D01*
X108285714Y-84500000D01*
X108571428Y-84357142D01*
X109142857Y-84357142D01*
X109428571Y-84500000D01*
X109571428Y-84785714D01*
X109571428Y-85071428D01*
X108142857Y-85357142D01*
X272285714Y-86357142D02*
X271285714Y-84928571D01*
X270571428Y-86357142D02*
X270571428Y-83357142D01*
X271714285Y-83357142D01*
X272000000Y-83500000D01*
X272142857Y-83642857D01*
X272285714Y-83928571D01*
X272285714Y-84357142D01*
X272142857Y-84642857D01*
X272000000Y-84785714D01*
X271714285Y-84928571D01*
X270571428Y-84928571D01*
X274714285Y-86214285D02*
X274428571Y-86357142D01*
X273857142Y-86357142D01*
X273571428Y-86214285D01*
X273428571Y-85928571D01*
X273428571Y-84785714D01*
X273571428Y-84500000D01*
X273857142Y-84357142D01*
X274428571Y-84357142D01*
X274714285Y-84500000D01*
X274857142Y-84785714D01*
X274857142Y-85071428D01*
X273428571Y-85357142D01*
X276000000Y-86214285D02*
X276285714Y-86357142D01*
X276857142Y-86357142D01*
X277142857Y-86214285D01*
X277285714Y-85928571D01*
X277285714Y-85785714D01*
X277142857Y-85500000D01*
X276857142Y-85357142D01*
X276428571Y-85357142D01*
X276142857Y-85214285D01*
X276000000Y-84928571D01*
X276000000Y-84785714D01*
X276142857Y-84500000D01*
X276428571Y-84357142D01*
X276857142Y-84357142D01*
X277142857Y-84500000D01*
X279714285Y-86214285D02*
X279428571Y-86357142D01*
X278857142Y-86357142D01*
X278571428Y-86214285D01*
X278428571Y-85928571D01*
X278428571Y-84785714D01*
X278571428Y-84500000D01*
X278857142Y-84357142D01*
X279428571Y-84357142D01*
X279714285Y-84500000D01*
X279857142Y-84785714D01*
X279857142Y-85071428D01*
X278428571Y-85357142D01*
X280714285Y-84357142D02*
X281857142Y-84357142D01*
X281142857Y-83357142D02*
X281142857Y-85928571D01*
X281285714Y-86214285D01*
X281571428Y-86357142D01*
X281857142Y-86357142D01*
X202857142Y-166214285D02*
X203285714Y-166357142D01*
X204000000Y-166357142D01*
X204285714Y-166214285D01*
X204428571Y-166071428D01*
X204571428Y-165785714D01*
X204571428Y-165500000D01*
X204428571Y-165214285D01*
X204285714Y-165071428D01*
X204000000Y-164928571D01*
X203428571Y-164785714D01*
X203142857Y-164642857D01*
X203000000Y-164500000D01*
X202857142Y-164214285D01*
X202857142Y-163928571D01*
X203000000Y-163642857D01*
X203142857Y-163500000D01*
X203428571Y-163357142D01*
X204142857Y-163357142D01*
X204571428Y-163500000D01*
X207142857Y-164357142D02*
X207142857Y-167357142D01*
X207142857Y-166214285D02*
X206857142Y-166357142D01*
X206285714Y-166357142D01*
X206000000Y-166214285D01*
X205857142Y-166071428D01*
X205714285Y-165785714D01*
X205714285Y-164928571D01*
X205857142Y-164642857D01*
X206000000Y-164500000D01*
X206285714Y-164357142D01*
X206857142Y-164357142D01*
X207142857Y-164500000D01*
X209857142Y-164357142D02*
X209857142Y-166357142D01*
X208571428Y-164357142D02*
X208571428Y-165928571D01*
X208714285Y-166214285D01*
X209000000Y-166357142D01*
X209428571Y-166357142D01*
X209714285Y-166214285D01*
X209857142Y-166071428D01*
X212571428Y-166357142D02*
X212571428Y-164785714D01*
X212428571Y-164500000D01*
X212142857Y-164357142D01*
X211571428Y-164357142D01*
X211285714Y-164500000D01*
X212571428Y-166214285D02*
X212285714Y-166357142D01*
X211571428Y-166357142D01*
X211285714Y-166214285D01*
X211142857Y-165928571D01*
X211142857Y-165642857D01*
X211285714Y-165357142D01*
X211571428Y-165214285D01*
X212285714Y-165214285D01*
X212571428Y-165071428D01*
X214000000Y-166357142D02*
X214000000Y-164357142D01*
X214000000Y-164928571D02*
X214142857Y-164642857D01*
X214285714Y-164500000D01*
X214571428Y-164357142D01*
X214857142Y-164357142D01*
X217000000Y-166214285D02*
X216714285Y-166357142D01*
X216142857Y-166357142D01*
X215857142Y-166214285D01*
X215714285Y-165928571D01*
X215714285Y-164785714D01*
X215857142Y-164500000D01*
X216142857Y-164357142D01*
X216714285Y-164357142D01*
X217000000Y-164500000D01*
X217142857Y-164785714D01*
X217142857Y-165071428D01*
X215714285Y-165357142D01*
X232214285Y-83357142D02*
X233214285Y-86357142D01*
X234214285Y-83357142D01*
X235642857Y-86357142D02*
X235357142Y-86214285D01*
X235214285Y-86071428D01*
X235071428Y-85785714D01*
X235071428Y-84928571D01*
X235214285Y-84642857D01*
X235357142Y-84500000D01*
X235642857Y-84357142D01*
X236071428Y-84357142D01*
X236357142Y-84500000D01*
X236500000Y-84642857D01*
X236642857Y-84928571D01*
X236642857Y-85785714D01*
X236500000Y-86071428D01*
X236357142Y-86214285D01*
X236071428Y-86357142D01*
X235642857Y-86357142D01*
X238357142Y-86357142D02*
X238071428Y-86214285D01*
X237928571Y-85928571D01*
X237928571Y-83357142D01*
X240785714Y-84357142D02*
X240785714Y-86357142D01*
X239500000Y-84357142D02*
X239500000Y-85928571D01*
X239642857Y-86214285D01*
X239928571Y-86357142D01*
X240357142Y-86357142D01*
X240642857Y-86214285D01*
X240785714Y-86071428D01*
X242214285Y-86357142D02*
X242214285Y-84357142D01*
X242214285Y-84642857D02*
X242357142Y-84500000D01*
X242642857Y-84357142D01*
X243071428Y-84357142D01*
X243357142Y-84500000D01*
X243500000Y-84785714D01*
X243500000Y-86357142D01*
X243500000Y-84785714D02*
X243642857Y-84500000D01*
X243928571Y-84357142D01*
X244357142Y-84357142D01*
X244642857Y-84500000D01*
X244785714Y-84785714D01*
X244785714Y-86357142D01*
X247357142Y-86214285D02*
X247071428Y-86357142D01*
X246500000Y-86357142D01*
X246214285Y-86214285D01*
X246071428Y-85928571D01*
X246071428Y-84785714D01*
X246214285Y-84500000D01*
X246500000Y-84357142D01*
X247071428Y-84357142D01*
X247357142Y-84500000D01*
X247500000Y-84785714D01*
X247500000Y-85071428D01*
X246071428Y-85357142D01*
X232357142Y-170500000D02*
X233785714Y-170500000D01*
X232071428Y-171357142D02*
X233071428Y-168357142D01*
X234071428Y-171357142D01*
X235071428Y-171357142D02*
X235071428Y-169357142D01*
X235071428Y-169642857D02*
X235214285Y-169500000D01*
X235500000Y-169357142D01*
X235928571Y-169357142D01*
X236214285Y-169500000D01*
X236357142Y-169785714D01*
X236357142Y-171357142D01*
X236357142Y-169785714D02*
X236500000Y-169500000D01*
X236785714Y-169357142D01*
X237214285Y-169357142D01*
X237500000Y-169500000D01*
X237642857Y-169785714D01*
X237642857Y-171357142D01*
X239500000Y-171357142D02*
X239214285Y-171214285D01*
X239071428Y-171071428D01*
X238928571Y-170785714D01*
X238928571Y-169928571D01*
X239071428Y-169642857D01*
X239214285Y-169500000D01*
X239500000Y-169357142D01*
X239928571Y-169357142D01*
X240214285Y-169500000D01*
X240357142Y-169642857D01*
X240500000Y-169928571D01*
X240500000Y-170785714D01*
X240357142Y-171071428D01*
X240214285Y-171214285D01*
X239928571Y-171357142D01*
X239500000Y-171357142D01*
X243071428Y-169357142D02*
X243071428Y-171357142D01*
X241785714Y-169357142D02*
X241785714Y-170928571D01*
X241928571Y-171214285D01*
X242214285Y-171357142D01*
X242642857Y-171357142D01*
X242928571Y-171214285D01*
X243071428Y-171071428D01*
X244500000Y-169357142D02*
X244500000Y-171357142D01*
X244500000Y-169642857D02*
X244642857Y-169500000D01*
X244928571Y-169357142D01*
X245357142Y-169357142D01*
X245642857Y-169500000D01*
X245785714Y-169785714D01*
X245785714Y-171357142D01*
X246785714Y-169357142D02*
X247928571Y-169357142D01*
X247214285Y-168357142D02*
X247214285Y-170928571D01*
X247357142Y-171214285D01*
X247642857Y-171357142D01*
X247928571Y-171357142D01*
D10*
X83650238Y-162964285D02*
X83602619Y-163107142D01*
X83602619Y-163345238D01*
X83650238Y-163440476D01*
X83697857Y-163488095D01*
X83793095Y-163535714D01*
X83888333Y-163535714D01*
X83983571Y-163488095D01*
X84031190Y-163440476D01*
X84078809Y-163345238D01*
X84126428Y-163154761D01*
X84174047Y-163059523D01*
X84221666Y-163011904D01*
X84316904Y-162964285D01*
X84412142Y-162964285D01*
X84507380Y-163011904D01*
X84555000Y-163059523D01*
X84602619Y-163154761D01*
X84602619Y-163392857D01*
X84555000Y-163535714D01*
X83888333Y-163916666D02*
X83888333Y-164392857D01*
X83602619Y-163821428D02*
X84602619Y-164154761D01*
X83602619Y-164488095D01*
X84602619Y-164726190D02*
X83602619Y-164964285D01*
X84316904Y-165154761D01*
X83602619Y-165345238D01*
X84602619Y-165583333D01*
X82278333Y-160773809D02*
X82278333Y-161250000D01*
X81992619Y-160678571D02*
X82992619Y-161011904D01*
X81992619Y-161345238D01*
X81992619Y-161678571D02*
X82659285Y-161678571D01*
X82564047Y-161678571D02*
X82611666Y-161726190D01*
X82659285Y-161821428D01*
X82659285Y-161964285D01*
X82611666Y-162059523D01*
X82516428Y-162107142D01*
X81992619Y-162107142D01*
X82516428Y-162107142D02*
X82611666Y-162154761D01*
X82659285Y-162250000D01*
X82659285Y-162392857D01*
X82611666Y-162488095D01*
X82516428Y-162535714D01*
X81992619Y-162535714D01*
X82659285Y-163011904D02*
X81659285Y-163011904D01*
X82611666Y-163011904D02*
X82659285Y-163107142D01*
X82659285Y-163297619D01*
X82611666Y-163392857D01*
X82564047Y-163440476D01*
X82468809Y-163488095D01*
X82183095Y-163488095D01*
X82087857Y-163440476D01*
X82040238Y-163392857D01*
X81992619Y-163297619D01*
X81992619Y-163107142D01*
X82040238Y-163011904D01*
X81992619Y-164059523D02*
X82040238Y-163964285D01*
X82135476Y-163916666D01*
X82992619Y-163916666D01*
X81992619Y-164440476D02*
X82659285Y-164440476D01*
X82992619Y-164440476D02*
X82945000Y-164392857D01*
X82897380Y-164440476D01*
X82945000Y-164488095D01*
X82992619Y-164440476D01*
X82897380Y-164440476D01*
X82659285Y-164773809D02*
X82659285Y-165154761D01*
X82992619Y-164916666D02*
X82135476Y-164916666D01*
X82040238Y-164964285D01*
X81992619Y-165059523D01*
X81992619Y-165154761D01*
X82659285Y-165916666D02*
X81992619Y-165916666D01*
X82659285Y-165488095D02*
X82135476Y-165488095D01*
X82040238Y-165535714D01*
X81992619Y-165630952D01*
X81992619Y-165773809D01*
X82040238Y-165869047D01*
X82087857Y-165916666D01*
X81992619Y-166821428D02*
X82992619Y-166821428D01*
X82040238Y-166821428D02*
X81992619Y-166726190D01*
X81992619Y-166535714D01*
X82040238Y-166440476D01*
X82087857Y-166392857D01*
X82183095Y-166345238D01*
X82468809Y-166345238D01*
X82564047Y-166392857D01*
X82611666Y-166440476D01*
X82659285Y-166535714D01*
X82659285Y-166726190D01*
X82611666Y-166821428D01*
X82040238Y-167678571D02*
X81992619Y-167583333D01*
X81992619Y-167392857D01*
X82040238Y-167297619D01*
X82135476Y-167250000D01*
X82516428Y-167250000D01*
X82611666Y-167297619D01*
X82659285Y-167392857D01*
X82659285Y-167583333D01*
X82611666Y-167678571D01*
X82516428Y-167726190D01*
X82421190Y-167726190D01*
X82325952Y-167250000D01*
D14*
X171428571Y-77657857D02*
X173095238Y-77657857D01*
X173809523Y-80276904D02*
X171428571Y-80276904D01*
X171428571Y-75276904D01*
X173809523Y-75276904D01*
X178571428Y-75515000D02*
X178095238Y-75276904D01*
X177380952Y-75276904D01*
X176666666Y-75515000D01*
X176190476Y-75991190D01*
X175952380Y-76467380D01*
X175714285Y-77419761D01*
X175714285Y-78134047D01*
X175952380Y-79086428D01*
X176190476Y-79562619D01*
X176666666Y-80038809D01*
X177380952Y-80276904D01*
X177857142Y-80276904D01*
X178571428Y-80038809D01*
X178809523Y-79800714D01*
X178809523Y-78134047D01*
X177857142Y-78134047D01*
D13*
X97857142Y-139229285D02*
X98285714Y-139372142D01*
X99000000Y-139372142D01*
X99285714Y-139229285D01*
X99428571Y-139086428D01*
X99571428Y-138800714D01*
X99571428Y-138515000D01*
X99428571Y-138229285D01*
X99285714Y-138086428D01*
X99000000Y-137943571D01*
X98428571Y-137800714D01*
X98142857Y-137657857D01*
X98000000Y-137515000D01*
X97857142Y-137229285D01*
X97857142Y-136943571D01*
X98000000Y-136657857D01*
X98142857Y-136515000D01*
X98428571Y-136372142D01*
X99142857Y-136372142D01*
X99571428Y-136515000D01*
X102142857Y-137372142D02*
X102142857Y-140372142D01*
X102142857Y-139229285D02*
X101857142Y-139372142D01*
X101285714Y-139372142D01*
X101000000Y-139229285D01*
X100857142Y-139086428D01*
X100714285Y-138800714D01*
X100714285Y-137943571D01*
X100857142Y-137657857D01*
X101000000Y-137515000D01*
X101285714Y-137372142D01*
X101857142Y-137372142D01*
X102142857Y-137515000D01*
X104857142Y-137372142D02*
X104857142Y-139372142D01*
X103571428Y-137372142D02*
X103571428Y-138943571D01*
X103714285Y-139229285D01*
X104000000Y-139372142D01*
X104428571Y-139372142D01*
X104714285Y-139229285D01*
X104857142Y-139086428D01*
X107571428Y-139372142D02*
X107571428Y-137800714D01*
X107428571Y-137515000D01*
X107142857Y-137372142D01*
X106571428Y-137372142D01*
X106285714Y-137515000D01*
X107571428Y-139229285D02*
X107285714Y-139372142D01*
X106571428Y-139372142D01*
X106285714Y-139229285D01*
X106142857Y-138943571D01*
X106142857Y-138657857D01*
X106285714Y-138372142D01*
X106571428Y-138229285D01*
X107285714Y-138229285D01*
X107571428Y-138086428D01*
X109000000Y-139372142D02*
X109000000Y-137372142D01*
X109000000Y-137943571D02*
X109142857Y-137657857D01*
X109285714Y-137515000D01*
X109571428Y-137372142D01*
X109857142Y-137372142D01*
X112000000Y-139229285D02*
X111714285Y-139372142D01*
X111142857Y-139372142D01*
X110857142Y-139229285D01*
X110714285Y-138943571D01*
X110714285Y-137800714D01*
X110857142Y-137515000D01*
X111142857Y-137372142D01*
X111714285Y-137372142D01*
X112000000Y-137515000D01*
X112142857Y-137800714D01*
X112142857Y-138086428D01*
X110714285Y-138372142D01*
D14*
X98214285Y-75276904D02*
X99880952Y-80276904D01*
X101547619Y-75276904D01*
X106071428Y-79800714D02*
X105833333Y-80038809D01*
X105119047Y-80276904D01*
X104642857Y-80276904D01*
X103928571Y-80038809D01*
X103452380Y-79562619D01*
X103214285Y-79086428D01*
X102976190Y-78134047D01*
X102976190Y-77419761D01*
X103214285Y-76467380D01*
X103452380Y-75991190D01*
X103928571Y-75515000D01*
X104642857Y-75276904D01*
X105119047Y-75276904D01*
X105833333Y-75515000D01*
X106071428Y-75753095D01*
X109166666Y-75276904D02*
X110119047Y-75276904D01*
X110595238Y-75515000D01*
X111071428Y-75991190D01*
X111309523Y-76943571D01*
X111309523Y-78610238D01*
X111071428Y-79562619D01*
X110595238Y-80038809D01*
X110119047Y-80276904D01*
X109166666Y-80276904D01*
X108690476Y-80038809D01*
X108214285Y-79562619D01*
X107976190Y-78610238D01*
X107976190Y-76943571D01*
X108214285Y-75991190D01*
X108690476Y-75515000D01*
X109166666Y-75276904D01*
D13*
X239000000Y-196357142D02*
X241000000Y-196357142D01*
X239714285Y-199357142D01*
D10*
X305511904Y-153452380D02*
X305178571Y-152976190D01*
X304940476Y-153452380D02*
X304940476Y-152452380D01*
X305321428Y-152452380D01*
X305416666Y-152500000D01*
X305464285Y-152547619D01*
X305511904Y-152642857D01*
X305511904Y-152785714D01*
X305464285Y-152880952D01*
X305416666Y-152928571D01*
X305321428Y-152976190D01*
X304940476Y-152976190D01*
X305940476Y-152452380D02*
X305940476Y-153261904D01*
X305988095Y-153357142D01*
X306035714Y-153404761D01*
X306130952Y-153452380D01*
X306321428Y-153452380D01*
X306416666Y-153404761D01*
X306464285Y-153357142D01*
X306511904Y-153261904D01*
X306511904Y-152452380D01*
X306988095Y-153452380D02*
X306988095Y-152452380D01*
X307559523Y-153452380D01*
X307559523Y-152452380D01*
D13*
X256085714Y-86071428D02*
X255942857Y-86214285D01*
X255514285Y-86357142D01*
X255228571Y-86357142D01*
X254800000Y-86214285D01*
X254514285Y-85928571D01*
X254371428Y-85642857D01*
X254228571Y-85071428D01*
X254228571Y-84642857D01*
X254371428Y-84071428D01*
X254514285Y-83785714D01*
X254800000Y-83500000D01*
X255228571Y-83357142D01*
X255514285Y-83357142D01*
X255942857Y-83500000D01*
X256085714Y-83642857D01*
X257800000Y-86357142D02*
X257514285Y-86214285D01*
X257371428Y-85928571D01*
X257371428Y-83357142D01*
X259371428Y-86357142D02*
X259085714Y-86214285D01*
X258942857Y-86071428D01*
X258800000Y-85785714D01*
X258800000Y-84928571D01*
X258942857Y-84642857D01*
X259085714Y-84500000D01*
X259371428Y-84357142D01*
X259800000Y-84357142D01*
X260085714Y-84500000D01*
X260228571Y-84642857D01*
X260371428Y-84928571D01*
X260371428Y-85785714D01*
X260228571Y-86071428D01*
X260085714Y-86214285D01*
X259800000Y-86357142D01*
X259371428Y-86357142D01*
X262942857Y-86214285D02*
X262657142Y-86357142D01*
X262085714Y-86357142D01*
X261800000Y-86214285D01*
X261657142Y-86071428D01*
X261514285Y-85785714D01*
X261514285Y-84928571D01*
X261657142Y-84642857D01*
X261800000Y-84500000D01*
X262085714Y-84357142D01*
X262657142Y-84357142D01*
X262942857Y-84500000D01*
X264228571Y-86357142D02*
X264228571Y-83357142D01*
X264514285Y-85214285D02*
X265371428Y-86357142D01*
X265371428Y-84357142D02*
X264228571Y-85500000D01*
D10*
X302964285Y-165452380D02*
X302964285Y-164452380D01*
X303345238Y-164452380D01*
X303440476Y-164500000D01*
X303488095Y-164547619D01*
X303535714Y-164642857D01*
X303535714Y-164785714D01*
X303488095Y-164880952D01*
X303440476Y-164928571D01*
X303345238Y-164976190D01*
X302964285Y-164976190D01*
X304535714Y-165452380D02*
X304202380Y-164976190D01*
X303964285Y-165452380D02*
X303964285Y-164452380D01*
X304345238Y-164452380D01*
X304440476Y-164500000D01*
X304488095Y-164547619D01*
X304535714Y-164642857D01*
X304535714Y-164785714D01*
X304488095Y-164880952D01*
X304440476Y-164928571D01*
X304345238Y-164976190D01*
X303964285Y-164976190D01*
X305154761Y-164452380D02*
X305345238Y-164452380D01*
X305440476Y-164500000D01*
X305535714Y-164595238D01*
X305583333Y-164785714D01*
X305583333Y-165119047D01*
X305535714Y-165309523D01*
X305440476Y-165404761D01*
X305345238Y-165452380D01*
X305154761Y-165452380D01*
X305059523Y-165404761D01*
X304964285Y-165309523D01*
X304916666Y-165119047D01*
X304916666Y-164785714D01*
X304964285Y-164595238D01*
X305059523Y-164500000D01*
X305154761Y-164452380D01*
X306535714Y-164500000D02*
X306440476Y-164452380D01*
X306297619Y-164452380D01*
X306154761Y-164500000D01*
X306059523Y-164595238D01*
X306011904Y-164690476D01*
X305964285Y-164880952D01*
X305964285Y-165023809D01*
X306011904Y-165214285D01*
X306059523Y-165309523D01*
X306154761Y-165404761D01*
X306297619Y-165452380D01*
X306392857Y-165452380D01*
X306535714Y-165404761D01*
X306583333Y-165357142D01*
X306583333Y-165023809D01*
X306392857Y-165023809D01*
X307583333Y-165452380D02*
X307250000Y-164976190D01*
X307011904Y-165452380D02*
X307011904Y-164452380D01*
X307392857Y-164452380D01*
X307488095Y-164500000D01*
X307535714Y-164547619D01*
X307583333Y-164642857D01*
X307583333Y-164785714D01*
X307535714Y-164880952D01*
X307488095Y-164928571D01*
X307392857Y-164976190D01*
X307011904Y-164976190D01*
X307964285Y-165166666D02*
X308440476Y-165166666D01*
X307869047Y-165452380D02*
X308202380Y-164452380D01*
X308535714Y-165452380D01*
X308869047Y-165452380D02*
X308869047Y-164452380D01*
X309202380Y-165166666D01*
X309535714Y-164452380D01*
X309535714Y-165452380D01*
D13*
X130428571Y-116357142D02*
X129428571Y-114928571D01*
X128714285Y-116357142D02*
X128714285Y-113357142D01*
X129857142Y-113357142D01*
X130142857Y-113500000D01*
X130285714Y-113642857D01*
X130428571Y-113928571D01*
X130428571Y-114357142D01*
X130285714Y-114642857D01*
X130142857Y-114785714D01*
X129857142Y-114928571D01*
X128714285Y-114928571D01*
X132857142Y-116214285D02*
X132571428Y-116357142D01*
X132000000Y-116357142D01*
X131714285Y-116214285D01*
X131571428Y-115928571D01*
X131571428Y-114785714D01*
X131714285Y-114500000D01*
X132000000Y-114357142D01*
X132571428Y-114357142D01*
X132857142Y-114500000D01*
X133000000Y-114785714D01*
X133000000Y-115071428D01*
X131571428Y-115357142D01*
X134142857Y-116214285D02*
X134428571Y-116357142D01*
X135000000Y-116357142D01*
X135285714Y-116214285D01*
X135428571Y-115928571D01*
X135428571Y-115785714D01*
X135285714Y-115500000D01*
X135000000Y-115357142D01*
X134571428Y-115357142D01*
X134285714Y-115214285D01*
X134142857Y-114928571D01*
X134142857Y-114785714D01*
X134285714Y-114500000D01*
X134571428Y-114357142D01*
X135000000Y-114357142D01*
X135285714Y-114500000D01*
X137142857Y-116357142D02*
X136857142Y-116214285D01*
X136714285Y-116071428D01*
X136571428Y-115785714D01*
X136571428Y-114928571D01*
X136714285Y-114642857D01*
X136857142Y-114500000D01*
X137142857Y-114357142D01*
X137571428Y-114357142D01*
X137857142Y-114500000D01*
X138000000Y-114642857D01*
X138142857Y-114928571D01*
X138142857Y-115785714D01*
X138000000Y-116071428D01*
X137857142Y-116214285D01*
X137571428Y-116357142D01*
X137142857Y-116357142D01*
X139428571Y-114357142D02*
X139428571Y-116357142D01*
X139428571Y-114642857D02*
X139571428Y-114500000D01*
X139857142Y-114357142D01*
X140285714Y-114357142D01*
X140571428Y-114500000D01*
X140714285Y-114785714D01*
X140714285Y-116357142D01*
X143428571Y-116357142D02*
X143428571Y-114785714D01*
X143285714Y-114500000D01*
X143000000Y-114357142D01*
X142428571Y-114357142D01*
X142142857Y-114500000D01*
X143428571Y-116214285D02*
X143142857Y-116357142D01*
X142428571Y-116357142D01*
X142142857Y-116214285D01*
X142000000Y-115928571D01*
X142000000Y-115642857D01*
X142142857Y-115357142D01*
X142428571Y-115214285D01*
X143142857Y-115214285D01*
X143428571Y-115071428D01*
X144857142Y-114357142D02*
X144857142Y-116357142D01*
X144857142Y-114642857D02*
X145000000Y-114500000D01*
X145285714Y-114357142D01*
X145714285Y-114357142D01*
X146000000Y-114500000D01*
X146142857Y-114785714D01*
X146142857Y-116357142D01*
X148857142Y-116214285D02*
X148571428Y-116357142D01*
X148000000Y-116357142D01*
X147714285Y-116214285D01*
X147571428Y-116071428D01*
X147428571Y-115785714D01*
X147428571Y-114928571D01*
X147571428Y-114642857D01*
X147714285Y-114500000D01*
X148000000Y-114357142D01*
X148571428Y-114357142D01*
X148857142Y-114500000D01*
X151285714Y-116214285D02*
X151000000Y-116357142D01*
X150428571Y-116357142D01*
X150142857Y-116214285D01*
X150000000Y-115928571D01*
X150000000Y-114785714D01*
X150142857Y-114500000D01*
X150428571Y-114357142D01*
X151000000Y-114357142D01*
X151285714Y-114500000D01*
X151428571Y-114785714D01*
X151428571Y-115071428D01*
X150000000Y-115357142D01*
X137857142Y-144785714D02*
X138857142Y-144785714D01*
X139285714Y-146357142D02*
X137857142Y-146357142D01*
X137857142Y-143357142D01*
X139285714Y-143357142D01*
X142142857Y-143500000D02*
X141857142Y-143357142D01*
X141428571Y-143357142D01*
X141000000Y-143500000D01*
X140714285Y-143785714D01*
X140571428Y-144071428D01*
X140428571Y-144642857D01*
X140428571Y-145071428D01*
X140571428Y-145642857D01*
X140714285Y-145928571D01*
X141000000Y-146214285D01*
X141428571Y-146357142D01*
X141714285Y-146357142D01*
X142142857Y-146214285D01*
X142285714Y-146071428D01*
X142285714Y-145071428D01*
X141714285Y-145071428D01*
D10*
%TO.C,RGB_Pot6*%
X192214285Y-202952380D02*
X191880952Y-202476190D01*
X191642857Y-202952380D02*
X191642857Y-201952380D01*
X192023809Y-201952380D01*
X192119047Y-202000000D01*
X192166666Y-202047619D01*
X192214285Y-202142857D01*
X192214285Y-202285714D01*
X192166666Y-202380952D01*
X192119047Y-202428571D01*
X192023809Y-202476190D01*
X191642857Y-202476190D01*
X193166666Y-202000000D02*
X193071428Y-201952380D01*
X192928571Y-201952380D01*
X192785714Y-202000000D01*
X192690476Y-202095238D01*
X192642857Y-202190476D01*
X192595238Y-202380952D01*
X192595238Y-202523809D01*
X192642857Y-202714285D01*
X192690476Y-202809523D01*
X192785714Y-202904761D01*
X192928571Y-202952380D01*
X193023809Y-202952380D01*
X193166666Y-202904761D01*
X193214285Y-202857142D01*
X193214285Y-202523809D01*
X193023809Y-202523809D01*
X193976190Y-202428571D02*
X194119047Y-202476190D01*
X194166666Y-202523809D01*
X194214285Y-202619047D01*
X194214285Y-202761904D01*
X194166666Y-202857142D01*
X194119047Y-202904761D01*
X194023809Y-202952380D01*
X193642857Y-202952380D01*
X193642857Y-201952380D01*
X193976190Y-201952380D01*
X194071428Y-202000000D01*
X194119047Y-202047619D01*
X194166666Y-202142857D01*
X194166666Y-202238095D01*
X194119047Y-202333333D01*
X194071428Y-202380952D01*
X193976190Y-202428571D01*
X193642857Y-202428571D01*
X194404761Y-203047619D02*
X195166666Y-203047619D01*
X195404761Y-202952380D02*
X195404761Y-201952380D01*
X195785714Y-201952380D01*
X195880952Y-202000000D01*
X195928571Y-202047619D01*
X195976190Y-202142857D01*
X195976190Y-202285714D01*
X195928571Y-202380952D01*
X195880952Y-202428571D01*
X195785714Y-202476190D01*
X195404761Y-202476190D01*
X196547619Y-202952380D02*
X196452380Y-202904761D01*
X196404761Y-202857142D01*
X196357142Y-202761904D01*
X196357142Y-202476190D01*
X196404761Y-202380952D01*
X196452380Y-202333333D01*
X196547619Y-202285714D01*
X196690476Y-202285714D01*
X196785714Y-202333333D01*
X196833333Y-202380952D01*
X196880952Y-202476190D01*
X196880952Y-202761904D01*
X196833333Y-202857142D01*
X196785714Y-202904761D01*
X196690476Y-202952380D01*
X196547619Y-202952380D01*
X197166666Y-202285714D02*
X197547619Y-202285714D01*
X197309523Y-201952380D02*
X197309523Y-202809523D01*
X197357142Y-202904761D01*
X197452380Y-202952380D01*
X197547619Y-202952380D01*
X198309523Y-201952380D02*
X198119047Y-201952380D01*
X198023809Y-202000000D01*
X197976190Y-202047619D01*
X197880952Y-202190476D01*
X197833333Y-202380952D01*
X197833333Y-202761904D01*
X197880952Y-202857142D01*
X197928571Y-202904761D01*
X198023809Y-202952380D01*
X198214285Y-202952380D01*
X198309523Y-202904761D01*
X198357142Y-202857142D01*
X198404761Y-202761904D01*
X198404761Y-202523809D01*
X198357142Y-202428571D01*
X198309523Y-202380952D01*
X198214285Y-202333333D01*
X198023809Y-202333333D01*
X197928571Y-202380952D01*
X197880952Y-202428571D01*
X197833333Y-202523809D01*
%TO.C,SW2*%
X179166666Y-163404761D02*
X179309523Y-163452380D01*
X179547619Y-163452380D01*
X179642857Y-163404761D01*
X179690476Y-163357142D01*
X179738095Y-163261904D01*
X179738095Y-163166666D01*
X179690476Y-163071428D01*
X179642857Y-163023809D01*
X179547619Y-162976190D01*
X179357142Y-162928571D01*
X179261904Y-162880952D01*
X179214285Y-162833333D01*
X179166666Y-162738095D01*
X179166666Y-162642857D01*
X179214285Y-162547619D01*
X179261904Y-162500000D01*
X179357142Y-162452380D01*
X179595238Y-162452380D01*
X179738095Y-162500000D01*
X180071428Y-162452380D02*
X180309523Y-163452380D01*
X180500000Y-162738095D01*
X180690476Y-163452380D01*
X180928571Y-162452380D01*
X181261904Y-162547619D02*
X181309523Y-162500000D01*
X181404761Y-162452380D01*
X181642857Y-162452380D01*
X181738095Y-162500000D01*
X181785714Y-162547619D01*
X181833333Y-162642857D01*
X181833333Y-162738095D01*
X181785714Y-162880952D01*
X181214285Y-163452380D01*
X181833333Y-163452380D01*
%TO.C,RGB_Pot5*%
X169714285Y-202952380D02*
X169380952Y-202476190D01*
X169142857Y-202952380D02*
X169142857Y-201952380D01*
X169523809Y-201952380D01*
X169619047Y-202000000D01*
X169666666Y-202047619D01*
X169714285Y-202142857D01*
X169714285Y-202285714D01*
X169666666Y-202380952D01*
X169619047Y-202428571D01*
X169523809Y-202476190D01*
X169142857Y-202476190D01*
X170666666Y-202000000D02*
X170571428Y-201952380D01*
X170428571Y-201952380D01*
X170285714Y-202000000D01*
X170190476Y-202095238D01*
X170142857Y-202190476D01*
X170095238Y-202380952D01*
X170095238Y-202523809D01*
X170142857Y-202714285D01*
X170190476Y-202809523D01*
X170285714Y-202904761D01*
X170428571Y-202952380D01*
X170523809Y-202952380D01*
X170666666Y-202904761D01*
X170714285Y-202857142D01*
X170714285Y-202523809D01*
X170523809Y-202523809D01*
X171476190Y-202428571D02*
X171619047Y-202476190D01*
X171666666Y-202523809D01*
X171714285Y-202619047D01*
X171714285Y-202761904D01*
X171666666Y-202857142D01*
X171619047Y-202904761D01*
X171523809Y-202952380D01*
X171142857Y-202952380D01*
X171142857Y-201952380D01*
X171476190Y-201952380D01*
X171571428Y-202000000D01*
X171619047Y-202047619D01*
X171666666Y-202142857D01*
X171666666Y-202238095D01*
X171619047Y-202333333D01*
X171571428Y-202380952D01*
X171476190Y-202428571D01*
X171142857Y-202428571D01*
X171904761Y-203047619D02*
X172666666Y-203047619D01*
X172904761Y-202952380D02*
X172904761Y-201952380D01*
X173285714Y-201952380D01*
X173380952Y-202000000D01*
X173428571Y-202047619D01*
X173476190Y-202142857D01*
X173476190Y-202285714D01*
X173428571Y-202380952D01*
X173380952Y-202428571D01*
X173285714Y-202476190D01*
X172904761Y-202476190D01*
X174047619Y-202952380D02*
X173952380Y-202904761D01*
X173904761Y-202857142D01*
X173857142Y-202761904D01*
X173857142Y-202476190D01*
X173904761Y-202380952D01*
X173952380Y-202333333D01*
X174047619Y-202285714D01*
X174190476Y-202285714D01*
X174285714Y-202333333D01*
X174333333Y-202380952D01*
X174380952Y-202476190D01*
X174380952Y-202761904D01*
X174333333Y-202857142D01*
X174285714Y-202904761D01*
X174190476Y-202952380D01*
X174047619Y-202952380D01*
X174666666Y-202285714D02*
X175047619Y-202285714D01*
X174809523Y-201952380D02*
X174809523Y-202809523D01*
X174857142Y-202904761D01*
X174952380Y-202952380D01*
X175047619Y-202952380D01*
X175857142Y-201952380D02*
X175380952Y-201952380D01*
X175333333Y-202428571D01*
X175380952Y-202380952D01*
X175476190Y-202333333D01*
X175714285Y-202333333D01*
X175809523Y-202380952D01*
X175857142Y-202428571D01*
X175904761Y-202523809D01*
X175904761Y-202761904D01*
X175857142Y-202857142D01*
X175809523Y-202904761D01*
X175714285Y-202952380D01*
X175476190Y-202952380D01*
X175380952Y-202904761D01*
X175333333Y-202857142D01*
%TO.C,RV17*%
X85887619Y-184918571D02*
X86363809Y-184585238D01*
X85887619Y-184347142D02*
X86887619Y-184347142D01*
X86887619Y-184728095D01*
X86840000Y-184823333D01*
X86792380Y-184870952D01*
X86697142Y-184918571D01*
X86554285Y-184918571D01*
X86459047Y-184870952D01*
X86411428Y-184823333D01*
X86363809Y-184728095D01*
X86363809Y-184347142D01*
X86887619Y-185204285D02*
X85887619Y-185537619D01*
X86887619Y-185870952D01*
X85887619Y-186728095D02*
X85887619Y-186156666D01*
X85887619Y-186442380D02*
X86887619Y-186442380D01*
X86744761Y-186347142D01*
X86649523Y-186251904D01*
X86601904Y-186156666D01*
X86887619Y-187061428D02*
X86887619Y-187728095D01*
X85887619Y-187299523D01*
%TO.C,RGB_Pot3*%
X124714285Y-202881312D02*
X124380952Y-202405122D01*
X124142857Y-202881312D02*
X124142857Y-201881312D01*
X124523809Y-201881312D01*
X124619047Y-201928932D01*
X124666666Y-201976551D01*
X124714285Y-202071789D01*
X124714285Y-202214646D01*
X124666666Y-202309884D01*
X124619047Y-202357503D01*
X124523809Y-202405122D01*
X124142857Y-202405122D01*
X125666666Y-201928932D02*
X125571428Y-201881312D01*
X125428571Y-201881312D01*
X125285714Y-201928932D01*
X125190476Y-202024170D01*
X125142857Y-202119408D01*
X125095238Y-202309884D01*
X125095238Y-202452741D01*
X125142857Y-202643217D01*
X125190476Y-202738455D01*
X125285714Y-202833693D01*
X125428571Y-202881312D01*
X125523809Y-202881312D01*
X125666666Y-202833693D01*
X125714285Y-202786074D01*
X125714285Y-202452741D01*
X125523809Y-202452741D01*
X126476190Y-202357503D02*
X126619047Y-202405122D01*
X126666666Y-202452741D01*
X126714285Y-202547979D01*
X126714285Y-202690836D01*
X126666666Y-202786074D01*
X126619047Y-202833693D01*
X126523809Y-202881312D01*
X126142857Y-202881312D01*
X126142857Y-201881312D01*
X126476190Y-201881312D01*
X126571428Y-201928932D01*
X126619047Y-201976551D01*
X126666666Y-202071789D01*
X126666666Y-202167027D01*
X126619047Y-202262265D01*
X126571428Y-202309884D01*
X126476190Y-202357503D01*
X126142857Y-202357503D01*
X126904761Y-202976551D02*
X127666666Y-202976551D01*
X127904761Y-202881312D02*
X127904761Y-201881312D01*
X128285714Y-201881312D01*
X128380952Y-201928932D01*
X128428571Y-201976551D01*
X128476190Y-202071789D01*
X128476190Y-202214646D01*
X128428571Y-202309884D01*
X128380952Y-202357503D01*
X128285714Y-202405122D01*
X127904761Y-202405122D01*
X129047619Y-202881312D02*
X128952380Y-202833693D01*
X128904761Y-202786074D01*
X128857142Y-202690836D01*
X128857142Y-202405122D01*
X128904761Y-202309884D01*
X128952380Y-202262265D01*
X129047619Y-202214646D01*
X129190476Y-202214646D01*
X129285714Y-202262265D01*
X129333333Y-202309884D01*
X129380952Y-202405122D01*
X129380952Y-202690836D01*
X129333333Y-202786074D01*
X129285714Y-202833693D01*
X129190476Y-202881312D01*
X129047619Y-202881312D01*
X129666666Y-202214646D02*
X130047619Y-202214646D01*
X129809523Y-201881312D02*
X129809523Y-202738455D01*
X129857142Y-202833693D01*
X129952380Y-202881312D01*
X130047619Y-202881312D01*
X130285714Y-201881312D02*
X130904761Y-201881312D01*
X130571428Y-202262265D01*
X130714285Y-202262265D01*
X130809523Y-202309884D01*
X130857142Y-202357503D01*
X130904761Y-202452741D01*
X130904761Y-202690836D01*
X130857142Y-202786074D01*
X130809523Y-202833693D01*
X130714285Y-202881312D01*
X130428571Y-202881312D01*
X130333333Y-202833693D01*
X130285714Y-202786074D01*
%TO.C,SW5*%
X281166666Y-203654761D02*
X281309523Y-203702380D01*
X281547619Y-203702380D01*
X281642857Y-203654761D01*
X281690476Y-203607142D01*
X281738095Y-203511904D01*
X281738095Y-203416666D01*
X281690476Y-203321428D01*
X281642857Y-203273809D01*
X281547619Y-203226190D01*
X281357142Y-203178571D01*
X281261904Y-203130952D01*
X281214285Y-203083333D01*
X281166666Y-202988095D01*
X281166666Y-202892857D01*
X281214285Y-202797619D01*
X281261904Y-202750000D01*
X281357142Y-202702380D01*
X281595238Y-202702380D01*
X281738095Y-202750000D01*
X282071428Y-202702380D02*
X282309523Y-203702380D01*
X282500000Y-202988095D01*
X282690476Y-203702380D01*
X282928571Y-202702380D01*
X283785714Y-202702380D02*
X283309523Y-202702380D01*
X283261904Y-203178571D01*
X283309523Y-203130952D01*
X283404761Y-203083333D01*
X283642857Y-203083333D01*
X283738095Y-203130952D01*
X283785714Y-203178571D01*
X283833333Y-203273809D01*
X283833333Y-203511904D01*
X283785714Y-203607142D01*
X283738095Y-203654761D01*
X283642857Y-203702380D01*
X283404761Y-203702380D01*
X283309523Y-203654761D01*
X283261904Y-203607142D01*
%TO.C,RV16*%
X85887619Y-173918571D02*
X86363809Y-173585238D01*
X85887619Y-173347142D02*
X86887619Y-173347142D01*
X86887619Y-173728095D01*
X86840000Y-173823333D01*
X86792380Y-173870952D01*
X86697142Y-173918571D01*
X86554285Y-173918571D01*
X86459047Y-173870952D01*
X86411428Y-173823333D01*
X86363809Y-173728095D01*
X86363809Y-173347142D01*
X86887619Y-174204285D02*
X85887619Y-174537619D01*
X86887619Y-174870952D01*
X85887619Y-175728095D02*
X85887619Y-175156666D01*
X85887619Y-175442380D02*
X86887619Y-175442380D01*
X86744761Y-175347142D01*
X86649523Y-175251904D01*
X86601904Y-175156666D01*
X86887619Y-176585238D02*
X86887619Y-176394761D01*
X86840000Y-176299523D01*
X86792380Y-176251904D01*
X86649523Y-176156666D01*
X86459047Y-176109047D01*
X86078095Y-176109047D01*
X85982857Y-176156666D01*
X85935238Y-176204285D01*
X85887619Y-176299523D01*
X85887619Y-176490000D01*
X85935238Y-176585238D01*
X85982857Y-176632857D01*
X86078095Y-176680476D01*
X86316190Y-176680476D01*
X86411428Y-176632857D01*
X86459047Y-176585238D01*
X86506666Y-176490000D01*
X86506666Y-176299523D01*
X86459047Y-176204285D01*
X86411428Y-176156666D01*
X86316190Y-176109047D01*
%TO.C,RV21*%
X238928571Y-174452380D02*
X238595238Y-173976190D01*
X238357142Y-174452380D02*
X238357142Y-173452380D01*
X238738095Y-173452380D01*
X238833333Y-173500000D01*
X238880952Y-173547619D01*
X238928571Y-173642857D01*
X238928571Y-173785714D01*
X238880952Y-173880952D01*
X238833333Y-173928571D01*
X238738095Y-173976190D01*
X238357142Y-173976190D01*
X239214285Y-173452380D02*
X239547619Y-174452380D01*
X239880952Y-173452380D01*
X240166666Y-173547619D02*
X240214285Y-173500000D01*
X240309523Y-173452380D01*
X240547619Y-173452380D01*
X240642857Y-173500000D01*
X240690476Y-173547619D01*
X240738095Y-173642857D01*
X240738095Y-173738095D01*
X240690476Y-173880952D01*
X240119047Y-174452380D01*
X240738095Y-174452380D01*
X241690476Y-174452380D02*
X241119047Y-174452380D01*
X241404761Y-174452380D02*
X241404761Y-173452380D01*
X241309523Y-173595238D01*
X241214285Y-173690476D01*
X241119047Y-173738095D01*
%TO.C,RV19*%
X138928571Y-174452380D02*
X138595238Y-173976190D01*
X138357142Y-174452380D02*
X138357142Y-173452380D01*
X138738095Y-173452380D01*
X138833333Y-173500000D01*
X138880952Y-173547619D01*
X138928571Y-173642857D01*
X138928571Y-173785714D01*
X138880952Y-173880952D01*
X138833333Y-173928571D01*
X138738095Y-173976190D01*
X138357142Y-173976190D01*
X139214285Y-173452380D02*
X139547619Y-174452380D01*
X139880952Y-173452380D01*
X140738095Y-174452380D02*
X140166666Y-174452380D01*
X140452380Y-174452380D02*
X140452380Y-173452380D01*
X140357142Y-173595238D01*
X140261904Y-173690476D01*
X140166666Y-173738095D01*
X141214285Y-174452380D02*
X141404761Y-174452380D01*
X141500000Y-174404761D01*
X141547619Y-174357142D01*
X141642857Y-174214285D01*
X141690476Y-174023809D01*
X141690476Y-173642857D01*
X141642857Y-173547619D01*
X141595238Y-173500000D01*
X141500000Y-173452380D01*
X141309523Y-173452380D01*
X141214285Y-173500000D01*
X141166666Y-173547619D01*
X141119047Y-173642857D01*
X141119047Y-173880952D01*
X141166666Y-173976190D01*
X141214285Y-174023809D01*
X141309523Y-174071428D01*
X141500000Y-174071428D01*
X141595238Y-174023809D01*
X141642857Y-173976190D01*
X141690476Y-173880952D01*
%TO.C,RV14*%
X103928571Y-149452380D02*
X103595238Y-148976190D01*
X103357142Y-149452380D02*
X103357142Y-148452380D01*
X103738095Y-148452380D01*
X103833333Y-148500000D01*
X103880952Y-148547619D01*
X103928571Y-148642857D01*
X103928571Y-148785714D01*
X103880952Y-148880952D01*
X103833333Y-148928571D01*
X103738095Y-148976190D01*
X103357142Y-148976190D01*
X104214285Y-148452380D02*
X104547619Y-149452380D01*
X104880952Y-148452380D01*
X105738095Y-149452380D02*
X105166666Y-149452380D01*
X105452380Y-149452380D02*
X105452380Y-148452380D01*
X105357142Y-148595238D01*
X105261904Y-148690476D01*
X105166666Y-148738095D01*
X106595238Y-148785714D02*
X106595238Y-149452380D01*
X106357142Y-148404761D02*
X106119047Y-149119047D01*
X106738095Y-149119047D01*
%TO.C,RV12*%
X85887619Y-162918571D02*
X86363809Y-162585238D01*
X85887619Y-162347142D02*
X86887619Y-162347142D01*
X86887619Y-162728095D01*
X86840000Y-162823333D01*
X86792380Y-162870952D01*
X86697142Y-162918571D01*
X86554285Y-162918571D01*
X86459047Y-162870952D01*
X86411428Y-162823333D01*
X86363809Y-162728095D01*
X86363809Y-162347142D01*
X86887619Y-163204285D02*
X85887619Y-163537619D01*
X86887619Y-163870952D01*
X85887619Y-164728095D02*
X85887619Y-164156666D01*
X85887619Y-164442380D02*
X86887619Y-164442380D01*
X86744761Y-164347142D01*
X86649523Y-164251904D01*
X86601904Y-164156666D01*
X86792380Y-165109047D02*
X86840000Y-165156666D01*
X86887619Y-165251904D01*
X86887619Y-165490000D01*
X86840000Y-165585238D01*
X86792380Y-165632857D01*
X86697142Y-165680476D01*
X86601904Y-165680476D01*
X86459047Y-165632857D01*
X85887619Y-165061428D01*
X85887619Y-165680476D01*
%TO.C,RV5*%
X217204761Y-106352380D02*
X216871428Y-105876190D01*
X216633333Y-106352380D02*
X216633333Y-105352380D01*
X217014285Y-105352380D01*
X217109523Y-105400000D01*
X217157142Y-105447619D01*
X217204761Y-105542857D01*
X217204761Y-105685714D01*
X217157142Y-105780952D01*
X217109523Y-105828571D01*
X217014285Y-105876190D01*
X216633333Y-105876190D01*
X217490476Y-105352380D02*
X217823809Y-106352380D01*
X218157142Y-105352380D01*
X218966666Y-105352380D02*
X218490476Y-105352380D01*
X218442857Y-105828571D01*
X218490476Y-105780952D01*
X218585714Y-105733333D01*
X218823809Y-105733333D01*
X218919047Y-105780952D01*
X218966666Y-105828571D01*
X219014285Y-105923809D01*
X219014285Y-106161904D01*
X218966666Y-106257142D01*
X218919047Y-106304761D01*
X218823809Y-106352380D01*
X218585714Y-106352380D01*
X218490476Y-106304761D01*
X218442857Y-106257142D01*
%TO.C,RV15*%
X138928571Y-149452380D02*
X138595238Y-148976190D01*
X138357142Y-149452380D02*
X138357142Y-148452380D01*
X138738095Y-148452380D01*
X138833333Y-148500000D01*
X138880952Y-148547619D01*
X138928571Y-148642857D01*
X138928571Y-148785714D01*
X138880952Y-148880952D01*
X138833333Y-148928571D01*
X138738095Y-148976190D01*
X138357142Y-148976190D01*
X139214285Y-148452380D02*
X139547619Y-149452380D01*
X139880952Y-148452380D01*
X140738095Y-149452380D02*
X140166666Y-149452380D01*
X140452380Y-149452380D02*
X140452380Y-148452380D01*
X140357142Y-148595238D01*
X140261904Y-148690476D01*
X140166666Y-148738095D01*
X141642857Y-148452380D02*
X141166666Y-148452380D01*
X141119047Y-148928571D01*
X141166666Y-148880952D01*
X141261904Y-148833333D01*
X141500000Y-148833333D01*
X141595238Y-148880952D01*
X141642857Y-148928571D01*
X141690476Y-149023809D01*
X141690476Y-149261904D01*
X141642857Y-149357142D01*
X141595238Y-149404761D01*
X141500000Y-149452380D01*
X141261904Y-149452380D01*
X141166666Y-149404761D01*
X141119047Y-149357142D01*
%TO.C,RV6*%
X239404761Y-89452380D02*
X239071428Y-88976190D01*
X238833333Y-89452380D02*
X238833333Y-88452380D01*
X239214285Y-88452380D01*
X239309523Y-88500000D01*
X239357142Y-88547619D01*
X239404761Y-88642857D01*
X239404761Y-88785714D01*
X239357142Y-88880952D01*
X239309523Y-88928571D01*
X239214285Y-88976190D01*
X238833333Y-88976190D01*
X239690476Y-88452380D02*
X240023809Y-89452380D01*
X240357142Y-88452380D01*
X241119047Y-88452380D02*
X240928571Y-88452380D01*
X240833333Y-88500000D01*
X240785714Y-88547619D01*
X240690476Y-88690476D01*
X240642857Y-88880952D01*
X240642857Y-89261904D01*
X240690476Y-89357142D01*
X240738095Y-89404761D01*
X240833333Y-89452380D01*
X241023809Y-89452380D01*
X241119047Y-89404761D01*
X241166666Y-89357142D01*
X241214285Y-89261904D01*
X241214285Y-89023809D01*
X241166666Y-88928571D01*
X241119047Y-88880952D01*
X241023809Y-88833333D01*
X240833333Y-88833333D01*
X240738095Y-88880952D01*
X240690476Y-88928571D01*
X240642857Y-89023809D01*
%TO.C,RV4*%
X182204761Y-106352380D02*
X181871428Y-105876190D01*
X181633333Y-106352380D02*
X181633333Y-105352380D01*
X182014285Y-105352380D01*
X182109523Y-105400000D01*
X182157142Y-105447619D01*
X182204761Y-105542857D01*
X182204761Y-105685714D01*
X182157142Y-105780952D01*
X182109523Y-105828571D01*
X182014285Y-105876190D01*
X181633333Y-105876190D01*
X182490476Y-105352380D02*
X182823809Y-106352380D01*
X183157142Y-105352380D01*
X183919047Y-105685714D02*
X183919047Y-106352380D01*
X183680952Y-105304761D02*
X183442857Y-106019047D01*
X184061904Y-106019047D01*
%TO.C,SW4*%
X244166666Y-163404761D02*
X244309523Y-163452380D01*
X244547619Y-163452380D01*
X244642857Y-163404761D01*
X244690476Y-163357142D01*
X244738095Y-163261904D01*
X244738095Y-163166666D01*
X244690476Y-163071428D01*
X244642857Y-163023809D01*
X244547619Y-162976190D01*
X244357142Y-162928571D01*
X244261904Y-162880952D01*
X244214285Y-162833333D01*
X244166666Y-162738095D01*
X244166666Y-162642857D01*
X244214285Y-162547619D01*
X244261904Y-162500000D01*
X244357142Y-162452380D01*
X244595238Y-162452380D01*
X244738095Y-162500000D01*
X245071428Y-162452380D02*
X245309523Y-163452380D01*
X245500000Y-162738095D01*
X245690476Y-163452380D01*
X245928571Y-162452380D01*
X246738095Y-162785714D02*
X246738095Y-163452380D01*
X246500000Y-162404761D02*
X246261904Y-163119047D01*
X246880952Y-163119047D01*
%TO.C,RV11*%
X244428571Y-132952380D02*
X244095238Y-132476190D01*
X243857142Y-132952380D02*
X243857142Y-131952380D01*
X244238095Y-131952380D01*
X244333333Y-132000000D01*
X244380952Y-132047619D01*
X244428571Y-132142857D01*
X244428571Y-132285714D01*
X244380952Y-132380952D01*
X244333333Y-132428571D01*
X244238095Y-132476190D01*
X243857142Y-132476190D01*
X244714285Y-131952380D02*
X245047619Y-132952380D01*
X245380952Y-131952380D01*
X246238095Y-132952380D02*
X245666666Y-132952380D01*
X245952380Y-132952380D02*
X245952380Y-131952380D01*
X245857142Y-132095238D01*
X245761904Y-132190476D01*
X245666666Y-132238095D01*
X247190476Y-132952380D02*
X246619047Y-132952380D01*
X246904761Y-132952380D02*
X246904761Y-131952380D01*
X246809523Y-132095238D01*
X246714285Y-132190476D01*
X246619047Y-132238095D01*
%TO.C,SW3*%
X214166666Y-163404761D02*
X214309523Y-163452380D01*
X214547619Y-163452380D01*
X214642857Y-163404761D01*
X214690476Y-163357142D01*
X214738095Y-163261904D01*
X214738095Y-163166666D01*
X214690476Y-163071428D01*
X214642857Y-163023809D01*
X214547619Y-162976190D01*
X214357142Y-162928571D01*
X214261904Y-162880952D01*
X214214285Y-162833333D01*
X214166666Y-162738095D01*
X214166666Y-162642857D01*
X214214285Y-162547619D01*
X214261904Y-162500000D01*
X214357142Y-162452380D01*
X214595238Y-162452380D01*
X214738095Y-162500000D01*
X215071428Y-162452380D02*
X215309523Y-163452380D01*
X215500000Y-162738095D01*
X215690476Y-163452380D01*
X215928571Y-162452380D01*
X216214285Y-162452380D02*
X216833333Y-162452380D01*
X216500000Y-162833333D01*
X216642857Y-162833333D01*
X216738095Y-162880952D01*
X216785714Y-162928571D01*
X216833333Y-163023809D01*
X216833333Y-163261904D01*
X216785714Y-163357142D01*
X216738095Y-163404761D01*
X216642857Y-163452380D01*
X216357142Y-163452380D01*
X216261904Y-163404761D01*
X216214285Y-163357142D01*
%TO.C,RV10*%
X245792380Y-118561428D02*
X245316190Y-118894761D01*
X245792380Y-119132857D02*
X244792380Y-119132857D01*
X244792380Y-118751904D01*
X244840000Y-118656666D01*
X244887619Y-118609047D01*
X244982857Y-118561428D01*
X245125714Y-118561428D01*
X245220952Y-118609047D01*
X245268571Y-118656666D01*
X245316190Y-118751904D01*
X245316190Y-119132857D01*
X244792380Y-118275714D02*
X245792380Y-117942380D01*
X244792380Y-117609047D01*
X245792380Y-116751904D02*
X245792380Y-117323333D01*
X245792380Y-117037619D02*
X244792380Y-117037619D01*
X244935238Y-117132857D01*
X245030476Y-117228095D01*
X245078095Y-117323333D01*
X244792380Y-116132857D02*
X244792380Y-116037619D01*
X244840000Y-115942380D01*
X244887619Y-115894761D01*
X244982857Y-115847142D01*
X245173333Y-115799523D01*
X245411428Y-115799523D01*
X245601904Y-115847142D01*
X245697142Y-115894761D01*
X245744761Y-115942380D01*
X245792380Y-116037619D01*
X245792380Y-116132857D01*
X245744761Y-116228095D01*
X245697142Y-116275714D01*
X245601904Y-116323333D01*
X245411428Y-116370952D01*
X245173333Y-116370952D01*
X244982857Y-116323333D01*
X244887619Y-116275714D01*
X244840000Y-116228095D01*
X244792380Y-116132857D01*
%TO.C,RV18*%
X103928571Y-174452380D02*
X103595238Y-173976190D01*
X103357142Y-174452380D02*
X103357142Y-173452380D01*
X103738095Y-173452380D01*
X103833333Y-173500000D01*
X103880952Y-173547619D01*
X103928571Y-173642857D01*
X103928571Y-173785714D01*
X103880952Y-173880952D01*
X103833333Y-173928571D01*
X103738095Y-173976190D01*
X103357142Y-173976190D01*
X104214285Y-173452380D02*
X104547619Y-174452380D01*
X104880952Y-173452380D01*
X105738095Y-174452380D02*
X105166666Y-174452380D01*
X105452380Y-174452380D02*
X105452380Y-173452380D01*
X105357142Y-173595238D01*
X105261904Y-173690476D01*
X105166666Y-173738095D01*
X106309523Y-173880952D02*
X106214285Y-173833333D01*
X106166666Y-173785714D01*
X106119047Y-173690476D01*
X106119047Y-173642857D01*
X106166666Y-173547619D01*
X106214285Y-173500000D01*
X106309523Y-173452380D01*
X106500000Y-173452380D01*
X106595238Y-173500000D01*
X106642857Y-173547619D01*
X106690476Y-173642857D01*
X106690476Y-173690476D01*
X106642857Y-173785714D01*
X106595238Y-173833333D01*
X106500000Y-173880952D01*
X106309523Y-173880952D01*
X106214285Y-173928571D01*
X106166666Y-173976190D01*
X106119047Y-174071428D01*
X106119047Y-174261904D01*
X106166666Y-174357142D01*
X106214285Y-174404761D01*
X106309523Y-174452380D01*
X106500000Y-174452380D01*
X106595238Y-174404761D01*
X106642857Y-174357142D01*
X106690476Y-174261904D01*
X106690476Y-174071428D01*
X106642857Y-173976190D01*
X106595238Y-173928571D01*
X106500000Y-173880952D01*
%TO.C,RV22*%
X281428571Y-174452380D02*
X281095238Y-173976190D01*
X280857142Y-174452380D02*
X280857142Y-173452380D01*
X281238095Y-173452380D01*
X281333333Y-173500000D01*
X281380952Y-173547619D01*
X281428571Y-173642857D01*
X281428571Y-173785714D01*
X281380952Y-173880952D01*
X281333333Y-173928571D01*
X281238095Y-173976190D01*
X280857142Y-173976190D01*
X281714285Y-173452380D02*
X282047619Y-174452380D01*
X282380952Y-173452380D01*
X282666666Y-173547619D02*
X282714285Y-173500000D01*
X282809523Y-173452380D01*
X283047619Y-173452380D01*
X283142857Y-173500000D01*
X283190476Y-173547619D01*
X283238095Y-173642857D01*
X283238095Y-173738095D01*
X283190476Y-173880952D01*
X282619047Y-174452380D01*
X283238095Y-174452380D01*
X283619047Y-173547619D02*
X283666666Y-173500000D01*
X283761904Y-173452380D01*
X284000000Y-173452380D01*
X284095238Y-173500000D01*
X284142857Y-173547619D01*
X284190476Y-173642857D01*
X284190476Y-173738095D01*
X284142857Y-173880952D01*
X283571428Y-174452380D01*
X284190476Y-174452380D01*
%TO.C,RV7*%
X147204761Y-136352380D02*
X146871428Y-135876190D01*
X146633333Y-136352380D02*
X146633333Y-135352380D01*
X147014285Y-135352380D01*
X147109523Y-135400000D01*
X147157142Y-135447619D01*
X147204761Y-135542857D01*
X147204761Y-135685714D01*
X147157142Y-135780952D01*
X147109523Y-135828571D01*
X147014285Y-135876190D01*
X146633333Y-135876190D01*
X147490476Y-135352380D02*
X147823809Y-136352380D01*
X148157142Y-135352380D01*
X148395238Y-135352380D02*
X149061904Y-135352380D01*
X148633333Y-136352380D01*
%TO.C,RV8*%
X182204761Y-136352380D02*
X181871428Y-135876190D01*
X181633333Y-136352380D02*
X181633333Y-135352380D01*
X182014285Y-135352380D01*
X182109523Y-135400000D01*
X182157142Y-135447619D01*
X182204761Y-135542857D01*
X182204761Y-135685714D01*
X182157142Y-135780952D01*
X182109523Y-135828571D01*
X182014285Y-135876190D01*
X181633333Y-135876190D01*
X182490476Y-135352380D02*
X182823809Y-136352380D01*
X183157142Y-135352380D01*
X183633333Y-135780952D02*
X183538095Y-135733333D01*
X183490476Y-135685714D01*
X183442857Y-135590476D01*
X183442857Y-135542857D01*
X183490476Y-135447619D01*
X183538095Y-135400000D01*
X183633333Y-135352380D01*
X183823809Y-135352380D01*
X183919047Y-135400000D01*
X183966666Y-135447619D01*
X184014285Y-135542857D01*
X184014285Y-135590476D01*
X183966666Y-135685714D01*
X183919047Y-135733333D01*
X183823809Y-135780952D01*
X183633333Y-135780952D01*
X183538095Y-135828571D01*
X183490476Y-135876190D01*
X183442857Y-135971428D01*
X183442857Y-136161904D01*
X183490476Y-136257142D01*
X183538095Y-136304761D01*
X183633333Y-136352380D01*
X183823809Y-136352380D01*
X183919047Y-136304761D01*
X183966666Y-136257142D01*
X184014285Y-136161904D01*
X184014285Y-135971428D01*
X183966666Y-135876190D01*
X183919047Y-135828571D01*
X183823809Y-135780952D01*
%TO.C,RV1*%
X112204761Y-106352380D02*
X111871428Y-105876190D01*
X111633333Y-106352380D02*
X111633333Y-105352380D01*
X112014285Y-105352380D01*
X112109523Y-105400000D01*
X112157142Y-105447619D01*
X112204761Y-105542857D01*
X112204761Y-105685714D01*
X112157142Y-105780952D01*
X112109523Y-105828571D01*
X112014285Y-105876190D01*
X111633333Y-105876190D01*
X112490476Y-105352380D02*
X112823809Y-106352380D01*
X113157142Y-105352380D01*
X114014285Y-106352380D02*
X113442857Y-106352380D01*
X113728571Y-106352380D02*
X113728571Y-105352380D01*
X113633333Y-105495238D01*
X113538095Y-105590476D01*
X113442857Y-105638095D01*
%TO.C,J1*%
X242402380Y-73233333D02*
X243116666Y-73233333D01*
X243259523Y-73280952D01*
X243354761Y-73376190D01*
X243402380Y-73519047D01*
X243402380Y-73614285D01*
X243402380Y-72233333D02*
X243402380Y-72804761D01*
X243402380Y-72519047D02*
X242402380Y-72519047D01*
X242545238Y-72614285D01*
X242640476Y-72709523D01*
X242688095Y-72804761D01*
%TO.C,RGB_Pot7*%
X237214285Y-202952380D02*
X236880952Y-202476190D01*
X236642857Y-202952380D02*
X236642857Y-201952380D01*
X237023809Y-201952380D01*
X237119047Y-202000000D01*
X237166666Y-202047619D01*
X237214285Y-202142857D01*
X237214285Y-202285714D01*
X237166666Y-202380952D01*
X237119047Y-202428571D01*
X237023809Y-202476190D01*
X236642857Y-202476190D01*
X238166666Y-202000000D02*
X238071428Y-201952380D01*
X237928571Y-201952380D01*
X237785714Y-202000000D01*
X237690476Y-202095238D01*
X237642857Y-202190476D01*
X237595238Y-202380952D01*
X237595238Y-202523809D01*
X237642857Y-202714285D01*
X237690476Y-202809523D01*
X237785714Y-202904761D01*
X237928571Y-202952380D01*
X238023809Y-202952380D01*
X238166666Y-202904761D01*
X238214285Y-202857142D01*
X238214285Y-202523809D01*
X238023809Y-202523809D01*
X238976190Y-202428571D02*
X239119047Y-202476190D01*
X239166666Y-202523809D01*
X239214285Y-202619047D01*
X239214285Y-202761904D01*
X239166666Y-202857142D01*
X239119047Y-202904761D01*
X239023809Y-202952380D01*
X238642857Y-202952380D01*
X238642857Y-201952380D01*
X238976190Y-201952380D01*
X239071428Y-202000000D01*
X239119047Y-202047619D01*
X239166666Y-202142857D01*
X239166666Y-202238095D01*
X239119047Y-202333333D01*
X239071428Y-202380952D01*
X238976190Y-202428571D01*
X238642857Y-202428571D01*
X239404761Y-203047619D02*
X240166666Y-203047619D01*
X240404761Y-202952380D02*
X240404761Y-201952380D01*
X240785714Y-201952380D01*
X240880952Y-202000000D01*
X240928571Y-202047619D01*
X240976190Y-202142857D01*
X240976190Y-202285714D01*
X240928571Y-202380952D01*
X240880952Y-202428571D01*
X240785714Y-202476190D01*
X240404761Y-202476190D01*
X241547619Y-202952380D02*
X241452380Y-202904761D01*
X241404761Y-202857142D01*
X241357142Y-202761904D01*
X241357142Y-202476190D01*
X241404761Y-202380952D01*
X241452380Y-202333333D01*
X241547619Y-202285714D01*
X241690476Y-202285714D01*
X241785714Y-202333333D01*
X241833333Y-202380952D01*
X241880952Y-202476190D01*
X241880952Y-202761904D01*
X241833333Y-202857142D01*
X241785714Y-202904761D01*
X241690476Y-202952380D01*
X241547619Y-202952380D01*
X242166666Y-202285714D02*
X242547619Y-202285714D01*
X242309523Y-201952380D02*
X242309523Y-202809523D01*
X242357142Y-202904761D01*
X242452380Y-202952380D01*
X242547619Y-202952380D01*
X242785714Y-201952380D02*
X243452380Y-201952380D01*
X243023809Y-202952380D01*
%TO.C,J2*%
X257566666Y-97752380D02*
X257566666Y-98466666D01*
X257519047Y-98609523D01*
X257423809Y-98704761D01*
X257280952Y-98752380D01*
X257185714Y-98752380D01*
X257995238Y-97847619D02*
X258042857Y-97800000D01*
X258138095Y-97752380D01*
X258376190Y-97752380D01*
X258471428Y-97800000D01*
X258519047Y-97847619D01*
X258566666Y-97942857D01*
X258566666Y-98038095D01*
X258519047Y-98180952D01*
X257947619Y-98752380D01*
X258566666Y-98752380D01*
%TO.C,J3*%
X268316666Y-97752380D02*
X268316666Y-98466666D01*
X268269047Y-98609523D01*
X268173809Y-98704761D01*
X268030952Y-98752380D01*
X267935714Y-98752380D01*
X268697619Y-97752380D02*
X269316666Y-97752380D01*
X268983333Y-98133333D01*
X269126190Y-98133333D01*
X269221428Y-98180952D01*
X269269047Y-98228571D01*
X269316666Y-98323809D01*
X269316666Y-98561904D01*
X269269047Y-98657142D01*
X269221428Y-98704761D01*
X269126190Y-98752380D01*
X268840476Y-98752380D01*
X268745238Y-98704761D01*
X268697619Y-98657142D01*
%TO.C,RGB_Pot1*%
X259714285Y-175452380D02*
X259380952Y-174976190D01*
X259142857Y-175452380D02*
X259142857Y-174452380D01*
X259523809Y-174452380D01*
X259619047Y-174500000D01*
X259666666Y-174547619D01*
X259714285Y-174642857D01*
X259714285Y-174785714D01*
X259666666Y-174880952D01*
X259619047Y-174928571D01*
X259523809Y-174976190D01*
X259142857Y-174976190D01*
X260666666Y-174500000D02*
X260571428Y-174452380D01*
X260428571Y-174452380D01*
X260285714Y-174500000D01*
X260190476Y-174595238D01*
X260142857Y-174690476D01*
X260095238Y-174880952D01*
X260095238Y-175023809D01*
X260142857Y-175214285D01*
X260190476Y-175309523D01*
X260285714Y-175404761D01*
X260428571Y-175452380D01*
X260523809Y-175452380D01*
X260666666Y-175404761D01*
X260714285Y-175357142D01*
X260714285Y-175023809D01*
X260523809Y-175023809D01*
X261476190Y-174928571D02*
X261619047Y-174976190D01*
X261666666Y-175023809D01*
X261714285Y-175119047D01*
X261714285Y-175261904D01*
X261666666Y-175357142D01*
X261619047Y-175404761D01*
X261523809Y-175452380D01*
X261142857Y-175452380D01*
X261142857Y-174452380D01*
X261476190Y-174452380D01*
X261571428Y-174500000D01*
X261619047Y-174547619D01*
X261666666Y-174642857D01*
X261666666Y-174738095D01*
X261619047Y-174833333D01*
X261571428Y-174880952D01*
X261476190Y-174928571D01*
X261142857Y-174928571D01*
X261904761Y-175547619D02*
X262666666Y-175547619D01*
X262904761Y-175452380D02*
X262904761Y-174452380D01*
X263285714Y-174452380D01*
X263380952Y-174500000D01*
X263428571Y-174547619D01*
X263476190Y-174642857D01*
X263476190Y-174785714D01*
X263428571Y-174880952D01*
X263380952Y-174928571D01*
X263285714Y-174976190D01*
X262904761Y-174976190D01*
X264047619Y-175452380D02*
X263952380Y-175404761D01*
X263904761Y-175357142D01*
X263857142Y-175261904D01*
X263857142Y-174976190D01*
X263904761Y-174880952D01*
X263952380Y-174833333D01*
X264047619Y-174785714D01*
X264190476Y-174785714D01*
X264285714Y-174833333D01*
X264333333Y-174880952D01*
X264380952Y-174976190D01*
X264380952Y-175261904D01*
X264333333Y-175357142D01*
X264285714Y-175404761D01*
X264190476Y-175452380D01*
X264047619Y-175452380D01*
X264666666Y-174785714D02*
X265047619Y-174785714D01*
X264809523Y-174452380D02*
X264809523Y-175309523D01*
X264857142Y-175404761D01*
X264952380Y-175452380D01*
X265047619Y-175452380D01*
X265904761Y-175452380D02*
X265333333Y-175452380D01*
X265619047Y-175452380D02*
X265619047Y-174452380D01*
X265523809Y-174595238D01*
X265428571Y-174690476D01*
X265333333Y-174738095D01*
%TO.C,RV3*%
X147204761Y-106352380D02*
X146871428Y-105876190D01*
X146633333Y-106352380D02*
X146633333Y-105352380D01*
X147014285Y-105352380D01*
X147109523Y-105400000D01*
X147157142Y-105447619D01*
X147204761Y-105542857D01*
X147204761Y-105685714D01*
X147157142Y-105780952D01*
X147109523Y-105828571D01*
X147014285Y-105876190D01*
X146633333Y-105876190D01*
X147490476Y-105352380D02*
X147823809Y-106352380D01*
X148157142Y-105352380D01*
X148395238Y-105352380D02*
X149014285Y-105352380D01*
X148680952Y-105733333D01*
X148823809Y-105733333D01*
X148919047Y-105780952D01*
X148966666Y-105828571D01*
X149014285Y-105923809D01*
X149014285Y-106161904D01*
X148966666Y-106257142D01*
X148919047Y-106304761D01*
X148823809Y-106352380D01*
X148538095Y-106352380D01*
X148442857Y-106304761D01*
X148395238Y-106257142D01*
%TO.C,RV2*%
X116792380Y-96070238D02*
X116316190Y-96403571D01*
X116792380Y-96641666D02*
X115792380Y-96641666D01*
X115792380Y-96260714D01*
X115840000Y-96165476D01*
X115887619Y-96117857D01*
X115982857Y-96070238D01*
X116125714Y-96070238D01*
X116220952Y-96117857D01*
X116268571Y-96165476D01*
X116316190Y-96260714D01*
X116316190Y-96641666D01*
X115792380Y-95784523D02*
X116792380Y-95451190D01*
X115792380Y-95117857D01*
X115887619Y-94832142D02*
X115840000Y-94784523D01*
X115792380Y-94689285D01*
X115792380Y-94451190D01*
X115840000Y-94355952D01*
X115887619Y-94308333D01*
X115982857Y-94260714D01*
X116078095Y-94260714D01*
X116220952Y-94308333D01*
X116792380Y-94879761D01*
X116792380Y-94260714D01*
%TO.C,RV20*%
X208928571Y-175202380D02*
X208595238Y-174726190D01*
X208357142Y-175202380D02*
X208357142Y-174202380D01*
X208738095Y-174202380D01*
X208833333Y-174250000D01*
X208880952Y-174297619D01*
X208928571Y-174392857D01*
X208928571Y-174535714D01*
X208880952Y-174630952D01*
X208833333Y-174678571D01*
X208738095Y-174726190D01*
X208357142Y-174726190D01*
X209214285Y-174202380D02*
X209547619Y-175202380D01*
X209880952Y-174202380D01*
X210166666Y-174297619D02*
X210214285Y-174250000D01*
X210309523Y-174202380D01*
X210547619Y-174202380D01*
X210642857Y-174250000D01*
X210690476Y-174297619D01*
X210738095Y-174392857D01*
X210738095Y-174488095D01*
X210690476Y-174630952D01*
X210119047Y-175202380D01*
X210738095Y-175202380D01*
X211357142Y-174202380D02*
X211452380Y-174202380D01*
X211547619Y-174250000D01*
X211595238Y-174297619D01*
X211642857Y-174392857D01*
X211690476Y-174583333D01*
X211690476Y-174821428D01*
X211642857Y-175011904D01*
X211595238Y-175107142D01*
X211547619Y-175154761D01*
X211452380Y-175202380D01*
X211357142Y-175202380D01*
X211261904Y-175154761D01*
X211214285Y-175107142D01*
X211166666Y-175011904D01*
X211119047Y-174821428D01*
X211119047Y-174583333D01*
X211166666Y-174392857D01*
X211214285Y-174297619D01*
X211261904Y-174250000D01*
X211357142Y-174202380D01*
%TO.C,RGB_Pot9*%
X259714285Y-202952380D02*
X259380952Y-202476190D01*
X259142857Y-202952380D02*
X259142857Y-201952380D01*
X259523809Y-201952380D01*
X259619047Y-202000000D01*
X259666666Y-202047619D01*
X259714285Y-202142857D01*
X259714285Y-202285714D01*
X259666666Y-202380952D01*
X259619047Y-202428571D01*
X259523809Y-202476190D01*
X259142857Y-202476190D01*
X260666666Y-202000000D02*
X260571428Y-201952380D01*
X260428571Y-201952380D01*
X260285714Y-202000000D01*
X260190476Y-202095238D01*
X260142857Y-202190476D01*
X260095238Y-202380952D01*
X260095238Y-202523809D01*
X260142857Y-202714285D01*
X260190476Y-202809523D01*
X260285714Y-202904761D01*
X260428571Y-202952380D01*
X260523809Y-202952380D01*
X260666666Y-202904761D01*
X260714285Y-202857142D01*
X260714285Y-202523809D01*
X260523809Y-202523809D01*
X261476190Y-202428571D02*
X261619047Y-202476190D01*
X261666666Y-202523809D01*
X261714285Y-202619047D01*
X261714285Y-202761904D01*
X261666666Y-202857142D01*
X261619047Y-202904761D01*
X261523809Y-202952380D01*
X261142857Y-202952380D01*
X261142857Y-201952380D01*
X261476190Y-201952380D01*
X261571428Y-202000000D01*
X261619047Y-202047619D01*
X261666666Y-202142857D01*
X261666666Y-202238095D01*
X261619047Y-202333333D01*
X261571428Y-202380952D01*
X261476190Y-202428571D01*
X261142857Y-202428571D01*
X261904761Y-203047619D02*
X262666666Y-203047619D01*
X262904761Y-202952380D02*
X262904761Y-201952380D01*
X263285714Y-201952380D01*
X263380952Y-202000000D01*
X263428571Y-202047619D01*
X263476190Y-202142857D01*
X263476190Y-202285714D01*
X263428571Y-202380952D01*
X263380952Y-202428571D01*
X263285714Y-202476190D01*
X262904761Y-202476190D01*
X264047619Y-202952380D02*
X263952380Y-202904761D01*
X263904761Y-202857142D01*
X263857142Y-202761904D01*
X263857142Y-202476190D01*
X263904761Y-202380952D01*
X263952380Y-202333333D01*
X264047619Y-202285714D01*
X264190476Y-202285714D01*
X264285714Y-202333333D01*
X264333333Y-202380952D01*
X264380952Y-202476190D01*
X264380952Y-202761904D01*
X264333333Y-202857142D01*
X264285714Y-202904761D01*
X264190476Y-202952380D01*
X264047619Y-202952380D01*
X264666666Y-202285714D02*
X265047619Y-202285714D01*
X264809523Y-201952380D02*
X264809523Y-202809523D01*
X264857142Y-202904761D01*
X264952380Y-202952380D01*
X265047619Y-202952380D01*
X265428571Y-202952380D02*
X265619047Y-202952380D01*
X265714285Y-202904761D01*
X265761904Y-202857142D01*
X265857142Y-202714285D01*
X265904761Y-202523809D01*
X265904761Y-202142857D01*
X265857142Y-202047619D01*
X265809523Y-202000000D01*
X265714285Y-201952380D01*
X265523809Y-201952380D01*
X265428571Y-202000000D01*
X265380952Y-202047619D01*
X265333333Y-202142857D01*
X265333333Y-202380952D01*
X265380952Y-202476190D01*
X265428571Y-202523809D01*
X265523809Y-202571428D01*
X265714285Y-202571428D01*
X265809523Y-202523809D01*
X265857142Y-202476190D01*
X265904761Y-202380952D01*
%TO.C,RV9*%
X217204761Y-136352380D02*
X216871428Y-135876190D01*
X216633333Y-136352380D02*
X216633333Y-135352380D01*
X217014285Y-135352380D01*
X217109523Y-135400000D01*
X217157142Y-135447619D01*
X217204761Y-135542857D01*
X217204761Y-135685714D01*
X217157142Y-135780952D01*
X217109523Y-135828571D01*
X217014285Y-135876190D01*
X216633333Y-135876190D01*
X217490476Y-135352380D02*
X217823809Y-136352380D01*
X218157142Y-135352380D01*
X218538095Y-136352380D02*
X218728571Y-136352380D01*
X218823809Y-136304761D01*
X218871428Y-136257142D01*
X218966666Y-136114285D01*
X219014285Y-135923809D01*
X219014285Y-135542857D01*
X218966666Y-135447619D01*
X218919047Y-135400000D01*
X218823809Y-135352380D01*
X218633333Y-135352380D01*
X218538095Y-135400000D01*
X218490476Y-135447619D01*
X218442857Y-135542857D01*
X218442857Y-135780952D01*
X218490476Y-135876190D01*
X218538095Y-135923809D01*
X218633333Y-135971428D01*
X218823809Y-135971428D01*
X218919047Y-135923809D01*
X218966666Y-135876190D01*
X219014285Y-135780952D01*
%TO.C,J4*%
X248666666Y-133847380D02*
X248666666Y-134561666D01*
X248619047Y-134704523D01*
X248523809Y-134799761D01*
X248380952Y-134847380D01*
X248285714Y-134847380D01*
X249571428Y-134180714D02*
X249571428Y-134847380D01*
X249333333Y-133799761D02*
X249095238Y-134514047D01*
X249714285Y-134514047D01*
%TO.C,RGB_Pot4*%
X147214285Y-202952380D02*
X146880952Y-202476190D01*
X146642857Y-202952380D02*
X146642857Y-201952380D01*
X147023809Y-201952380D01*
X147119047Y-202000000D01*
X147166666Y-202047619D01*
X147214285Y-202142857D01*
X147214285Y-202285714D01*
X147166666Y-202380952D01*
X147119047Y-202428571D01*
X147023809Y-202476190D01*
X146642857Y-202476190D01*
X148166666Y-202000000D02*
X148071428Y-201952380D01*
X147928571Y-201952380D01*
X147785714Y-202000000D01*
X147690476Y-202095238D01*
X147642857Y-202190476D01*
X147595238Y-202380952D01*
X147595238Y-202523809D01*
X147642857Y-202714285D01*
X147690476Y-202809523D01*
X147785714Y-202904761D01*
X147928571Y-202952380D01*
X148023809Y-202952380D01*
X148166666Y-202904761D01*
X148214285Y-202857142D01*
X148214285Y-202523809D01*
X148023809Y-202523809D01*
X148976190Y-202428571D02*
X149119047Y-202476190D01*
X149166666Y-202523809D01*
X149214285Y-202619047D01*
X149214285Y-202761904D01*
X149166666Y-202857142D01*
X149119047Y-202904761D01*
X149023809Y-202952380D01*
X148642857Y-202952380D01*
X148642857Y-201952380D01*
X148976190Y-201952380D01*
X149071428Y-202000000D01*
X149119047Y-202047619D01*
X149166666Y-202142857D01*
X149166666Y-202238095D01*
X149119047Y-202333333D01*
X149071428Y-202380952D01*
X148976190Y-202428571D01*
X148642857Y-202428571D01*
X149404761Y-203047619D02*
X150166666Y-203047619D01*
X150404761Y-202952380D02*
X150404761Y-201952380D01*
X150785714Y-201952380D01*
X150880952Y-202000000D01*
X150928571Y-202047619D01*
X150976190Y-202142857D01*
X150976190Y-202285714D01*
X150928571Y-202380952D01*
X150880952Y-202428571D01*
X150785714Y-202476190D01*
X150404761Y-202476190D01*
X151547619Y-202952380D02*
X151452380Y-202904761D01*
X151404761Y-202857142D01*
X151357142Y-202761904D01*
X151357142Y-202476190D01*
X151404761Y-202380952D01*
X151452380Y-202333333D01*
X151547619Y-202285714D01*
X151690476Y-202285714D01*
X151785714Y-202333333D01*
X151833333Y-202380952D01*
X151880952Y-202476190D01*
X151880952Y-202761904D01*
X151833333Y-202857142D01*
X151785714Y-202904761D01*
X151690476Y-202952380D01*
X151547619Y-202952380D01*
X152166666Y-202285714D02*
X152547619Y-202285714D01*
X152309523Y-201952380D02*
X152309523Y-202809523D01*
X152357142Y-202904761D01*
X152452380Y-202952380D01*
X152547619Y-202952380D01*
X153309523Y-202285714D02*
X153309523Y-202952380D01*
X153071428Y-201904761D02*
X152833333Y-202619047D01*
X153452380Y-202619047D01*
%TO.C,RGB_Pot2*%
X102214285Y-202881312D02*
X101880952Y-202405122D01*
X101642857Y-202881312D02*
X101642857Y-201881312D01*
X102023809Y-201881312D01*
X102119047Y-201928932D01*
X102166666Y-201976551D01*
X102214285Y-202071789D01*
X102214285Y-202214646D01*
X102166666Y-202309884D01*
X102119047Y-202357503D01*
X102023809Y-202405122D01*
X101642857Y-202405122D01*
X103166666Y-201928932D02*
X103071428Y-201881312D01*
X102928571Y-201881312D01*
X102785714Y-201928932D01*
X102690476Y-202024170D01*
X102642857Y-202119408D01*
X102595238Y-202309884D01*
X102595238Y-202452741D01*
X102642857Y-202643217D01*
X102690476Y-202738455D01*
X102785714Y-202833693D01*
X102928571Y-202881312D01*
X103023809Y-202881312D01*
X103166666Y-202833693D01*
X103214285Y-202786074D01*
X103214285Y-202452741D01*
X103023809Y-202452741D01*
X103976190Y-202357503D02*
X104119047Y-202405122D01*
X104166666Y-202452741D01*
X104214285Y-202547979D01*
X104214285Y-202690836D01*
X104166666Y-202786074D01*
X104119047Y-202833693D01*
X104023809Y-202881312D01*
X103642857Y-202881312D01*
X103642857Y-201881312D01*
X103976190Y-201881312D01*
X104071428Y-201928932D01*
X104119047Y-201976551D01*
X104166666Y-202071789D01*
X104166666Y-202167027D01*
X104119047Y-202262265D01*
X104071428Y-202309884D01*
X103976190Y-202357503D01*
X103642857Y-202357503D01*
X104404761Y-202976551D02*
X105166666Y-202976551D01*
X105404761Y-202881312D02*
X105404761Y-201881312D01*
X105785714Y-201881312D01*
X105880952Y-201928932D01*
X105928571Y-201976551D01*
X105976190Y-202071789D01*
X105976190Y-202214646D01*
X105928571Y-202309884D01*
X105880952Y-202357503D01*
X105785714Y-202405122D01*
X105404761Y-202405122D01*
X106547619Y-202881312D02*
X106452380Y-202833693D01*
X106404761Y-202786074D01*
X106357142Y-202690836D01*
X106357142Y-202405122D01*
X106404761Y-202309884D01*
X106452380Y-202262265D01*
X106547619Y-202214646D01*
X106690476Y-202214646D01*
X106785714Y-202262265D01*
X106833333Y-202309884D01*
X106880952Y-202405122D01*
X106880952Y-202690836D01*
X106833333Y-202786074D01*
X106785714Y-202833693D01*
X106690476Y-202881312D01*
X106547619Y-202881312D01*
X107166666Y-202214646D02*
X107547619Y-202214646D01*
X107309523Y-201881312D02*
X107309523Y-202738455D01*
X107357142Y-202833693D01*
X107452380Y-202881312D01*
X107547619Y-202881312D01*
X107833333Y-201976551D02*
X107880952Y-201928932D01*
X107976190Y-201881312D01*
X108214285Y-201881312D01*
X108309523Y-201928932D01*
X108357142Y-201976551D01*
X108404761Y-202071789D01*
X108404761Y-202167027D01*
X108357142Y-202309884D01*
X107785714Y-202881312D01*
X108404761Y-202881312D01*
%TO.C,RV13*%
X85887619Y-151938571D02*
X86363809Y-151605238D01*
X85887619Y-151367142D02*
X86887619Y-151367142D01*
X86887619Y-151748095D01*
X86840000Y-151843333D01*
X86792380Y-151890952D01*
X86697142Y-151938571D01*
X86554285Y-151938571D01*
X86459047Y-151890952D01*
X86411428Y-151843333D01*
X86363809Y-151748095D01*
X86363809Y-151367142D01*
X86887619Y-152224285D02*
X85887619Y-152557619D01*
X86887619Y-152890952D01*
X85887619Y-153748095D02*
X85887619Y-153176666D01*
X85887619Y-153462380D02*
X86887619Y-153462380D01*
X86744761Y-153367142D01*
X86649523Y-153271904D01*
X86601904Y-153176666D01*
X86887619Y-154081428D02*
X86887619Y-154700476D01*
X86506666Y-154367142D01*
X86506666Y-154510000D01*
X86459047Y-154605238D01*
X86411428Y-154652857D01*
X86316190Y-154700476D01*
X86078095Y-154700476D01*
X85982857Y-154652857D01*
X85935238Y-154605238D01*
X85887619Y-154510000D01*
X85887619Y-154224285D01*
X85935238Y-154129047D01*
X85982857Y-154081428D01*
%TO.C,SW1*%
X109166666Y-136404761D02*
X109309523Y-136452380D01*
X109547619Y-136452380D01*
X109642857Y-136404761D01*
X109690476Y-136357142D01*
X109738095Y-136261904D01*
X109738095Y-136166666D01*
X109690476Y-136071428D01*
X109642857Y-136023809D01*
X109547619Y-135976190D01*
X109357142Y-135928571D01*
X109261904Y-135880952D01*
X109214285Y-135833333D01*
X109166666Y-135738095D01*
X109166666Y-135642857D01*
X109214285Y-135547619D01*
X109261904Y-135500000D01*
X109357142Y-135452380D01*
X109595238Y-135452380D01*
X109738095Y-135500000D01*
X110071428Y-135452380D02*
X110309523Y-136452380D01*
X110500000Y-135738095D01*
X110690476Y-136452380D01*
X110928571Y-135452380D01*
X111833333Y-136452380D02*
X111261904Y-136452380D01*
X111547619Y-136452380D02*
X111547619Y-135452380D01*
X111452380Y-135595238D01*
X111357142Y-135690476D01*
X111261904Y-135738095D01*
%TO.C,RGB_Pot8*%
X214714285Y-202952380D02*
X214380952Y-202476190D01*
X214142857Y-202952380D02*
X214142857Y-201952380D01*
X214523809Y-201952380D01*
X214619047Y-202000000D01*
X214666666Y-202047619D01*
X214714285Y-202142857D01*
X214714285Y-202285714D01*
X214666666Y-202380952D01*
X214619047Y-202428571D01*
X214523809Y-202476190D01*
X214142857Y-202476190D01*
X215666666Y-202000000D02*
X215571428Y-201952380D01*
X215428571Y-201952380D01*
X215285714Y-202000000D01*
X215190476Y-202095238D01*
X215142857Y-202190476D01*
X215095238Y-202380952D01*
X215095238Y-202523809D01*
X215142857Y-202714285D01*
X215190476Y-202809523D01*
X215285714Y-202904761D01*
X215428571Y-202952380D01*
X215523809Y-202952380D01*
X215666666Y-202904761D01*
X215714285Y-202857142D01*
X215714285Y-202523809D01*
X215523809Y-202523809D01*
X216476190Y-202428571D02*
X216619047Y-202476190D01*
X216666666Y-202523809D01*
X216714285Y-202619047D01*
X216714285Y-202761904D01*
X216666666Y-202857142D01*
X216619047Y-202904761D01*
X216523809Y-202952380D01*
X216142857Y-202952380D01*
X216142857Y-201952380D01*
X216476190Y-201952380D01*
X216571428Y-202000000D01*
X216619047Y-202047619D01*
X216666666Y-202142857D01*
X216666666Y-202238095D01*
X216619047Y-202333333D01*
X216571428Y-202380952D01*
X216476190Y-202428571D01*
X216142857Y-202428571D01*
X216904761Y-203047619D02*
X217666666Y-203047619D01*
X217904761Y-202952380D02*
X217904761Y-201952380D01*
X218285714Y-201952380D01*
X218380952Y-202000000D01*
X218428571Y-202047619D01*
X218476190Y-202142857D01*
X218476190Y-202285714D01*
X218428571Y-202380952D01*
X218380952Y-202428571D01*
X218285714Y-202476190D01*
X217904761Y-202476190D01*
X219047619Y-202952380D02*
X218952380Y-202904761D01*
X218904761Y-202857142D01*
X218857142Y-202761904D01*
X218857142Y-202476190D01*
X218904761Y-202380952D01*
X218952380Y-202333333D01*
X219047619Y-202285714D01*
X219190476Y-202285714D01*
X219285714Y-202333333D01*
X219333333Y-202380952D01*
X219380952Y-202476190D01*
X219380952Y-202761904D01*
X219333333Y-202857142D01*
X219285714Y-202904761D01*
X219190476Y-202952380D01*
X219047619Y-202952380D01*
X219666666Y-202285714D02*
X220047619Y-202285714D01*
X219809523Y-201952380D02*
X219809523Y-202809523D01*
X219857142Y-202904761D01*
X219952380Y-202952380D01*
X220047619Y-202952380D01*
X220523809Y-202380952D02*
X220428571Y-202333333D01*
X220380952Y-202285714D01*
X220333333Y-202190476D01*
X220333333Y-202142857D01*
X220380952Y-202047619D01*
X220428571Y-202000000D01*
X220523809Y-201952380D01*
X220714285Y-201952380D01*
X220809523Y-202000000D01*
X220857142Y-202047619D01*
X220904761Y-202142857D01*
X220904761Y-202190476D01*
X220857142Y-202285714D01*
X220809523Y-202333333D01*
X220714285Y-202380952D01*
X220523809Y-202380952D01*
X220428571Y-202428571D01*
X220380952Y-202476190D01*
X220333333Y-202571428D01*
X220333333Y-202761904D01*
X220380952Y-202857142D01*
X220428571Y-202904761D01*
X220523809Y-202952380D01*
X220714285Y-202952380D01*
X220809523Y-202904761D01*
X220857142Y-202857142D01*
X220904761Y-202761904D01*
X220904761Y-202571428D01*
X220857142Y-202476190D01*
X220809523Y-202428571D01*
X220714285Y-202380952D01*
D16*
%TO.C,RGB_Pot6*%
X190500000Y-203500000D02*
X199500000Y-203500000D01*
X199500000Y-203500000D02*
X199500000Y-211500000D01*
X199500000Y-211500000D02*
X190500000Y-211500000D01*
X190500000Y-211500000D02*
X190500000Y-203500000D01*
D17*
X191130000Y-204000000D02*
G75*
G03*
X191130000Y-204000000I-130000J0D01*
G01*
D16*
%TO.C,SW2*%
X170555000Y-148015000D02*
X179445000Y-148015000D01*
X179445000Y-148015000D02*
X179445000Y-161985000D01*
X175000000Y-158175000D02*
X171825000Y-156905000D01*
X171825000Y-153095000D02*
X175000000Y-151825000D01*
X170555000Y-161985000D02*
X170555000Y-148015000D01*
X178175000Y-156905000D02*
X175000000Y-158175000D01*
X171825000Y-156905000D02*
X171825000Y-153095000D01*
X175000000Y-151825000D02*
X178175000Y-153095000D01*
X178175000Y-153095000D02*
X178175000Y-156905000D01*
X179445000Y-161985000D02*
X170555000Y-161985000D01*
X178702654Y-155000000D02*
G75*
G03*
X178702654Y-155000000I-3702654J0D01*
G01*
%TO.C,RGB_Pot5*%
X168000000Y-203500000D02*
X177000000Y-203500000D01*
X177000000Y-203500000D02*
X177000000Y-211500000D01*
X177000000Y-211500000D02*
X168000000Y-211500000D01*
X168000000Y-211500000D02*
X168000000Y-203500000D01*
D17*
X168630000Y-204000000D02*
G75*
G03*
X168630000Y-204000000I-130000J0D01*
G01*
D16*
%TO.C,RV17*%
X87470000Y-181105000D02*
X92540000Y-181105000D01*
X87470000Y-190875000D02*
X92540000Y-190875000D01*
D18*
X92235000Y-182495000D02*
X90066000Y-182494000D01*
X91161904Y-181409950D02*
X91160904Y-183578950D01*
D16*
X87470000Y-190875000D02*
X87470000Y-181105000D01*
X92540000Y-190875000D02*
X92540000Y-181105000D01*
X91160904Y-183578950D02*
G75*
G03*
X90066000Y-182494000I-10404J1084450D01*
G01*
%TO.C,RGB_Pot3*%
X123000000Y-203428932D02*
X132000000Y-203428932D01*
X132000000Y-203428932D02*
X132000000Y-211428932D01*
X132000000Y-211428932D02*
X123000000Y-211428932D01*
X123000000Y-211428932D02*
X123000000Y-203428932D01*
D17*
X123630000Y-203928932D02*
G75*
G03*
X123630000Y-203928932I-130000J0D01*
G01*
D16*
%TO.C,SW5*%
X279000000Y-206750000D02*
X279000000Y-208250000D01*
X286000000Y-208250000D02*
X286000000Y-206750000D01*
X280250000Y-210750000D02*
X284750000Y-210750000D01*
X284750000Y-204250000D02*
X280250000Y-204250000D01*
%TO.C,RV16*%
X87470000Y-179875000D02*
X87470000Y-170105000D01*
X87470000Y-170105000D02*
X92540000Y-170105000D01*
X92540000Y-179875000D02*
X92540000Y-170105000D01*
D18*
X91161904Y-170409950D02*
X91160904Y-172578950D01*
D16*
X87470000Y-179875000D02*
X92540000Y-179875000D01*
D18*
X92235000Y-171495000D02*
X90066000Y-171494000D01*
D16*
X91160904Y-172578950D02*
G75*
G03*
X90066000Y-171494000I-10404J1084450D01*
G01*
%TO.C,RV21*%
X235150000Y-175000000D02*
X244850000Y-175000000D01*
X244850000Y-175000000D02*
X244850000Y-186500000D01*
X235150000Y-186500000D02*
X235150000Y-175000000D01*
X244850000Y-186500000D02*
X235150000Y-186500000D01*
X243000000Y-180000000D02*
G75*
G03*
X243000000Y-180000000I-3000000J0D01*
G01*
%TO.C,RV19*%
X135150000Y-186500000D02*
X135150000Y-175000000D01*
X144850000Y-175000000D02*
X144850000Y-186500000D01*
X135150000Y-175000000D02*
X144850000Y-175000000D01*
X144850000Y-186500000D02*
X135150000Y-186500000D01*
X143000000Y-180000000D02*
G75*
G03*
X143000000Y-180000000I-3000000J0D01*
G01*
%TO.C,RV14*%
X100150000Y-150000000D02*
X109850000Y-150000000D01*
X109850000Y-161500000D02*
X100150000Y-161500000D01*
X109850000Y-150000000D02*
X109850000Y-161500000D01*
X100150000Y-161500000D02*
X100150000Y-150000000D01*
X108000000Y-155000000D02*
G75*
G03*
X108000000Y-155000000I-3000000J0D01*
G01*
%TO.C,RV12*%
X92540000Y-168875000D02*
X92540000Y-159105000D01*
D18*
X91161904Y-159409950D02*
X91160904Y-161578950D01*
D16*
X87470000Y-168875000D02*
X92540000Y-168875000D01*
X87470000Y-168875000D02*
X87470000Y-159105000D01*
D18*
X92235000Y-160495000D02*
X90066000Y-160494000D01*
D16*
X87470000Y-159105000D02*
X92540000Y-159105000D01*
X91160904Y-161578950D02*
G75*
G03*
X90066000Y-160494000I-10404J1084450D01*
G01*
%TO.C,RV5*%
X204900000Y-104700000D02*
X207100000Y-104700000D01*
X207100000Y-104700000D02*
X207100000Y-107100000D01*
X207100000Y-107100000D02*
X204900000Y-107100000D01*
X204900000Y-107100000D02*
X204900000Y-104700000D01*
X212900000Y-104700000D02*
X215100000Y-104700000D01*
X215100000Y-104700000D02*
X215100000Y-107100000D01*
X215100000Y-107100000D02*
X212900000Y-107100000D01*
X212900000Y-107100000D02*
X212900000Y-104700000D01*
X202500000Y-88300000D02*
X217500000Y-88300000D01*
X217500000Y-88300000D02*
X217500000Y-104700000D01*
X217500000Y-104700000D02*
X202500000Y-104700000D01*
X202500000Y-104700000D02*
X202500000Y-88300000D01*
X208900000Y-104700000D02*
X211100000Y-104700000D01*
X211100000Y-104700000D02*
X211100000Y-107100000D01*
X211100000Y-107100000D02*
X208900000Y-107100000D01*
X208900000Y-107100000D02*
X208900000Y-104700000D01*
%TO.C,RV15*%
X144850000Y-161500000D02*
X135150000Y-161500000D01*
X144850000Y-150000000D02*
X144850000Y-161500000D01*
X135150000Y-161500000D02*
X135150000Y-150000000D01*
X135150000Y-150000000D02*
X144850000Y-150000000D01*
X143000000Y-155000000D02*
G75*
G03*
X143000000Y-155000000I-3000000J0D01*
G01*
%TO.C,RV6*%
X235150000Y-90000000D02*
X244850000Y-90000000D01*
X244850000Y-90000000D02*
X244850000Y-101500000D01*
X244850000Y-101500000D02*
X235150000Y-101500000D01*
X235150000Y-101500000D02*
X235150000Y-90000000D01*
X243000000Y-95000000D02*
G75*
G03*
X243000000Y-95000000I-3000000J0D01*
G01*
%TO.C,RV4*%
X169900000Y-104700000D02*
X172100000Y-104700000D01*
X172100000Y-104700000D02*
X172100000Y-107100000D01*
X172100000Y-107100000D02*
X169900000Y-107100000D01*
X169900000Y-107100000D02*
X169900000Y-104700000D01*
X167500000Y-88300000D02*
X182500000Y-88300000D01*
X182500000Y-88300000D02*
X182500000Y-104700000D01*
X182500000Y-104700000D02*
X167500000Y-104700000D01*
X167500000Y-104700000D02*
X167500000Y-88300000D01*
X177900000Y-104700000D02*
X180100000Y-104700000D01*
X180100000Y-104700000D02*
X180100000Y-107100000D01*
X180100000Y-107100000D02*
X177900000Y-107100000D01*
X177900000Y-107100000D02*
X177900000Y-104700000D01*
X173900000Y-104700000D02*
X176100000Y-104700000D01*
X176100000Y-104700000D02*
X176100000Y-107100000D01*
X176100000Y-107100000D02*
X173900000Y-107100000D01*
X173900000Y-107100000D02*
X173900000Y-104700000D01*
%TO.C,SW4*%
X235555000Y-161985000D02*
X235555000Y-148015000D01*
X236825000Y-156905000D02*
X236825000Y-153095000D01*
X243175000Y-153095000D02*
X243175000Y-156905000D01*
X243175000Y-156905000D02*
X240000000Y-158175000D01*
X235555000Y-148015000D02*
X244445000Y-148015000D01*
X240000000Y-158175000D02*
X236825000Y-156905000D01*
X236825000Y-153095000D02*
X240000000Y-151825000D01*
X244445000Y-148015000D02*
X244445000Y-161985000D01*
X244445000Y-161985000D02*
X235555000Y-161985000D01*
X240000000Y-151825000D02*
X243175000Y-153095000D01*
X243702654Y-155000000D02*
G75*
G03*
X243702654Y-155000000I-3702654J0D01*
G01*
%TO.C,RV11*%
X244850000Y-131500000D02*
X235150000Y-131500000D01*
X244850000Y-120000000D02*
X244850000Y-131500000D01*
X235150000Y-131500000D02*
X235150000Y-120000000D01*
X235150000Y-120000000D02*
X244850000Y-120000000D01*
X243000000Y-125000000D02*
G75*
G03*
X243000000Y-125000000I-3000000J0D01*
G01*
%TO.C,SW3*%
X205555000Y-148015000D02*
X214445000Y-148015000D01*
X205555000Y-161985000D02*
X205555000Y-148015000D01*
X206825000Y-153095000D02*
X210000000Y-151825000D01*
X213175000Y-156905000D02*
X210000000Y-158175000D01*
X214445000Y-148015000D02*
X214445000Y-161985000D01*
X213175000Y-153095000D02*
X213175000Y-156905000D01*
X210000000Y-158175000D02*
X206825000Y-156905000D01*
X210000000Y-151825000D02*
X213175000Y-153095000D01*
X206825000Y-156905000D02*
X206825000Y-153095000D01*
X214445000Y-161985000D02*
X205555000Y-161985000D01*
X213702654Y-155000000D02*
G75*
G03*
X213702654Y-155000000I-3702654J0D01*
G01*
D18*
%TO.C,RV10*%
X250161904Y-112909950D02*
X250160904Y-115078950D01*
D16*
X246470000Y-122375000D02*
X251540000Y-122375000D01*
X246470000Y-112605000D02*
X251540000Y-112605000D01*
X246470000Y-122375000D02*
X246470000Y-112605000D01*
D18*
X251235000Y-113995000D02*
X249066000Y-113994000D01*
D16*
X251540000Y-122375000D02*
X251540000Y-112605000D01*
X250160904Y-115078950D02*
G75*
G03*
X249066000Y-113994000I-10404J1084450D01*
G01*
%TO.C,RV18*%
X100150000Y-186500000D02*
X100150000Y-175000000D01*
X109850000Y-175000000D02*
X109850000Y-186500000D01*
X109850000Y-186500000D02*
X100150000Y-186500000D01*
X100150000Y-175000000D02*
X109850000Y-175000000D01*
X108000000Y-180000000D02*
G75*
G03*
X108000000Y-180000000I-3000000J0D01*
G01*
%TO.C,RV22*%
X287350000Y-175000000D02*
X287350000Y-186500000D01*
X277650000Y-175000000D02*
X287350000Y-175000000D01*
X277650000Y-186500000D02*
X277650000Y-175000000D01*
X287350000Y-186500000D02*
X277650000Y-186500000D01*
X285500000Y-180000000D02*
G75*
G03*
X285500000Y-180000000I-3000000J0D01*
G01*
%TO.C,RV7*%
X142900000Y-134700000D02*
X145100000Y-134700000D01*
X145100000Y-134700000D02*
X145100000Y-137100000D01*
X145100000Y-137100000D02*
X142900000Y-137100000D01*
X142900000Y-137100000D02*
X142900000Y-134700000D01*
X138900000Y-134700000D02*
X141100000Y-134700000D01*
X141100000Y-134700000D02*
X141100000Y-137100000D01*
X141100000Y-137100000D02*
X138900000Y-137100000D01*
X138900000Y-137100000D02*
X138900000Y-134700000D01*
X132500000Y-118300000D02*
X147500000Y-118300000D01*
X147500000Y-118300000D02*
X147500000Y-134700000D01*
X147500000Y-134700000D02*
X132500000Y-134700000D01*
X132500000Y-134700000D02*
X132500000Y-118300000D01*
X134900000Y-134700000D02*
X137100000Y-134700000D01*
X137100000Y-134700000D02*
X137100000Y-137100000D01*
X137100000Y-137100000D02*
X134900000Y-137100000D01*
X134900000Y-137100000D02*
X134900000Y-134700000D01*
%TO.C,RV8*%
X173900000Y-134700000D02*
X176100000Y-134700000D01*
X176100000Y-134700000D02*
X176100000Y-137100000D01*
X176100000Y-137100000D02*
X173900000Y-137100000D01*
X173900000Y-137100000D02*
X173900000Y-134700000D01*
X177900000Y-134700000D02*
X180100000Y-134700000D01*
X180100000Y-134700000D02*
X180100000Y-137100000D01*
X180100000Y-137100000D02*
X177900000Y-137100000D01*
X177900000Y-137100000D02*
X177900000Y-134700000D01*
X169900000Y-134700000D02*
X172100000Y-134700000D01*
X172100000Y-134700000D02*
X172100000Y-137100000D01*
X172100000Y-137100000D02*
X169900000Y-137100000D01*
X169900000Y-137100000D02*
X169900000Y-134700000D01*
X167500000Y-118300000D02*
X182500000Y-118300000D01*
X182500000Y-118300000D02*
X182500000Y-134700000D01*
X182500000Y-134700000D02*
X167500000Y-134700000D01*
X167500000Y-134700000D02*
X167500000Y-118300000D01*
%TO.C,RV1*%
X107900000Y-104700000D02*
X110100000Y-104700000D01*
X110100000Y-104700000D02*
X110100000Y-107100000D01*
X110100000Y-107100000D02*
X107900000Y-107100000D01*
X107900000Y-107100000D02*
X107900000Y-104700000D01*
X103900000Y-104700000D02*
X106100000Y-104700000D01*
X106100000Y-104700000D02*
X106100000Y-107100000D01*
X106100000Y-107100000D02*
X103900000Y-107100000D01*
X103900000Y-107100000D02*
X103900000Y-104700000D01*
X97500000Y-88300000D02*
X112500000Y-88300000D01*
X112500000Y-88300000D02*
X112500000Y-104700000D01*
X112500000Y-104700000D02*
X97500000Y-104700000D01*
X97500000Y-104700000D02*
X97500000Y-88300000D01*
X99900000Y-104700000D02*
X102100000Y-104700000D01*
X102100000Y-104700000D02*
X102100000Y-107100000D01*
X102100000Y-107100000D02*
X99900000Y-107100000D01*
X99900000Y-107100000D02*
X99900000Y-104700000D01*
%TO.C,J1*%
X253729540Y-73940000D02*
X253729540Y-74800000D01*
X250750000Y-74500000D02*
X250750000Y-70500000D01*
X250750000Y-70500000D02*
X240250000Y-70500000D01*
X250750000Y-79500000D02*
X250750000Y-75500000D01*
X240250000Y-74500000D02*
X240250000Y-70500000D01*
X253729540Y-73940000D02*
X252929540Y-73940000D01*
X250750000Y-79500000D02*
X240250000Y-79500000D01*
X240250000Y-79500000D02*
X240250000Y-75500000D01*
X249250000Y-75000000D02*
G75*
G03*
X249250000Y-75000000I-3000000J0D01*
G01*
%TO.C,RGB_Pot7*%
X235500000Y-203500000D02*
X244500000Y-203500000D01*
X244500000Y-203500000D02*
X244500000Y-211500000D01*
X244500000Y-211500000D02*
X235500000Y-211500000D01*
X235500000Y-211500000D02*
X235500000Y-203500000D01*
D17*
X236130000Y-204000000D02*
G75*
G03*
X236130000Y-204000000I-130000J0D01*
G01*
D16*
%TO.C,J2*%
X264500000Y-90500000D02*
X264500000Y-101000000D01*
X258940000Y-87520460D02*
X258940000Y-88320460D01*
X259500000Y-90500000D02*
X255500000Y-90500000D01*
X264500000Y-90500000D02*
X260500000Y-90500000D01*
X259500000Y-101000000D02*
X255500000Y-101000000D01*
X258940000Y-87520460D02*
X259800000Y-87520460D01*
X255500000Y-90500000D02*
X255500000Y-101000000D01*
X264500000Y-101000000D02*
X260500000Y-101000000D01*
X263000000Y-95000000D02*
G75*
G03*
X263000000Y-95000000I-3000000J0D01*
G01*
%TO.C,J3*%
X270250000Y-90500000D02*
X266250000Y-90500000D01*
X269690000Y-87520460D02*
X270550000Y-87520460D01*
X275250000Y-90500000D02*
X271250000Y-90500000D01*
X266250000Y-90500000D02*
X266250000Y-101000000D01*
X270250000Y-101000000D02*
X266250000Y-101000000D01*
X269690000Y-87520460D02*
X269690000Y-88320460D01*
X275250000Y-101000000D02*
X271250000Y-101000000D01*
X275250000Y-90500000D02*
X275250000Y-101000000D01*
X273750000Y-95000000D02*
G75*
G03*
X273750000Y-95000000I-3000000J0D01*
G01*
%TO.C,RGB_Pot1*%
X258000000Y-176000000D02*
X267000000Y-176000000D01*
X267000000Y-176000000D02*
X267000000Y-184000000D01*
X267000000Y-184000000D02*
X258000000Y-184000000D01*
X258000000Y-184000000D02*
X258000000Y-176000000D01*
D17*
X258630000Y-176500000D02*
G75*
G03*
X258630000Y-176500000I-130000J0D01*
G01*
D16*
%TO.C,RV3*%
X132500000Y-88300000D02*
X147500000Y-88300000D01*
X147500000Y-88300000D02*
X147500000Y-104700000D01*
X147500000Y-104700000D02*
X132500000Y-104700000D01*
X132500000Y-104700000D02*
X132500000Y-88300000D01*
X134900000Y-104700000D02*
X137100000Y-104700000D01*
X137100000Y-104700000D02*
X137100000Y-107100000D01*
X137100000Y-107100000D02*
X134900000Y-107100000D01*
X134900000Y-107100000D02*
X134900000Y-104700000D01*
X138900000Y-104700000D02*
X141100000Y-104700000D01*
X141100000Y-104700000D02*
X141100000Y-107100000D01*
X141100000Y-107100000D02*
X138900000Y-107100000D01*
X138900000Y-107100000D02*
X138900000Y-104700000D01*
X142900000Y-104700000D02*
X145100000Y-104700000D01*
X145100000Y-104700000D02*
X145100000Y-107100000D01*
X145100000Y-107100000D02*
X142900000Y-107100000D01*
X142900000Y-107100000D02*
X142900000Y-104700000D01*
D18*
%TO.C,RV2*%
X122235000Y-91980000D02*
X120066000Y-91979000D01*
D16*
X117470000Y-100360000D02*
X122540000Y-100360000D01*
D18*
X121161904Y-90894950D02*
X121160904Y-93063950D01*
D16*
X117470000Y-100360000D02*
X117470000Y-90590000D01*
X122540000Y-100360000D02*
X122540000Y-90590000D01*
X117470000Y-90590000D02*
X122540000Y-90590000D01*
X121160904Y-93063950D02*
G75*
G03*
X120066000Y-91979000I-10404J1084450D01*
G01*
%TO.C,RV20*%
X205150000Y-175750000D02*
X214850000Y-175750000D01*
X214850000Y-175750000D02*
X214850000Y-187250000D01*
X205150000Y-187250000D02*
X205150000Y-175750000D01*
X214850000Y-187250000D02*
X205150000Y-187250000D01*
X213000000Y-180750000D02*
G75*
G03*
X213000000Y-180750000I-3000000J0D01*
G01*
%TO.C,RGB_Pot9*%
X258000000Y-203500000D02*
X267000000Y-203500000D01*
X267000000Y-203500000D02*
X267000000Y-211500000D01*
X267000000Y-211500000D02*
X258000000Y-211500000D01*
X258000000Y-211500000D02*
X258000000Y-203500000D01*
D17*
X258630000Y-204000000D02*
G75*
G03*
X258630000Y-204000000I-130000J0D01*
G01*
D16*
%TO.C,RV9*%
X204900000Y-134700000D02*
X207100000Y-134700000D01*
X207100000Y-134700000D02*
X207100000Y-137100000D01*
X207100000Y-137100000D02*
X204900000Y-137100000D01*
X204900000Y-137100000D02*
X204900000Y-134700000D01*
X208900000Y-134700000D02*
X211100000Y-134700000D01*
X211100000Y-134700000D02*
X211100000Y-137100000D01*
X211100000Y-137100000D02*
X208900000Y-137100000D01*
X208900000Y-137100000D02*
X208900000Y-134700000D01*
X212900000Y-134700000D02*
X215100000Y-134700000D01*
X215100000Y-134700000D02*
X215100000Y-137100000D01*
X215100000Y-137100000D02*
X212900000Y-137100000D01*
X212900000Y-137100000D02*
X212900000Y-134700000D01*
X202500000Y-118300000D02*
X217500000Y-118300000D01*
X217500000Y-118300000D02*
X217500000Y-134700000D01*
X217500000Y-134700000D02*
X202500000Y-134700000D01*
X202500000Y-134700000D02*
X202500000Y-118300000D01*
%TO.C,J4*%
X247670000Y-137995000D02*
X250330000Y-137995000D01*
X250330000Y-137995000D02*
X250330000Y-140595000D01*
X247670000Y-137995000D02*
X247670000Y-140595000D01*
X247670000Y-135395000D02*
X249000000Y-135395000D01*
X247670000Y-136725000D02*
X247670000Y-135395000D01*
X247670000Y-140595000D02*
X250330000Y-140595000D01*
%TO.C,RGB_Pot4*%
X145500000Y-203500000D02*
X154500000Y-203500000D01*
X154500000Y-203500000D02*
X154500000Y-211500000D01*
X154500000Y-211500000D02*
X145500000Y-211500000D01*
X145500000Y-211500000D02*
X145500000Y-203500000D01*
D17*
X146130000Y-204000000D02*
G75*
G03*
X146130000Y-204000000I-130000J0D01*
G01*
D16*
%TO.C,RGB_Pot2*%
X100500000Y-203428932D02*
X109500000Y-203428932D01*
X109500000Y-203428932D02*
X109500000Y-211428932D01*
X109500000Y-211428932D02*
X100500000Y-211428932D01*
X100500000Y-211428932D02*
X100500000Y-203428932D01*
D17*
X101130000Y-203928932D02*
G75*
G03*
X101130000Y-203928932I-130000J0D01*
G01*
D16*
%TO.C,RV13*%
X87470000Y-148125000D02*
X92540000Y-148125000D01*
D18*
X91161904Y-148429950D02*
X91160904Y-150598950D01*
X92235000Y-149515000D02*
X90066000Y-149514000D01*
D16*
X92540000Y-157895000D02*
X92540000Y-148125000D01*
X87470000Y-157895000D02*
X87470000Y-148125000D01*
X87470000Y-157895000D02*
X92540000Y-157895000D01*
X91160904Y-150598950D02*
G75*
G03*
X90066000Y-149514000I-10404J1084450D01*
G01*
%TO.C,SW1*%
X100555000Y-121030000D02*
X109445000Y-121030000D01*
X108175000Y-129920000D02*
X105000000Y-131190000D01*
X101825000Y-129920000D02*
X101825000Y-126110000D01*
X108175000Y-126110000D02*
X108175000Y-129920000D01*
X100555000Y-135000000D02*
X100555000Y-121030000D01*
X105000000Y-124840000D02*
X108175000Y-126110000D01*
X101825000Y-126110000D02*
X105000000Y-124840000D01*
X109445000Y-135000000D02*
X100555000Y-135000000D01*
X105000000Y-131190000D02*
X101825000Y-129920000D01*
X109445000Y-121030000D02*
X109445000Y-135000000D01*
X108702654Y-128015000D02*
G75*
G03*
X108702654Y-128015000I-3702654J0D01*
G01*
%TO.C,RGB_Pot8*%
X213000000Y-203500000D02*
X222000000Y-203500000D01*
X222000000Y-203500000D02*
X222000000Y-211500000D01*
X222000000Y-211500000D02*
X213000000Y-211500000D01*
X213000000Y-211500000D02*
X213000000Y-203500000D01*
D17*
X213630000Y-204000000D02*
G75*
G03*
X213630000Y-204000000I-130000J0D01*
G01*
%TD*%
M02*
