%TF.GenerationSoftware,KiCad,Pcbnew,(6.0.7-1)-1*%
%TF.CreationDate,2022-09-10T00:28:03+02:00*%
%TF.ProjectId,LivSynth_Hardware,4c697653-796e-4746-985f-486172647761,0v01*%
%TF.SameCoordinates,Original*%
%TF.FileFunction,Soldermask,Top*%
%TF.FilePolarity,Negative*%
%FSLAX46Y46*%
G04 Gerber Fmt 4.6, Leading zero omitted, Abs format (unit mm)*
G04 Created by KiCad (PCBNEW (6.0.7-1)-1) date 2022-09-10 00:28:03*
%MOMM*%
%LPD*%
G01*
G04 APERTURE LIST*
G04 Aperture macros list*
%AMRoundRect*
0 Rectangle with rounded corners*
0 $1 Rounding radius*
0 $2 $3 $4 $5 $6 $7 $8 $9 X,Y pos of 4 corners*
0 Add a 4 corners polygon primitive as box body*
4,1,4,$2,$3,$4,$5,$6,$7,$8,$9,$2,$3,0*
0 Add four circle primitives for the rounded corners*
1,1,$1+$1,$2,$3*
1,1,$1+$1,$4,$5*
1,1,$1+$1,$6,$7*
1,1,$1+$1,$8,$9*
0 Add four rect primitives between the rounded corners*
20,1,$1+$1,$2,$3,$4,$5,0*
20,1,$1+$1,$4,$5,$6,$7,0*
20,1,$1+$1,$6,$7,$8,$9,0*
20,1,$1+$1,$8,$9,$2,$3,0*%
G04 Aperture macros list end*
%ADD10C,1.800000*%
%ADD11C,1.400000*%
%ADD12O,5.000000X3.200000*%
%ADD13C,1.440000*%
%ADD14C,2.000000*%
%ADD15O,2.500000X1.800000*%
%ADD16RoundRect,0.750000X-0.750000X-1.000000X0.750000X-1.000000X0.750000X1.000000X-0.750000X1.000000X0*%
%ADD17R,1.830000X1.930000*%
%ADD18C,2.130000*%
%ADD19R,1.930000X1.830000*%
%ADD20C,3.200000*%
%ADD21R,1.700000X1.700000*%
%ADD22O,1.700000X1.700000*%
%ADD23C,1.600000*%
%ADD24O,1.600000X1.600000*%
%ADD25R,1.800000X1.800000*%
%ADD26R,1.050000X1.500000*%
%ADD27O,1.050000X1.500000*%
%ADD28R,1.500000X1.050000*%
%ADD29O,1.500000X1.050000*%
%ADD30C,2.600000*%
%ADD31R,3.000000X3.000000*%
%ADD32C,3.000000*%
%ADD33O,0.800000X0.800000*%
%ADD34O,1.800000X1.150000*%
%ADD35O,2.000000X1.450000*%
%ADD36R,1.600000X1.600000*%
%ADD37C,1.700000*%
%ADD38R,2.600000X2.600000*%
%ADD39R,1.070000X1.800000*%
%ADD40O,1.070000X1.800000*%
G04 APERTURE END LIST*
D10*
%TO.C,RGB_Pot5*%
X191750000Y-205250000D03*
X198250000Y-205250000D03*
X191750000Y-209750000D03*
X198250000Y-209750000D03*
D11*
X194100000Y-204600000D03*
X195900000Y-204600000D03*
X195900000Y-210400000D03*
X194100000Y-210400000D03*
%TD*%
D12*
%TO.C,SW2*%
X175000000Y-159450000D03*
X175000000Y-155000000D03*
X175000000Y-150550000D03*
%TD*%
D10*
%TO.C,RGB_Pot4*%
X169250000Y-205250000D03*
X175750000Y-205250000D03*
X169250000Y-209750000D03*
X175750000Y-209750000D03*
D11*
X171600000Y-204600000D03*
X173400000Y-204600000D03*
X173400000Y-210400000D03*
X171600000Y-210400000D03*
%TD*%
D13*
%TO.C,RV14*%
X90000000Y-183450000D03*
X90000000Y-185990000D03*
X90000000Y-188530000D03*
%TD*%
D10*
%TO.C,RGB_Pot2*%
X124250000Y-205178932D03*
X130750000Y-205178932D03*
X124250000Y-209678932D03*
X130750000Y-209678932D03*
D11*
X126600000Y-204528932D03*
X128400000Y-204528932D03*
X128400000Y-210328932D03*
X126600000Y-210328932D03*
%TD*%
D14*
%TO.C,SW7*%
X279250000Y-205250000D03*
X285750000Y-205250000D03*
X279250000Y-209750000D03*
X285750000Y-209750000D03*
%TD*%
D13*
%TO.C,RV13*%
X90000000Y-172450000D03*
X90000000Y-174990000D03*
X90000000Y-177530000D03*
%TD*%
D14*
%TO.C,RV6*%
X237500000Y-187500000D03*
X240000000Y-187500000D03*
X242500000Y-187500000D03*
D15*
X235200000Y-180000000D03*
X244800000Y-180000000D03*
%TD*%
D14*
%TO.C,RV8*%
X137500000Y-187500000D03*
X140000000Y-187500000D03*
X142500000Y-187500000D03*
D15*
X135200000Y-180000000D03*
X144800000Y-180000000D03*
%TD*%
D14*
%TO.C,RV7*%
X102500000Y-162500000D03*
X105000000Y-162500000D03*
X107500000Y-162500000D03*
D15*
X100200000Y-155000000D03*
X109800000Y-155000000D03*
%TD*%
D13*
%TO.C,RV12*%
X90000000Y-161450000D03*
X90000000Y-163990000D03*
X90000000Y-166530000D03*
%TD*%
D14*
%TO.C,RV5*%
X206000000Y-106000000D03*
X210000000Y-106000000D03*
X214000000Y-106000000D03*
D16*
X203300000Y-95000000D03*
X216700000Y-95000000D03*
%TD*%
D14*
%TO.C,RV22*%
X137500000Y-162500000D03*
X140000000Y-162500000D03*
X142500000Y-162500000D03*
D15*
X135200000Y-155000000D03*
X144800000Y-155000000D03*
%TD*%
D14*
%TO.C,RV19*%
X237500000Y-102500000D03*
X240000000Y-102500000D03*
X242500000Y-102500000D03*
D15*
X235200000Y-95000000D03*
X244800000Y-95000000D03*
%TD*%
D14*
%TO.C,RV3*%
X171000000Y-106000000D03*
X175000000Y-106000000D03*
X179000000Y-106000000D03*
D16*
X168300000Y-95000000D03*
X181700000Y-95000000D03*
%TD*%
D12*
%TO.C,SW3*%
X240000000Y-159450000D03*
X240000000Y-155000000D03*
X240000000Y-150550000D03*
%TD*%
D14*
%TO.C,RV18*%
X237500000Y-132500000D03*
X240000000Y-132500000D03*
X242500000Y-132500000D03*
D15*
X235200000Y-125000000D03*
X244800000Y-125000000D03*
%TD*%
D12*
%TO.C,SW5*%
X210000000Y-150550000D03*
X210000000Y-155000000D03*
X210000000Y-159450000D03*
%TD*%
D13*
%TO.C,RV17*%
X249000000Y-114950000D03*
X249000000Y-117490000D03*
X249000000Y-120030000D03*
%TD*%
D14*
%TO.C,RV9*%
X102500000Y-187500000D03*
X105000000Y-187500000D03*
X107500000Y-187500000D03*
D15*
X100200000Y-180000000D03*
X109800000Y-180000000D03*
%TD*%
D14*
%TO.C,RV21*%
X280000000Y-187500000D03*
X282500000Y-187500000D03*
X285000000Y-187500000D03*
D15*
X277700000Y-180000000D03*
X287300000Y-180000000D03*
%TD*%
D14*
%TO.C,RV16*%
X136000000Y-136000000D03*
X140000000Y-136000000D03*
X144000000Y-136000000D03*
D16*
X133300000Y-125000000D03*
X146700000Y-125000000D03*
%TD*%
D14*
%TO.C,RV2*%
X171000000Y-136000000D03*
X175000000Y-136000000D03*
X179000000Y-136000000D03*
D16*
X168300000Y-125000000D03*
X181700000Y-125000000D03*
%TD*%
D14*
%TO.C,RV20*%
X101000000Y-106000000D03*
X105000000Y-106000000D03*
X109000000Y-106000000D03*
D16*
X98300000Y-95000000D03*
X111700000Y-95000000D03*
%TD*%
D17*
%TO.C,J14*%
X252729540Y-75000000D03*
D18*
X249629540Y-75000000D03*
X241329540Y-75000000D03*
%TD*%
D10*
%TO.C,RGB_Pot7*%
X236750000Y-205250000D03*
X243250000Y-205250000D03*
X236750000Y-209750000D03*
X243250000Y-209750000D03*
D11*
X239100000Y-204600000D03*
X240900000Y-204600000D03*
X240900000Y-210400000D03*
X239100000Y-210400000D03*
%TD*%
D19*
%TO.C,J18*%
X260000000Y-88520460D03*
D18*
X260000000Y-91620460D03*
X260000000Y-99920460D03*
%TD*%
D20*
%TO.C,H2*%
X299000000Y-78015000D03*
%TD*%
D19*
%TO.C,J19*%
X270750000Y-88520460D03*
D18*
X270750000Y-91620460D03*
X270750000Y-99920460D03*
%TD*%
D10*
%TO.C,RGB_Pot9*%
X259250000Y-177750000D03*
X265750000Y-177750000D03*
X259250000Y-182250000D03*
X265750000Y-182250000D03*
D11*
X261600000Y-177100000D03*
X263400000Y-177100000D03*
X263400000Y-182900000D03*
X261600000Y-182900000D03*
%TD*%
D14*
%TO.C,RV15*%
X136000000Y-106000000D03*
X140000000Y-106000000D03*
X144000000Y-106000000D03*
D16*
X133300000Y-95000000D03*
X146700000Y-95000000D03*
%TD*%
D13*
%TO.C,RV10*%
X120000000Y-92935000D03*
X120000000Y-95475000D03*
X120000000Y-98015000D03*
%TD*%
D14*
%TO.C,RV1*%
X207500000Y-188250000D03*
X210000000Y-188250000D03*
X212500000Y-188250000D03*
D15*
X205200000Y-180750000D03*
X214800000Y-180750000D03*
%TD*%
D20*
%TO.C,H1*%
X89000000Y-78015000D03*
%TD*%
D10*
%TO.C,RGB_Pot8*%
X259250000Y-205250000D03*
X265750000Y-205250000D03*
X259250000Y-209750000D03*
X265750000Y-209750000D03*
D11*
X261600000Y-204600000D03*
X263400000Y-204600000D03*
X263400000Y-210400000D03*
X261600000Y-210400000D03*
%TD*%
D14*
%TO.C,RV4*%
X206000000Y-136000000D03*
X210000000Y-136000000D03*
X214000000Y-136000000D03*
D16*
X203300000Y-125000000D03*
X216700000Y-125000000D03*
%TD*%
D21*
%TO.C,J15*%
X249000000Y-136725000D03*
D22*
X249000000Y-139265000D03*
%TD*%
D10*
%TO.C,RGB_Pot3*%
X146750000Y-205250000D03*
X153250000Y-205250000D03*
X146750000Y-209750000D03*
X153250000Y-209750000D03*
D11*
X149100000Y-204600000D03*
X150900000Y-204600000D03*
X150900000Y-210400000D03*
X149100000Y-210400000D03*
%TD*%
D10*
%TO.C,RGB_Pot1*%
X101750000Y-205178932D03*
X108250000Y-205178932D03*
X101750000Y-209678932D03*
X108250000Y-209678932D03*
D11*
X104100000Y-204528932D03*
X105900000Y-204528932D03*
X105900000Y-210328932D03*
X104100000Y-210328932D03*
%TD*%
D13*
%TO.C,RV11*%
X90000000Y-150470000D03*
X90000000Y-153010000D03*
X90000000Y-155550000D03*
%TD*%
D20*
%TO.C,H4*%
X300000000Y-217928932D03*
%TD*%
D12*
%TO.C,SW6*%
X105000000Y-132465000D03*
X105000000Y-128015000D03*
X105000000Y-123565000D03*
%TD*%
D20*
%TO.C,H3*%
X90000000Y-217928932D03*
%TD*%
D10*
%TO.C,RGB_Pot6*%
X214250000Y-205250000D03*
X220750000Y-205250000D03*
X214250000Y-209750000D03*
X220750000Y-209750000D03*
D11*
X216600000Y-204600000D03*
X218400000Y-204600000D03*
X218400000Y-210400000D03*
X216600000Y-210400000D03*
%TD*%
D23*
%TO.C,R68*%
X225000000Y-151690000D03*
D24*
X225000000Y-159310000D03*
%TD*%
D25*
%TO.C,D8*%
X141275000Y-117950000D03*
D10*
X138735000Y-117950000D03*
%TD*%
D23*
%TO.C,R53*%
X165000000Y-169810000D03*
D24*
X165000000Y-162190000D03*
%TD*%
D23*
%TO.C,C55*%
X285000000Y-191200000D03*
X280000000Y-191200000D03*
%TD*%
%TO.C,R44*%
X148000000Y-162190000D03*
D24*
X148000000Y-169810000D03*
%TD*%
D21*
%TO.C,J17*%
X264275000Y-123000000D03*
D22*
X261735000Y-123000000D03*
%TD*%
D23*
%TO.C,R6*%
X213810000Y-175000000D03*
D24*
X206190000Y-175000000D03*
%TD*%
D23*
%TO.C,C1*%
X282000000Y-88250000D03*
X282000000Y-93250000D03*
%TD*%
%TO.C,R30*%
X221000000Y-116810000D03*
D24*
X221000000Y-109190000D03*
%TD*%
D23*
%TO.C,R87*%
X143500000Y-203690000D03*
D24*
X143500000Y-211310000D03*
%TD*%
D23*
%TO.C,R71*%
X231500000Y-115190000D03*
D24*
X231500000Y-122810000D03*
%TD*%
D23*
%TO.C,R89*%
X102500000Y-220810000D03*
D24*
X102500000Y-213190000D03*
%TD*%
D23*
%TO.C,R83*%
X275000000Y-118190000D03*
D24*
X275000000Y-125810000D03*
%TD*%
D23*
%TO.C,R64*%
X232000000Y-98190000D03*
D24*
X232000000Y-105810000D03*
%TD*%
D23*
%TO.C,C43*%
X225000000Y-223500000D03*
X230000000Y-223500000D03*
%TD*%
%TO.C,C12*%
X160500000Y-168500000D03*
X155500000Y-168500000D03*
%TD*%
%TO.C,R91*%
X147500000Y-220810000D03*
D24*
X147500000Y-213190000D03*
%TD*%
D26*
%TO.C,Q16*%
X270230000Y-109140000D03*
D27*
X271500000Y-109140000D03*
X272770000Y-109140000D03*
%TD*%
D23*
%TO.C,R70*%
X229500000Y-84690000D03*
D24*
X229500000Y-92310000D03*
%TD*%
D23*
%TO.C,C49*%
X275000000Y-130250000D03*
X270000000Y-130250000D03*
%TD*%
%TO.C,R97*%
X131500000Y-201000000D03*
D24*
X123880000Y-201000000D03*
%TD*%
D23*
%TO.C,R129*%
X100500000Y-81500000D03*
D24*
X100500000Y-73880000D03*
%TD*%
D23*
%TO.C,R26*%
X219000000Y-161190000D03*
D24*
X219000000Y-168810000D03*
%TD*%
D23*
%TO.C,R124*%
X254000000Y-114810000D03*
D24*
X254000000Y-107190000D03*
%TD*%
D23*
%TO.C,R117*%
X198810000Y-201000000D03*
D24*
X191190000Y-201000000D03*
%TD*%
D23*
%TO.C,R114*%
X265000000Y-185690000D03*
D24*
X265000000Y-193310000D03*
%TD*%
D28*
%TO.C,Q9*%
X115000000Y-126000000D03*
D29*
X115000000Y-124730000D03*
X115000000Y-123460000D03*
%TD*%
D23*
%TO.C,R74*%
X228000000Y-115190000D03*
D24*
X228000000Y-122810000D03*
%TD*%
D23*
%TO.C,R113*%
X266310000Y-201000000D03*
D24*
X258690000Y-201000000D03*
%TD*%
D23*
%TO.C,R3*%
X302750000Y-92310000D03*
D24*
X302750000Y-84690000D03*
%TD*%
D30*
%TO.C,BT1*%
X303600000Y-138500000D03*
X281400000Y-123750000D03*
X303600000Y-110500000D03*
D31*
X286150000Y-99600000D03*
D32*
X298850000Y-99600000D03*
%TD*%
D23*
%TO.C,R62*%
X129750000Y-119190000D03*
D24*
X129750000Y-126810000D03*
%TD*%
D28*
%TO.C,Q13*%
X232860000Y-108730000D03*
D29*
X232860000Y-110000000D03*
X232860000Y-111270000D03*
%TD*%
D23*
%TO.C,R92*%
X170000000Y-220810000D03*
D24*
X170000000Y-213190000D03*
%TD*%
D23*
%TO.C,C42*%
X139750000Y-223500000D03*
X134750000Y-223500000D03*
%TD*%
%TO.C,R79*%
X242500000Y-137690000D03*
D24*
X242500000Y-145310000D03*
%TD*%
D23*
%TO.C,R16*%
X194500000Y-140690000D03*
D24*
X194500000Y-148310000D03*
%TD*%
D23*
%TO.C,R98*%
X152500000Y-213190000D03*
D24*
X152500000Y-220810000D03*
%TD*%
D23*
%TO.C,C8*%
X203000000Y-177250000D03*
X198000000Y-177250000D03*
%TD*%
%TO.C,R107*%
X260000000Y-220810000D03*
D24*
X260000000Y-213190000D03*
%TD*%
D23*
%TO.C,R104*%
X188500000Y-203690000D03*
D24*
X188500000Y-211310000D03*
%TD*%
D23*
%TO.C,R82*%
X270000000Y-118190000D03*
D24*
X270000000Y-125810000D03*
%TD*%
D33*
%TO.C,J3*%
X304200000Y-172500000D03*
X304200000Y-177500000D03*
D34*
X306950000Y-178875000D03*
X306950000Y-171125000D03*
D35*
X303150000Y-178725000D03*
X303150000Y-171275000D03*
%TD*%
D28*
%TO.C,Q10*%
X120000000Y-126000000D03*
D29*
X120000000Y-124730000D03*
X120000000Y-123460000D03*
%TD*%
D21*
%TO.C,J13*%
X249500000Y-105025000D03*
D22*
X249500000Y-102485000D03*
%TD*%
D23*
%TO.C,R110*%
X215000000Y-220810000D03*
D24*
X215000000Y-213190000D03*
%TD*%
D23*
%TO.C,R46*%
X168000000Y-162190000D03*
D24*
X168000000Y-169810000D03*
%TD*%
D23*
%TO.C,R105*%
X211000000Y-203690000D03*
D24*
X211000000Y-211310000D03*
%TD*%
D23*
%TO.C,R122*%
X263810000Y-104000000D03*
D24*
X256190000Y-104000000D03*
%TD*%
D21*
%TO.C,J20*%
X157000000Y-77000000D03*
D22*
X157000000Y-79540000D03*
%TD*%
D36*
%TO.C,D3*%
X183810000Y-109000000D03*
D24*
X176190000Y-109000000D03*
%TD*%
D23*
%TO.C,R76*%
X245500000Y-158810000D03*
D24*
X245500000Y-151190000D03*
%TD*%
D23*
%TO.C,R65*%
X228000000Y-98190000D03*
D24*
X228000000Y-105810000D03*
%TD*%
D36*
%TO.C,C39*%
X160000000Y-129402651D03*
D23*
X160000000Y-124402651D03*
%TD*%
%TO.C,C46*%
X233000000Y-75000000D03*
X238000000Y-75000000D03*
%TD*%
%TO.C,R75*%
X232000000Y-159310000D03*
D24*
X232000000Y-151690000D03*
%TD*%
D23*
%TO.C,R33*%
X121750000Y-141835000D03*
D24*
X121750000Y-134215000D03*
%TD*%
D28*
%TO.C,Q12*%
X161250000Y-112000000D03*
D29*
X161250000Y-113270000D03*
X161250000Y-114540000D03*
%TD*%
D21*
%TO.C,J7*%
X118000000Y-148025000D03*
D22*
X118000000Y-145485000D03*
%TD*%
D23*
%TO.C,R28*%
X219000000Y-158810000D03*
D24*
X219000000Y-151190000D03*
%TD*%
D23*
%TO.C,C2*%
X228000000Y-135250000D03*
X223000000Y-135250000D03*
%TD*%
%TO.C,R39*%
X108810000Y-115000000D03*
D24*
X101190000Y-115000000D03*
%TD*%
D23*
%TO.C,C10*%
X160500000Y-148500000D03*
X155500000Y-148500000D03*
%TD*%
%TO.C,R125*%
X265500000Y-114810000D03*
D24*
X265500000Y-107190000D03*
%TD*%
D23*
%TO.C,R18*%
X182310000Y-144500000D03*
D24*
X174690000Y-144500000D03*
%TD*%
D23*
%TO.C,R96*%
X130000000Y-213190000D03*
D24*
X130000000Y-220810000D03*
%TD*%
D21*
%TO.C,J6*%
X121750000Y-148025000D03*
D22*
X121750000Y-145485000D03*
%TD*%
D23*
%TO.C,C45*%
X225000000Y-192500000D03*
X230000000Y-192500000D03*
%TD*%
D21*
%TO.C,J2*%
X306580000Y-206000000D03*
D22*
X304040000Y-206000000D03*
X301500000Y-206000000D03*
X298960000Y-206000000D03*
X296420000Y-206000000D03*
X293880000Y-206000000D03*
%TD*%
D23*
%TO.C,C9*%
X95000000Y-131250000D03*
X90000000Y-131250000D03*
%TD*%
D14*
%TO.C,SW1*%
X301417500Y-167042500D03*
X301417500Y-155042500D03*
X295417500Y-167042500D03*
X295417500Y-155042500D03*
D37*
X297167500Y-157042500D03*
X297167500Y-161042500D03*
X297167500Y-165042500D03*
%TD*%
D23*
%TO.C,R56*%
X155500000Y-98190000D03*
D24*
X155500000Y-105810000D03*
%TD*%
D36*
%TO.C,C14*%
X283597349Y-156500000D03*
D23*
X288597349Y-156500000D03*
%TD*%
%TO.C,R99*%
X153810000Y-201000000D03*
D24*
X146190000Y-201000000D03*
%TD*%
D28*
%TO.C,Q3*%
X194360000Y-120730000D03*
D29*
X194360000Y-122000000D03*
X194360000Y-123270000D03*
%TD*%
D36*
%TO.C,C50*%
X262750000Y-145597349D03*
D23*
X262750000Y-150597349D03*
%TD*%
%TO.C,R108*%
X260000000Y-193310000D03*
D24*
X260000000Y-185690000D03*
%TD*%
D38*
%TO.C,J1*%
X288600000Y-80515000D03*
D30*
X288600000Y-74515000D03*
X293300000Y-77515000D03*
%TD*%
D23*
%TO.C,R25*%
X202000000Y-151190000D03*
D24*
X202000000Y-158810000D03*
%TD*%
D23*
%TO.C,C34*%
X86000000Y-123750000D03*
X86000000Y-118750000D03*
%TD*%
%TO.C,R31*%
X213810000Y-111000000D03*
D24*
X206190000Y-111000000D03*
%TD*%
D23*
%TO.C,R60*%
X127000000Y-91690000D03*
D24*
X127000000Y-99310000D03*
%TD*%
D23*
%TO.C,R14*%
X194500000Y-134810000D03*
D24*
X194500000Y-127190000D03*
%TD*%
D28*
%TO.C,Q2*%
X194360000Y-112730000D03*
D29*
X194360000Y-114000000D03*
X194360000Y-115270000D03*
%TD*%
D28*
%TO.C,Q14*%
X227860000Y-108730000D03*
D29*
X227860000Y-110000000D03*
X227860000Y-111270000D03*
%TD*%
D23*
%TO.C,C19*%
X274250000Y-195250000D03*
X269250000Y-195250000D03*
%TD*%
%TO.C,R126*%
X157000000Y-83190000D03*
D24*
X157000000Y-90810000D03*
%TD*%
D23*
%TO.C,R29*%
X221690000Y-130500000D03*
D24*
X229310000Y-130500000D03*
%TD*%
D23*
%TO.C,R61*%
X136190000Y-139500000D03*
D24*
X143810000Y-139500000D03*
%TD*%
D23*
%TO.C,C51*%
X256250000Y-136000000D03*
X251250000Y-136000000D03*
%TD*%
D25*
%TO.C,D7*%
X141275000Y-87950000D03*
D10*
X138735000Y-87950000D03*
%TD*%
D28*
%TO.C,Q11*%
X156250000Y-112000000D03*
D29*
X156250000Y-113270000D03*
X156250000Y-114540000D03*
%TD*%
D23*
%TO.C,R4*%
X294310000Y-84500000D03*
D24*
X286690000Y-84500000D03*
%TD*%
D23*
%TO.C,R32*%
X221000000Y-119690000D03*
D24*
X221000000Y-127310000D03*
%TD*%
D23*
%TO.C,C53*%
X275000000Y-135750000D03*
X270000000Y-135750000D03*
%TD*%
%TO.C,C31*%
X194750000Y-169750000D03*
X189750000Y-169750000D03*
%TD*%
D36*
%TO.C,C20*%
X291000000Y-213097349D03*
D23*
X291000000Y-218097349D03*
%TD*%
%TO.C,R54*%
X160190000Y-177000000D03*
D24*
X167810000Y-177000000D03*
%TD*%
D28*
%TO.C,Q4*%
X194360000Y-96730000D03*
D29*
X194360000Y-98000000D03*
X194360000Y-99270000D03*
%TD*%
D23*
%TO.C,R63*%
X232000000Y-148310000D03*
D24*
X232000000Y-140690000D03*
%TD*%
D21*
%TO.C,J9*%
X128000000Y-158000000D03*
D22*
X128000000Y-160540000D03*
%TD*%
D23*
%TO.C,R34*%
X115000000Y-113190000D03*
D24*
X115000000Y-120810000D03*
%TD*%
D23*
%TO.C,R10*%
X182310000Y-77000000D03*
D24*
X174690000Y-77000000D03*
%TD*%
D23*
%TO.C,R12*%
X194500000Y-86190000D03*
D24*
X194500000Y-93810000D03*
%TD*%
D23*
%TO.C,C40*%
X151000000Y-146000000D03*
X146000000Y-146000000D03*
%TD*%
%TO.C,C47*%
X260250000Y-140500000D03*
X265250000Y-140500000D03*
%TD*%
%TO.C,R123*%
X267690000Y-104000000D03*
D24*
X275310000Y-104000000D03*
%TD*%
D23*
%TO.C,R15*%
X194500000Y-102190000D03*
D24*
X194500000Y-109810000D03*
%TD*%
D23*
%TO.C,R109*%
X192500000Y-220810000D03*
D24*
X192500000Y-213190000D03*
%TD*%
D23*
%TO.C,R101*%
X176500000Y-201000000D03*
D24*
X168880000Y-201000000D03*
%TD*%
D25*
%TO.C,D9*%
X211275000Y-118000000D03*
D10*
X208735000Y-118000000D03*
%TD*%
D23*
%TO.C,C44*%
X135000000Y-192500000D03*
X140000000Y-192500000D03*
%TD*%
D25*
%TO.C,D2*%
X176275000Y-118000000D03*
D10*
X173735000Y-118000000D03*
%TD*%
D23*
%TO.C,R19*%
X188500000Y-97690000D03*
D24*
X188500000Y-105310000D03*
%TD*%
D23*
%TO.C,R77*%
X237500000Y-145310000D03*
D24*
X237500000Y-137690000D03*
%TD*%
D23*
%TO.C,C36*%
X98000000Y-122750000D03*
X98000000Y-120250000D03*
%TD*%
%TO.C,C17*%
X273750000Y-184500000D03*
X268750000Y-184500000D03*
%TD*%
%TO.C,R51*%
X151000000Y-169810000D03*
D24*
X151000000Y-162190000D03*
%TD*%
D21*
%TO.C,J5*%
X195275000Y-77000000D03*
D22*
X192735000Y-77000000D03*
%TD*%
D23*
%TO.C,R5*%
X303500000Y-189190000D03*
D24*
X303500000Y-196810000D03*
%TD*%
D23*
%TO.C,R49*%
X151000000Y-152190000D03*
D24*
X151000000Y-159810000D03*
%TD*%
D23*
%TO.C,R90*%
X125000000Y-220810000D03*
D24*
X125000000Y-213190000D03*
%TD*%
D23*
%TO.C,TH1*%
X114190000Y-129000000D03*
D24*
X121810000Y-129000000D03*
%TD*%
D23*
%TO.C,R80*%
X280500000Y-214690000D03*
D24*
X280500000Y-222310000D03*
%TD*%
D23*
%TO.C,R103*%
X256000000Y-176190000D03*
D24*
X256000000Y-183810000D03*
%TD*%
D23*
%TO.C,R20*%
X188500000Y-123190000D03*
D24*
X188500000Y-130810000D03*
%TD*%
D23*
%TO.C,R94*%
X107500000Y-213190000D03*
D24*
X107500000Y-220810000D03*
%TD*%
D23*
%TO.C,C35*%
X98000000Y-133250000D03*
X98000000Y-128250000D03*
%TD*%
%TO.C,C11*%
X155500000Y-154500000D03*
X160500000Y-154500000D03*
%TD*%
%TO.C,C41*%
X170500000Y-146000000D03*
X165500000Y-146000000D03*
%TD*%
D21*
%TO.C,J12*%
X232000000Y-165275000D03*
D22*
X232000000Y-162735000D03*
%TD*%
D23*
%TO.C,R106*%
X233500000Y-203690000D03*
D24*
X233500000Y-211310000D03*
%TD*%
D23*
%TO.C,R57*%
X164500000Y-141560000D03*
D24*
X164500000Y-133940000D03*
%TD*%
D25*
%TO.C,D10*%
X176275000Y-88000000D03*
D10*
X173735000Y-88000000D03*
%TD*%
D23*
%TO.C,R24*%
X218810000Y-78500000D03*
D24*
X211190000Y-78500000D03*
%TD*%
D23*
%TO.C,R17*%
X188500000Y-76690000D03*
D24*
X188500000Y-84310000D03*
%TD*%
D23*
%TO.C,R23*%
X194500000Y-150690000D03*
D24*
X194500000Y-158310000D03*
%TD*%
D23*
%TO.C,C13*%
X298000000Y-93250000D03*
X298000000Y-88250000D03*
%TD*%
%TO.C,R67*%
X242000000Y-118810000D03*
D24*
X242000000Y-111190000D03*
%TD*%
D36*
%TO.C,C48*%
X254500000Y-129000000D03*
D23*
X249500000Y-129000000D03*
%TD*%
%TO.C,R127*%
X110000000Y-81500000D03*
D24*
X110000000Y-73880000D03*
%TD*%
D23*
%TO.C,R8*%
X213810000Y-169000000D03*
D24*
X206190000Y-169000000D03*
%TD*%
D23*
%TO.C,R38*%
X120000000Y-103000000D03*
D24*
X120000000Y-110620000D03*
%TD*%
D21*
%TO.C,TP1*%
X305000000Y-80500000D03*
%TD*%
D23*
%TO.C,R47*%
X161000000Y-83190000D03*
D24*
X161000000Y-90810000D03*
%TD*%
D23*
%TO.C,R84*%
X253500000Y-138690000D03*
D24*
X253500000Y-146310000D03*
%TD*%
D23*
%TO.C,R1*%
X306500000Y-84690000D03*
D24*
X306500000Y-92310000D03*
%TD*%
D26*
%TO.C,Q15*%
X258730000Y-109140000D03*
D27*
X260000000Y-109140000D03*
X261270000Y-109140000D03*
%TD*%
D23*
%TO.C,C18*%
X273750000Y-189750000D03*
X268750000Y-189750000D03*
%TD*%
%TO.C,C33*%
X214750000Y-147000000D03*
X219750000Y-147000000D03*
%TD*%
%TO.C,R43*%
X148000000Y-159810000D03*
D24*
X148000000Y-152190000D03*
%TD*%
D23*
%TO.C,C16*%
X271000000Y-171500000D03*
X276000000Y-171500000D03*
%TD*%
D36*
%TO.C,D1*%
X278500000Y-78810000D03*
D24*
X278500000Y-71190000D03*
%TD*%
D23*
%TO.C,R9*%
X229310000Y-174000000D03*
D24*
X221690000Y-174000000D03*
%TD*%
D23*
%TO.C,R116*%
X197500000Y-213190000D03*
D24*
X197500000Y-220810000D03*
%TD*%
D23*
%TO.C,R115*%
X266310000Y-173500000D03*
D24*
X258690000Y-173500000D03*
%TD*%
D36*
%TO.C,D4*%
X188500000Y-94310000D03*
D24*
X188500000Y-86690000D03*
%TD*%
D23*
%TO.C,C3*%
X203000000Y-164750000D03*
X198000000Y-164750000D03*
%TD*%
%TO.C,R48*%
X162060000Y-118000000D03*
D24*
X154440000Y-118000000D03*
%TD*%
D23*
%TO.C,R73*%
X238500000Y-111190000D03*
D24*
X238500000Y-118810000D03*
%TD*%
D28*
%TO.C,Q7*%
X212140000Y-143270000D03*
D29*
X212140000Y-142000000D03*
X212140000Y-140730000D03*
%TD*%
D23*
%TO.C,R55*%
X153000000Y-83190000D03*
D24*
X153000000Y-90810000D03*
%TD*%
D23*
%TO.C,C54*%
X102500000Y-109000000D03*
X107500000Y-109000000D03*
%TD*%
%TO.C,R95*%
X108810000Y-201000000D03*
D24*
X101190000Y-201000000D03*
%TD*%
D23*
%TO.C,R130*%
X291750000Y-167250000D03*
D24*
X291750000Y-159630000D03*
%TD*%
D23*
%TO.C,R121*%
X243810000Y-201000000D03*
D24*
X236190000Y-201000000D03*
%TD*%
D23*
%TO.C,R36*%
X85940000Y-136250000D03*
D24*
X93560000Y-136250000D03*
%TD*%
D23*
%TO.C,R7*%
X213810000Y-172000000D03*
D24*
X206190000Y-172000000D03*
%TD*%
D23*
%TO.C,R58*%
X151000000Y-134190000D03*
D24*
X151000000Y-141810000D03*
%TD*%
D23*
%TO.C,R93*%
X236190000Y-196000000D03*
D24*
X243810000Y-196000000D03*
%TD*%
D23*
%TO.C,R13*%
X188500000Y-120810000D03*
D24*
X188500000Y-113190000D03*
%TD*%
D23*
%TO.C,R81*%
X275500000Y-214690000D03*
D24*
X275500000Y-222310000D03*
%TD*%
D23*
%TO.C,R72*%
X221000000Y-105810000D03*
D24*
X221000000Y-98190000D03*
%TD*%
D23*
%TO.C,R11*%
X160500000Y-98190000D03*
D24*
X160500000Y-105810000D03*
%TD*%
D23*
%TO.C,R69*%
X219500000Y-136690000D03*
D24*
X219500000Y-144310000D03*
%TD*%
D21*
%TO.C,J4*%
X226775000Y-168500000D03*
D22*
X224235000Y-168500000D03*
%TD*%
D23*
%TO.C,C38*%
X154250000Y-125000000D03*
X154250000Y-122500000D03*
%TD*%
D21*
%TO.C,J8*%
X114250000Y-148025000D03*
D22*
X114250000Y-145485000D03*
%TD*%
D23*
%TO.C,R45*%
X168000000Y-159810000D03*
D24*
X168000000Y-152190000D03*
%TD*%
D23*
%TO.C,R78*%
X232000000Y-130190000D03*
D24*
X232000000Y-137810000D03*
%TD*%
D23*
%TO.C,R118*%
X220000000Y-213190000D03*
D24*
X220000000Y-220810000D03*
%TD*%
D23*
%TO.C,R111*%
X237500000Y-220810000D03*
D24*
X237500000Y-213190000D03*
%TD*%
D23*
%TO.C,R85*%
X98500000Y-203690000D03*
D24*
X98500000Y-211310000D03*
%TD*%
D23*
%TO.C,R102*%
X256000000Y-203690000D03*
D24*
X256000000Y-211310000D03*
%TD*%
D23*
%TO.C,R128*%
X105250000Y-81500000D03*
D24*
X105250000Y-73880000D03*
%TD*%
D23*
%TO.C,C4*%
X95000000Y-118250000D03*
X90000000Y-118250000D03*
%TD*%
%TO.C,C5*%
X160500000Y-135500000D03*
X155500000Y-135500000D03*
%TD*%
%TO.C,C7*%
X228000000Y-147750000D03*
X223000000Y-147750000D03*
%TD*%
D28*
%TO.C,Q6*%
X204860000Y-77730000D03*
D29*
X204860000Y-79000000D03*
X204860000Y-80270000D03*
%TD*%
D14*
%TO.C,SW4*%
X273792500Y-71832500D03*
X273792500Y-77832500D03*
X261792500Y-77832500D03*
X261792500Y-71832500D03*
D37*
X263792500Y-76082500D03*
X267792500Y-76082500D03*
X271792500Y-76082500D03*
%TD*%
D23*
%TO.C,R2*%
X283560000Y-84500000D03*
D24*
X275940000Y-84500000D03*
%TD*%
D36*
%TO.C,D5*%
X175690000Y-140750000D03*
D24*
X183310000Y-140750000D03*
%TD*%
D36*
%TO.C,C15*%
X293097349Y-173500000D03*
D23*
X298097349Y-173500000D03*
%TD*%
%TO.C,C52*%
X272500000Y-139750000D03*
X270000000Y-139750000D03*
%TD*%
%TO.C,C6*%
X278000000Y-93250000D03*
X278000000Y-88250000D03*
%TD*%
D28*
%TO.C,Q1*%
X167860000Y-76230000D03*
D29*
X167860000Y-77500000D03*
X167860000Y-78770000D03*
%TD*%
D23*
%TO.C,R22*%
X188500000Y-150690000D03*
D24*
X188500000Y-158310000D03*
%TD*%
D23*
%TO.C,R120*%
X242500000Y-213190000D03*
D24*
X242500000Y-220810000D03*
%TD*%
D23*
%TO.C,R100*%
X175000000Y-213190000D03*
D24*
X175000000Y-220810000D03*
%TD*%
D39*
%TO.C,D11*%
X107040000Y-87950000D03*
D40*
X105770000Y-87950000D03*
X104500000Y-87950000D03*
X103230000Y-87950000D03*
%TD*%
D23*
%TO.C,R59*%
X151000000Y-129810000D03*
D24*
X151000000Y-122190000D03*
%TD*%
D23*
%TO.C,R88*%
X166000000Y-203690000D03*
D24*
X166000000Y-211310000D03*
%TD*%
D21*
%TO.C,J11*%
X229500000Y-78225000D03*
D22*
X229500000Y-80765000D03*
%TD*%
D25*
%TO.C,D6*%
X211275000Y-88000000D03*
D10*
X208735000Y-88000000D03*
%TD*%
D23*
%TO.C,R50*%
X165000000Y-152190000D03*
D24*
X165000000Y-159810000D03*
%TD*%
D23*
%TO.C,C32*%
X167750000Y-141000000D03*
X172750000Y-141000000D03*
%TD*%
%TO.C,R112*%
X265000000Y-213190000D03*
D24*
X265000000Y-220810000D03*
%TD*%
D23*
%TO.C,R37*%
X114250000Y-141750000D03*
D24*
X114250000Y-134130000D03*
%TD*%
D36*
%TO.C,U20*%
X266800000Y-128200000D03*
D24*
X266800000Y-130740000D03*
X266800000Y-133280000D03*
X266800000Y-135820000D03*
X259180000Y-135820000D03*
X259180000Y-133280000D03*
X259180000Y-130740000D03*
X259180000Y-128200000D03*
%TD*%
D28*
%TO.C,Q8*%
X98000000Y-136480000D03*
D29*
X98000000Y-137750000D03*
X98000000Y-139020000D03*
%TD*%
D21*
%TO.C,J10*%
X161000000Y-77000000D03*
D22*
X161000000Y-79540000D03*
%TD*%
D23*
%TO.C,R27*%
X222500000Y-84690000D03*
D24*
X222500000Y-92310000D03*
%TD*%
D23*
%TO.C,R40*%
X94500000Y-156810000D03*
D24*
X94500000Y-149190000D03*
%TD*%
D23*
%TO.C,R35*%
X118000000Y-141810000D03*
D24*
X118000000Y-134190000D03*
%TD*%
D28*
%TO.C,Q5*%
X207860000Y-140730000D03*
D29*
X207860000Y-142000000D03*
X207860000Y-143270000D03*
%TD*%
D23*
%TO.C,R66*%
X228500000Y-151690000D03*
D24*
X228500000Y-159310000D03*
%TD*%
D23*
%TO.C,R119*%
X221310000Y-201000000D03*
D24*
X213690000Y-201000000D03*
%TD*%
D23*
%TO.C,R86*%
X121000000Y-203690000D03*
D24*
X121000000Y-211310000D03*
%TD*%
D23*
%TO.C,R52*%
X155810000Y-177000000D03*
D24*
X148190000Y-177000000D03*
%TD*%
D23*
%TO.C,R21*%
X188500000Y-133190000D03*
D24*
X188500000Y-140810000D03*
%TD*%
M02*
