M48
; DRILL file {KiCad (6.0.7-1)-1} date 2022 September 14, Wednesday 21:26:26
; FORMAT={-:-/ absolute / metric / decimal}
; #@! TF.CreationDate,2022-09-14T21:26:26+02:00
; #@! TF.GenerationSoftware,Kicad,Pcbnew,(6.0.7-1)-1
; #@! TF.FileFunction,Plated,1,2,PTH
FMAT,2
METRIC
; #@! TA.AperFunction,Plated,PTH,ViaDrill
T1C0.400
; #@! TA.AperFunction,Plated,PTH,ComponentDrill
T2C0.550
; #@! TA.AperFunction,Plated,PTH,ComponentDrill
T3C0.750
; #@! TA.AperFunction,Plated,PTH,ComponentDrill
T4C0.800
; #@! TA.AperFunction,Plated,PTH,ComponentDrill
T5C0.850
; #@! TA.AperFunction,Plated,PTH,ComponentDrill
T6C0.900
; #@! TA.AperFunction,Plated,PTH,ComponentDrill
T7C1.000
; #@! TA.AperFunction,Plated,PTH,ComponentDrill
T8C1.100
; #@! TA.AperFunction,Plated,PTH,ComponentDrill
T9C1.200
; #@! TA.AperFunction,Plated,PTH,ComponentDrill
T10C1.220
; #@! TA.AperFunction,Plated,PTH,ComponentDrill
T11C1.420
; #@! TA.AperFunction,Plated,PTH,ComponentDrill
T12C1.430
; #@! TA.AperFunction,Plated,PTH,ComponentDrill
T13C1.600
; #@! TA.AperFunction,Plated,PTH,ComponentDrill
T14C2.400
%
G90
G05
T1
X83.0Y-122.25
X83.0Y-175.0
X83.75Y-124.75
X83.75Y-164.0
X84.75Y-121.0
X84.75Y-134.0
X85.0Y-146.25
X88.25Y-122.25
X88.5Y-126.0
X91.5Y-128.5
X92.5Y-127.25
X93.0Y-124.25
X93.0Y-184.0
X96.5Y-123.75
X96.75Y-126.25
X96.75Y-127.25
X97.0Y-218.0
X98.0Y-118.25
X98.0Y-125.5
X100.75Y-132.5
X100.785Y-128.25
X101.0Y-121.0
X101.75Y-146.25
X102.5Y-217.0
X109.0Y-124.75
X109.0Y-146.5
X109.75Y-182.75
X110.25Y-121.0
X110.25Y-129.0
X111.0Y-132.25
X111.0Y-138.0
X111.5Y-119.0
X111.5Y-127.5
X114.25Y-159.25
X116.5Y-203.75
X118.0Y-182.75
X118.75Y-131.75
X121.5Y-175.25
X122.5Y-215.75
X128.0Y-138.25
X128.75Y-197.75
X128.75Y-202.25
X129.75Y-85.5
X130.74Y-87.95
X130.75Y-149.25
X131.0Y-144.5
X131.22Y-215.72
X132.205Y-216.925
X132.22Y-217.97
X132.25Y-202.25
X132.25Y-206.65
X132.25Y-208.349
X132.25Y-219.0
X133.0Y-197.5
X133.0Y-199.0
X133.0Y-204.5
X133.0Y-209.25
X133.75Y-211.25
X135.0Y-205.5
X135.65Y-212.25
X135.65Y-213.75
X135.75Y-220.75
X136.75Y-207.5
X137.5Y-208.5
X138.0Y-212.5
X138.75Y-220.75
X141.5Y-205.5
X143.75Y-143.25
X143.75Y-193.5
X143.75Y-194.75
X143.75Y-196.0
X143.75Y-197.25
X143.75Y-198.5
X143.75Y-199.5
X143.75Y-209.25
X144.5Y-214.5
X144.5Y-215.5
X144.5Y-216.5
X144.5Y-217.5
X144.5Y-218.5
X144.5Y-219.5
X148.0Y-227.0
X148.5Y-226.0
X149.0Y-225.0
X151.0Y-114.5
X151.0Y-125.0
X151.25Y-99.5
X151.5Y-165.5
X153.5Y-148.25
X153.5Y-155.0
X153.75Y-159.75
X153.75Y-161.0
X153.75Y-162.135
X153.75Y-164.75
X153.75Y-166.0
X153.75Y-169.75
X154.0Y-140.75
X154.0Y-143.25
X154.0Y-144.5
X154.0Y-145.75
X157.5Y-163.5
X158.0Y-134.25
X160.5Y-201.0
X160.5Y-215.5
X162.25Y-139.5
X162.25Y-143.25
X162.25Y-144.5
X162.25Y-146.0
X162.25Y-159.75
X162.25Y-161.0
X162.25Y-164.75
X162.25Y-166.0
X162.25Y-203.25
X162.75Y-169.0
X166.25Y-129.5
X168.5Y-139.5
X168.75Y-144.0
X170.0Y-164.75
X170.0Y-216.5
X171.25Y-76.25
X171.25Y-149.25
X175.0Y-215.25
X182.25Y-113.25
X182.25Y-155.0
X182.25Y-187.5
X184.5Y-123.25
X184.75Y-196.0
X185.0Y-163.25
X185.25Y-138.25
X185.5Y-115.75
X190.0Y-218.5
X191.25Y-133.0
X192.25Y-175.25
X194.75Y-190.0
X195.75Y-173.5
X195.75Y-174.75
X196.5Y-172.25
X197.25Y-90.5
X197.25Y-118.0
X199.25Y-140.75
X201.0Y-171.0
X202.25Y-88.0
X204.5Y-169.5
X204.75Y-168.0
X208.75Y-197.25
X209.75Y-216.75
X210.0Y-147.0
X216.0Y-155.5
X216.0Y-165.0
X217.0Y-139.0
X217.0Y-140.25
X218.25Y-149.25
X218.25Y-198.5
X218.75Y-138.25
X219.0Y-199.5
X219.5Y-141.5
X221.0Y-193.5
X221.25Y-144.0
X221.5Y-137.75
X221.5Y-140.25
X221.5Y-142.75
X221.5Y-149.25
X222.0Y-133.75
X222.25Y-157.25
X222.25Y-163.25
X222.5Y-201.75
X222.634Y-213.0
X223.0Y-204.0
X223.384Y-211.121
X223.5Y-190.0
X224.437Y-211.233
X224.5Y-139.0
X225.25Y-208.349
X225.4Y-211.5
X226.0Y-141.0
X226.5Y-195.0
X227.099Y-213.0
X227.099Y-214.0
X227.099Y-215.5
X227.25Y-208.349
X228.0Y-209.25
X228.0Y-217.5
X228.5Y-188.75
X229.5Y-140.25
X229.5Y-147.75
X229.75Y-137.75
X229.75Y-142.75
X230.25Y-149.5
X232.5Y-196.25
X234.0Y-150.0
X234.0Y-194.25
X234.03Y-212.97
X234.5Y-134.0
X235.0Y-155.5
X235.0Y-209.25
X238.0Y-227.0
X238.5Y-226.0
X240.5Y-143.25
X244.5Y-214.5
X244.5Y-215.5
X245.5Y-141.5
X247.0Y-195.5
X248.0Y-173.5
X249.5Y-193.5
X252.75Y-98.25
X254.5Y-214.5
X254.5Y-215.5
X254.5Y-221.0
X254.5Y-223.0
X261.0Y-83.25
X265.75Y-97.5
X266.5Y-82.5
X266.75Y-81.25
X267.0Y-97.25
X268.0Y-96.5
X269.0Y-182.25
X271.0Y-190.0
X271.0Y-193.0
X271.25Y-182.25
X271.25Y-224.75
X273.25Y-148.25
X274.5Y-139.5
X274.5Y-142.5
X274.75Y-178.537
X275.0Y-167.5
X276.75Y-165.75
X278.0Y-163.0
X278.75Y-225.5
X279.0Y-139.5
X280.5Y-139.5
X280.5Y-142.5
X281.0Y-82.5
X282.25Y-191.25
X282.5Y-204.0
X283.5Y-204.0
X283.95Y-194.5
X285.0Y-77.5
X285.25Y-173.5
X285.3Y-193.5
X286.6Y-196.2
X287.1Y-195.3
X287.25Y-105.0
X288.5Y-208.0
X289.75Y-202.75
X290.0Y-188.5
X291.0Y-182.25
X292.0Y-203.5
X292.248Y-183.25
X292.248Y-184.25
X292.5Y-82.5
X292.5Y-193.0
X292.5Y-197.5
X293.0Y-194.0
X295.0Y-197.5
X295.448Y-169.948
X295.5Y-210.5
X295.5Y-225.5
X295.53Y-199.47
X298.0Y-126.25
X298.0Y-170.0
X298.25Y-178.0
X298.5Y-189.0
X298.5Y-199.0
X300.75Y-126.25
X301.5Y-203.0
X301.75Y-173.75
X303.346Y-191.846
X305.0Y-193.5
X309.0Y-210.5
T3
X98.0Y-136.48
X98.0Y-137.75
X98.0Y-139.02
X115.0Y-123.46
X115.0Y-124.73
X115.0Y-126.0
X120.0Y-123.46
X120.0Y-124.73
X120.0Y-126.0
X156.25Y-112.0
X156.25Y-113.27
X156.25Y-114.54
X161.25Y-112.0
X161.25Y-113.27
X161.25Y-114.54
X167.86Y-76.23
X167.86Y-77.5
X167.86Y-78.77
X194.36Y-96.73
X194.36Y-98.0
X194.36Y-99.27
X194.36Y-112.73
X194.36Y-114.0
X194.36Y-115.27
X194.36Y-120.73
X194.36Y-122.0
X194.36Y-123.27
X204.86Y-77.73
X204.86Y-79.0
X204.86Y-80.27
X207.86Y-140.73
X207.86Y-142.0
X207.86Y-143.27
X212.14Y-140.73
X212.14Y-142.0
X212.14Y-143.27
X227.86Y-108.73
X227.86Y-110.0
X227.86Y-111.27
X232.86Y-108.73
X232.86Y-110.0
X232.86Y-111.27
X258.73Y-109.14
X260.0Y-109.14
X261.27Y-109.14
X270.23Y-109.14
X271.5Y-109.14
X272.77Y-109.14
T4
X85.94Y-136.25
X86.0Y-118.75
X86.0Y-123.75
X90.0Y-118.25
X90.0Y-131.25
X90.0Y-150.47
X90.0Y-153.01
X90.0Y-155.55
X90.0Y-161.45
X90.0Y-163.99
X90.0Y-166.53
X90.0Y-172.45
X90.0Y-174.99
X90.0Y-177.53
X90.0Y-183.45
X90.0Y-185.99
X90.0Y-188.53
X93.56Y-136.25
X94.5Y-149.19
X94.5Y-156.81
X95.0Y-118.25
X95.0Y-131.25
X98.0Y-120.25
X98.0Y-122.75
X98.0Y-128.25
X98.0Y-133.25
X98.5Y-203.69
X98.5Y-211.31
X100.5Y-73.88
X100.5Y-81.5
X101.19Y-115.0
X101.19Y-201.0
X102.5Y-109.0
X102.5Y-213.19
X102.5Y-220.81
X104.1Y-204.529
X104.1Y-210.329
X105.25Y-73.88
X105.25Y-81.5
X105.9Y-204.529
X105.9Y-210.329
X107.5Y-109.0
X107.5Y-213.19
X107.5Y-220.81
X108.81Y-115.0
X108.81Y-201.0
X110.0Y-73.88
X110.0Y-81.5
X114.19Y-129.0
X114.25Y-134.13
X114.25Y-141.75
X115.0Y-113.19
X115.0Y-120.81
X118.0Y-134.19
X118.0Y-141.81
X120.0Y-92.935
X120.0Y-95.475
X120.0Y-98.015
X120.0Y-103.0
X120.0Y-110.62
X121.0Y-203.69
X121.0Y-211.31
X121.75Y-134.215
X121.75Y-141.835
X121.81Y-129.0
X123.88Y-201.0
X125.0Y-213.19
X125.0Y-220.81
X126.6Y-204.529
X126.6Y-210.329
X127.0Y-91.69
X127.0Y-99.31
X128.4Y-204.529
X128.4Y-210.329
X129.75Y-119.19
X129.75Y-126.81
X130.0Y-213.19
X130.0Y-220.81
X131.5Y-201.0
X134.75Y-223.5
X135.0Y-192.5
X136.19Y-139.5
X139.75Y-223.5
X140.0Y-192.5
X143.5Y-203.69
X143.5Y-211.31
X143.81Y-139.5
X146.0Y-146.0
X146.19Y-201.0
X147.5Y-213.19
X147.5Y-220.81
X148.0Y-152.19
X148.0Y-159.81
X148.0Y-162.19
X148.0Y-169.81
X148.19Y-177.0
X149.1Y-204.6
X149.1Y-210.4
X150.9Y-204.6
X150.9Y-210.4
X151.0Y-122.19
X151.0Y-129.81
X151.0Y-134.19
X151.0Y-141.81
X151.0Y-146.0
X151.0Y-152.19
X151.0Y-159.81
X151.0Y-162.19
X151.0Y-169.81
X152.5Y-213.19
X152.5Y-220.81
X153.0Y-83.19
X153.0Y-90.81
X153.81Y-201.0
X154.25Y-122.5
X154.25Y-125.0
X154.44Y-118.0
X155.5Y-98.19
X155.5Y-105.81
X155.5Y-135.5
X155.5Y-148.5
X155.5Y-154.5
X155.5Y-168.5
X155.81Y-177.0
X157.0Y-83.19
X157.0Y-90.81
X160.0Y-124.403
X160.0Y-129.403
X160.19Y-177.0
X160.5Y-98.19
X160.5Y-105.81
X160.5Y-135.5
X160.5Y-148.5
X160.5Y-154.5
X160.5Y-168.5
X161.0Y-83.19
X161.0Y-90.81
X162.06Y-118.0
X164.5Y-133.94
X164.5Y-141.56
X165.0Y-152.19
X165.0Y-159.81
X165.0Y-162.19
X165.0Y-169.81
X165.5Y-146.0
X166.0Y-203.69
X166.0Y-211.31
X167.75Y-141.0
X167.81Y-177.0
X168.0Y-152.19
X168.0Y-159.81
X168.0Y-162.19
X168.0Y-169.81
X168.88Y-201.0
X170.0Y-213.19
X170.0Y-220.81
X170.5Y-146.0
X171.6Y-204.6
X171.6Y-210.4
X172.75Y-141.0
X173.4Y-204.6
X173.4Y-210.4
X174.69Y-77.0
X174.69Y-144.5
X175.0Y-213.19
X175.0Y-220.81
X175.69Y-140.75
X176.19Y-109.0
X176.5Y-201.0
X182.31Y-77.0
X182.31Y-144.5
X183.31Y-140.75
X183.81Y-109.0
X188.5Y-76.69
X188.5Y-84.31
X188.5Y-86.69
X188.5Y-94.31
X188.5Y-97.69
X188.5Y-105.31
X188.5Y-113.19
X188.5Y-120.81
X188.5Y-123.19
X188.5Y-130.81
X188.5Y-133.19
X188.5Y-140.81
X188.5Y-150.69
X188.5Y-158.31
X188.5Y-203.69
X188.5Y-211.31
X189.75Y-169.75
X191.19Y-201.0
X192.5Y-213.19
X192.5Y-220.81
X194.1Y-204.6
X194.1Y-210.4
X194.5Y-86.19
X194.5Y-93.81
X194.5Y-102.19
X194.5Y-109.81
X194.5Y-127.19
X194.5Y-134.81
X194.5Y-140.69
X194.5Y-148.31
X194.5Y-150.69
X194.5Y-158.31
X194.75Y-169.75
X195.9Y-204.6
X195.9Y-210.4
X197.5Y-213.19
X197.5Y-220.81
X198.0Y-164.75
X198.0Y-177.25
X198.81Y-201.0
X202.0Y-151.19
X202.0Y-158.81
X203.0Y-164.75
X203.0Y-177.25
X206.19Y-111.0
X206.19Y-169.0
X206.19Y-172.0
X206.19Y-175.0
X211.0Y-203.69
X211.0Y-211.31
X211.19Y-78.5
X213.69Y-201.0
X213.81Y-111.0
X213.81Y-169.0
X213.81Y-172.0
X213.81Y-175.0
X214.75Y-147.0
X215.0Y-213.19
X215.0Y-220.81
X216.6Y-204.6
X216.6Y-210.4
X218.4Y-204.6
X218.4Y-210.4
X218.81Y-78.5
X219.0Y-151.19
X219.0Y-158.81
X219.0Y-161.19
X219.0Y-168.81
X219.5Y-136.69
X219.5Y-144.31
X219.75Y-147.0
X220.0Y-213.19
X220.0Y-220.81
X221.0Y-98.19
X221.0Y-105.81
X221.0Y-109.19
X221.0Y-116.81
X221.0Y-119.69
X221.0Y-127.31
X221.31Y-201.0
X221.69Y-130.5
X221.69Y-174.0
X222.5Y-84.69
X222.5Y-92.31
X223.0Y-135.25
X223.0Y-147.75
X225.0Y-151.69
X225.0Y-159.31
X225.0Y-192.5
X225.0Y-223.5
X228.0Y-98.19
X228.0Y-105.81
X228.0Y-115.19
X228.0Y-122.81
X228.0Y-135.25
X228.0Y-147.75
X228.5Y-151.69
X228.5Y-159.31
X229.31Y-130.5
X229.31Y-174.0
X229.5Y-84.69
X229.5Y-92.31
X230.0Y-192.5
X230.0Y-223.5
X231.5Y-115.19
X231.5Y-122.81
X232.0Y-98.19
X232.0Y-105.81
X232.0Y-130.19
X232.0Y-137.81
X232.0Y-140.69
X232.0Y-148.31
X232.0Y-151.69
X232.0Y-159.31
X233.0Y-75.0
X233.5Y-203.69
X233.5Y-211.31
X236.19Y-196.0
X236.19Y-201.0
X237.5Y-137.69
X237.5Y-145.31
X237.5Y-213.19
X237.5Y-220.81
X238.0Y-75.0
X238.5Y-111.19
X238.5Y-118.81
X239.1Y-204.6
X239.1Y-210.4
X240.9Y-204.6
X240.9Y-210.4
X242.0Y-111.19
X242.0Y-118.81
X242.5Y-137.69
X242.5Y-145.31
X242.5Y-213.19
X242.5Y-220.81
X243.81Y-196.0
X243.81Y-201.0
X245.5Y-151.19
X245.5Y-158.81
X249.0Y-114.95
X249.0Y-117.49
X249.0Y-120.03
X249.5Y-129.0
X251.25Y-136.0
X253.5Y-138.69
X253.5Y-146.31
X254.0Y-107.19
X254.0Y-114.81
X254.5Y-129.0
X256.0Y-176.19
X256.0Y-183.81
X256.0Y-203.69
X256.0Y-211.31
X256.19Y-104.0
X256.25Y-136.0
X258.69Y-173.5
X258.69Y-201.0
X259.18Y-128.2
X259.18Y-130.74
X259.18Y-133.28
X259.18Y-135.82
X260.0Y-185.69
X260.0Y-193.31
X260.0Y-213.19
X260.0Y-220.81
X260.25Y-140.5
X261.6Y-177.1
X261.6Y-182.9
X261.6Y-204.6
X261.6Y-210.4
X262.75Y-145.597
X262.75Y-150.597
X263.4Y-177.1
X263.4Y-182.9
X263.4Y-204.6
X263.4Y-210.4
X263.81Y-104.0
X265.0Y-185.69
X265.0Y-193.31
X265.0Y-213.19
X265.0Y-220.81
X265.25Y-140.5
X265.5Y-107.19
X265.5Y-114.81
X266.31Y-173.5
X266.31Y-201.0
X266.8Y-128.2
X266.8Y-130.74
X266.8Y-133.28
X266.8Y-135.82
X267.69Y-104.0
X268.75Y-184.5
X268.75Y-189.75
X269.25Y-195.25
X270.0Y-118.19
X270.0Y-125.81
X270.0Y-130.25
X270.0Y-135.75
X270.0Y-139.75
X271.0Y-171.5
X272.5Y-139.75
X273.75Y-184.5
X273.75Y-189.75
X274.25Y-195.25
X275.0Y-118.19
X275.0Y-125.81
X275.0Y-130.25
X275.0Y-135.75
X275.31Y-104.0
X275.5Y-214.69
X275.5Y-222.31
X275.94Y-84.5
X276.0Y-171.5
X278.0Y-88.25
X278.0Y-93.25
X278.5Y-71.19
X278.5Y-78.81
X280.0Y-191.2
X280.5Y-214.69
X280.5Y-222.31
X282.0Y-88.25
X282.0Y-93.25
X283.56Y-84.5
X283.597Y-156.5
X285.0Y-191.2
X286.69Y-84.5
X288.597Y-156.5
X291.0Y-213.097
X291.0Y-218.097
X291.75Y-159.63
X291.75Y-167.25
X293.097Y-173.5
X294.31Y-84.5
X298.0Y-88.25
X298.0Y-93.25
X298.097Y-173.5
X302.75Y-84.69
X302.75Y-92.31
X303.5Y-189.19
X303.5Y-196.81
X306.5Y-84.69
X306.5Y-92.31
T6
X103.23Y-87.95
X104.5Y-87.95
X105.77Y-87.95
X107.04Y-87.95
X138.735Y-87.95
X138.735Y-117.95
X141.275Y-87.95
X141.275Y-117.95
X173.735Y-88.0
X173.735Y-118.0
X176.275Y-88.0
X176.275Y-118.0
X208.735Y-88.0
X208.735Y-118.0
X211.275Y-88.0
X211.275Y-118.0
X263.792Y-76.082
X267.792Y-76.082
X271.792Y-76.082
X297.167Y-157.042
X297.167Y-161.042
X297.167Y-165.042
T7
X101.0Y-106.0
X101.75Y-205.179
X101.75Y-209.679
X102.5Y-162.5
X102.5Y-187.5
X105.0Y-106.0
X105.0Y-162.5
X105.0Y-187.5
X107.5Y-162.5
X107.5Y-187.5
X108.25Y-205.179
X108.25Y-209.679
X109.0Y-106.0
X114.25Y-145.485
X114.25Y-148.025
X118.0Y-145.485
X118.0Y-148.025
X121.75Y-145.485
X121.75Y-148.025
X124.25Y-205.179
X124.25Y-209.679
X128.0Y-158.0
X128.0Y-160.54
X130.75Y-205.179
X130.75Y-209.679
X136.0Y-106.0
X136.0Y-136.0
X137.5Y-162.5
X137.5Y-187.5
X140.0Y-106.0
X140.0Y-136.0
X140.0Y-162.5
X140.0Y-187.5
X142.5Y-162.5
X142.5Y-187.5
X144.0Y-106.0
X144.0Y-136.0
X146.75Y-205.25
X146.75Y-209.75
X153.25Y-205.25
X153.25Y-209.75
X157.0Y-77.0
X157.0Y-79.54
X161.0Y-77.0
X161.0Y-79.54
X169.25Y-205.25
X169.25Y-209.75
X171.0Y-106.0
X171.0Y-136.0
X175.0Y-106.0
X175.0Y-136.0
X175.75Y-205.25
X175.75Y-209.75
X179.0Y-106.0
X179.0Y-136.0
X191.75Y-205.25
X191.75Y-209.75
X192.735Y-77.0
X195.275Y-77.0
X198.25Y-205.25
X198.25Y-209.75
X206.0Y-106.0
X206.0Y-136.0
X207.5Y-188.25
X210.0Y-106.0
X210.0Y-136.0
X210.0Y-188.25
X212.5Y-188.25
X214.0Y-106.0
X214.0Y-136.0
X214.25Y-205.25
X214.25Y-209.75
X220.75Y-205.25
X220.75Y-209.75
X224.235Y-168.5
X226.775Y-168.5
X229.5Y-78.225
X229.5Y-80.765
X232.0Y-162.735
X232.0Y-165.275
X236.75Y-205.25
X236.75Y-209.75
X237.5Y-102.5
X237.5Y-132.5
X237.5Y-187.5
X240.0Y-102.5
X240.0Y-132.5
X240.0Y-187.5
X242.5Y-102.5
X242.5Y-132.5
X242.5Y-187.5
X243.25Y-205.25
X243.25Y-209.75
X249.0Y-136.725
X249.0Y-139.265
X249.5Y-102.485
X249.5Y-105.025
X259.25Y-177.75
X259.25Y-182.25
X259.25Y-205.25
X259.25Y-209.75
X261.735Y-123.0
X264.275Y-123.0
X265.75Y-177.75
X265.75Y-182.25
X265.75Y-205.25
X265.75Y-209.75
X280.0Y-187.5
X282.5Y-187.5
X285.0Y-187.5
X293.88Y-206.0
X296.42Y-206.0
X298.96Y-206.0
X301.5Y-206.0
X304.04Y-206.0
X305.0Y-80.5
X306.58Y-206.0
T8
X279.25Y-205.25
X279.25Y-209.75
X285.75Y-205.25
X285.75Y-209.75
T9
X261.792Y-71.832
X261.792Y-77.832
X273.792Y-71.832
X273.792Y-77.832
X295.417Y-155.042
X295.417Y-167.042
X301.417Y-155.042
X301.417Y-167.042
T10
X252.73Y-75.0
X260.0Y-88.52
X270.75Y-88.52
T11
X249.63Y-75.0
X260.0Y-91.62
X270.75Y-91.62
T12
X241.33Y-75.0
X260.0Y-99.92
X270.75Y-99.92
T13
X288.6Y-74.515
X288.6Y-80.515
X293.3Y-77.515
T14
X286.15Y-99.6
X298.85Y-99.6
T2
G00X307.275Y-171.125
M15
G01X306.625Y-171.125
M16
G05
G00X307.275Y-178.875
M15
G01X306.625Y-178.875
M16
G05
T5
G00X303.425Y-171.275
M15
G01X302.875Y-171.275
M16
G05
G00X303.425Y-178.725
M15
G01X302.875Y-178.725
M16
G05
T7
G00X104.35Y-123.565
M15
G01X105.65Y-123.565
M16
G05
G00X104.35Y-128.015
M15
G01X105.65Y-128.015
M16
G05
G00X104.35Y-132.465
M15
G01X105.65Y-132.465
M16
G05
G00X174.35Y-150.55
M15
G01X175.65Y-150.55
M16
G05
G00X174.35Y-155.0
M15
G01X175.65Y-155.0
M16
G05
G00X174.35Y-159.45
M15
G01X175.65Y-159.45
M16
G05
G00X210.65Y-150.55
M15
G01X209.35Y-150.55
M16
G05
G00X210.65Y-155.0
M15
G01X209.35Y-155.0
M16
G05
G00X210.65Y-159.45
M15
G01X209.35Y-159.45
M16
G05
G00X239.35Y-150.55
M15
G01X240.65Y-150.55
M16
G05
G00X239.35Y-155.0
M15
G01X240.65Y-155.0
M16
G05
G00X239.35Y-159.45
M15
G01X240.65Y-159.45
M16
G05
T8
G00X99.85Y-155.0
M15
G01X100.55Y-155.0
M16
G05
G00X99.85Y-180.0
M15
G01X100.55Y-180.0
M16
G05
G00X109.45Y-155.0
M15
G01X110.15Y-155.0
M16
G05
G00X109.45Y-180.0
M15
G01X110.15Y-180.0
M16
G05
G00X134.85Y-155.0
M15
G01X135.55Y-155.0
M16
G05
G00X134.85Y-180.0
M15
G01X135.55Y-180.0
M16
G05
G00X144.45Y-155.0
M15
G01X145.15Y-155.0
M16
G05
G00X144.45Y-180.0
M15
G01X145.15Y-180.0
M16
G05
G00X204.85Y-180.75
M15
G01X205.55Y-180.75
M16
G05
G00X214.45Y-180.75
M15
G01X215.15Y-180.75
M16
G05
G00X234.85Y-95.0
M15
G01X235.55Y-95.0
M16
G05
G00X234.85Y-125.0
M15
G01X235.55Y-125.0
M16
G05
G00X234.85Y-180.0
M15
G01X235.55Y-180.0
M16
G05
G00X244.45Y-95.0
M15
G01X245.15Y-95.0
M16
G05
G00X244.45Y-125.0
M15
G01X245.15Y-125.0
M16
G05
G00X244.45Y-180.0
M15
G01X245.15Y-180.0
M16
G05
G00X277.35Y-180.0
M15
G01X278.05Y-180.0
M16
G05
G00X286.95Y-180.0
M15
G01X287.65Y-180.0
M16
G05
T13
G00X98.3Y-94.75
M15
G01X98.3Y-95.25
M16
G05
G00X111.7Y-94.75
M15
G01X111.7Y-95.25
M16
G05
G00X133.3Y-94.75
M15
G01X133.3Y-95.25
M16
G05
G00X133.3Y-124.75
M15
G01X133.3Y-125.25
M16
G05
G00X146.7Y-94.75
M15
G01X146.7Y-95.25
M16
G05
G00X146.7Y-124.75
M15
G01X146.7Y-125.25
M16
G05
G00X168.3Y-94.75
M15
G01X168.3Y-95.25
M16
G05
G00X168.3Y-124.75
M15
G01X168.3Y-125.25
M16
G05
G00X181.7Y-94.75
M15
G01X181.7Y-95.25
M16
G05
G00X181.7Y-124.75
M15
G01X181.7Y-125.25
M16
G05
G00X203.3Y-94.75
M15
G01X203.3Y-95.25
M16
G05
G00X203.3Y-124.75
M15
G01X203.3Y-125.25
M16
G05
G00X216.7Y-94.75
M15
G01X216.7Y-95.25
M16
G05
G00X216.7Y-124.75
M15
G01X216.7Y-125.25
M16
G05
T0
M30
