%TF.GenerationSoftware,KiCad,Pcbnew,(6.0.7-1)-1*%
%TF.CreationDate,2022-09-04T10:59:54+02:00*%
%TF.ProjectId,LivSynth_Hardware,4c697653-796e-4746-985f-486172647761,0v01*%
%TF.SameCoordinates,Original*%
%TF.FileFunction,Paste,Bot*%
%TF.FilePolarity,Positive*%
%FSLAX46Y46*%
G04 Gerber Fmt 4.6, Leading zero omitted, Abs format (unit mm)*
G04 Created by KiCad (PCBNEW (6.0.7-1)-1) date 2022-09-04 10:59:54*
%MOMM*%
%LPD*%
G01*
G04 APERTURE LIST*
G04 Aperture macros list*
%AMRoundRect*
0 Rectangle with rounded corners*
0 $1 Rounding radius*
0 $2 $3 $4 $5 $6 $7 $8 $9 X,Y pos of 4 corners*
0 Add a 4 corners polygon primitive as box body*
4,1,4,$2,$3,$4,$5,$6,$7,$8,$9,$2,$3,0*
0 Add four circle primitives for the rounded corners*
1,1,$1+$1,$2,$3*
1,1,$1+$1,$4,$5*
1,1,$1+$1,$6,$7*
1,1,$1+$1,$8,$9*
0 Add four rect primitives between the rounded corners*
20,1,$1+$1,$2,$3,$4,$5,0*
20,1,$1+$1,$4,$5,$6,$7,0*
20,1,$1+$1,$6,$7,$8,$9,0*
20,1,$1+$1,$8,$9,$2,$3,0*%
G04 Aperture macros list end*
%ADD10RoundRect,0.237500X0.237500X-0.300000X0.237500X0.300000X-0.237500X0.300000X-0.237500X-0.300000X0*%
%ADD11RoundRect,0.150000X0.825000X0.150000X-0.825000X0.150000X-0.825000X-0.150000X0.825000X-0.150000X0*%
%ADD12R,1.300000X0.450000*%
%ADD13RoundRect,0.237500X-0.300000X-0.237500X0.300000X-0.237500X0.300000X0.237500X-0.300000X0.237500X0*%
%ADD14RoundRect,0.100000X-0.637500X-0.100000X0.637500X-0.100000X0.637500X0.100000X-0.637500X0.100000X0*%
%ADD15RoundRect,0.237500X0.300000X0.237500X-0.300000X0.237500X-0.300000X-0.237500X0.300000X-0.237500X0*%
%ADD16R,2.100000X1.800000*%
%ADD17RoundRect,0.150000X0.850000X0.150000X-0.850000X0.150000X-0.850000X-0.150000X0.850000X-0.150000X0*%
%ADD18RoundRect,0.218750X0.256250X-0.218750X0.256250X0.218750X-0.256250X0.218750X-0.256250X-0.218750X0*%
%ADD19RoundRect,0.237500X-0.237500X0.300000X-0.237500X-0.300000X0.237500X-0.300000X0.237500X0.300000X0*%
%ADD20RoundRect,0.150000X-0.150000X0.825000X-0.150000X-0.825000X0.150000X-0.825000X0.150000X0.825000X0*%
%ADD21RoundRect,0.075000X-0.700000X-0.075000X0.700000X-0.075000X0.700000X0.075000X-0.700000X0.075000X0*%
%ADD22RoundRect,0.075000X-0.075000X-0.700000X0.075000X-0.700000X0.075000X0.700000X-0.075000X0.700000X0*%
%ADD23R,1.500000X2.000000*%
%ADD24R,3.800000X2.000000*%
G04 APERTURE END LIST*
D10*
%TO.C,C23*%
X291000000Y-188362500D03*
X291000000Y-186637500D03*
%TD*%
D11*
%TO.C,U4*%
X94975000Y-120940000D03*
X94975000Y-122210000D03*
X94975000Y-123480000D03*
X94975000Y-124750000D03*
X94975000Y-126020000D03*
X94975000Y-127290000D03*
X94975000Y-128560000D03*
X90025000Y-128560000D03*
X90025000Y-127290000D03*
X90025000Y-126020000D03*
X90025000Y-124750000D03*
X90025000Y-123480000D03*
X90025000Y-122210000D03*
X90025000Y-120940000D03*
%TD*%
%TO.C,U18*%
X139975000Y-195055000D03*
X139975000Y-196325000D03*
X139975000Y-197595000D03*
X139975000Y-198865000D03*
X139975000Y-200135000D03*
X139975000Y-201405000D03*
X139975000Y-202675000D03*
X139975000Y-203945000D03*
X135025000Y-203945000D03*
X135025000Y-202675000D03*
X135025000Y-201405000D03*
X135025000Y-200135000D03*
X135025000Y-198865000D03*
X135025000Y-197595000D03*
X135025000Y-196325000D03*
X135025000Y-195055000D03*
%TD*%
D12*
%TO.C,J3*%
X303100000Y-173700000D03*
X303100000Y-174350000D03*
X303100000Y-175000000D03*
X303100000Y-175650000D03*
X303100000Y-176300000D03*
%TD*%
D13*
%TO.C,C21*%
X300637500Y-201000000D03*
X302362500Y-201000000D03*
%TD*%
%TO.C,C28*%
X302637500Y-199000000D03*
X304362500Y-199000000D03*
%TD*%
D14*
%TO.C,U17*%
X224637500Y-220850000D03*
X224637500Y-220200000D03*
X224637500Y-219550000D03*
X224637500Y-218900000D03*
X224637500Y-218250000D03*
X224637500Y-217600000D03*
X224637500Y-216950000D03*
X224637500Y-216300000D03*
X224637500Y-215650000D03*
X224637500Y-215000000D03*
X224637500Y-214350000D03*
X224637500Y-213700000D03*
X224637500Y-213050000D03*
X224637500Y-212400000D03*
X230362500Y-212400000D03*
X230362500Y-213050000D03*
X230362500Y-213700000D03*
X230362500Y-214350000D03*
X230362500Y-215000000D03*
X230362500Y-215650000D03*
X230362500Y-216300000D03*
X230362500Y-216950000D03*
X230362500Y-217600000D03*
X230362500Y-218250000D03*
X230362500Y-218900000D03*
X230362500Y-219550000D03*
X230362500Y-220200000D03*
X230362500Y-220850000D03*
%TD*%
%TO.C,U16*%
X134500000Y-220850000D03*
X134500000Y-220200000D03*
X134500000Y-219550000D03*
X134500000Y-218900000D03*
X134500000Y-218250000D03*
X134500000Y-217600000D03*
X134500000Y-216950000D03*
X134500000Y-216300000D03*
X134500000Y-215650000D03*
X134500000Y-215000000D03*
X134500000Y-214350000D03*
X134500000Y-213700000D03*
X134500000Y-213050000D03*
X134500000Y-212400000D03*
X140225000Y-212400000D03*
X140225000Y-213050000D03*
X140225000Y-213700000D03*
X140225000Y-214350000D03*
X140225000Y-215000000D03*
X140225000Y-215650000D03*
X140225000Y-216300000D03*
X140225000Y-216950000D03*
X140225000Y-217600000D03*
X140225000Y-218250000D03*
X140225000Y-218900000D03*
X140225000Y-219550000D03*
X140225000Y-220200000D03*
X140225000Y-220850000D03*
%TD*%
D11*
%TO.C,U2*%
X227975000Y-137690000D03*
X227975000Y-138960000D03*
X227975000Y-140230000D03*
X227975000Y-141500000D03*
X227975000Y-142770000D03*
X227975000Y-144040000D03*
X227975000Y-145310000D03*
X223025000Y-145310000D03*
X223025000Y-144040000D03*
X223025000Y-142770000D03*
X223025000Y-141500000D03*
X223025000Y-140230000D03*
X223025000Y-138960000D03*
X223025000Y-137690000D03*
%TD*%
%TO.C,U19*%
X229975000Y-195055000D03*
X229975000Y-196325000D03*
X229975000Y-197595000D03*
X229975000Y-198865000D03*
X229975000Y-200135000D03*
X229975000Y-201405000D03*
X229975000Y-202675000D03*
X229975000Y-203945000D03*
X225025000Y-203945000D03*
X225025000Y-202675000D03*
X225025000Y-201405000D03*
X225025000Y-200135000D03*
X225025000Y-198865000D03*
X225025000Y-197595000D03*
X225025000Y-196325000D03*
X225025000Y-195055000D03*
%TD*%
D15*
%TO.C,C29*%
X286362500Y-202500000D03*
X284637500Y-202500000D03*
%TD*%
%TO.C,C26*%
X282612500Y-196000000D03*
X280887500Y-196000000D03*
%TD*%
D16*
%TO.C,Y1*%
X285950000Y-200500000D03*
X283050000Y-200500000D03*
X283050000Y-198200000D03*
X285950000Y-198200000D03*
%TD*%
D11*
%TO.C,U3*%
X202975000Y-167190000D03*
X202975000Y-168460000D03*
X202975000Y-169730000D03*
X202975000Y-171000000D03*
X202975000Y-172270000D03*
X202975000Y-173540000D03*
X202975000Y-174810000D03*
X198025000Y-174810000D03*
X198025000Y-173540000D03*
X198025000Y-172270000D03*
X198025000Y-171000000D03*
X198025000Y-169730000D03*
X198025000Y-168460000D03*
X198025000Y-167190000D03*
%TD*%
D17*
%TO.C,U6*%
X160500000Y-157055000D03*
X160500000Y-158325000D03*
X160500000Y-159595000D03*
X160500000Y-160865000D03*
X160500000Y-162135000D03*
X160500000Y-163405000D03*
X160500000Y-164675000D03*
X160500000Y-165945000D03*
X155500000Y-165945000D03*
X155500000Y-164675000D03*
X155500000Y-163405000D03*
X155500000Y-162135000D03*
X155500000Y-160865000D03*
X155500000Y-159595000D03*
X155500000Y-158325000D03*
X155500000Y-157055000D03*
%TD*%
D15*
%TO.C,C30*%
X286112500Y-196000000D03*
X284387500Y-196000000D03*
%TD*%
D10*
%TO.C,C27*%
X297500000Y-187862500D03*
X297500000Y-186137500D03*
%TD*%
%TO.C,C25*%
X299500000Y-189862500D03*
X299500000Y-188137500D03*
%TD*%
D18*
%TO.C,FB1*%
X278250000Y-175037500D03*
X278250000Y-173462500D03*
%TD*%
D19*
%TO.C,C22*%
X290750000Y-204137500D03*
X290750000Y-205862500D03*
%TD*%
D20*
%TO.C,U1*%
X286190000Y-88275000D03*
X287460000Y-88275000D03*
X288730000Y-88275000D03*
X290000000Y-88275000D03*
X291270000Y-88275000D03*
X292540000Y-88275000D03*
X293810000Y-88275000D03*
X293810000Y-93225000D03*
X292540000Y-93225000D03*
X291270000Y-93225000D03*
X290000000Y-93225000D03*
X288730000Y-93225000D03*
X287460000Y-93225000D03*
X286190000Y-93225000D03*
%TD*%
D11*
%TO.C,U5*%
X160475000Y-138190000D03*
X160475000Y-139460000D03*
X160475000Y-140730000D03*
X160475000Y-142000000D03*
X160475000Y-143270000D03*
X160475000Y-144540000D03*
X160475000Y-145810000D03*
X155525000Y-145810000D03*
X155525000Y-144540000D03*
X155525000Y-143270000D03*
X155525000Y-142000000D03*
X155525000Y-140730000D03*
X155525000Y-139460000D03*
X155525000Y-138190000D03*
%TD*%
D21*
%TO.C,U9*%
X288825000Y-199750000D03*
X288825000Y-199250000D03*
X288825000Y-198750000D03*
X288825000Y-198250000D03*
X288825000Y-197750000D03*
X288825000Y-197250000D03*
X288825000Y-196750000D03*
X288825000Y-196250000D03*
X288825000Y-195750000D03*
X288825000Y-195250000D03*
X288825000Y-194750000D03*
X288825000Y-194250000D03*
X288825000Y-193750000D03*
X288825000Y-193250000D03*
X288825000Y-192750000D03*
X288825000Y-192250000D03*
D22*
X290750000Y-190325000D03*
X291250000Y-190325000D03*
X291750000Y-190325000D03*
X292250000Y-190325000D03*
X292750000Y-190325000D03*
X293250000Y-190325000D03*
X293750000Y-190325000D03*
X294250000Y-190325000D03*
X294750000Y-190325000D03*
X295250000Y-190325000D03*
X295750000Y-190325000D03*
X296250000Y-190325000D03*
X296750000Y-190325000D03*
X297250000Y-190325000D03*
X297750000Y-190325000D03*
X298250000Y-190325000D03*
D21*
X300175000Y-192250000D03*
X300175000Y-192750000D03*
X300175000Y-193250000D03*
X300175000Y-193750000D03*
X300175000Y-194250000D03*
X300175000Y-194750000D03*
X300175000Y-195250000D03*
X300175000Y-195750000D03*
X300175000Y-196250000D03*
X300175000Y-196750000D03*
X300175000Y-197250000D03*
X300175000Y-197750000D03*
X300175000Y-198250000D03*
X300175000Y-198750000D03*
X300175000Y-199250000D03*
X300175000Y-199750000D03*
D22*
X298250000Y-201675000D03*
X297750000Y-201675000D03*
X297250000Y-201675000D03*
X296750000Y-201675000D03*
X296250000Y-201675000D03*
X295750000Y-201675000D03*
X295250000Y-201675000D03*
X294750000Y-201675000D03*
X294250000Y-201675000D03*
X293750000Y-201675000D03*
X293250000Y-201675000D03*
X292750000Y-201675000D03*
X292250000Y-201675000D03*
X291750000Y-201675000D03*
X291250000Y-201675000D03*
X290750000Y-201675000D03*
%TD*%
D23*
%TO.C,U8*%
X288300000Y-168650000D03*
X286000000Y-168650000D03*
X283700000Y-168650000D03*
D24*
X286000000Y-162350000D03*
%TD*%
D19*
%TO.C,C24*%
X288500000Y-201137500D03*
X288500000Y-202862500D03*
%TD*%
M02*
