%TF.GenerationSoftware,KiCad,Pcbnew,(6.0.10-0)*%
%TF.CreationDate,2023-01-28T16:50:53+01:00*%
%TF.ProjectId,LivSynth_Hardware,4c697653-796e-4746-985f-486172647761,0v2*%
%TF.SameCoordinates,Original*%
%TF.FileFunction,Paste,Bot*%
%TF.FilePolarity,Positive*%
%FSLAX46Y46*%
G04 Gerber Fmt 4.6, Leading zero omitted, Abs format (unit mm)*
G04 Created by KiCad (PCBNEW (6.0.10-0)) date 2023-01-28 16:50:53*
%MOMM*%
%LPD*%
G01*
G04 APERTURE LIST*
G04 Aperture macros list*
%AMRoundRect*
0 Rectangle with rounded corners*
0 $1 Rounding radius*
0 $2 $3 $4 $5 $6 $7 $8 $9 X,Y pos of 4 corners*
0 Add a 4 corners polygon primitive as box body*
4,1,4,$2,$3,$4,$5,$6,$7,$8,$9,$2,$3,0*
0 Add four circle primitives for the rounded corners*
1,1,$1+$1,$2,$3*
1,1,$1+$1,$4,$5*
1,1,$1+$1,$6,$7*
1,1,$1+$1,$8,$9*
0 Add four rect primitives between the rounded corners*
20,1,$1+$1,$2,$3,$4,$5,0*
20,1,$1+$1,$4,$5,$6,$7,0*
20,1,$1+$1,$6,$7,$8,$9,0*
20,1,$1+$1,$8,$9,$2,$3,0*%
G04 Aperture macros list end*
%ADD10C,0.100000*%
%ADD11RoundRect,0.155000X0.155000X-0.212500X0.155000X0.212500X-0.155000X0.212500X-0.155000X-0.212500X0*%
%ADD12RoundRect,0.237500X0.300000X0.237500X-0.300000X0.237500X-0.300000X-0.237500X0.300000X-0.237500X0*%
%ADD13RoundRect,0.150000X0.825000X0.150000X-0.825000X0.150000X-0.825000X-0.150000X0.825000X-0.150000X0*%
%ADD14R,3.300000X4.500000*%
%ADD15R,0.599999X0.240000*%
%ADD16R,0.240000X0.599999*%
%ADD17R,0.850001X0.700001*%
%ADD18R,1.300000X0.450000*%
%ADD19RoundRect,0.237500X0.250000X0.237500X-0.250000X0.237500X-0.250000X-0.237500X0.250000X-0.237500X0*%
%ADD20RoundRect,0.250000X0.337500X0.475000X-0.337500X0.475000X-0.337500X-0.475000X0.337500X-0.475000X0*%
%ADD21RoundRect,0.237500X-0.300000X-0.237500X0.300000X-0.237500X0.300000X0.237500X-0.300000X0.237500X0*%
%ADD22RoundRect,0.237500X-0.237500X0.250000X-0.237500X-0.250000X0.237500X-0.250000X0.237500X0.250000X0*%
%ADD23RoundRect,0.100000X-0.637500X-0.100000X0.637500X-0.100000X0.637500X0.100000X-0.637500X0.100000X0*%
%ADD24RoundRect,0.250000X-0.337500X-0.475000X0.337500X-0.475000X0.337500X0.475000X-0.337500X0.475000X0*%
%ADD25R,4.200000X1.400000*%
%ADD26RoundRect,0.237500X-0.237500X0.300000X-0.237500X-0.300000X0.237500X-0.300000X0.237500X0.300000X0*%
%ADD27R,1.800000X2.100000*%
%ADD28RoundRect,0.150000X0.850000X0.150000X-0.850000X0.150000X-0.850000X-0.150000X0.850000X-0.150000X0*%
%ADD29RoundRect,0.150000X-0.587500X-0.150000X0.587500X-0.150000X0.587500X0.150000X-0.587500X0.150000X0*%
%ADD30RoundRect,0.237500X0.237500X-0.300000X0.237500X0.300000X-0.237500X0.300000X-0.237500X-0.300000X0*%
%ADD31RoundRect,0.218750X-0.218750X-0.256250X0.218750X-0.256250X0.218750X0.256250X-0.218750X0.256250X0*%
%ADD32R,1.200000X0.900000*%
%ADD33RoundRect,0.075000X-0.700000X-0.075000X0.700000X-0.075000X0.700000X0.075000X-0.700000X0.075000X0*%
%ADD34RoundRect,0.075000X-0.075000X-0.700000X0.075000X-0.700000X0.075000X0.700000X-0.075000X0.700000X0*%
%ADD35R,1.500000X2.000000*%
%ADD36R,3.800000X2.000000*%
%ADD37RoundRect,0.237500X0.237500X-0.250000X0.237500X0.250000X-0.237500X0.250000X-0.237500X-0.250000X0*%
G04 APERTURE END LIST*
%TO.C,U201*%
G36*
X298209757Y-202800961D02*
G01*
X298219137Y-202803806D01*
X298227781Y-202808429D01*
X298235358Y-202814646D01*
X298241576Y-202822223D01*
X298246196Y-202830867D01*
X298249041Y-202840247D01*
X298250001Y-202850001D01*
X298250001Y-203350000D01*
X298249041Y-203359753D01*
X298246196Y-203369134D01*
X298241576Y-203377777D01*
X298235358Y-203385354D01*
X298227781Y-203391572D01*
X298219137Y-203396195D01*
X298209757Y-203399040D01*
X298200001Y-203400000D01*
X298050001Y-203400000D01*
X298040248Y-203399040D01*
X298030867Y-203396195D01*
X298022224Y-203391572D01*
X298014647Y-203385354D01*
X298008429Y-203377777D01*
X298003809Y-203369134D01*
X298000964Y-203359753D01*
X298000001Y-203350000D01*
X298000001Y-202850001D01*
X298000964Y-202840247D01*
X298003809Y-202830867D01*
X298008429Y-202822223D01*
X298014647Y-202814646D01*
X298022224Y-202808429D01*
X298030867Y-202803806D01*
X298040248Y-202800961D01*
X298050001Y-202800001D01*
X298200001Y-202800001D01*
X298209757Y-202800961D01*
G37*
D10*
X298209757Y-202800961D02*
X298219137Y-202803806D01*
X298227781Y-202808429D01*
X298235358Y-202814646D01*
X298241576Y-202822223D01*
X298246196Y-202830867D01*
X298249041Y-202840247D01*
X298250001Y-202850001D01*
X298250001Y-203350000D01*
X298249041Y-203359753D01*
X298246196Y-203369134D01*
X298241576Y-203377777D01*
X298235358Y-203385354D01*
X298227781Y-203391572D01*
X298219137Y-203396195D01*
X298209757Y-203399040D01*
X298200001Y-203400000D01*
X298050001Y-203400000D01*
X298040248Y-203399040D01*
X298030867Y-203396195D01*
X298022224Y-203391572D01*
X298014647Y-203385354D01*
X298008429Y-203377777D01*
X298003809Y-203369134D01*
X298000964Y-203359753D01*
X298000001Y-203350000D01*
X298000001Y-202850001D01*
X298000964Y-202840247D01*
X298003809Y-202830867D01*
X298008429Y-202822223D01*
X298014647Y-202814646D01*
X298022224Y-202808429D01*
X298030867Y-202803806D01*
X298040248Y-202800961D01*
X298050001Y-202800001D01*
X298200001Y-202800001D01*
X298209757Y-202800961D01*
G36*
X297985254Y-203875963D02*
G01*
X297994634Y-203878807D01*
X298003278Y-203883428D01*
X298010855Y-203889646D01*
X298017073Y-203897222D01*
X298021695Y-203905866D01*
X298024540Y-203915246D01*
X298025500Y-203925002D01*
X298025500Y-204075002D01*
X298024540Y-204084756D01*
X298021695Y-204094136D01*
X298017073Y-204102780D01*
X298010855Y-204110356D01*
X298003278Y-204116574D01*
X297994634Y-204121195D01*
X297985254Y-204124039D01*
X297975500Y-204125002D01*
X297500500Y-204125002D01*
X297490746Y-204124039D01*
X297481366Y-204121195D01*
X297472723Y-204116574D01*
X297465146Y-204110356D01*
X297458928Y-204102780D01*
X297454305Y-204094136D01*
X297451460Y-204084756D01*
X297450500Y-204075002D01*
X297450500Y-203925002D01*
X297451460Y-203915246D01*
X297454305Y-203905866D01*
X297458928Y-203897222D01*
X297465146Y-203889646D01*
X297472723Y-203883428D01*
X297481366Y-203878807D01*
X297490746Y-203875963D01*
X297500500Y-203875003D01*
X297975500Y-203875003D01*
X297985254Y-203875963D01*
G37*
X297985254Y-203875963D02*
X297994634Y-203878807D01*
X298003278Y-203883428D01*
X298010855Y-203889646D01*
X298017073Y-203897222D01*
X298021695Y-203905866D01*
X298024540Y-203915246D01*
X298025500Y-203925002D01*
X298025500Y-204075002D01*
X298024540Y-204084756D01*
X298021695Y-204094136D01*
X298017073Y-204102780D01*
X298010855Y-204110356D01*
X298003278Y-204116574D01*
X297994634Y-204121195D01*
X297985254Y-204124039D01*
X297975500Y-204125002D01*
X297500500Y-204125002D01*
X297490746Y-204124039D01*
X297481366Y-204121195D01*
X297472723Y-204116574D01*
X297465146Y-204110356D01*
X297458928Y-204102780D01*
X297454305Y-204094136D01*
X297451460Y-204084756D01*
X297450500Y-204075002D01*
X297450500Y-203925002D01*
X297451460Y-203915246D01*
X297454305Y-203905866D01*
X297458928Y-203897222D01*
X297465146Y-203889646D01*
X297472723Y-203883428D01*
X297481366Y-203878807D01*
X297490746Y-203875963D01*
X297500500Y-203875003D01*
X297975500Y-203875003D01*
X297985254Y-203875963D01*
G36*
X298209757Y-205600960D02*
G01*
X298219137Y-205603805D01*
X298227781Y-205608428D01*
X298235358Y-205614646D01*
X298241576Y-205622223D01*
X298246196Y-205630866D01*
X298249041Y-205640247D01*
X298250001Y-205650000D01*
X298250001Y-206149999D01*
X298249041Y-206159753D01*
X298246196Y-206169133D01*
X298241576Y-206177777D01*
X298235358Y-206185354D01*
X298227781Y-206191571D01*
X298219137Y-206196194D01*
X298209757Y-206199039D01*
X298200001Y-206199999D01*
X298050001Y-206199999D01*
X298040248Y-206199039D01*
X298030867Y-206196194D01*
X298022224Y-206191571D01*
X298014647Y-206185354D01*
X298008429Y-206177777D01*
X298003809Y-206169133D01*
X298000964Y-206159753D01*
X298000001Y-206149999D01*
X298000001Y-205650000D01*
X298000964Y-205640247D01*
X298003809Y-205630866D01*
X298008429Y-205622223D01*
X298014647Y-205614646D01*
X298022224Y-205608428D01*
X298030867Y-205603805D01*
X298040248Y-205600960D01*
X298050001Y-205600000D01*
X298200001Y-205600000D01*
X298209757Y-205600960D01*
G37*
X298209757Y-205600960D02*
X298219137Y-205603805D01*
X298227781Y-205608428D01*
X298235358Y-205614646D01*
X298241576Y-205622223D01*
X298246196Y-205630866D01*
X298249041Y-205640247D01*
X298250001Y-205650000D01*
X298250001Y-206149999D01*
X298249041Y-206159753D01*
X298246196Y-206169133D01*
X298241576Y-206177777D01*
X298235358Y-206185354D01*
X298227781Y-206191571D01*
X298219137Y-206196194D01*
X298209757Y-206199039D01*
X298200001Y-206199999D01*
X298050001Y-206199999D01*
X298040248Y-206199039D01*
X298030867Y-206196194D01*
X298022224Y-206191571D01*
X298014647Y-206185354D01*
X298008429Y-206177777D01*
X298003809Y-206169133D01*
X298000964Y-206159753D01*
X298000001Y-206149999D01*
X298000001Y-205650000D01*
X298000964Y-205640247D01*
X298003809Y-205630866D01*
X298008429Y-205622223D01*
X298014647Y-205614646D01*
X298022224Y-205608428D01*
X298030867Y-205603805D01*
X298040248Y-205600960D01*
X298050001Y-205600000D01*
X298200001Y-205600000D01*
X298209757Y-205600960D01*
G36*
X297985254Y-204875961D02*
G01*
X297994634Y-204878805D01*
X298003278Y-204883426D01*
X298010855Y-204889644D01*
X298017073Y-204897220D01*
X298021695Y-204905864D01*
X298024540Y-204915244D01*
X298025500Y-204924998D01*
X298025500Y-205074998D01*
X298024540Y-205084754D01*
X298021695Y-205094134D01*
X298017073Y-205102778D01*
X298010855Y-205110354D01*
X298003278Y-205116572D01*
X297994634Y-205121193D01*
X297985254Y-205124037D01*
X297975500Y-205124997D01*
X297500500Y-205124997D01*
X297490746Y-205124037D01*
X297481366Y-205121193D01*
X297472723Y-205116572D01*
X297465146Y-205110354D01*
X297458928Y-205102778D01*
X297454305Y-205094134D01*
X297451460Y-205084754D01*
X297450500Y-205074998D01*
X297450500Y-204924998D01*
X297451460Y-204915244D01*
X297454305Y-204905864D01*
X297458928Y-204897220D01*
X297465146Y-204889644D01*
X297472723Y-204883426D01*
X297481366Y-204878805D01*
X297490746Y-204875961D01*
X297500500Y-204874998D01*
X297975500Y-204874998D01*
X297985254Y-204875961D01*
G37*
X297985254Y-204875961D02*
X297994634Y-204878805D01*
X298003278Y-204883426D01*
X298010855Y-204889644D01*
X298017073Y-204897220D01*
X298021695Y-204905864D01*
X298024540Y-204915244D01*
X298025500Y-204924998D01*
X298025500Y-205074998D01*
X298024540Y-205084754D01*
X298021695Y-205094134D01*
X298017073Y-205102778D01*
X298010855Y-205110354D01*
X298003278Y-205116572D01*
X297994634Y-205121193D01*
X297985254Y-205124037D01*
X297975500Y-205124997D01*
X297500500Y-205124997D01*
X297490746Y-205124037D01*
X297481366Y-205121193D01*
X297472723Y-205116572D01*
X297465146Y-205110354D01*
X297458928Y-205102778D01*
X297454305Y-205094134D01*
X297451460Y-205084754D01*
X297450500Y-205074998D01*
X297450500Y-204924998D01*
X297451460Y-204915244D01*
X297454305Y-204905864D01*
X297458928Y-204897220D01*
X297465146Y-204889644D01*
X297472723Y-204883426D01*
X297481366Y-204878805D01*
X297490746Y-204875961D01*
X297500500Y-204874998D01*
X297975500Y-204874998D01*
X297985254Y-204875961D01*
G36*
X298760254Y-204875961D02*
G01*
X298769634Y-204878805D01*
X298778278Y-204883426D01*
X298785854Y-204889644D01*
X298792072Y-204897220D01*
X298796695Y-204905864D01*
X298799540Y-204915244D01*
X298800500Y-204924998D01*
X298800500Y-205074998D01*
X298799540Y-205084754D01*
X298796695Y-205094134D01*
X298792072Y-205102778D01*
X298785854Y-205110354D01*
X298778278Y-205116572D01*
X298769634Y-205121193D01*
X298760254Y-205124037D01*
X298750500Y-205124997D01*
X298275500Y-205124997D01*
X298265746Y-205124037D01*
X298256366Y-205121193D01*
X298247722Y-205116572D01*
X298240146Y-205110354D01*
X298233928Y-205102778D01*
X298229305Y-205094134D01*
X298226460Y-205084754D01*
X298225500Y-205074998D01*
X298225500Y-204924998D01*
X298226460Y-204915244D01*
X298229305Y-204905864D01*
X298233928Y-204897220D01*
X298240146Y-204889644D01*
X298247722Y-204883426D01*
X298256366Y-204878805D01*
X298265746Y-204875961D01*
X298275500Y-204874998D01*
X298750500Y-204874998D01*
X298760254Y-204875961D01*
G37*
X298760254Y-204875961D02*
X298769634Y-204878805D01*
X298778278Y-204883426D01*
X298785854Y-204889644D01*
X298792072Y-204897220D01*
X298796695Y-204905864D01*
X298799540Y-204915244D01*
X298800500Y-204924998D01*
X298800500Y-205074998D01*
X298799540Y-205084754D01*
X298796695Y-205094134D01*
X298792072Y-205102778D01*
X298785854Y-205110354D01*
X298778278Y-205116572D01*
X298769634Y-205121193D01*
X298760254Y-205124037D01*
X298750500Y-205124997D01*
X298275500Y-205124997D01*
X298265746Y-205124037D01*
X298256366Y-205121193D01*
X298247722Y-205116572D01*
X298240146Y-205110354D01*
X298233928Y-205102778D01*
X298229305Y-205094134D01*
X298226460Y-205084754D01*
X298225500Y-205074998D01*
X298225500Y-204924998D01*
X298226460Y-204915244D01*
X298229305Y-204905864D01*
X298233928Y-204897220D01*
X298240146Y-204889644D01*
X298247722Y-204883426D01*
X298256366Y-204878805D01*
X298265746Y-204875961D01*
X298275500Y-204874998D01*
X298750500Y-204874998D01*
X298760254Y-204875961D01*
G36*
X297709753Y-202800961D02*
G01*
X297719133Y-202803806D01*
X297727777Y-202808429D01*
X297735354Y-202814646D01*
X297741571Y-202822223D01*
X297746192Y-202830867D01*
X297749037Y-202840247D01*
X297749999Y-202850001D01*
X297749999Y-203350000D01*
X297749037Y-203359753D01*
X297746192Y-203369134D01*
X297741571Y-203377777D01*
X297735354Y-203385354D01*
X297727777Y-203391572D01*
X297719133Y-203396195D01*
X297709753Y-203399040D01*
X297699999Y-203400000D01*
X297550000Y-203400000D01*
X297540243Y-203399040D01*
X297530863Y-203396195D01*
X297522220Y-203391572D01*
X297514643Y-203385354D01*
X297508425Y-203377777D01*
X297503805Y-203369134D01*
X297500960Y-203359753D01*
X297500000Y-203350000D01*
X297500000Y-202850001D01*
X297500960Y-202840247D01*
X297503805Y-202830867D01*
X297508425Y-202822223D01*
X297514643Y-202814646D01*
X297522220Y-202808429D01*
X297530863Y-202803806D01*
X297540243Y-202800961D01*
X297550000Y-202800001D01*
X297699999Y-202800001D01*
X297709753Y-202800961D01*
G37*
X297709753Y-202800961D02*
X297719133Y-202803806D01*
X297727777Y-202808429D01*
X297735354Y-202814646D01*
X297741571Y-202822223D01*
X297746192Y-202830867D01*
X297749037Y-202840247D01*
X297749999Y-202850001D01*
X297749999Y-203350000D01*
X297749037Y-203359753D01*
X297746192Y-203369134D01*
X297741571Y-203377777D01*
X297735354Y-203385354D01*
X297727777Y-203391572D01*
X297719133Y-203396195D01*
X297709753Y-203399040D01*
X297699999Y-203400000D01*
X297550000Y-203400000D01*
X297540243Y-203399040D01*
X297530863Y-203396195D01*
X297522220Y-203391572D01*
X297514643Y-203385354D01*
X297508425Y-203377777D01*
X297503805Y-203369134D01*
X297500960Y-203359753D01*
X297500000Y-203350000D01*
X297500000Y-202850001D01*
X297500960Y-202840247D01*
X297503805Y-202830867D01*
X297508425Y-202822223D01*
X297514643Y-202814646D01*
X297522220Y-202808429D01*
X297530863Y-202803806D01*
X297540243Y-202800961D01*
X297550000Y-202800001D01*
X297699999Y-202800001D01*
X297709753Y-202800961D01*
G36*
X298729756Y-204375962D02*
G01*
X298739136Y-204378806D01*
X298747780Y-204383427D01*
X298755357Y-204389645D01*
X298761575Y-204397221D01*
X298766195Y-204405865D01*
X298769040Y-204415245D01*
X298770002Y-204425001D01*
X298770002Y-204574999D01*
X298769040Y-204584755D01*
X298766195Y-204594135D01*
X298761575Y-204602779D01*
X298755357Y-204610355D01*
X298747780Y-204616573D01*
X298739136Y-204621194D01*
X298729756Y-204624038D01*
X298720002Y-204624998D01*
X298100001Y-204624998D01*
X298090245Y-204624038D01*
X298080865Y-204621194D01*
X298072221Y-204616573D01*
X298064644Y-204610355D01*
X298058426Y-204602779D01*
X298053806Y-204594135D01*
X298050961Y-204584755D01*
X298050001Y-204574999D01*
X298050001Y-204425001D01*
X298050961Y-204415245D01*
X298053806Y-204405865D01*
X298058426Y-204397221D01*
X298064644Y-204389645D01*
X298072221Y-204383427D01*
X298080865Y-204378806D01*
X298090245Y-204375962D01*
X298100001Y-204375002D01*
X298720002Y-204375002D01*
X298729756Y-204375962D01*
G37*
X298729756Y-204375962D02*
X298739136Y-204378806D01*
X298747780Y-204383427D01*
X298755357Y-204389645D01*
X298761575Y-204397221D01*
X298766195Y-204405865D01*
X298769040Y-204415245D01*
X298770002Y-204425001D01*
X298770002Y-204574999D01*
X298769040Y-204584755D01*
X298766195Y-204594135D01*
X298761575Y-204602779D01*
X298755357Y-204610355D01*
X298747780Y-204616573D01*
X298739136Y-204621194D01*
X298729756Y-204624038D01*
X298720002Y-204624998D01*
X298100001Y-204624998D01*
X298090245Y-204624038D01*
X298080865Y-204621194D01*
X298072221Y-204616573D01*
X298064644Y-204610355D01*
X298058426Y-204602779D01*
X298053806Y-204594135D01*
X298050961Y-204584755D01*
X298050001Y-204574999D01*
X298050001Y-204425001D01*
X298050961Y-204415245D01*
X298053806Y-204405865D01*
X298058426Y-204397221D01*
X298064644Y-204389645D01*
X298072221Y-204383427D01*
X298080865Y-204378806D01*
X298090245Y-204375962D01*
X298100001Y-204375002D01*
X298720002Y-204375002D01*
X298729756Y-204375962D01*
G36*
X297809755Y-204375962D02*
G01*
X297819135Y-204378806D01*
X297827779Y-204383427D01*
X297835356Y-204389645D01*
X297841574Y-204397221D01*
X297846194Y-204405865D01*
X297849039Y-204415245D01*
X297850002Y-204425001D01*
X297850002Y-204574999D01*
X297849039Y-204584755D01*
X297846194Y-204594135D01*
X297841574Y-204602779D01*
X297835356Y-204610355D01*
X297827779Y-204616573D01*
X297819135Y-204621194D01*
X297809755Y-204624038D01*
X297800002Y-204624998D01*
X297180000Y-204624998D01*
X297170244Y-204624038D01*
X297160864Y-204621194D01*
X297152220Y-204616573D01*
X297144644Y-204610355D01*
X297138426Y-204602779D01*
X297133805Y-204594135D01*
X297130961Y-204584755D01*
X297130000Y-204574999D01*
X297130000Y-204425001D01*
X297130961Y-204415245D01*
X297133805Y-204405865D01*
X297138426Y-204397221D01*
X297144644Y-204389645D01*
X297152220Y-204383427D01*
X297160864Y-204378806D01*
X297170244Y-204375962D01*
X297180000Y-204375002D01*
X297800002Y-204375002D01*
X297809755Y-204375962D01*
G37*
X297809755Y-204375962D02*
X297819135Y-204378806D01*
X297827779Y-204383427D01*
X297835356Y-204389645D01*
X297841574Y-204397221D01*
X297846194Y-204405865D01*
X297849039Y-204415245D01*
X297850002Y-204425001D01*
X297850002Y-204574999D01*
X297849039Y-204584755D01*
X297846194Y-204594135D01*
X297841574Y-204602779D01*
X297835356Y-204610355D01*
X297827779Y-204616573D01*
X297819135Y-204621194D01*
X297809755Y-204624038D01*
X297800002Y-204624998D01*
X297180000Y-204624998D01*
X297170244Y-204624038D01*
X297160864Y-204621194D01*
X297152220Y-204616573D01*
X297144644Y-204610355D01*
X297138426Y-204602779D01*
X297133805Y-204594135D01*
X297130961Y-204584755D01*
X297130000Y-204574999D01*
X297130000Y-204425001D01*
X297130961Y-204415245D01*
X297133805Y-204405865D01*
X297138426Y-204397221D01*
X297144644Y-204389645D01*
X297152220Y-204383427D01*
X297160864Y-204378806D01*
X297170244Y-204375962D01*
X297180000Y-204375002D01*
X297800002Y-204375002D01*
X297809755Y-204375962D01*
G36*
X298209754Y-205600960D02*
G01*
X298219135Y-205603805D01*
X298227778Y-205608426D01*
X298235355Y-205614643D01*
X298241573Y-205622220D01*
X298246196Y-205630864D01*
X298249041Y-205640244D01*
X298250001Y-205650000D01*
X298250001Y-205800000D01*
X298249041Y-205809754D01*
X298246196Y-205819134D01*
X298241573Y-205827777D01*
X298235355Y-205835354D01*
X298227778Y-205841572D01*
X298219135Y-205846192D01*
X298209754Y-205849037D01*
X298200001Y-205850000D01*
X297550000Y-205850000D01*
X297540246Y-205849037D01*
X297530866Y-205846192D01*
X297522222Y-205841572D01*
X297514645Y-205835354D01*
X297508427Y-205827777D01*
X297503805Y-205819134D01*
X297500960Y-205809754D01*
X297500000Y-205800000D01*
X297500000Y-205650000D01*
X297500960Y-205640244D01*
X297503805Y-205630864D01*
X297508427Y-205622220D01*
X297514645Y-205614643D01*
X297522222Y-205608426D01*
X297530866Y-205603805D01*
X297540246Y-205600960D01*
X297550000Y-205600000D01*
X298200001Y-205600000D01*
X298209754Y-205600960D01*
G37*
X298209754Y-205600960D02*
X298219135Y-205603805D01*
X298227778Y-205608426D01*
X298235355Y-205614643D01*
X298241573Y-205622220D01*
X298246196Y-205630864D01*
X298249041Y-205640244D01*
X298250001Y-205650000D01*
X298250001Y-205800000D01*
X298249041Y-205809754D01*
X298246196Y-205819134D01*
X298241573Y-205827777D01*
X298235355Y-205835354D01*
X298227778Y-205841572D01*
X298219135Y-205846192D01*
X298209754Y-205849037D01*
X298200001Y-205850000D01*
X297550000Y-205850000D01*
X297540246Y-205849037D01*
X297530866Y-205846192D01*
X297522222Y-205841572D01*
X297514645Y-205835354D01*
X297508427Y-205827777D01*
X297503805Y-205819134D01*
X297500960Y-205809754D01*
X297500000Y-205800000D01*
X297500000Y-205650000D01*
X297500960Y-205640244D01*
X297503805Y-205630864D01*
X297508427Y-205622220D01*
X297514645Y-205614643D01*
X297522222Y-205608426D01*
X297530866Y-205603805D01*
X297540246Y-205600960D01*
X297550000Y-205600000D01*
X298200001Y-205600000D01*
X298209754Y-205600960D01*
G36*
X298209754Y-203150963D02*
G01*
X298219135Y-203153808D01*
X298227778Y-203158428D01*
X298235355Y-203164646D01*
X298241573Y-203172223D01*
X298246196Y-203180866D01*
X298249041Y-203190246D01*
X298250001Y-203200000D01*
X298250001Y-203350000D01*
X298249041Y-203359756D01*
X298246196Y-203369136D01*
X298241573Y-203377780D01*
X298235355Y-203385357D01*
X298227778Y-203391574D01*
X298219135Y-203396195D01*
X298209754Y-203399040D01*
X298200001Y-203400000D01*
X297550000Y-203400000D01*
X297540246Y-203399040D01*
X297530866Y-203396195D01*
X297522222Y-203391574D01*
X297514645Y-203385357D01*
X297508427Y-203377780D01*
X297503805Y-203369136D01*
X297500960Y-203359756D01*
X297500000Y-203350000D01*
X297500000Y-203200000D01*
X297500960Y-203190246D01*
X297503805Y-203180866D01*
X297508427Y-203172223D01*
X297514645Y-203164646D01*
X297522222Y-203158428D01*
X297530866Y-203153808D01*
X297540246Y-203150963D01*
X297550000Y-203150000D01*
X298200001Y-203150000D01*
X298209754Y-203150963D01*
G37*
X298209754Y-203150963D02*
X298219135Y-203153808D01*
X298227778Y-203158428D01*
X298235355Y-203164646D01*
X298241573Y-203172223D01*
X298246196Y-203180866D01*
X298249041Y-203190246D01*
X298250001Y-203200000D01*
X298250001Y-203350000D01*
X298249041Y-203359756D01*
X298246196Y-203369136D01*
X298241573Y-203377780D01*
X298235355Y-203385357D01*
X298227778Y-203391574D01*
X298219135Y-203396195D01*
X298209754Y-203399040D01*
X298200001Y-203400000D01*
X297550000Y-203400000D01*
X297540246Y-203399040D01*
X297530866Y-203396195D01*
X297522222Y-203391574D01*
X297514645Y-203385357D01*
X297508427Y-203377780D01*
X297503805Y-203369136D01*
X297500960Y-203359756D01*
X297500000Y-203350000D01*
X297500000Y-203200000D01*
X297500960Y-203190246D01*
X297503805Y-203180866D01*
X297508427Y-203172223D01*
X297514645Y-203164646D01*
X297522222Y-203158428D01*
X297530866Y-203153808D01*
X297540246Y-203150963D01*
X297550000Y-203150000D01*
X298200001Y-203150000D01*
X298209754Y-203150963D01*
G36*
X298760254Y-203875963D02*
G01*
X298769634Y-203878807D01*
X298778278Y-203883428D01*
X298785854Y-203889646D01*
X298792072Y-203897222D01*
X298796695Y-203905866D01*
X298799540Y-203915246D01*
X298800500Y-203925002D01*
X298800500Y-204075002D01*
X298799540Y-204084756D01*
X298796695Y-204094136D01*
X298792072Y-204102780D01*
X298785854Y-204110356D01*
X298778278Y-204116574D01*
X298769634Y-204121195D01*
X298760254Y-204124039D01*
X298750500Y-204125002D01*
X298275500Y-204125002D01*
X298265746Y-204124039D01*
X298256366Y-204121195D01*
X298247722Y-204116574D01*
X298240146Y-204110356D01*
X298233928Y-204102780D01*
X298229305Y-204094136D01*
X298226460Y-204084756D01*
X298225500Y-204075002D01*
X298225500Y-203925002D01*
X298226460Y-203915246D01*
X298229305Y-203905866D01*
X298233928Y-203897222D01*
X298240146Y-203889646D01*
X298247722Y-203883428D01*
X298256366Y-203878807D01*
X298265746Y-203875963D01*
X298275500Y-203875003D01*
X298750500Y-203875003D01*
X298760254Y-203875963D01*
G37*
X298760254Y-203875963D02*
X298769634Y-203878807D01*
X298778278Y-203883428D01*
X298785854Y-203889646D01*
X298792072Y-203897222D01*
X298796695Y-203905866D01*
X298799540Y-203915246D01*
X298800500Y-203925002D01*
X298800500Y-204075002D01*
X298799540Y-204084756D01*
X298796695Y-204094136D01*
X298792072Y-204102780D01*
X298785854Y-204110356D01*
X298778278Y-204116574D01*
X298769634Y-204121195D01*
X298760254Y-204124039D01*
X298750500Y-204125002D01*
X298275500Y-204125002D01*
X298265746Y-204124039D01*
X298256366Y-204121195D01*
X298247722Y-204116574D01*
X298240146Y-204110356D01*
X298233928Y-204102780D01*
X298229305Y-204094136D01*
X298226460Y-204084756D01*
X298225500Y-204075002D01*
X298225500Y-203925002D01*
X298226460Y-203915246D01*
X298229305Y-203905866D01*
X298233928Y-203897222D01*
X298240146Y-203889646D01*
X298247722Y-203883428D01*
X298256366Y-203878807D01*
X298265746Y-203875963D01*
X298275500Y-203875003D01*
X298750500Y-203875003D01*
X298760254Y-203875963D01*
G36*
X297709753Y-205600960D02*
G01*
X297719133Y-205603805D01*
X297727777Y-205608428D01*
X297735354Y-205614646D01*
X297741571Y-205622223D01*
X297746192Y-205630866D01*
X297749037Y-205640247D01*
X297749999Y-205650000D01*
X297749999Y-206149999D01*
X297749037Y-206159753D01*
X297746192Y-206169133D01*
X297741571Y-206177777D01*
X297735354Y-206185354D01*
X297727777Y-206191571D01*
X297719133Y-206196194D01*
X297709753Y-206199039D01*
X297699999Y-206199999D01*
X297550000Y-206199999D01*
X297540243Y-206199039D01*
X297530863Y-206196194D01*
X297522220Y-206191571D01*
X297514643Y-206185354D01*
X297508425Y-206177777D01*
X297503805Y-206169133D01*
X297500960Y-206159753D01*
X297500000Y-206149999D01*
X297500000Y-205650000D01*
X297500960Y-205640247D01*
X297503805Y-205630866D01*
X297508425Y-205622223D01*
X297514643Y-205614646D01*
X297522220Y-205608428D01*
X297530863Y-205603805D01*
X297540243Y-205600960D01*
X297550000Y-205600000D01*
X297699999Y-205600000D01*
X297709753Y-205600960D01*
G37*
X297709753Y-205600960D02*
X297719133Y-205603805D01*
X297727777Y-205608428D01*
X297735354Y-205614646D01*
X297741571Y-205622223D01*
X297746192Y-205630866D01*
X297749037Y-205640247D01*
X297749999Y-205650000D01*
X297749999Y-206149999D01*
X297749037Y-206159753D01*
X297746192Y-206169133D01*
X297741571Y-206177777D01*
X297735354Y-206185354D01*
X297727777Y-206191571D01*
X297719133Y-206196194D01*
X297709753Y-206199039D01*
X297699999Y-206199999D01*
X297550000Y-206199999D01*
X297540243Y-206199039D01*
X297530863Y-206196194D01*
X297522220Y-206191571D01*
X297514643Y-206185354D01*
X297508425Y-206177777D01*
X297503805Y-206169133D01*
X297500960Y-206159753D01*
X297500000Y-206149999D01*
X297500000Y-205650000D01*
X297500960Y-205640247D01*
X297503805Y-205630866D01*
X297508425Y-205622223D01*
X297514643Y-205614646D01*
X297522220Y-205608428D01*
X297530863Y-205603805D01*
X297540243Y-205600960D01*
X297550000Y-205600000D01*
X297699999Y-205600000D01*
X297709753Y-205600960D01*
%TD*%
D11*
%TO.C,C208*%
X294000000Y-204067500D03*
X294000000Y-202932500D03*
%TD*%
D12*
%TO.C,C36*%
X215362500Y-173750000D03*
X213637500Y-173750000D03*
%TD*%
D13*
%TO.C,U4*%
X94175000Y-106190000D03*
X94175000Y-107460000D03*
X94175000Y-108730000D03*
X94175000Y-110000000D03*
X94175000Y-111270000D03*
X94175000Y-112540000D03*
X94175000Y-113810000D03*
X89225000Y-113810000D03*
X89225000Y-112540000D03*
X89225000Y-111270000D03*
X89225000Y-110000000D03*
X89225000Y-108730000D03*
X89225000Y-107460000D03*
X89225000Y-106190000D03*
%TD*%
D14*
%TO.C,D202*%
X298000000Y-178150000D03*
X298000000Y-169350000D03*
%TD*%
D13*
%TO.C,U13*%
X184475000Y-212305000D03*
X184475000Y-213575000D03*
X184475000Y-214845000D03*
X184475000Y-216115000D03*
X184475000Y-217385000D03*
X184475000Y-218655000D03*
X184475000Y-219925000D03*
X184475000Y-221195000D03*
X179525000Y-221195000D03*
X179525000Y-219925000D03*
X179525000Y-218655000D03*
X179525000Y-217385000D03*
X179525000Y-216115000D03*
X179525000Y-214845000D03*
X179525000Y-213575000D03*
X179525000Y-212305000D03*
%TD*%
D15*
%TO.C,U201*%
X296200000Y-205250001D03*
X296200000Y-204750002D03*
X296200000Y-204250000D03*
X296200000Y-203750002D03*
D16*
X296625000Y-203100000D03*
X297124999Y-203100000D03*
D17*
X297875000Y-203100000D03*
X297875000Y-203100000D03*
X297875000Y-205900000D03*
X297875000Y-205900000D03*
D16*
X297124999Y-205900000D03*
X296625000Y-205900000D03*
%TD*%
D18*
%TO.C,J16*%
X303100000Y-171695000D03*
X303100000Y-172345000D03*
X303100000Y-172995000D03*
X303100000Y-173645000D03*
X303100000Y-174295000D03*
%TD*%
D19*
%TO.C,R202*%
X295812500Y-208500000D03*
X293987500Y-208500000D03*
%TD*%
D20*
%TO.C,C202*%
X300137500Y-209500000D03*
X298062500Y-209500000D03*
%TD*%
D21*
%TO.C,C44*%
X226937500Y-186600000D03*
X228662500Y-186600000D03*
%TD*%
D22*
%TO.C,R203*%
X295600000Y-199587500D03*
X295600000Y-201412500D03*
%TD*%
D21*
%TO.C,C43*%
X226937500Y-185000000D03*
X228662500Y-185000000D03*
%TD*%
D23*
%TO.C,U11*%
X246637500Y-200850000D03*
X246637500Y-200200000D03*
X246637500Y-199550000D03*
X246637500Y-198900000D03*
X246637500Y-198250000D03*
X246637500Y-197600000D03*
X246637500Y-196950000D03*
X246637500Y-196300000D03*
X246637500Y-195650000D03*
X246637500Y-195000000D03*
X246637500Y-194350000D03*
X246637500Y-193700000D03*
X246637500Y-193050000D03*
X246637500Y-192400000D03*
X252362500Y-192400000D03*
X252362500Y-193050000D03*
X252362500Y-193700000D03*
X252362500Y-194350000D03*
X252362500Y-195000000D03*
X252362500Y-195650000D03*
X252362500Y-196300000D03*
X252362500Y-196950000D03*
X252362500Y-197600000D03*
X252362500Y-198250000D03*
X252362500Y-198900000D03*
X252362500Y-199550000D03*
X252362500Y-200200000D03*
X252362500Y-200850000D03*
%TD*%
%TO.C,U12*%
X134637500Y-200975000D03*
X134637500Y-200325000D03*
X134637500Y-199675000D03*
X134637500Y-199025000D03*
X134637500Y-198375000D03*
X134637500Y-197725000D03*
X134637500Y-197075000D03*
X134637500Y-196425000D03*
X134637500Y-195775000D03*
X134637500Y-195125000D03*
X134637500Y-194475000D03*
X134637500Y-193825000D03*
X134637500Y-193175000D03*
X134637500Y-192525000D03*
X140362500Y-192525000D03*
X140362500Y-193175000D03*
X140362500Y-193825000D03*
X140362500Y-194475000D03*
X140362500Y-195125000D03*
X140362500Y-195775000D03*
X140362500Y-196425000D03*
X140362500Y-197075000D03*
X140362500Y-197725000D03*
X140362500Y-198375000D03*
X140362500Y-199025000D03*
X140362500Y-199675000D03*
X140362500Y-200325000D03*
X140362500Y-200975000D03*
%TD*%
D24*
%TO.C,C206*%
X298100000Y-197500000D03*
X300175000Y-197500000D03*
%TD*%
D13*
%TO.C,U3*%
X124475000Y-135840000D03*
X124475000Y-137110000D03*
X124475000Y-138380000D03*
X124475000Y-139650000D03*
X124475000Y-140920000D03*
X124475000Y-142190000D03*
X124475000Y-143460000D03*
X119525000Y-143460000D03*
X119525000Y-142190000D03*
X119525000Y-140920000D03*
X119525000Y-139650000D03*
X119525000Y-138380000D03*
X119525000Y-137110000D03*
X119525000Y-135840000D03*
%TD*%
D25*
%TO.C,L201*%
X305350000Y-206350000D03*
X305350000Y-202650000D03*
%TD*%
D13*
%TO.C,U10*%
X274975000Y-212305000D03*
X274975000Y-213575000D03*
X274975000Y-214845000D03*
X274975000Y-216115000D03*
X274975000Y-217385000D03*
X274975000Y-218655000D03*
X274975000Y-219925000D03*
X274975000Y-221195000D03*
X270025000Y-221195000D03*
X270025000Y-219925000D03*
X270025000Y-218655000D03*
X270025000Y-217385000D03*
X270025000Y-216115000D03*
X270025000Y-214845000D03*
X270025000Y-213575000D03*
X270025000Y-212305000D03*
%TD*%
D26*
%TO.C,C50*%
X208310000Y-185137500D03*
X208310000Y-186862500D03*
%TD*%
D12*
%TO.C,C45*%
X208112500Y-177000000D03*
X206387500Y-177000000D03*
%TD*%
D20*
%TO.C,C201*%
X300137500Y-211500000D03*
X298062500Y-211500000D03*
%TD*%
D27*
%TO.C,Y1*%
X206210000Y-182800000D03*
X206210000Y-185700000D03*
X203910000Y-185700000D03*
X203910000Y-182800000D03*
%TD*%
D13*
%TO.C,U8*%
X194475000Y-152040000D03*
X194475000Y-153310000D03*
X194475000Y-154580000D03*
X194475000Y-155850000D03*
X194475000Y-157120000D03*
X194475000Y-158390000D03*
X194475000Y-159660000D03*
X189525000Y-159660000D03*
X189525000Y-158390000D03*
X189525000Y-157120000D03*
X189525000Y-155850000D03*
X189525000Y-154580000D03*
X189525000Y-153310000D03*
X189525000Y-152040000D03*
%TD*%
D28*
%TO.C,U7*%
X160250000Y-146055000D03*
X160250000Y-147325000D03*
X160250000Y-148595000D03*
X160250000Y-149865000D03*
X160250000Y-151135000D03*
X160250000Y-152405000D03*
X160250000Y-153675000D03*
X160250000Y-154945000D03*
X155250000Y-154945000D03*
X155250000Y-153675000D03*
X155250000Y-152405000D03*
X155250000Y-151135000D03*
X155250000Y-149865000D03*
X155250000Y-148595000D03*
X155250000Y-147325000D03*
X155250000Y-146055000D03*
%TD*%
D29*
%TO.C,Q201*%
X277812500Y-83450000D03*
X277812500Y-81550000D03*
X279687500Y-82500000D03*
%TD*%
D30*
%TO.C,C48*%
X208310000Y-183562500D03*
X208310000Y-181837500D03*
%TD*%
%TO.C,C32*%
X221810000Y-173262500D03*
X221810000Y-171537500D03*
%TD*%
%TO.C,C33*%
X223400000Y-173262500D03*
X223400000Y-171537500D03*
%TD*%
D31*
%TO.C,FB1*%
X281212500Y-165000000D03*
X282787500Y-165000000D03*
%TD*%
D32*
%TO.C,D201*%
X274000000Y-80850000D03*
X274000000Y-84150000D03*
%TD*%
D26*
%TO.C,C46*%
X211200000Y-187937500D03*
X211200000Y-189662500D03*
%TD*%
D13*
%TO.C,U1*%
X233075000Y-97965000D03*
X233075000Y-99235000D03*
X233075000Y-100505000D03*
X233075000Y-101775000D03*
X233075000Y-103045000D03*
X233075000Y-104315000D03*
X233075000Y-105585000D03*
X228125000Y-105585000D03*
X228125000Y-104315000D03*
X228125000Y-103045000D03*
X228125000Y-101775000D03*
X228125000Y-100505000D03*
X228125000Y-99235000D03*
X228125000Y-97965000D03*
%TD*%
D24*
%TO.C,C205*%
X298100000Y-199500000D03*
X300175000Y-199500000D03*
%TD*%
D22*
%TO.C,R204*%
X292600000Y-199587500D03*
X292600000Y-201412500D03*
%TD*%
D24*
%TO.C,C207*%
X298100000Y-195500000D03*
X300175000Y-195500000D03*
%TD*%
D30*
%TO.C,C203*%
X300350000Y-207362500D03*
X300350000Y-205637500D03*
%TD*%
D13*
%TO.C,U6*%
X160225000Y-127190000D03*
X160225000Y-128460000D03*
X160225000Y-129730000D03*
X160225000Y-131000000D03*
X160225000Y-132270000D03*
X160225000Y-133540000D03*
X160225000Y-134810000D03*
X155275000Y-134810000D03*
X155275000Y-133540000D03*
X155275000Y-132270000D03*
X155275000Y-131000000D03*
X155275000Y-129730000D03*
X155275000Y-128460000D03*
X155275000Y-127190000D03*
%TD*%
D33*
%TO.C,U9*%
X212885000Y-185500000D03*
X212885000Y-185000000D03*
X212885000Y-184500000D03*
X212885000Y-184000000D03*
X212885000Y-183500000D03*
X212885000Y-183000000D03*
X212885000Y-182500000D03*
X212885000Y-182000000D03*
X212885000Y-181500000D03*
X212885000Y-181000000D03*
X212885000Y-180500000D03*
X212885000Y-180000000D03*
X212885000Y-179500000D03*
X212885000Y-179000000D03*
X212885000Y-178500000D03*
X212885000Y-178000000D03*
D34*
X214810000Y-176075000D03*
X215310000Y-176075000D03*
X215810000Y-176075000D03*
X216310000Y-176075000D03*
X216810000Y-176075000D03*
X217310000Y-176075000D03*
X217810000Y-176075000D03*
X218310000Y-176075000D03*
X218810000Y-176075000D03*
X219310000Y-176075000D03*
X219810000Y-176075000D03*
X220310000Y-176075000D03*
X220810000Y-176075000D03*
X221310000Y-176075000D03*
X221810000Y-176075000D03*
X222310000Y-176075000D03*
D33*
X224235000Y-178000000D03*
X224235000Y-178500000D03*
X224235000Y-179000000D03*
X224235000Y-179500000D03*
X224235000Y-180000000D03*
X224235000Y-180500000D03*
X224235000Y-181000000D03*
X224235000Y-181500000D03*
X224235000Y-182000000D03*
X224235000Y-182500000D03*
X224235000Y-183000000D03*
X224235000Y-183500000D03*
X224235000Y-184000000D03*
X224235000Y-184500000D03*
X224235000Y-185000000D03*
X224235000Y-185500000D03*
D34*
X222310000Y-187425000D03*
X221810000Y-187425000D03*
X221310000Y-187425000D03*
X220810000Y-187425000D03*
X220310000Y-187425000D03*
X219810000Y-187425000D03*
X219310000Y-187425000D03*
X218810000Y-187425000D03*
X218310000Y-187425000D03*
X217810000Y-187425000D03*
X217310000Y-187425000D03*
X216810000Y-187425000D03*
X216310000Y-187425000D03*
X215810000Y-187425000D03*
X215310000Y-187425000D03*
X214810000Y-187425000D03*
%TD*%
D35*
%TO.C,U5*%
X292950000Y-182100000D03*
X295250000Y-182100000D03*
D36*
X295250000Y-188400000D03*
D35*
X297550000Y-182100000D03*
%TD*%
D26*
%TO.C,C204*%
X300350000Y-201637500D03*
X300350000Y-203362500D03*
%TD*%
%TO.C,C47*%
X213800000Y-189737500D03*
X213800000Y-191462500D03*
%TD*%
D37*
%TO.C,R205*%
X294100000Y-201412500D03*
X294100000Y-199587500D03*
%TD*%
M02*
