%TF.GenerationSoftware,KiCad,Pcbnew,(6.0.10-0)*%
%TF.CreationDate,2023-01-28T16:50:53+01:00*%
%TF.ProjectId,LivSynth_Hardware,4c697653-796e-4746-985f-486172647761,0v2*%
%TF.SameCoordinates,Original*%
%TF.FileFunction,Soldermask,Bot*%
%TF.FilePolarity,Negative*%
%FSLAX46Y46*%
G04 Gerber Fmt 4.6, Leading zero omitted, Abs format (unit mm)*
G04 Created by KiCad (PCBNEW (6.0.10-0)) date 2023-01-28 16:50:53*
%MOMM*%
%LPD*%
G01*
G04 APERTURE LIST*
G04 Aperture macros list*
%AMRoundRect*
0 Rectangle with rounded corners*
0 $1 Rounding radius*
0 $2 $3 $4 $5 $6 $7 $8 $9 X,Y pos of 4 corners*
0 Add a 4 corners polygon primitive as box body*
4,1,4,$2,$3,$4,$5,$6,$7,$8,$9,$2,$3,0*
0 Add four circle primitives for the rounded corners*
1,1,$1+$1,$2,$3*
1,1,$1+$1,$4,$5*
1,1,$1+$1,$6,$7*
1,1,$1+$1,$8,$9*
0 Add four rect primitives between the rounded corners*
20,1,$1+$1,$2,$3,$4,$5,0*
20,1,$1+$1,$4,$5,$6,$7,0*
20,1,$1+$1,$6,$7,$8,$9,0*
20,1,$1+$1,$8,$9,$2,$3,0*%
G04 Aperture macros list end*
%ADD10C,0.100000*%
%ADD11RoundRect,0.155000X0.155000X-0.212500X0.155000X0.212500X-0.155000X0.212500X-0.155000X-0.212500X0*%
%ADD12C,1.800000*%
%ADD13C,1.400000*%
%ADD14O,5.000000X3.200000*%
%ADD15C,1.440000*%
%ADD16C,3.600000*%
%ADD17C,2.000000*%
%ADD18O,2.500000X1.800000*%
%ADD19R,1.000000X1.000000*%
%ADD20O,1.000000X1.000000*%
%ADD21RoundRect,0.750000X-0.750000X-1.000000X0.750000X-1.000000X0.750000X1.000000X-0.750000X1.000000X0*%
%ADD22R,1.700000X1.700000*%
%ADD23O,1.700000X1.700000*%
%ADD24C,1.300000*%
%ADD25R,1.830000X1.930000*%
%ADD26C,2.130000*%
%ADD27C,3.200000*%
%ADD28RoundRect,0.237500X0.300000X0.237500X-0.300000X0.237500X-0.300000X-0.237500X0.300000X-0.237500X0*%
%ADD29C,1.600000*%
%ADD30O,1.600000X1.600000*%
%ADD31R,1.800000X1.800000*%
%ADD32RoundRect,0.150000X0.825000X0.150000X-0.825000X0.150000X-0.825000X-0.150000X0.825000X-0.150000X0*%
%ADD33R,1.050000X1.500000*%
%ADD34O,1.050000X1.500000*%
%ADD35R,3.300000X4.500000*%
%ADD36R,1.500000X1.050000*%
%ADD37O,1.500000X1.050000*%
%ADD38C,2.600000*%
%ADD39R,3.000000X3.000000*%
%ADD40C,3.000000*%
%ADD41R,0.599999X0.240000*%
%ADD42R,0.240000X0.599999*%
%ADD43R,0.850001X0.700001*%
%ADD44R,1.450000X0.349999*%
%ADD45R,1.799999X0.349999*%
%ADD46O,0.800000X0.800000*%
%ADD47R,1.300000X0.450000*%
%ADD48O,1.800000X1.150000*%
%ADD49O,2.000000X1.450000*%
%ADD50RoundRect,0.237500X0.250000X0.237500X-0.250000X0.237500X-0.250000X-0.237500X0.250000X-0.237500X0*%
%ADD51RoundRect,0.250000X0.337500X0.475000X-0.337500X0.475000X-0.337500X-0.475000X0.337500X-0.475000X0*%
%ADD52RoundRect,0.237500X-0.300000X-0.237500X0.300000X-0.237500X0.300000X0.237500X-0.300000X0.237500X0*%
%ADD53R,1.600000X1.600000*%
%ADD54RoundRect,0.237500X-0.237500X0.250000X-0.237500X-0.250000X0.237500X-0.250000X0.237500X0.250000X0*%
%ADD55RoundRect,0.100000X-0.637500X-0.100000X0.637500X-0.100000X0.637500X0.100000X-0.637500X0.100000X0*%
%ADD56C,1.700000*%
%ADD57RoundRect,0.250000X-0.337500X-0.475000X0.337500X-0.475000X0.337500X0.475000X-0.337500X0.475000X0*%
%ADD58R,4.200000X1.400000*%
%ADD59RoundRect,0.237500X-0.237500X0.300000X-0.237500X-0.300000X0.237500X-0.300000X0.237500X0.300000X0*%
%ADD60R,2.600000X2.600000*%
%ADD61R,1.800000X2.100000*%
%ADD62RoundRect,0.150000X0.850000X0.150000X-0.850000X0.150000X-0.850000X-0.150000X0.850000X-0.150000X0*%
%ADD63RoundRect,0.150000X-0.587500X-0.150000X0.587500X-0.150000X0.587500X0.150000X-0.587500X0.150000X0*%
%ADD64RoundRect,0.237500X0.237500X-0.300000X0.237500X0.300000X-0.237500X0.300000X-0.237500X-0.300000X0*%
%ADD65RoundRect,0.218750X-0.218750X-0.256250X0.218750X-0.256250X0.218750X0.256250X-0.218750X0.256250X0*%
%ADD66R,1.200000X0.900000*%
%ADD67RoundRect,0.075000X-0.700000X-0.075000X0.700000X-0.075000X0.700000X0.075000X-0.700000X0.075000X0*%
%ADD68RoundRect,0.075000X-0.075000X-0.700000X0.075000X-0.700000X0.075000X0.700000X-0.075000X0.700000X0*%
%ADD69R,1.070000X1.800000*%
%ADD70O,1.070000X1.800000*%
%ADD71R,1.500000X2.000000*%
%ADD72R,3.800000X2.000000*%
%ADD73RoundRect,0.237500X0.237500X-0.250000X0.237500X0.250000X-0.237500X0.250000X-0.237500X-0.250000X0*%
%ADD74C,0.700000*%
%ADD75C,0.800000*%
%ADD76C,0.460000*%
G04 APERTURE END LIST*
%TO.C,U201*%
G36*
X297709753Y-205600960D02*
G01*
X297719133Y-205603805D01*
X297727777Y-205608428D01*
X297735354Y-205614646D01*
X297741571Y-205622223D01*
X297746192Y-205630866D01*
X297749037Y-205640247D01*
X297749999Y-205650000D01*
X297749999Y-206149999D01*
X297749037Y-206159753D01*
X297746192Y-206169133D01*
X297741571Y-206177777D01*
X297735354Y-206185354D01*
X297727777Y-206191571D01*
X297719133Y-206196194D01*
X297709753Y-206199039D01*
X297699999Y-206199999D01*
X297550000Y-206199999D01*
X297540243Y-206199039D01*
X297530863Y-206196194D01*
X297522220Y-206191571D01*
X297514643Y-206185354D01*
X297508425Y-206177777D01*
X297503805Y-206169133D01*
X297500960Y-206159753D01*
X297500000Y-206149999D01*
X297500000Y-205650000D01*
X297500960Y-205640247D01*
X297503805Y-205630866D01*
X297508425Y-205622223D01*
X297514643Y-205614646D01*
X297522220Y-205608428D01*
X297530863Y-205603805D01*
X297540243Y-205600960D01*
X297550000Y-205600000D01*
X297699999Y-205600000D01*
X297709753Y-205600960D01*
G37*
D10*
X297709753Y-205600960D02*
X297719133Y-205603805D01*
X297727777Y-205608428D01*
X297735354Y-205614646D01*
X297741571Y-205622223D01*
X297746192Y-205630866D01*
X297749037Y-205640247D01*
X297749999Y-205650000D01*
X297749999Y-206149999D01*
X297749037Y-206159753D01*
X297746192Y-206169133D01*
X297741571Y-206177777D01*
X297735354Y-206185354D01*
X297727777Y-206191571D01*
X297719133Y-206196194D01*
X297709753Y-206199039D01*
X297699999Y-206199999D01*
X297550000Y-206199999D01*
X297540243Y-206199039D01*
X297530863Y-206196194D01*
X297522220Y-206191571D01*
X297514643Y-206185354D01*
X297508425Y-206177777D01*
X297503805Y-206169133D01*
X297500960Y-206159753D01*
X297500000Y-206149999D01*
X297500000Y-205650000D01*
X297500960Y-205640247D01*
X297503805Y-205630866D01*
X297508425Y-205622223D01*
X297514643Y-205614646D01*
X297522220Y-205608428D01*
X297530863Y-205603805D01*
X297540243Y-205600960D01*
X297550000Y-205600000D01*
X297699999Y-205600000D01*
X297709753Y-205600960D01*
G36*
X297709753Y-202800961D02*
G01*
X297719133Y-202803806D01*
X297727777Y-202808429D01*
X297735354Y-202814646D01*
X297741571Y-202822223D01*
X297746192Y-202830867D01*
X297749037Y-202840247D01*
X297749999Y-202850001D01*
X297749999Y-203350000D01*
X297749037Y-203359753D01*
X297746192Y-203369134D01*
X297741571Y-203377777D01*
X297735354Y-203385354D01*
X297727777Y-203391572D01*
X297719133Y-203396195D01*
X297709753Y-203399040D01*
X297699999Y-203400000D01*
X297550000Y-203400000D01*
X297540243Y-203399040D01*
X297530863Y-203396195D01*
X297522220Y-203391572D01*
X297514643Y-203385354D01*
X297508425Y-203377777D01*
X297503805Y-203369134D01*
X297500960Y-203359753D01*
X297500000Y-203350000D01*
X297500000Y-202850001D01*
X297500960Y-202840247D01*
X297503805Y-202830867D01*
X297508425Y-202822223D01*
X297514643Y-202814646D01*
X297522220Y-202808429D01*
X297530863Y-202803806D01*
X297540243Y-202800961D01*
X297550000Y-202800001D01*
X297699999Y-202800001D01*
X297709753Y-202800961D01*
G37*
X297709753Y-202800961D02*
X297719133Y-202803806D01*
X297727777Y-202808429D01*
X297735354Y-202814646D01*
X297741571Y-202822223D01*
X297746192Y-202830867D01*
X297749037Y-202840247D01*
X297749999Y-202850001D01*
X297749999Y-203350000D01*
X297749037Y-203359753D01*
X297746192Y-203369134D01*
X297741571Y-203377777D01*
X297735354Y-203385354D01*
X297727777Y-203391572D01*
X297719133Y-203396195D01*
X297709753Y-203399040D01*
X297699999Y-203400000D01*
X297550000Y-203400000D01*
X297540243Y-203399040D01*
X297530863Y-203396195D01*
X297522220Y-203391572D01*
X297514643Y-203385354D01*
X297508425Y-203377777D01*
X297503805Y-203369134D01*
X297500960Y-203359753D01*
X297500000Y-203350000D01*
X297500000Y-202850001D01*
X297500960Y-202840247D01*
X297503805Y-202830867D01*
X297508425Y-202822223D01*
X297514643Y-202814646D01*
X297522220Y-202808429D01*
X297530863Y-202803806D01*
X297540243Y-202800961D01*
X297550000Y-202800001D01*
X297699999Y-202800001D01*
X297709753Y-202800961D01*
G36*
X298209754Y-205600960D02*
G01*
X298219135Y-205603805D01*
X298227778Y-205608426D01*
X298235355Y-205614643D01*
X298241573Y-205622220D01*
X298246196Y-205630864D01*
X298249041Y-205640244D01*
X298250001Y-205650000D01*
X298250001Y-205800000D01*
X298249041Y-205809754D01*
X298246196Y-205819134D01*
X298241573Y-205827777D01*
X298235355Y-205835354D01*
X298227778Y-205841572D01*
X298219135Y-205846192D01*
X298209754Y-205849037D01*
X298200001Y-205850000D01*
X297550000Y-205850000D01*
X297540246Y-205849037D01*
X297530866Y-205846192D01*
X297522222Y-205841572D01*
X297514645Y-205835354D01*
X297508427Y-205827777D01*
X297503805Y-205819134D01*
X297500960Y-205809754D01*
X297500000Y-205800000D01*
X297500000Y-205650000D01*
X297500960Y-205640244D01*
X297503805Y-205630864D01*
X297508427Y-205622220D01*
X297514645Y-205614643D01*
X297522222Y-205608426D01*
X297530866Y-205603805D01*
X297540246Y-205600960D01*
X297550000Y-205600000D01*
X298200001Y-205600000D01*
X298209754Y-205600960D01*
G37*
X298209754Y-205600960D02*
X298219135Y-205603805D01*
X298227778Y-205608426D01*
X298235355Y-205614643D01*
X298241573Y-205622220D01*
X298246196Y-205630864D01*
X298249041Y-205640244D01*
X298250001Y-205650000D01*
X298250001Y-205800000D01*
X298249041Y-205809754D01*
X298246196Y-205819134D01*
X298241573Y-205827777D01*
X298235355Y-205835354D01*
X298227778Y-205841572D01*
X298219135Y-205846192D01*
X298209754Y-205849037D01*
X298200001Y-205850000D01*
X297550000Y-205850000D01*
X297540246Y-205849037D01*
X297530866Y-205846192D01*
X297522222Y-205841572D01*
X297514645Y-205835354D01*
X297508427Y-205827777D01*
X297503805Y-205819134D01*
X297500960Y-205809754D01*
X297500000Y-205800000D01*
X297500000Y-205650000D01*
X297500960Y-205640244D01*
X297503805Y-205630864D01*
X297508427Y-205622220D01*
X297514645Y-205614643D01*
X297522222Y-205608426D01*
X297530866Y-205603805D01*
X297540246Y-205600960D01*
X297550000Y-205600000D01*
X298200001Y-205600000D01*
X298209754Y-205600960D01*
G36*
X298209757Y-205600960D02*
G01*
X298219137Y-205603805D01*
X298227781Y-205608428D01*
X298235358Y-205614646D01*
X298241576Y-205622223D01*
X298246196Y-205630866D01*
X298249041Y-205640247D01*
X298250001Y-205650000D01*
X298250001Y-206149999D01*
X298249041Y-206159753D01*
X298246196Y-206169133D01*
X298241576Y-206177777D01*
X298235358Y-206185354D01*
X298227781Y-206191571D01*
X298219137Y-206196194D01*
X298209757Y-206199039D01*
X298200001Y-206199999D01*
X298050001Y-206199999D01*
X298040248Y-206199039D01*
X298030867Y-206196194D01*
X298022224Y-206191571D01*
X298014647Y-206185354D01*
X298008429Y-206177777D01*
X298003809Y-206169133D01*
X298000964Y-206159753D01*
X298000001Y-206149999D01*
X298000001Y-205650000D01*
X298000964Y-205640247D01*
X298003809Y-205630866D01*
X298008429Y-205622223D01*
X298014647Y-205614646D01*
X298022224Y-205608428D01*
X298030867Y-205603805D01*
X298040248Y-205600960D01*
X298050001Y-205600000D01*
X298200001Y-205600000D01*
X298209757Y-205600960D01*
G37*
X298209757Y-205600960D02*
X298219137Y-205603805D01*
X298227781Y-205608428D01*
X298235358Y-205614646D01*
X298241576Y-205622223D01*
X298246196Y-205630866D01*
X298249041Y-205640247D01*
X298250001Y-205650000D01*
X298250001Y-206149999D01*
X298249041Y-206159753D01*
X298246196Y-206169133D01*
X298241576Y-206177777D01*
X298235358Y-206185354D01*
X298227781Y-206191571D01*
X298219137Y-206196194D01*
X298209757Y-206199039D01*
X298200001Y-206199999D01*
X298050001Y-206199999D01*
X298040248Y-206199039D01*
X298030867Y-206196194D01*
X298022224Y-206191571D01*
X298014647Y-206185354D01*
X298008429Y-206177777D01*
X298003809Y-206169133D01*
X298000964Y-206159753D01*
X298000001Y-206149999D01*
X298000001Y-205650000D01*
X298000964Y-205640247D01*
X298003809Y-205630866D01*
X298008429Y-205622223D01*
X298014647Y-205614646D01*
X298022224Y-205608428D01*
X298030867Y-205603805D01*
X298040248Y-205600960D01*
X298050001Y-205600000D01*
X298200001Y-205600000D01*
X298209757Y-205600960D01*
G36*
X298209757Y-202800961D02*
G01*
X298219137Y-202803806D01*
X298227781Y-202808429D01*
X298235358Y-202814646D01*
X298241576Y-202822223D01*
X298246196Y-202830867D01*
X298249041Y-202840247D01*
X298250001Y-202850001D01*
X298250001Y-203350000D01*
X298249041Y-203359753D01*
X298246196Y-203369134D01*
X298241576Y-203377777D01*
X298235358Y-203385354D01*
X298227781Y-203391572D01*
X298219137Y-203396195D01*
X298209757Y-203399040D01*
X298200001Y-203400000D01*
X298050001Y-203400000D01*
X298040248Y-203399040D01*
X298030867Y-203396195D01*
X298022224Y-203391572D01*
X298014647Y-203385354D01*
X298008429Y-203377777D01*
X298003809Y-203369134D01*
X298000964Y-203359753D01*
X298000001Y-203350000D01*
X298000001Y-202850001D01*
X298000964Y-202840247D01*
X298003809Y-202830867D01*
X298008429Y-202822223D01*
X298014647Y-202814646D01*
X298022224Y-202808429D01*
X298030867Y-202803806D01*
X298040248Y-202800961D01*
X298050001Y-202800001D01*
X298200001Y-202800001D01*
X298209757Y-202800961D01*
G37*
X298209757Y-202800961D02*
X298219137Y-202803806D01*
X298227781Y-202808429D01*
X298235358Y-202814646D01*
X298241576Y-202822223D01*
X298246196Y-202830867D01*
X298249041Y-202840247D01*
X298250001Y-202850001D01*
X298250001Y-203350000D01*
X298249041Y-203359753D01*
X298246196Y-203369134D01*
X298241576Y-203377777D01*
X298235358Y-203385354D01*
X298227781Y-203391572D01*
X298219137Y-203396195D01*
X298209757Y-203399040D01*
X298200001Y-203400000D01*
X298050001Y-203400000D01*
X298040248Y-203399040D01*
X298030867Y-203396195D01*
X298022224Y-203391572D01*
X298014647Y-203385354D01*
X298008429Y-203377777D01*
X298003809Y-203369134D01*
X298000964Y-203359753D01*
X298000001Y-203350000D01*
X298000001Y-202850001D01*
X298000964Y-202840247D01*
X298003809Y-202830867D01*
X298008429Y-202822223D01*
X298014647Y-202814646D01*
X298022224Y-202808429D01*
X298030867Y-202803806D01*
X298040248Y-202800961D01*
X298050001Y-202800001D01*
X298200001Y-202800001D01*
X298209757Y-202800961D01*
G36*
X298209754Y-203150963D02*
G01*
X298219135Y-203153808D01*
X298227778Y-203158428D01*
X298235355Y-203164646D01*
X298241573Y-203172223D01*
X298246196Y-203180866D01*
X298249041Y-203190246D01*
X298250001Y-203200000D01*
X298250001Y-203350000D01*
X298249041Y-203359756D01*
X298246196Y-203369136D01*
X298241573Y-203377780D01*
X298235355Y-203385357D01*
X298227778Y-203391574D01*
X298219135Y-203396195D01*
X298209754Y-203399040D01*
X298200001Y-203400000D01*
X297550000Y-203400000D01*
X297540246Y-203399040D01*
X297530866Y-203396195D01*
X297522222Y-203391574D01*
X297514645Y-203385357D01*
X297508427Y-203377780D01*
X297503805Y-203369136D01*
X297500960Y-203359756D01*
X297500000Y-203350000D01*
X297500000Y-203200000D01*
X297500960Y-203190246D01*
X297503805Y-203180866D01*
X297508427Y-203172223D01*
X297514645Y-203164646D01*
X297522222Y-203158428D01*
X297530866Y-203153808D01*
X297540246Y-203150963D01*
X297550000Y-203150000D01*
X298200001Y-203150000D01*
X298209754Y-203150963D01*
G37*
X298209754Y-203150963D02*
X298219135Y-203153808D01*
X298227778Y-203158428D01*
X298235355Y-203164646D01*
X298241573Y-203172223D01*
X298246196Y-203180866D01*
X298249041Y-203190246D01*
X298250001Y-203200000D01*
X298250001Y-203350000D01*
X298249041Y-203359756D01*
X298246196Y-203369136D01*
X298241573Y-203377780D01*
X298235355Y-203385357D01*
X298227778Y-203391574D01*
X298219135Y-203396195D01*
X298209754Y-203399040D01*
X298200001Y-203400000D01*
X297550000Y-203400000D01*
X297540246Y-203399040D01*
X297530866Y-203396195D01*
X297522222Y-203391574D01*
X297514645Y-203385357D01*
X297508427Y-203377780D01*
X297503805Y-203369136D01*
X297500960Y-203359756D01*
X297500000Y-203350000D01*
X297500000Y-203200000D01*
X297500960Y-203190246D01*
X297503805Y-203180866D01*
X297508427Y-203172223D01*
X297514645Y-203164646D01*
X297522222Y-203158428D01*
X297530866Y-203153808D01*
X297540246Y-203150963D01*
X297550000Y-203150000D01*
X298200001Y-203150000D01*
X298209754Y-203150963D01*
%TD*%
D11*
%TO.C,C208*%
X294000000Y-204067500D03*
X294000000Y-202932500D03*
%TD*%
D12*
%TO.C,RGB_Pot6*%
X191750000Y-205250000D03*
X198250000Y-205250000D03*
X191750000Y-209750000D03*
X198250000Y-209750000D03*
D13*
X194100000Y-204600000D03*
X195900000Y-204600000D03*
X195900000Y-210400000D03*
X194100000Y-210400000D03*
%TD*%
D14*
%TO.C,SW2*%
X174949200Y-154450000D03*
X174949200Y-150000000D03*
X174949200Y-145550000D03*
%TD*%
D12*
%TO.C,RGB_Pot5*%
X169250000Y-205250000D03*
X175750000Y-205250000D03*
X169250000Y-209750000D03*
X175750000Y-209750000D03*
D13*
X171600000Y-204600000D03*
X173400000Y-204600000D03*
X173400000Y-210400000D03*
X171600000Y-210400000D03*
%TD*%
D15*
%TO.C,RV17*%
X90500000Y-164200000D03*
X90500000Y-166740000D03*
X90500000Y-169280000D03*
%TD*%
D16*
%TO.C,LS1*%
X268350000Y-161106595D03*
X299650000Y-106893405D03*
%TD*%
D12*
%TO.C,RGB_Pot3*%
X124250000Y-205178932D03*
X130750000Y-205178932D03*
X124250000Y-209678932D03*
X130750000Y-209678932D03*
D13*
X126600000Y-204528932D03*
X128400000Y-204528932D03*
X128400000Y-210328932D03*
X126600000Y-210328932D03*
%TD*%
D17*
%TO.C,SW5*%
X279250000Y-205250000D03*
X285750000Y-205250000D03*
X279250000Y-209750000D03*
X285750000Y-209750000D03*
%TD*%
D15*
%TO.C,RV16*%
X90500000Y-153200000D03*
X90500000Y-155740000D03*
X90500000Y-158280000D03*
%TD*%
D17*
%TO.C,RV21*%
X247500000Y-173250000D03*
X245000000Y-173250000D03*
X242500000Y-173250000D03*
D18*
X249800000Y-180750000D03*
X240200000Y-180750000D03*
%TD*%
D17*
%TO.C,RV19*%
X142500000Y-172500000D03*
X140000000Y-172500000D03*
X137500000Y-172500000D03*
D18*
X144800000Y-180000000D03*
X135200000Y-180000000D03*
%TD*%
D17*
%TO.C,RV14*%
X102449200Y-157500000D03*
X104949200Y-157500000D03*
X107449200Y-157500000D03*
D18*
X100149200Y-150000000D03*
X109749200Y-150000000D03*
%TD*%
D15*
%TO.C,RV12*%
X90500000Y-142200000D03*
X90500000Y-144740000D03*
X90500000Y-147280000D03*
%TD*%
D19*
%TO.C,J302*%
X187750000Y-185250000D03*
D20*
X189020000Y-185250000D03*
X187750000Y-186520000D03*
X189020000Y-186520000D03*
X187750000Y-187790000D03*
X189020000Y-187790000D03*
X187750000Y-189060000D03*
X189020000Y-189060000D03*
X187750000Y-190330000D03*
X189020000Y-190330000D03*
%TD*%
D17*
%TO.C,RV5*%
X205949200Y-101000000D03*
X209949200Y-101000000D03*
X213949200Y-101000000D03*
D21*
X203249200Y-90000000D03*
X216649200Y-90000000D03*
%TD*%
D15*
%TO.C,RV1001*%
X230460000Y-75000000D03*
X227920000Y-75000000D03*
X225380000Y-75000000D03*
%TD*%
D17*
%TO.C,RV15*%
X137449200Y-157500000D03*
X139949200Y-157500000D03*
X142449200Y-157500000D03*
D18*
X135149200Y-150000000D03*
X144749200Y-150000000D03*
%TD*%
D17*
%TO.C,RV6*%
X242449200Y-97500000D03*
X244949200Y-97500000D03*
X247449200Y-97500000D03*
D18*
X240149200Y-90000000D03*
X249749200Y-90000000D03*
%TD*%
D17*
%TO.C,RV4*%
X170949200Y-101000000D03*
X174949200Y-101000000D03*
X178949200Y-101000000D03*
D21*
X168249200Y-90000000D03*
X181649200Y-90000000D03*
%TD*%
D14*
%TO.C,SW4*%
X244949200Y-154450000D03*
X244949200Y-150000000D03*
X244949200Y-145550000D03*
%TD*%
D22*
%TO.C,J19*%
X196750000Y-181400000D03*
D23*
X196750000Y-183940000D03*
X196750000Y-186480000D03*
X196750000Y-189020000D03*
X196750000Y-191560000D03*
X196750000Y-194100000D03*
%TD*%
D17*
%TO.C,RV11*%
X242449200Y-127500000D03*
X244949200Y-127500000D03*
X247449200Y-127500000D03*
D18*
X240149200Y-120000000D03*
X249749200Y-120000000D03*
%TD*%
D14*
%TO.C,SW3*%
X209949200Y-145550000D03*
X209949200Y-150000000D03*
X209949200Y-154450000D03*
%TD*%
D24*
%TO.C,H201*%
X88750000Y-204250000D03*
%TD*%
D17*
%TO.C,RV18*%
X107500000Y-172500000D03*
X105000000Y-172500000D03*
X102500000Y-172500000D03*
D18*
X109800000Y-180000000D03*
X100200000Y-180000000D03*
%TD*%
D17*
%TO.C,RV22*%
X285000000Y-172500000D03*
X282500000Y-172500000D03*
X280000000Y-172500000D03*
D18*
X287300000Y-180000000D03*
X277700000Y-180000000D03*
%TD*%
D17*
%TO.C,RV7*%
X135949200Y-131000000D03*
X139949200Y-131000000D03*
X143949200Y-131000000D03*
D21*
X133249200Y-120000000D03*
X146649200Y-120000000D03*
%TD*%
D17*
%TO.C,RV8*%
X170949200Y-131000000D03*
X174949200Y-131000000D03*
X178949200Y-131000000D03*
D21*
X168249200Y-120000000D03*
X181649200Y-120000000D03*
%TD*%
D17*
%TO.C,RV1*%
X100949200Y-101000000D03*
X104949200Y-101000000D03*
X108949200Y-101000000D03*
D21*
X98249200Y-90000000D03*
X111649200Y-90000000D03*
%TD*%
D25*
%TO.C,J1*%
X305279540Y-90800000D03*
D26*
X302179540Y-90800000D03*
X293879540Y-90800000D03*
%TD*%
D12*
%TO.C,RGB_Pot7*%
X236750000Y-205250000D03*
X243250000Y-205250000D03*
X236750000Y-209750000D03*
X243250000Y-209750000D03*
D13*
X239100000Y-204600000D03*
X240900000Y-204600000D03*
X240900000Y-210400000D03*
X239100000Y-210400000D03*
%TD*%
D25*
%TO.C,J2*%
X270779540Y-90700000D03*
D26*
X267679540Y-90700000D03*
X259379540Y-90700000D03*
%TD*%
D27*
%TO.C,H2*%
X299000000Y-78015000D03*
%TD*%
D25*
%TO.C,J3*%
X286479540Y-90800000D03*
D26*
X283379540Y-90800000D03*
X275079540Y-90800000D03*
%TD*%
D12*
%TO.C,RGB_Pot1*%
X259250000Y-177750000D03*
X265750000Y-177750000D03*
X259250000Y-182250000D03*
X265750000Y-182250000D03*
D13*
X261600000Y-177100000D03*
X263400000Y-177100000D03*
X263400000Y-182900000D03*
X261600000Y-182900000D03*
%TD*%
D17*
%TO.C,RV3*%
X135949200Y-101000000D03*
X139949200Y-101000000D03*
X143949200Y-101000000D03*
D21*
X133249200Y-90000000D03*
X146649200Y-90000000D03*
%TD*%
D15*
%TO.C,RV2*%
X117000000Y-81420000D03*
X117000000Y-83960000D03*
X117000000Y-86500000D03*
%TD*%
D17*
%TO.C,RV20*%
X177500000Y-172500000D03*
X175000000Y-172500000D03*
X172500000Y-172500000D03*
D18*
X179800000Y-180000000D03*
X170200000Y-180000000D03*
%TD*%
D27*
%TO.C,H1*%
X89000000Y-78015000D03*
%TD*%
D12*
%TO.C,RGB_Pot9*%
X259250000Y-205250000D03*
X265750000Y-205250000D03*
X259250000Y-209750000D03*
X265750000Y-209750000D03*
D13*
X261600000Y-204600000D03*
X263400000Y-204600000D03*
X263400000Y-210400000D03*
X261600000Y-210400000D03*
%TD*%
D17*
%TO.C,RV9*%
X205949200Y-131000000D03*
X209949200Y-131000000D03*
X213949200Y-131000000D03*
D21*
X203249200Y-120000000D03*
X216649200Y-120000000D03*
%TD*%
D22*
%TO.C,J4*%
X255500000Y-150725000D03*
D23*
X255500000Y-153265000D03*
%TD*%
D12*
%TO.C,RGB_Pot4*%
X146750000Y-205250000D03*
X153250000Y-205250000D03*
X146750000Y-209750000D03*
X153250000Y-209750000D03*
D13*
X149100000Y-204600000D03*
X150900000Y-204600000D03*
X150900000Y-210400000D03*
X149100000Y-210400000D03*
%TD*%
D12*
%TO.C,RGB_Pot2*%
X101750000Y-205178932D03*
X108250000Y-205178932D03*
X101750000Y-209678932D03*
X108250000Y-209678932D03*
D13*
X104100000Y-204528932D03*
X105900000Y-204528932D03*
X105900000Y-210328932D03*
X104100000Y-210328932D03*
%TD*%
D15*
%TO.C,RV13*%
X90500000Y-131220000D03*
X90500000Y-133760000D03*
X90500000Y-136300000D03*
%TD*%
D27*
%TO.C,H4*%
X300000000Y-217928932D03*
%TD*%
D14*
%TO.C,SW1*%
X104898400Y-124450000D03*
X104898400Y-120000000D03*
X104898400Y-115550000D03*
%TD*%
D27*
%TO.C,H3*%
X90000000Y-217928932D03*
%TD*%
D24*
%TO.C,H202*%
X303000000Y-82000000D03*
%TD*%
D12*
%TO.C,RGB_Pot8*%
X214250000Y-205250000D03*
X220750000Y-205250000D03*
X214250000Y-209750000D03*
X220750000Y-209750000D03*
D13*
X216600000Y-204600000D03*
X218400000Y-204600000D03*
X218400000Y-210400000D03*
X216600000Y-210400000D03*
%TD*%
D24*
%TO.C,H203*%
X291100000Y-221200000D03*
%TD*%
D28*
%TO.C,C36*%
X215362500Y-173750000D03*
X213637500Y-173750000D03*
%TD*%
D29*
%TO.C,R65*%
X229400000Y-111790000D03*
D30*
X229400000Y-119410000D03*
%TD*%
D31*
%TO.C,D10*%
X141275000Y-112450000D03*
D12*
X138735000Y-112450000D03*
%TD*%
D29*
%TO.C,R91*%
X163500000Y-158810000D03*
D30*
X163500000Y-151190000D03*
%TD*%
D29*
%TO.C,C52*%
X275250000Y-172750000D03*
X275250000Y-177750000D03*
%TD*%
%TO.C,R89*%
X149000000Y-151190000D03*
D30*
X149000000Y-158810000D03*
%TD*%
D22*
%TO.C,J11*%
X266525000Y-120500000D03*
D23*
X263985000Y-120500000D03*
%TD*%
D29*
%TO.C,R86*%
X179190000Y-161500000D03*
D30*
X186810000Y-161500000D03*
%TD*%
D29*
%TO.C,R702*%
X120400000Y-159010000D03*
D30*
X120400000Y-151390000D03*
%TD*%
D29*
%TO.C,C4*%
X233100000Y-108275000D03*
X228100000Y-108275000D03*
%TD*%
%TO.C,R19*%
X221000000Y-119420000D03*
D30*
X221000000Y-111800000D03*
%TD*%
D29*
%TO.C,R105*%
X143500000Y-203690000D03*
D30*
X143500000Y-211310000D03*
%TD*%
D29*
%TO.C,R127*%
X102500000Y-220810000D03*
D30*
X102500000Y-213190000D03*
%TD*%
D29*
%TO.C,R34*%
X269750000Y-117560000D03*
D30*
X269750000Y-109940000D03*
%TD*%
D29*
%TO.C,R20*%
X232410000Y-78940000D03*
D30*
X232410000Y-86560000D03*
%TD*%
D29*
%TO.C,C53*%
X247000000Y-203500000D03*
X252000000Y-203500000D03*
%TD*%
%TO.C,C301*%
X207810000Y-168500000D03*
X202810000Y-168500000D03*
%TD*%
D32*
%TO.C,U4*%
X94175000Y-106190000D03*
X94175000Y-107460000D03*
X94175000Y-108730000D03*
X94175000Y-110000000D03*
X94175000Y-111270000D03*
X94175000Y-112540000D03*
X94175000Y-113810000D03*
X89225000Y-113810000D03*
X89225000Y-112540000D03*
X89225000Y-111270000D03*
X89225000Y-110000000D03*
X89225000Y-108730000D03*
X89225000Y-107460000D03*
X89225000Y-106190000D03*
%TD*%
D29*
%TO.C,C41*%
X160250000Y-157500000D03*
X155250000Y-157500000D03*
%TD*%
%TO.C,R124*%
X147500000Y-220810000D03*
D30*
X147500000Y-213190000D03*
%TD*%
D33*
%TO.C,Q3*%
X270230000Y-101140000D03*
D34*
X271500000Y-101140000D03*
X272770000Y-101140000D03*
%TD*%
D29*
%TO.C,R3*%
X223410000Y-86560000D03*
D30*
X223410000Y-78940000D03*
%TD*%
D29*
%TO.C,C7*%
X273500000Y-122750000D03*
X273500000Y-127750000D03*
%TD*%
%TO.C,C210*%
X252500000Y-76200000D03*
X257500000Y-76200000D03*
%TD*%
%TO.C,R107*%
X131500000Y-201000000D03*
D30*
X123880000Y-201000000D03*
%TD*%
D29*
%TO.C,R9*%
X93310000Y-92750000D03*
D30*
X85690000Y-92750000D03*
%TD*%
D29*
%TO.C,R64*%
X199600000Y-155810000D03*
D30*
X199600000Y-148190000D03*
%TD*%
D35*
%TO.C,D202*%
X298000000Y-178150000D03*
X298000000Y-169350000D03*
%TD*%
D29*
%TO.C,R16*%
X265060000Y-105500000D03*
D30*
X257440000Y-105500000D03*
%TD*%
D29*
%TO.C,R101*%
X198810000Y-201000000D03*
D30*
X191190000Y-201000000D03*
%TD*%
D29*
%TO.C,R81*%
X265000000Y-185690000D03*
D30*
X265000000Y-193310000D03*
%TD*%
D36*
%TO.C,Q13*%
X118800000Y-105100000D03*
D37*
X118800000Y-103830000D03*
X118800000Y-102560000D03*
%TD*%
D36*
%TO.C,Q502*%
X190240000Y-116220000D03*
D37*
X190240000Y-114950000D03*
X190240000Y-113680000D03*
%TD*%
D29*
%TO.C,R37*%
X221000000Y-95890000D03*
D30*
X221000000Y-103510000D03*
%TD*%
D29*
%TO.C,R95*%
X266310000Y-201000000D03*
D30*
X258690000Y-201000000D03*
%TD*%
D38*
%TO.C,BT1*%
X303600000Y-138500000D03*
X281400000Y-123750000D03*
X303600000Y-110500000D03*
D39*
X286150000Y-99600000D03*
D40*
X298850000Y-99600000D03*
%TD*%
D29*
%TO.C,R52*%
X143810000Y-104250000D03*
D30*
X136190000Y-104250000D03*
%TD*%
D36*
%TO.C,Q5*%
X225910000Y-89230000D03*
D37*
X225910000Y-90500000D03*
X225910000Y-91770000D03*
%TD*%
D29*
%TO.C,R122*%
X170000000Y-220810000D03*
D30*
X170000000Y-213190000D03*
%TD*%
D29*
%TO.C,C54*%
X139887500Y-203625000D03*
X134887500Y-203625000D03*
%TD*%
%TO.C,R57*%
X229500000Y-124885000D03*
D30*
X229500000Y-132505000D03*
%TD*%
D29*
%TO.C,R301*%
X207750000Y-203690000D03*
D30*
X207750000Y-211310000D03*
%TD*%
D32*
%TO.C,U13*%
X184475000Y-212305000D03*
X184475000Y-213575000D03*
X184475000Y-214845000D03*
X184475000Y-216115000D03*
X184475000Y-217385000D03*
X184475000Y-218655000D03*
X184475000Y-219925000D03*
X184475000Y-221195000D03*
X179525000Y-221195000D03*
X179525000Y-219925000D03*
X179525000Y-218655000D03*
X179525000Y-217385000D03*
X179525000Y-216115000D03*
X179525000Y-214845000D03*
X179525000Y-213575000D03*
X179525000Y-212305000D03*
%TD*%
D29*
%TO.C,R69*%
X178810000Y-139200000D03*
D30*
X171190000Y-139200000D03*
%TD*%
D29*
%TO.C,R123*%
X152500000Y-213190000D03*
D30*
X152500000Y-220810000D03*
%TD*%
D29*
%TO.C,C39*%
X194500000Y-162100000D03*
X189500000Y-162100000D03*
%TD*%
%TO.C,R113*%
X260000000Y-220810000D03*
D30*
X260000000Y-213190000D03*
%TD*%
D29*
%TO.C,R103*%
X188500000Y-203690000D03*
D30*
X188500000Y-211310000D03*
%TD*%
D41*
%TO.C,U201*%
X296200000Y-205250001D03*
X296200000Y-204750002D03*
X296200000Y-204250000D03*
X296200000Y-203750002D03*
D42*
X296625000Y-203100000D03*
X297124999Y-203100000D03*
D43*
X297875000Y-203100000D03*
X297875000Y-203100000D03*
D44*
X298125000Y-204000001D03*
D45*
X297949999Y-204500000D03*
D44*
X298125000Y-204999999D03*
D43*
X297875000Y-205900000D03*
X297875000Y-205900000D03*
D42*
X297124999Y-205900000D03*
X296625000Y-205900000D03*
%TD*%
D29*
%TO.C,R33*%
X274500000Y-109940000D03*
D30*
X274500000Y-117560000D03*
%TD*%
D46*
%TO.C,J16*%
X304200000Y-170495000D03*
X304200000Y-175495000D03*
D47*
X303100000Y-171695000D03*
X303100000Y-172345000D03*
X303100000Y-172995000D03*
X303100000Y-173645000D03*
X303100000Y-174295000D03*
D48*
X306950000Y-176870000D03*
X306950000Y-169120000D03*
D49*
X303150000Y-176720000D03*
X303150000Y-169270000D03*
%TD*%
D36*
%TO.C,Q12*%
X123800000Y-105100000D03*
D37*
X123800000Y-103830000D03*
X123800000Y-102560000D03*
%TD*%
D29*
%TO.C,R201*%
X271760000Y-82500000D03*
D30*
X264140000Y-82500000D03*
%TD*%
D50*
%TO.C,R202*%
X295812500Y-208500000D03*
X293987500Y-208500000D03*
%TD*%
D51*
%TO.C,C202*%
X300137500Y-209500000D03*
X298062500Y-209500000D03*
%TD*%
D22*
%TO.C,J10*%
X246275000Y-102595000D03*
D23*
X243735000Y-102595000D03*
%TD*%
D29*
%TO.C,R118*%
X215000000Y-220810000D03*
D30*
X215000000Y-213190000D03*
%TD*%
D29*
%TO.C,R87*%
X166500000Y-151190000D03*
D30*
X166500000Y-158810000D03*
%TD*%
D52*
%TO.C,C44*%
X226937500Y-186600000D03*
X228662500Y-186600000D03*
%TD*%
D29*
%TO.C,R100*%
X211000000Y-203690000D03*
D30*
X211000000Y-211310000D03*
%TD*%
D29*
%TO.C,R15*%
X265060000Y-97500000D03*
D30*
X257440000Y-97500000D03*
%TD*%
D22*
%TO.C,J8*%
X156250000Y-79725000D03*
D23*
X156250000Y-82265000D03*
%TD*%
D53*
%TO.C,D8*%
X178810000Y-133450000D03*
D30*
X171190000Y-133450000D03*
%TD*%
D29*
%TO.C,R58*%
X226500000Y-132505000D03*
D30*
X226500000Y-124885000D03*
%TD*%
D54*
%TO.C,R203*%
X295600000Y-199587500D03*
X295600000Y-201412500D03*
%TD*%
D29*
%TO.C,R17*%
X229410000Y-78940000D03*
D30*
X229410000Y-86560000D03*
%TD*%
D52*
%TO.C,C43*%
X226937500Y-185000000D03*
X228662500Y-185000000D03*
%TD*%
D22*
%TO.C,J204*%
X274525000Y-191250000D03*
D23*
X271985000Y-191250000D03*
%TD*%
D53*
%TO.C,C11*%
X162457953Y-117250000D03*
D29*
X158957953Y-117250000D03*
%TD*%
%TO.C,C2*%
X261500000Y-114250000D03*
X256500000Y-114250000D03*
%TD*%
%TO.C,R62*%
X235400000Y-119410000D03*
D30*
X235400000Y-111790000D03*
%TD*%
D29*
%TO.C,R51*%
X125000000Y-121410000D03*
D30*
X125000000Y-113790000D03*
%TD*%
D36*
%TO.C,Q9*%
X160970000Y-100980000D03*
D37*
X160970000Y-102250000D03*
X160970000Y-103520000D03*
%TD*%
D22*
%TO.C,J13*%
X121750000Y-127100000D03*
D23*
X121750000Y-124560000D03*
%TD*%
D29*
%TO.C,R61*%
X202600000Y-148190000D03*
D30*
X202600000Y-155810000D03*
%TD*%
D29*
%TO.C,C10*%
X124500000Y-133400000D03*
X119500000Y-133400000D03*
%TD*%
%TO.C,R32*%
X113200000Y-105400000D03*
D30*
X113200000Y-113020000D03*
%TD*%
D29*
%TO.C,C29*%
X160250000Y-137500000D03*
X155250000Y-137500000D03*
%TD*%
%TO.C,R14*%
X275060000Y-105500000D03*
D30*
X267440000Y-105500000D03*
%TD*%
D29*
%TO.C,R73*%
X171190000Y-136200000D03*
D30*
X178810000Y-136200000D03*
%TD*%
D29*
%TO.C,R125*%
X130000000Y-213190000D03*
D30*
X130000000Y-220810000D03*
%TD*%
D22*
%TO.C,J12*%
X125500000Y-127100000D03*
D23*
X125500000Y-124560000D03*
%TD*%
D29*
%TO.C,C38*%
X270000000Y-209750000D03*
X275000000Y-209750000D03*
%TD*%
D55*
%TO.C,U11*%
X246637500Y-200850000D03*
X246637500Y-200200000D03*
X246637500Y-199550000D03*
X246637500Y-198900000D03*
X246637500Y-198250000D03*
X246637500Y-197600000D03*
X246637500Y-196950000D03*
X246637500Y-196300000D03*
X246637500Y-195650000D03*
X246637500Y-195000000D03*
X246637500Y-194350000D03*
X246637500Y-193700000D03*
X246637500Y-193050000D03*
X246637500Y-192400000D03*
X252362500Y-192400000D03*
X252362500Y-193050000D03*
X252362500Y-193700000D03*
X252362500Y-194350000D03*
X252362500Y-195000000D03*
X252362500Y-195650000D03*
X252362500Y-196300000D03*
X252362500Y-196950000D03*
X252362500Y-197600000D03*
X252362500Y-198250000D03*
X252362500Y-198900000D03*
X252362500Y-199550000D03*
X252362500Y-200200000D03*
X252362500Y-200850000D03*
%TD*%
%TO.C,U12*%
X134637500Y-200975000D03*
X134637500Y-200325000D03*
X134637500Y-199675000D03*
X134637500Y-199025000D03*
X134637500Y-198375000D03*
X134637500Y-197725000D03*
X134637500Y-197075000D03*
X134637500Y-196425000D03*
X134637500Y-195775000D03*
X134637500Y-195125000D03*
X134637500Y-194475000D03*
X134637500Y-193825000D03*
X134637500Y-193175000D03*
X134637500Y-192525000D03*
X140362500Y-192525000D03*
X140362500Y-193175000D03*
X140362500Y-193825000D03*
X140362500Y-194475000D03*
X140362500Y-195125000D03*
X140362500Y-195775000D03*
X140362500Y-196425000D03*
X140362500Y-197075000D03*
X140362500Y-197725000D03*
X140362500Y-198375000D03*
X140362500Y-199025000D03*
X140362500Y-199675000D03*
X140362500Y-200325000D03*
X140362500Y-200975000D03*
%TD*%
D29*
%TO.C,C18*%
X94200000Y-116500000D03*
X89200000Y-116500000D03*
%TD*%
D17*
%TO.C,SW7*%
X299167500Y-165042500D03*
X299167500Y-153042500D03*
X293167500Y-165042500D03*
X293167500Y-153042500D03*
D56*
X294917500Y-155042500D03*
X294917500Y-159042500D03*
X294917500Y-163042500D03*
%TD*%
D22*
%TO.C,J203*%
X230250000Y-158000000D03*
D23*
X230250000Y-160540000D03*
X230250000Y-163080000D03*
X230250000Y-165620000D03*
X230250000Y-168160000D03*
X230250000Y-170700000D03*
%TD*%
D29*
%TO.C,R29*%
X154190000Y-97750000D03*
D30*
X161810000Y-97750000D03*
%TD*%
D53*
%TO.C,C20*%
X302147349Y-185400000D03*
D29*
X305647349Y-185400000D03*
%TD*%
D57*
%TO.C,C206*%
X298100000Y-197500000D03*
X300175000Y-197500000D03*
%TD*%
D32*
%TO.C,U3*%
X124475000Y-135840000D03*
X124475000Y-137110000D03*
X124475000Y-138380000D03*
X124475000Y-139650000D03*
X124475000Y-140920000D03*
X124475000Y-142190000D03*
X124475000Y-143460000D03*
X119525000Y-143460000D03*
X119525000Y-142190000D03*
X119525000Y-140920000D03*
X119525000Y-139650000D03*
X119525000Y-138380000D03*
X119525000Y-137110000D03*
X119525000Y-135840000D03*
%TD*%
D58*
%TO.C,L201*%
X305350000Y-206350000D03*
X305350000Y-202650000D03*
%TD*%
D29*
%TO.C,R106*%
X153810000Y-201000000D03*
D30*
X146190000Y-201000000D03*
%TD*%
D32*
%TO.C,U10*%
X274975000Y-212305000D03*
X274975000Y-213575000D03*
X274975000Y-214845000D03*
X274975000Y-216115000D03*
X274975000Y-217385000D03*
X274975000Y-218655000D03*
X274975000Y-219925000D03*
X274975000Y-221195000D03*
X270025000Y-221195000D03*
X270025000Y-219925000D03*
X270025000Y-218655000D03*
X270025000Y-217385000D03*
X270025000Y-216115000D03*
X270025000Y-214845000D03*
X270025000Y-213575000D03*
X270025000Y-212305000D03*
%TD*%
D59*
%TO.C,C50*%
X208310000Y-185137500D03*
X208310000Y-186862500D03*
%TD*%
D53*
%TO.C,C22*%
X265000000Y-143097349D03*
D29*
X265000000Y-146597349D03*
%TD*%
%TO.C,R80*%
X260000000Y-193310000D03*
D30*
X260000000Y-185690000D03*
%TD*%
D29*
%TO.C,R501*%
X192200000Y-118990000D03*
D30*
X192200000Y-126610000D03*
%TD*%
D60*
%TO.C,J5*%
X287250000Y-80515000D03*
D38*
X287250000Y-74515000D03*
X291950000Y-77515000D03*
%TD*%
D29*
%TO.C,R68*%
X218000000Y-140990000D03*
D30*
X218000000Y-148610000D03*
%TD*%
D28*
%TO.C,C45*%
X208112500Y-177000000D03*
X206387500Y-177000000D03*
%TD*%
D29*
%TO.C,C17*%
X86000000Y-109000000D03*
X86000000Y-104000000D03*
%TD*%
%TO.C,R22*%
X195400000Y-118990000D03*
D30*
X195400000Y-126610000D03*
%TD*%
D29*
%TO.C,R30*%
X136190000Y-107250000D03*
D30*
X143810000Y-107250000D03*
%TD*%
D51*
%TO.C,C201*%
X300137500Y-211500000D03*
X298062500Y-211500000D03*
%TD*%
D36*
%TO.C,Q6*%
X230660000Y-89230000D03*
D37*
X230660000Y-90500000D03*
X230660000Y-91770000D03*
%TD*%
D29*
%TO.C,C49*%
X207810000Y-173250000D03*
X202810000Y-173250000D03*
%TD*%
%TO.C,R28*%
X158000000Y-85440000D03*
D30*
X158000000Y-93060000D03*
%TD*%
D29*
%TO.C,R41*%
X221000000Y-140980000D03*
D30*
X221000000Y-148600000D03*
%TD*%
D29*
%TO.C,R75*%
X143685000Y-136850000D03*
D30*
X136065000Y-136850000D03*
%TD*%
D61*
%TO.C,Y1*%
X206210000Y-182800000D03*
X206210000Y-185700000D03*
X203910000Y-185700000D03*
X203910000Y-182800000D03*
%TD*%
D29*
%TO.C,C9*%
X258500000Y-133500000D03*
X253500000Y-133500000D03*
%TD*%
D32*
%TO.C,U8*%
X194475000Y-152040000D03*
X194475000Y-153310000D03*
X194475000Y-154580000D03*
X194475000Y-155850000D03*
X194475000Y-157120000D03*
X194475000Y-158390000D03*
X194475000Y-159660000D03*
X189525000Y-159660000D03*
X189525000Y-158390000D03*
X189525000Y-157120000D03*
X189525000Y-155850000D03*
X189525000Y-154580000D03*
X189525000Y-153310000D03*
X189525000Y-152040000D03*
%TD*%
D62*
%TO.C,U7*%
X160250000Y-146055000D03*
X160250000Y-147325000D03*
X160250000Y-148595000D03*
X160250000Y-149865000D03*
X160250000Y-151135000D03*
X160250000Y-152405000D03*
X160250000Y-153675000D03*
X160250000Y-154945000D03*
X155250000Y-154945000D03*
X155250000Y-153675000D03*
X155250000Y-152405000D03*
X155250000Y-151135000D03*
X155250000Y-149865000D03*
X155250000Y-148595000D03*
X155250000Y-147325000D03*
X155250000Y-146055000D03*
%TD*%
D31*
%TO.C,D4*%
X141275000Y-82450000D03*
D12*
X138735000Y-82450000D03*
%TD*%
D36*
%TO.C,Q10*%
X155860000Y-101000000D03*
D37*
X155860000Y-102270000D03*
X155860000Y-103540000D03*
%TD*%
D63*
%TO.C,Q201*%
X277812500Y-83450000D03*
X277812500Y-81550000D03*
X279687500Y-82500000D03*
%TD*%
D29*
%TO.C,R40*%
X221000000Y-124790000D03*
D30*
X221000000Y-132410000D03*
%TD*%
D29*
%TO.C,C6*%
X273500000Y-136000000D03*
X273500000Y-131000000D03*
%TD*%
D22*
%TO.C,J201*%
X293250000Y-191750000D03*
D23*
X295790000Y-191750000D03*
%TD*%
D64*
%TO.C,C48*%
X208310000Y-183562500D03*
X208310000Y-181837500D03*
%TD*%
D29*
%TO.C,C40*%
X114750000Y-142250000D03*
X114750000Y-137250000D03*
%TD*%
D53*
%TO.C,C51*%
X237200000Y-188147349D03*
D29*
X237200000Y-191647349D03*
%TD*%
%TO.C,R92*%
X158940000Y-162500000D03*
D30*
X166560000Y-162500000D03*
%TD*%
D36*
%TO.C,Q7*%
X190240000Y-104875000D03*
D37*
X190240000Y-103605000D03*
X190240000Y-102335000D03*
%TD*%
D29*
%TO.C,R66*%
X237000000Y-101560000D03*
D30*
X237000000Y-93940000D03*
%TD*%
D22*
%TO.C,J14*%
X138600000Y-140800000D03*
D23*
X141140000Y-140800000D03*
%TD*%
D29*
%TO.C,R53*%
X120200000Y-92090000D03*
D30*
X120200000Y-99710000D03*
%TD*%
D29*
%TO.C,R6*%
X177060000Y-76500000D03*
D30*
X169440000Y-76500000D03*
%TD*%
D29*
%TO.C,R23*%
X189000000Y-91915000D03*
D30*
X189000000Y-99535000D03*
%TD*%
D29*
%TO.C,C30*%
X152000000Y-138500000D03*
X152000000Y-133500000D03*
%TD*%
%TO.C,C21*%
X262500000Y-138000000D03*
X267500000Y-138000000D03*
%TD*%
%TO.C,R13*%
X267440000Y-97500000D03*
D30*
X275060000Y-97500000D03*
%TD*%
D22*
%TO.C,J301*%
X230775000Y-180000000D03*
D23*
X228235000Y-180000000D03*
%TD*%
D29*
%TO.C,R121*%
X192500000Y-220810000D03*
D30*
X192500000Y-213190000D03*
%TD*%
D29*
%TO.C,R102*%
X176500000Y-201000000D03*
D30*
X168880000Y-201000000D03*
%TD*%
D31*
%TO.C,D6*%
X211275000Y-112500000D03*
D12*
X208735000Y-112500000D03*
%TD*%
D29*
%TO.C,C42*%
X179500000Y-209750000D03*
X184500000Y-209750000D03*
%TD*%
D31*
%TO.C,D9*%
X176275000Y-112500000D03*
D12*
X173735000Y-112500000D03*
%TD*%
D29*
%TO.C,R24*%
X195000000Y-102690000D03*
D30*
X195000000Y-110310000D03*
%TD*%
D29*
%TO.C,R206*%
X241190000Y-71450000D03*
D30*
X248810000Y-71450000D03*
%TD*%
D29*
%TO.C,R704*%
X126800000Y-151390000D03*
D30*
X126800000Y-159010000D03*
%TD*%
D29*
%TO.C,R63*%
X232500000Y-132505000D03*
D30*
X232500000Y-124885000D03*
%TD*%
D29*
%TO.C,C16*%
X85500000Y-111950000D03*
X85500000Y-114450000D03*
%TD*%
%TO.C,C209*%
X242500000Y-76200000D03*
X247500000Y-76200000D03*
%TD*%
%TO.C,C34*%
X277250000Y-164500000D03*
X277250000Y-159500000D03*
%TD*%
%TO.C,R88*%
X152000000Y-158810000D03*
D30*
X152000000Y-151190000D03*
%TD*%
D22*
%TO.C,J7*%
X193525000Y-78750000D03*
D23*
X190985000Y-78750000D03*
%TD*%
D29*
%TO.C,R93*%
X285810000Y-154600000D03*
D30*
X278190000Y-154600000D03*
%TD*%
D29*
%TO.C,R77*%
X152000000Y-141190000D03*
D30*
X152000000Y-148810000D03*
%TD*%
D29*
%TO.C,R126*%
X125000000Y-220810000D03*
D30*
X125000000Y-213190000D03*
%TD*%
D36*
%TO.C,Q501*%
X190240000Y-110520000D03*
D37*
X190240000Y-109250000D03*
X190240000Y-107980000D03*
%TD*%
D64*
%TO.C,C32*%
X221810000Y-173262500D03*
X221810000Y-171537500D03*
%TD*%
D29*
%TO.C,TH1*%
X117990000Y-108700000D03*
D30*
X125610000Y-108700000D03*
%TD*%
D29*
%TO.C,R111*%
X229800000Y-190390000D03*
D30*
X229800000Y-198010000D03*
%TD*%
D29*
%TO.C,R82*%
X256000000Y-176190000D03*
D30*
X256000000Y-183810000D03*
%TD*%
D29*
%TO.C,R128*%
X107500000Y-213190000D03*
D30*
X107500000Y-220810000D03*
%TD*%
D29*
%TO.C,C14*%
X89200000Y-119600000D03*
X94200000Y-119600000D03*
%TD*%
%TO.C,C28*%
X155250000Y-143500000D03*
X160250000Y-143500000D03*
%TD*%
%TO.C,C27*%
X163500000Y-133500000D03*
X163500000Y-138500000D03*
%TD*%
D64*
%TO.C,C33*%
X223400000Y-173262500D03*
X223400000Y-171537500D03*
%TD*%
D22*
%TO.C,J18*%
X246000000Y-133750000D03*
D23*
X243460000Y-133750000D03*
%TD*%
D29*
%TO.C,R98*%
X233500000Y-203690000D03*
D30*
X233500000Y-211310000D03*
%TD*%
D29*
%TO.C,R44*%
X163500000Y-130810000D03*
D30*
X163500000Y-123190000D03*
%TD*%
D31*
%TO.C,D3*%
X176275000Y-82500000D03*
D12*
X173735000Y-82500000D03*
%TD*%
D29*
%TO.C,R5*%
X204440000Y-76500000D03*
D30*
X212060000Y-76500000D03*
%TD*%
D29*
%TO.C,R7*%
X190630000Y-81940000D03*
D30*
X190630000Y-89560000D03*
%TD*%
D29*
%TO.C,R207*%
X251190000Y-71450000D03*
D30*
X258810000Y-71450000D03*
%TD*%
D29*
%TO.C,R70*%
X171190000Y-142200000D03*
D30*
X178810000Y-142200000D03*
%TD*%
D29*
%TO.C,R35*%
X241440000Y-106000000D03*
D30*
X249060000Y-106000000D03*
%TD*%
D53*
%TO.C,C8*%
X256750000Y-126500000D03*
D29*
X253250000Y-126500000D03*
%TD*%
%TO.C,R10*%
X93310000Y-86250000D03*
D30*
X85690000Y-86250000D03*
%TD*%
D29*
%TO.C,R83*%
X186810000Y-167500000D03*
D30*
X179190000Y-167500000D03*
%TD*%
D29*
%TO.C,R31*%
X123200000Y-92090000D03*
D30*
X123200000Y-99710000D03*
%TD*%
D65*
%TO.C,FB1*%
X281212500Y-165000000D03*
X282787500Y-165000000D03*
%TD*%
D29*
%TO.C,R25*%
X161250000Y-85440000D03*
D30*
X161250000Y-93060000D03*
%TD*%
D29*
%TO.C,R59*%
X250940000Y-136750000D03*
D30*
X258560000Y-136750000D03*
%TD*%
D66*
%TO.C,D201*%
X274000000Y-80850000D03*
X274000000Y-84150000D03*
%TD*%
D33*
%TO.C,Q4*%
X259980000Y-101140000D03*
D34*
X261250000Y-101140000D03*
X262520000Y-101140000D03*
%TD*%
D29*
%TO.C,C37*%
X207810000Y-165250000D03*
X202810000Y-165250000D03*
%TD*%
D59*
%TO.C,C46*%
X211200000Y-187937500D03*
X211200000Y-189662500D03*
%TD*%
D32*
%TO.C,U1*%
X233075000Y-97965000D03*
X233075000Y-99235000D03*
X233075000Y-100505000D03*
X233075000Y-101775000D03*
X233075000Y-103045000D03*
X233075000Y-104315000D03*
X233075000Y-105585000D03*
X228125000Y-105585000D03*
X228125000Y-104315000D03*
X228125000Y-103045000D03*
X228125000Y-101775000D03*
X228125000Y-100505000D03*
X228125000Y-99235000D03*
X228125000Y-97965000D03*
%TD*%
D29*
%TO.C,C23*%
X200000000Y-135700000D03*
X200000000Y-140700000D03*
%TD*%
%TO.C,R76*%
X149000000Y-148810000D03*
D30*
X149000000Y-141190000D03*
%TD*%
D29*
%TO.C,C35*%
X286750000Y-164500000D03*
X286750000Y-159500000D03*
%TD*%
D57*
%TO.C,C205*%
X298100000Y-199500000D03*
X300175000Y-199500000D03*
%TD*%
D54*
%TO.C,R204*%
X292600000Y-199587500D03*
X292600000Y-201412500D03*
%TD*%
D29*
%TO.C,R85*%
X186810000Y-164500000D03*
D30*
X179190000Y-164500000D03*
%TD*%
D29*
%TO.C,R119*%
X197500000Y-213190000D03*
D30*
X197500000Y-220810000D03*
%TD*%
D29*
%TO.C,R703*%
X123600000Y-159010000D03*
D30*
X123600000Y-151390000D03*
%TD*%
D29*
%TO.C,R79*%
X266310000Y-173500000D03*
D30*
X258690000Y-173500000D03*
%TD*%
D53*
%TO.C,D7*%
X195400000Y-99560000D03*
D30*
X195400000Y-91940000D03*
%TD*%
D29*
%TO.C,C25*%
X194500000Y-149600000D03*
X189500000Y-149600000D03*
%TD*%
%TO.C,R48*%
X161810000Y-107000000D03*
D30*
X154190000Y-107000000D03*
%TD*%
D29*
%TO.C,R38*%
X226410000Y-86560000D03*
D30*
X226410000Y-78940000D03*
%TD*%
D36*
%TO.C,Q16*%
X212140000Y-137770000D03*
D37*
X212140000Y-136500000D03*
X212140000Y-135230000D03*
%TD*%
D29*
%TO.C,R26*%
X154750000Y-85440000D03*
D30*
X154750000Y-93060000D03*
%TD*%
D29*
%TO.C,C5*%
X105300000Y-104400000D03*
X100300000Y-104400000D03*
%TD*%
D57*
%TO.C,C207*%
X298100000Y-195500000D03*
X300175000Y-195500000D03*
%TD*%
D29*
%TO.C,R110*%
X108810000Y-201000000D03*
D30*
X101190000Y-201000000D03*
%TD*%
D29*
%TO.C,R99*%
X243810000Y-201000000D03*
D30*
X236190000Y-201000000D03*
%TD*%
D29*
%TO.C,R54*%
X98400000Y-118190000D03*
D30*
X98400000Y-125810000D03*
%TD*%
D29*
%TO.C,R84*%
X179190000Y-158500000D03*
D30*
X186810000Y-158500000D03*
%TD*%
D29*
%TO.C,R47*%
X152000000Y-123190000D03*
D30*
X152000000Y-130810000D03*
%TD*%
D29*
%TO.C,R97*%
X286410000Y-202200000D03*
D30*
X278790000Y-202200000D03*
%TD*%
D29*
%TO.C,R45*%
X192200000Y-91915000D03*
D30*
X192200000Y-99535000D03*
%TD*%
D29*
%TO.C,R112*%
X226800000Y-190390000D03*
D30*
X226800000Y-198010000D03*
%TD*%
D53*
%TO.C,C501*%
X189047349Y-132300000D03*
D29*
X192547349Y-132300000D03*
%TD*%
%TO.C,R27*%
X177060000Y-73250000D03*
D30*
X169440000Y-73250000D03*
%TD*%
D64*
%TO.C,C203*%
X300350000Y-207362500D03*
X300350000Y-205637500D03*
%TD*%
D29*
%TO.C,R60*%
X226400000Y-111790000D03*
D30*
X226400000Y-119410000D03*
%TD*%
D22*
%TO.C,J17*%
X193275000Y-166900000D03*
D23*
X190735000Y-166900000D03*
%TD*%
D29*
%TO.C,C13*%
X155250000Y-114250000D03*
X155250000Y-111750000D03*
%TD*%
D22*
%TO.C,J15*%
X118000000Y-127100000D03*
D23*
X118000000Y-124560000D03*
%TD*%
D29*
%TO.C,R71*%
X166500000Y-148810000D03*
D30*
X166500000Y-141190000D03*
%TD*%
D29*
%TO.C,R39*%
X235500000Y-124885000D03*
D30*
X235500000Y-132505000D03*
%TD*%
D29*
%TO.C,R701*%
X117200000Y-151390000D03*
D30*
X117200000Y-159010000D03*
%TD*%
D29*
%TO.C,R116*%
X220000000Y-213190000D03*
D30*
X220000000Y-220810000D03*
%TD*%
D29*
%TO.C,R115*%
X237500000Y-220810000D03*
D30*
X237500000Y-213190000D03*
%TD*%
D29*
%TO.C,R109*%
X98500000Y-203690000D03*
D30*
X98500000Y-211310000D03*
%TD*%
D29*
%TO.C,R94*%
X256000000Y-203690000D03*
D30*
X256000000Y-211310000D03*
%TD*%
D29*
%TO.C,R8*%
X93310000Y-89500000D03*
D30*
X85690000Y-89500000D03*
%TD*%
D29*
%TO.C,C15*%
X94200000Y-103500000D03*
X89200000Y-103500000D03*
%TD*%
%TO.C,C12*%
X160250000Y-124500000D03*
X155250000Y-124500000D03*
%TD*%
%TO.C,C24*%
X124525000Y-145900000D03*
X119525000Y-145900000D03*
%TD*%
D36*
%TO.C,Q1*%
X215390000Y-76020000D03*
D37*
X215390000Y-74750000D03*
X215390000Y-73480000D03*
%TD*%
D17*
%TO.C,SW6*%
X278500000Y-71832500D03*
X278500000Y-77832500D03*
X266500000Y-77832500D03*
X266500000Y-71832500D03*
D56*
X268500000Y-76082500D03*
X272500000Y-76082500D03*
X276500000Y-76082500D03*
%TD*%
D53*
%TO.C,D11*%
X170940000Y-104000000D03*
D30*
X178560000Y-104000000D03*
%TD*%
D32*
%TO.C,U6*%
X160225000Y-127190000D03*
X160225000Y-128460000D03*
X160225000Y-129730000D03*
X160225000Y-131000000D03*
X160225000Y-132270000D03*
X160225000Y-133540000D03*
X160225000Y-134810000D03*
X155275000Y-134810000D03*
X155275000Y-133540000D03*
X155275000Y-132270000D03*
X155275000Y-131000000D03*
X155275000Y-129730000D03*
X155275000Y-128460000D03*
X155275000Y-127190000D03*
%TD*%
D53*
%TO.C,C31*%
X284000000Y-190347349D03*
D29*
X284000000Y-193847349D03*
%TD*%
%TO.C,C19*%
X274750000Y-140250000D03*
X272250000Y-140250000D03*
%TD*%
%TO.C,C3*%
X233100000Y-95275000D03*
X228100000Y-95275000D03*
%TD*%
D36*
%TO.C,Q2*%
X180250000Y-76000000D03*
D37*
X180250000Y-74730000D03*
X180250000Y-73460000D03*
%TD*%
D67*
%TO.C,U9*%
X212885000Y-185500000D03*
X212885000Y-185000000D03*
X212885000Y-184500000D03*
X212885000Y-184000000D03*
X212885000Y-183500000D03*
X212885000Y-183000000D03*
X212885000Y-182500000D03*
X212885000Y-182000000D03*
X212885000Y-181500000D03*
X212885000Y-181000000D03*
X212885000Y-180500000D03*
X212885000Y-180000000D03*
X212885000Y-179500000D03*
X212885000Y-179000000D03*
X212885000Y-178500000D03*
X212885000Y-178000000D03*
D68*
X214810000Y-176075000D03*
X215310000Y-176075000D03*
X215810000Y-176075000D03*
X216310000Y-176075000D03*
X216810000Y-176075000D03*
X217310000Y-176075000D03*
X217810000Y-176075000D03*
X218310000Y-176075000D03*
X218810000Y-176075000D03*
X219310000Y-176075000D03*
X219810000Y-176075000D03*
X220310000Y-176075000D03*
X220810000Y-176075000D03*
X221310000Y-176075000D03*
X221810000Y-176075000D03*
X222310000Y-176075000D03*
D67*
X224235000Y-178000000D03*
X224235000Y-178500000D03*
X224235000Y-179000000D03*
X224235000Y-179500000D03*
X224235000Y-180000000D03*
X224235000Y-180500000D03*
X224235000Y-181000000D03*
X224235000Y-181500000D03*
X224235000Y-182000000D03*
X224235000Y-182500000D03*
X224235000Y-183000000D03*
X224235000Y-183500000D03*
X224235000Y-184000000D03*
X224235000Y-184500000D03*
X224235000Y-185000000D03*
X224235000Y-185500000D03*
D68*
X222310000Y-187425000D03*
X221810000Y-187425000D03*
X221310000Y-187425000D03*
X220810000Y-187425000D03*
X220310000Y-187425000D03*
X219810000Y-187425000D03*
X219310000Y-187425000D03*
X218810000Y-187425000D03*
X218310000Y-187425000D03*
X217810000Y-187425000D03*
X217310000Y-187425000D03*
X216810000Y-187425000D03*
X216310000Y-187425000D03*
X215810000Y-187425000D03*
X215310000Y-187425000D03*
X214810000Y-187425000D03*
%TD*%
D29*
%TO.C,R72*%
X193770000Y-89560000D03*
D30*
X193770000Y-81940000D03*
%TD*%
D22*
%TO.C,J202*%
X239000000Y-74925000D03*
D23*
X239000000Y-77465000D03*
%TD*%
D29*
%TO.C,R117*%
X242500000Y-213190000D03*
D30*
X242500000Y-220810000D03*
%TD*%
D29*
%TO.C,R120*%
X175000000Y-213190000D03*
D30*
X175000000Y-220810000D03*
%TD*%
D69*
%TO.C,D5*%
X107040000Y-82450000D03*
D70*
X105770000Y-82450000D03*
X104500000Y-82450000D03*
X103230000Y-82450000D03*
%TD*%
D71*
%TO.C,U5*%
X292950000Y-182100000D03*
X295250000Y-182100000D03*
D72*
X295250000Y-188400000D03*
D71*
X297550000Y-182100000D03*
%TD*%
D29*
%TO.C,R49*%
X152000000Y-120810000D03*
D30*
X152000000Y-113190000D03*
%TD*%
D29*
%TO.C,R104*%
X166000000Y-203690000D03*
D30*
X166000000Y-211310000D03*
%TD*%
D59*
%TO.C,C204*%
X300350000Y-201637500D03*
X300350000Y-203362500D03*
%TD*%
D22*
%TO.C,J6*%
X216925000Y-81000000D03*
D23*
X219465000Y-81000000D03*
%TD*%
D31*
%TO.C,D2*%
X211275000Y-82500000D03*
D12*
X208735000Y-82500000D03*
%TD*%
D29*
%TO.C,R74*%
X163500000Y-141190000D03*
D30*
X163500000Y-148810000D03*
%TD*%
D29*
%TO.C,R114*%
X265000000Y-213190000D03*
D30*
X265000000Y-220810000D03*
%TD*%
D29*
%TO.C,R55*%
X118500000Y-121385000D03*
D30*
X118500000Y-113765000D03*
%TD*%
D53*
%TO.C,U2*%
X269050000Y-125700000D03*
D30*
X269050000Y-128240000D03*
X269050000Y-130780000D03*
X269050000Y-133320000D03*
X261430000Y-133320000D03*
X261430000Y-130780000D03*
X261430000Y-128240000D03*
X261430000Y-125700000D03*
%TD*%
D36*
%TO.C,Q14*%
X98360000Y-107980000D03*
D37*
X98360000Y-109250000D03*
X98360000Y-110520000D03*
%TD*%
D22*
%TO.C,J9*%
X160000000Y-79705000D03*
D23*
X160000000Y-82245000D03*
%TD*%
D29*
%TO.C,R4*%
X212060000Y-73250000D03*
D30*
X204440000Y-73250000D03*
%TD*%
D29*
%TO.C,R78*%
X94900000Y-137560000D03*
D30*
X94900000Y-129940000D03*
%TD*%
D59*
%TO.C,C47*%
X213800000Y-189737500D03*
X213800000Y-191462500D03*
%TD*%
D29*
%TO.C,R50*%
X121750000Y-121385000D03*
D30*
X121750000Y-113765000D03*
%TD*%
D36*
%TO.C,Q15*%
X207860000Y-135230000D03*
D37*
X207860000Y-136500000D03*
X207860000Y-137770000D03*
%TD*%
D29*
%TO.C,R67*%
X232400000Y-111790000D03*
D30*
X232400000Y-119410000D03*
%TD*%
D73*
%TO.C,R205*%
X294100000Y-201412500D03*
X294100000Y-199587500D03*
%TD*%
D29*
%TO.C,R96*%
X221310000Y-201000000D03*
D30*
X213690000Y-201000000D03*
%TD*%
D29*
%TO.C,R108*%
X121000000Y-203690000D03*
D30*
X121000000Y-211310000D03*
%TD*%
D29*
%TO.C,R90*%
X156560000Y-162500000D03*
D30*
X148940000Y-162500000D03*
%TD*%
D29*
%TO.C,R43*%
X189000000Y-118990000D03*
D30*
X189000000Y-126610000D03*
%TD*%
D74*
X289750000Y-161000000D03*
X199500000Y-85500000D03*
X192250000Y-85500000D03*
X186250000Y-85500000D03*
X87235000Y-155015000D03*
X262500000Y-156750000D03*
X289500000Y-85750000D03*
X185250000Y-113750000D03*
X185250000Y-124500000D03*
X96000000Y-95250000D03*
X194500000Y-139250000D03*
X301500000Y-161000000D03*
X185250000Y-139250000D03*
X186250000Y-73500000D03*
X149000000Y-71250000D03*
X129250000Y-144250000D03*
X199500000Y-76500000D03*
X225250000Y-97000000D03*
X95750000Y-111250000D03*
X115750000Y-131750000D03*
X247500000Y-163000000D03*
X121250000Y-146000000D03*
X135500000Y-174750000D03*
X192500000Y-142250000D03*
X228000000Y-128250000D03*
X158000000Y-102250000D03*
X133750000Y-99250000D03*
X134500000Y-142750000D03*
X156950500Y-136500000D03*
X190500000Y-177000000D03*
X123000000Y-178500000D03*
X133500000Y-184500000D03*
X276000000Y-87000000D03*
X139500000Y-94500000D03*
X100166684Y-138106654D03*
X167493384Y-197062906D03*
X158056858Y-90476501D03*
X249578255Y-138935192D03*
X93907983Y-158960082D03*
X220128929Y-215786610D03*
X265500000Y-126000000D03*
X241544186Y-139837176D03*
X132000000Y-135000000D03*
X92112984Y-143663872D03*
X160062386Y-221287308D03*
X199674822Y-108558274D03*
X171000000Y-190500000D03*
X88500000Y-187500000D03*
X276000000Y-144000000D03*
X261000000Y-154500000D03*
X249000000Y-130500000D03*
X237000000Y-78000000D03*
X298500000Y-126000000D03*
X209959534Y-222885998D03*
X97243175Y-87078516D03*
X108000000Y-147000000D03*
X118500000Y-78000000D03*
X246049205Y-163999139D03*
X181500000Y-177000000D03*
X162000000Y-178500000D03*
X194444557Y-114759873D03*
X148500000Y-183000000D03*
X206750000Y-179060000D03*
X211500000Y-163500000D03*
X250500000Y-150000000D03*
X235471661Y-141775215D03*
X304500000Y-79500000D03*
X92346037Y-97454529D03*
D75*
X300300000Y-204500000D03*
D74*
X261000000Y-108000000D03*
X87750000Y-110250000D03*
X103500000Y-225000000D03*
X101489185Y-117404391D03*
X256500000Y-109500000D03*
X289500000Y-202500000D03*
X238500000Y-207000000D03*
X277500000Y-124500000D03*
X92401782Y-103383744D03*
X220500000Y-90000000D03*
X306000000Y-127500000D03*
X300100000Y-174300000D03*
X152527721Y-76354786D03*
X240000000Y-109500000D03*
X129000000Y-207000000D03*
X254950000Y-191820000D03*
X80879484Y-180013421D03*
X109500000Y-184500000D03*
X253500000Y-118500000D03*
X219000000Y-160500000D03*
X111000000Y-82500000D03*
X286500000Y-114000000D03*
X222000000Y-81000000D03*
X167325807Y-111906099D03*
X267878150Y-167036588D03*
X80879484Y-126013421D03*
X249609759Y-167036588D03*
X94500000Y-94500000D03*
X151500000Y-145500000D03*
X306018656Y-218898149D03*
X99975571Y-195396741D03*
X283500000Y-118500000D03*
X178500000Y-184500000D03*
X300000000Y-156000000D03*
X205500000Y-84000000D03*
X183000000Y-126000000D03*
X273000000Y-108049315D03*
X289500000Y-112500000D03*
X231890000Y-221770000D03*
X150000000Y-190500000D03*
X288000000Y-207000000D03*
X168000000Y-93000000D03*
X298381484Y-150490254D03*
X222000000Y-84000000D03*
X187961908Y-128474219D03*
X162000000Y-183000000D03*
X262500000Y-72000000D03*
X232500000Y-115500000D03*
X96000000Y-102000000D03*
X290679469Y-156842816D03*
X120000000Y-225000000D03*
X157500000Y-174000000D03*
X164092457Y-100534237D03*
X228000000Y-171000000D03*
X165000000Y-225000000D03*
X151500000Y-207000000D03*
X249910000Y-215970000D03*
X198000000Y-130500000D03*
X285000000Y-84000000D03*
X202862099Y-116845191D03*
X240444614Y-167100320D03*
X304500000Y-118500000D03*
X277500000Y-118500000D03*
X270000000Y-108000000D03*
X294772713Y-149788549D03*
X253500000Y-70500000D03*
X216000000Y-94500000D03*
X219000000Y-103500000D03*
X258000000Y-157500000D03*
X181500000Y-183000000D03*
X146923866Y-105569551D03*
X169500000Y-187500000D03*
X221663931Y-222732498D03*
X106827277Y-127820402D03*
X202500000Y-123000000D03*
X159000000Y-190500000D03*
X171000000Y-177000000D03*
X133500000Y-208500000D03*
X80879484Y-144013421D03*
X178500000Y-196500000D03*
X255000000Y-157500000D03*
X80879484Y-165013421D03*
X112500000Y-81000000D03*
X233854742Y-163999139D03*
X273000000Y-94500000D03*
X283500000Y-111000000D03*
X124500000Y-84000000D03*
X204000000Y-94500000D03*
X222247799Y-133578845D03*
X130500000Y-84000000D03*
X199450668Y-104000471D03*
X130485890Y-92045580D03*
X201000000Y-172500000D03*
X216350000Y-181210000D03*
X233774188Y-167072055D03*
X133922922Y-94212404D03*
X96690461Y-160262518D03*
X221630000Y-179950000D03*
D76*
X285000000Y-96000000D03*
D74*
X260024449Y-167036588D03*
X219000000Y-207000000D03*
X183000000Y-123000000D03*
X307721393Y-162536516D03*
X96000000Y-93000000D03*
X181500000Y-189000000D03*
X136500000Y-184500000D03*
X261000000Y-163500000D03*
X211880000Y-215370000D03*
X93000000Y-207000000D03*
X277500000Y-97500000D03*
X286728644Y-162392066D03*
X233217656Y-74637449D03*
X300453185Y-148418553D03*
X80879484Y-105013421D03*
X92566806Y-134649319D03*
X142500000Y-153000000D03*
X180000000Y-85500000D03*
X109500000Y-84000000D03*
X219000000Y-124500000D03*
X142500000Y-147000000D03*
X288557608Y-149788549D03*
X118000000Y-139500000D03*
X295500000Y-69000000D03*
X188303901Y-140647687D03*
X192000000Y-123000000D03*
X183073422Y-164573526D03*
X252000000Y-139500000D03*
D76*
X297050000Y-204500000D03*
D74*
X80879484Y-159013421D03*
X80879484Y-123013421D03*
X276445001Y-167029666D03*
X265500000Y-129000000D03*
X154500000Y-187500000D03*
X258000000Y-81000000D03*
X292292892Y-193745940D03*
X244500000Y-78000000D03*
X283500000Y-156000000D03*
X181500000Y-148500000D03*
X234000000Y-135000000D03*
X89655378Y-97395393D03*
X182570401Y-168044365D03*
X247500000Y-156000000D03*
X181500000Y-109500000D03*
X240000000Y-112500000D03*
X222000000Y-130500000D03*
X205500000Y-163500000D03*
X94500000Y-177000000D03*
X259500000Y-148500000D03*
X237000000Y-87000000D03*
X306000000Y-112500000D03*
X212790000Y-186650000D03*
X118500000Y-165000000D03*
X282000000Y-87000000D03*
X250500000Y-127500000D03*
X150000000Y-225000000D03*
X87000000Y-97500000D03*
X220500000Y-105000000D03*
X244035238Y-162295012D03*
X80879484Y-177013421D03*
X101807635Y-127446599D03*
X115500000Y-187500000D03*
X261000000Y-153000000D03*
D76*
X215057273Y-174771580D03*
D74*
X270000000Y-73500000D03*
X135000000Y-126000000D03*
X231557556Y-73463232D03*
X115500000Y-201000000D03*
X257230000Y-190950000D03*
X282000000Y-157500000D03*
X228194523Y-214965859D03*
X213566791Y-222847623D03*
X145500000Y-186000000D03*
X295535063Y-157204723D03*
X85500000Y-166500000D03*
X288505105Y-164910999D03*
X271500000Y-195000000D03*
X291153438Y-166866692D03*
X277500000Y-105000000D03*
X295500000Y-93000000D03*
X281979549Y-134903204D03*
X238500000Y-132000000D03*
X148500000Y-145500000D03*
X279000000Y-153000000D03*
X184500000Y-177000000D03*
X213000000Y-171000000D03*
X277500000Y-115500000D03*
X114000000Y-118500000D03*
X291000000Y-127500000D03*
X144000000Y-189000000D03*
X144000000Y-162000000D03*
X259500000Y-156000000D03*
X285000000Y-220500000D03*
X138000000Y-189000000D03*
X298500000Y-145500000D03*
X192000000Y-150000000D03*
X246000000Y-75000000D03*
X87000000Y-201000000D03*
X243000000Y-157500000D03*
X186470000Y-223980000D03*
X292457233Y-169555769D03*
X84469184Y-125469986D03*
X255000000Y-111000000D03*
X267000000Y-108000000D03*
X237000000Y-160500000D03*
X91500000Y-127500000D03*
X249000000Y-160500000D03*
X80879484Y-147013421D03*
X285000000Y-103500000D03*
X119913952Y-217824022D03*
X174000000Y-207000000D03*
X129000000Y-70500000D03*
X167350777Y-107661182D03*
X202500000Y-163500000D03*
X114000000Y-181500000D03*
X252000000Y-163500000D03*
X236986698Y-92268425D03*
X264000000Y-153000000D03*
X223244770Y-209492014D03*
X192000000Y-147000000D03*
X286500000Y-153000000D03*
X204157906Y-105718987D03*
X162000000Y-190500000D03*
X103500000Y-175500000D03*
X128187783Y-136969122D03*
X163500000Y-144000000D03*
X80879484Y-129013421D03*
X174145252Y-76745151D03*
X255000000Y-85500000D03*
X168000000Y-123000000D03*
X98746010Y-120700343D03*
X225363109Y-122587948D03*
X295675969Y-224787223D03*
X234059430Y-79160398D03*
X222000000Y-109500000D03*
X273000000Y-204000000D03*
X108000000Y-85500000D03*
X280500000Y-220500000D03*
X87814105Y-125304073D03*
X240000000Y-156000000D03*
X85500000Y-181500000D03*
X85500000Y-169500000D03*
X127500000Y-178500000D03*
X278319206Y-167070410D03*
X220500000Y-87000000D03*
X220500000Y-76500000D03*
X147000000Y-190500000D03*
X246000000Y-70500000D03*
X214750000Y-180000000D03*
X255000000Y-160500000D03*
X274090000Y-224710000D03*
X153000000Y-183000000D03*
X258000000Y-163500000D03*
X186000000Y-193500000D03*
X91500000Y-181500000D03*
X117000000Y-174000000D03*
X80879484Y-111013421D03*
X202500000Y-177000000D03*
X204000000Y-87000000D03*
X293467567Y-217094620D03*
X247500000Y-94500000D03*
X268500000Y-94500000D03*
X141000000Y-214500000D03*
X237000000Y-90000000D03*
X261000000Y-160500000D03*
X172500000Y-225000000D03*
X80759658Y-194667374D03*
X199224442Y-126903746D03*
X169500000Y-150000000D03*
X219924274Y-136176434D03*
X255000000Y-100500000D03*
X270000000Y-145500000D03*
X165403109Y-108160584D03*
X231000000Y-156000000D03*
X283500000Y-78000000D03*
X253500000Y-141000000D03*
X243000000Y-160500000D03*
X84469184Y-130677936D03*
X87000000Y-94500000D03*
X166500000Y-154500000D03*
X240000000Y-153000000D03*
X300330339Y-158501559D03*
X209888490Y-73633262D03*
X276969727Y-109623947D03*
X91500000Y-225000000D03*
X108000000Y-192000000D03*
X253500000Y-112500000D03*
X301500000Y-123000000D03*
X112500000Y-187500000D03*
X94500000Y-195000000D03*
X298309688Y-159707918D03*
X96492010Y-149373344D03*
X289500000Y-153000000D03*
X80879484Y-135013421D03*
X301709316Y-162831225D03*
X85593314Y-200245814D03*
X252000000Y-123000000D03*
X117000000Y-192000000D03*
X289500000Y-159000000D03*
X133500000Y-115500000D03*
X80879484Y-150013421D03*
X166738835Y-102456996D03*
X80879484Y-174013421D03*
X293000000Y-180500000D03*
X229320000Y-202690000D03*
X97500000Y-183000000D03*
X189000000Y-72000000D03*
X160500000Y-187500000D03*
X80879484Y-96013421D03*
X181500000Y-196500000D03*
X201000000Y-169500000D03*
X193500000Y-177000000D03*
X223800000Y-223130000D03*
X201000000Y-82500000D03*
X219000000Y-100500000D03*
X184500000Y-84000000D03*
X307500000Y-195000000D03*
X109500000Y-163500000D03*
X172500000Y-196500000D03*
X96526676Y-151938682D03*
X238500000Y-108000000D03*
X102000000Y-160500000D03*
X163834491Y-196950325D03*
X80879484Y-171013421D03*
X157500000Y-178500000D03*
X133500000Y-214500000D03*
X283500000Y-159000000D03*
X102000000Y-192000000D03*
X135000000Y-189000000D03*
X199226514Y-98770207D03*
X163500000Y-147000000D03*
X103500000Y-187500000D03*
X222000000Y-106500000D03*
X151500000Y-174000000D03*
X196645590Y-83616067D03*
X237000000Y-99000000D03*
X103500000Y-154500000D03*
X118500000Y-183000000D03*
X274500000Y-73500000D03*
X222000000Y-157500000D03*
X292500000Y-154500000D03*
X209772172Y-76483056D03*
X93000000Y-201000000D03*
X103500000Y-184500000D03*
X106500000Y-187500000D03*
X273000000Y-69000000D03*
X261000000Y-94500000D03*
X167637932Y-127980533D03*
X197732152Y-112443613D03*
X85634174Y-95000411D03*
X84469184Y-136026642D03*
X166500000Y-174000000D03*
X172500000Y-187500000D03*
X280500000Y-99000000D03*
X92144370Y-100964071D03*
X237000000Y-103500000D03*
X305770175Y-193434043D03*
X308667407Y-210869439D03*
X219000000Y-97500000D03*
X276000000Y-153000000D03*
X124500000Y-187500000D03*
X178500000Y-96000000D03*
X88977487Y-140982197D03*
X134371230Y-85843981D03*
X297000000Y-102000000D03*
X165000000Y-190500000D03*
X208680366Y-98149227D03*
X291000000Y-144000000D03*
X130500000Y-120000000D03*
X214895065Y-105618013D03*
X240000000Y-115500000D03*
D75*
X296600000Y-211500000D03*
D74*
X140124521Y-106989194D03*
X164034303Y-87263624D03*
X240295012Y-163999139D03*
X93848781Y-162748987D03*
X84347668Y-147833680D03*
X80879484Y-87013421D03*
X80879484Y-189013421D03*
X261000000Y-87000000D03*
X277500000Y-121500000D03*
X252439042Y-167036588D03*
X171000000Y-106500000D03*
X132000000Y-189000000D03*
X88938972Y-122505624D03*
X180000000Y-127500000D03*
X234000000Y-148500000D03*
X226500000Y-159000000D03*
X147594553Y-197435547D03*
X121500000Y-187500000D03*
X282000000Y-153000000D03*
X253500000Y-115500000D03*
X133500000Y-174000000D03*
X163647801Y-194862052D03*
X307500000Y-150000000D03*
X91812000Y-146114670D03*
X248152788Y-137173530D03*
X301500000Y-141000000D03*
X267000000Y-150000000D03*
X105000000Y-163500000D03*
X94481339Y-144901335D03*
X222000000Y-127500000D03*
X298500000Y-132000000D03*
X229500000Y-156000000D03*
X229500000Y-135000000D03*
X115500000Y-171000000D03*
X300019162Y-224566383D03*
X80879484Y-114013421D03*
X283500000Y-207000000D03*
X99371947Y-115401598D03*
X148500000Y-174000000D03*
X237000000Y-153000000D03*
X215025044Y-215824985D03*
X294100000Y-197700000D03*
X181500000Y-186000000D03*
X195415892Y-95856202D03*
X112500000Y-225000000D03*
X161419171Y-90177629D03*
X252000000Y-160500000D03*
X183000000Y-105000000D03*
X237000000Y-115500000D03*
X199500000Y-88500000D03*
X166500000Y-178500000D03*
X100236017Y-142682663D03*
X168965696Y-82332232D03*
X255000000Y-76500000D03*
X298500000Y-138000000D03*
X306000000Y-156000000D03*
X272385163Y-158147380D03*
X268870000Y-222930000D03*
X175500000Y-126000000D03*
X227872945Y-73017839D03*
X85500000Y-175500000D03*
X273837410Y-166988923D03*
X130500000Y-99000000D03*
X97500000Y-201000000D03*
X226970000Y-201770000D03*
X249000000Y-81000000D03*
X250500000Y-144000000D03*
X163500000Y-187500000D03*
X188330674Y-136658506D03*
X93788004Y-155440023D03*
X237218732Y-162295012D03*
X178500000Y-187500000D03*
X85846356Y-105906382D03*
X259500000Y-142500000D03*
X196500000Y-177000000D03*
X201000000Y-174000000D03*
X231000000Y-135000000D03*
X189438447Y-97948308D03*
X272273650Y-161381254D03*
X96000000Y-192000000D03*
X120000000Y-192000000D03*
X237289974Y-124009352D03*
X80879484Y-153013421D03*
X88726661Y-148714676D03*
X224480079Y-115898327D03*
X278265928Y-149721720D03*
X203282271Y-212639854D03*
X264000000Y-159000000D03*
X163500000Y-174000000D03*
X208500000Y-163500000D03*
X267000000Y-87000000D03*
X257030000Y-197290000D03*
X157500000Y-187500000D03*
X130500000Y-190500000D03*
X199500000Y-177000000D03*
X283615873Y-166988923D03*
X243817002Y-167100320D03*
X237141479Y-126218209D03*
X99000000Y-87000000D03*
X225000000Y-135000000D03*
X84516103Y-128191257D03*
X80879484Y-168013421D03*
X207772155Y-214328357D03*
X90000000Y-94500000D03*
X165353169Y-112929873D03*
X246182970Y-167065007D03*
X249859276Y-155864999D03*
X240000000Y-160500000D03*
X258000000Y-130500000D03*
X182017079Y-156374297D03*
X157500000Y-225000000D03*
X181969036Y-179981960D03*
X226500000Y-148500000D03*
X154500000Y-174000000D03*
X174319021Y-73660754D03*
X148500000Y-178500000D03*
X304500000Y-103500000D03*
X96525087Y-222080782D03*
X141000000Y-189000000D03*
X232920000Y-218220000D03*
X186780000Y-218100000D03*
X90000000Y-192000000D03*
X85500000Y-163500000D03*
X281573968Y-149788549D03*
X85500000Y-160500000D03*
X123000000Y-174000000D03*
X208309406Y-220084618D03*
X294000000Y-109500000D03*
X302934043Y-193434043D03*
X97500000Y-163500000D03*
X98745348Y-145525336D03*
X283500000Y-93000000D03*
X277500000Y-127500000D03*
X84451466Y-96981446D03*
X93996005Y-149928012D03*
X237000000Y-96000000D03*
X253500000Y-93000000D03*
X85500000Y-178500000D03*
X123000000Y-76500000D03*
X301200000Y-197500000D03*
X178570000Y-225870000D03*
X255000000Y-136500000D03*
X234000000Y-159000000D03*
X201856267Y-112238483D03*
X97292524Y-219455343D03*
X295961183Y-172285590D03*
X304500000Y-150000000D03*
X237000000Y-148500000D03*
X292142525Y-213671596D03*
X200864642Y-214750483D03*
X124500000Y-165000000D03*
X279509931Y-160176778D03*
X283500000Y-225000000D03*
X217500000Y-156000000D03*
X219000000Y-127500000D03*
X250500000Y-124500000D03*
X102000000Y-87000000D03*
X220500000Y-121500000D03*
X291932477Y-149821963D03*
X80879484Y-102013421D03*
X289500000Y-117000000D03*
X270000000Y-142500000D03*
X264000000Y-108000000D03*
X85500000Y-214500000D03*
X295164497Y-194031262D03*
X295500000Y-99000000D03*
X148500000Y-154500000D03*
X201861144Y-102576217D03*
X225000000Y-156000000D03*
X289500000Y-196500000D03*
X225000000Y-133500000D03*
X306125770Y-97546801D03*
X219010000Y-183570000D03*
X103854652Y-128123005D03*
X132000000Y-180000000D03*
X216330000Y-183600000D03*
X130350042Y-139398326D03*
X105000000Y-192000000D03*
X142500000Y-184500000D03*
X87000000Y-192000000D03*
X80879484Y-120013421D03*
X211630000Y-172600000D03*
X214500000Y-163500000D03*
X139408358Y-220000945D03*
X240053516Y-118172798D03*
X294000000Y-82500000D03*
X177000000Y-223500000D03*
X151500000Y-187500000D03*
X247500000Y-142500000D03*
X292500000Y-162000000D03*
X85500000Y-184500000D03*
X80839542Y-200299177D03*
X93000000Y-213000000D03*
X217130000Y-178280000D03*
X93904848Y-122450752D03*
X240000000Y-148500000D03*
X164034303Y-93988250D03*
X297000000Y-87000000D03*
X215310554Y-186159167D03*
X138000000Y-153000000D03*
X258000000Y-145500000D03*
X234189422Y-76661960D03*
X117616740Y-142815229D03*
X279000000Y-102000000D03*
X255121984Y-167085369D03*
X303000000Y-156000000D03*
X90000000Y-201000000D03*
X140273957Y-104075190D03*
X255000000Y-91500000D03*
X304104707Y-222505207D03*
X225000000Y-168000000D03*
X210909854Y-105645882D03*
X124500000Y-171000000D03*
X215309132Y-177782750D03*
X80879484Y-108013421D03*
X93000000Y-94500000D03*
X250500000Y-153000000D03*
X80879484Y-183013421D03*
X174000000Y-190500000D03*
X226500000Y-156000000D03*
X114000000Y-192000000D03*
X168093169Y-125655462D03*
X240007302Y-162339275D03*
X138212784Y-223045487D03*
X226500000Y-135000000D03*
X127814060Y-139665272D03*
X129655984Y-141640669D03*
X255000000Y-103500000D03*
X265439112Y-166987807D03*
X247500000Y-135000000D03*
X297642322Y-162890167D03*
X298500000Y-154500000D03*
X192000000Y-144000000D03*
X97428012Y-138141321D03*
X295000000Y-203000000D03*
X139500000Y-148500000D03*
X157500000Y-183000000D03*
X256500000Y-133500000D03*
X175500000Y-196500000D03*
X130500000Y-129000000D03*
X99000000Y-192000000D03*
X300000000Y-114000000D03*
X220500000Y-114000000D03*
X277500000Y-225000000D03*
X181500000Y-117000000D03*
X96526676Y-155162689D03*
X97532012Y-143722666D03*
X275228511Y-108036089D03*
X306000000Y-136500000D03*
X84469184Y-138607158D03*
X111000000Y-171000000D03*
X237443013Y-167065007D03*
X166500000Y-187500000D03*
X270000000Y-139500000D03*
X304500000Y-144000000D03*
X280500000Y-114000000D03*
X189064856Y-121484500D03*
X262780561Y-167036588D03*
X84000000Y-207000000D03*
X253500000Y-121500000D03*
X277881393Y-161892338D03*
X203173059Y-126701828D03*
X145500000Y-124500000D03*
X109500000Y-97500000D03*
X207968528Y-105718987D03*
X133500000Y-159000000D03*
X194275319Y-222844779D03*
X234500000Y-103500000D03*
X243371292Y-164021270D03*
X145500000Y-174000000D03*
X236603187Y-121948990D03*
X97215197Y-128568008D03*
X166500000Y-183000000D03*
X255000000Y-94500000D03*
X277500000Y-136500000D03*
D75*
X295900000Y-206100000D03*
D74*
X106500000Y-207000000D03*
X265500000Y-135000000D03*
X166449387Y-98135957D03*
X80879484Y-141013421D03*
X171000000Y-114000000D03*
X192375950Y-80814116D03*
X183000000Y-112500000D03*
X237000000Y-106500000D03*
X289500000Y-199500000D03*
X228000000Y-163500000D03*
X264000000Y-150000000D03*
X295500000Y-153000000D03*
X145578940Y-76354786D03*
X197890902Y-80502788D03*
X301500000Y-132000000D03*
X238500000Y-135000000D03*
X88500000Y-210000000D03*
X129000000Y-174000000D03*
X220500000Y-117000000D03*
X198000000Y-120000000D03*
X115500000Y-210000000D03*
X255000000Y-163500000D03*
X258000000Y-108000000D03*
X84000000Y-192000000D03*
X187500000Y-181500000D03*
X237440047Y-164043402D03*
X307012437Y-214407730D03*
D76*
X251180000Y-224270000D03*
D74*
X293964746Y-166907435D03*
X154137076Y-197358576D03*
X189563970Y-222891580D03*
X226750000Y-101750000D03*
X178500000Y-177000000D03*
X96000000Y-90000000D03*
X187040000Y-215180000D03*
X145500000Y-115500000D03*
X206540000Y-175390000D03*
X288000000Y-204000000D03*
X127500000Y-72000000D03*
X280500000Y-108000000D03*
X133072045Y-199442863D03*
X170139044Y-197175487D03*
X270000000Y-153000000D03*
X235500000Y-135000000D03*
X273000000Y-147000000D03*
X192000000Y-193500000D03*
X142494606Y-217387365D03*
X148500000Y-187500000D03*
X182419495Y-153104665D03*
X89018744Y-143416333D03*
X145080172Y-197384233D03*
X161750000Y-152500000D03*
X152228848Y-87413060D03*
X80879484Y-99013421D03*
X127433648Y-78874094D03*
X201810046Y-107583939D03*
X212108538Y-220084618D03*
X127500000Y-225000000D03*
X225824529Y-141818283D03*
X292500000Y-94500000D03*
X294535157Y-171307744D03*
X198063261Y-222962748D03*
X188467112Y-94436559D03*
X160083471Y-197357252D03*
X80879484Y-138013421D03*
X304833238Y-162713341D03*
X293982861Y-221511425D03*
X127500000Y-183000000D03*
X219040000Y-181160000D03*
X217711299Y-222809248D03*
X168000000Y-130500000D03*
X130500000Y-112500000D03*
X121500000Y-78000000D03*
X187500000Y-81000000D03*
X142500000Y-225000000D03*
X89101257Y-135165026D03*
X222000000Y-78000000D03*
X196500000Y-72000000D03*
X183878254Y-161706311D03*
X231000000Y-121500000D03*
X275022126Y-160301094D03*
X120000000Y-171000000D03*
X160500000Y-174000000D03*
X152079412Y-94137686D03*
X298500000Y-120000000D03*
X303260007Y-152628785D03*
X230902115Y-117664387D03*
X253500000Y-99000000D03*
X114000000Y-79500000D03*
X201000000Y-165000000D03*
X196500000Y-207000000D03*
X241243641Y-124027914D03*
X219000000Y-168000000D03*
X286500000Y-87000000D03*
X277500000Y-130500000D03*
X272600000Y-226640000D03*
X172500000Y-127500000D03*
X86412662Y-101170000D03*
X118500000Y-187500000D03*
X231000000Y-153000000D03*
X132054970Y-76803094D03*
X209400000Y-181750000D03*
X153000000Y-178500000D03*
X220500000Y-159000000D03*
X271500000Y-148500000D03*
X164054724Y-105089262D03*
X85500000Y-187500000D03*
X265500000Y-123000000D03*
X221390000Y-183600000D03*
X80879484Y-117013421D03*
X252000000Y-157500000D03*
X291000000Y-195000000D03*
X305245832Y-159471535D03*
X193977065Y-84016346D03*
X222000000Y-168000000D03*
X84410880Y-144325392D03*
X219000000Y-91500000D03*
X210000000Y-174000000D03*
X288301387Y-167029666D03*
X223500000Y-73500000D03*
X118500000Y-178500000D03*
X101522833Y-122711760D03*
X237000000Y-156000000D03*
X228038957Y-115577225D03*
X285612309Y-166988923D03*
X172500000Y-96000000D03*
X274500000Y-145500000D03*
X286500000Y-108000000D03*
X256500000Y-72000000D03*
X291000000Y-90000000D03*
X186000000Y-196500000D03*
X237000000Y-112500000D03*
X168000000Y-117000000D03*
X228078058Y-205241050D03*
X169500000Y-139500000D03*
X257439069Y-167036588D03*
X103500000Y-145500000D03*
X265500000Y-132000000D03*
X135112634Y-220042651D03*
X175500000Y-108000000D03*
X304500000Y-94500000D03*
X219000000Y-154500000D03*
X246000000Y-157500000D03*
X281456463Y-166988923D03*
X85500000Y-154500000D03*
X84363910Y-151778668D03*
X86307252Y-146790675D03*
X108000000Y-153000000D03*
X95907661Y-125304073D03*
X255000000Y-97500000D03*
X234000000Y-156000000D03*
X187500000Y-177000000D03*
X289500000Y-84000000D03*
X80879484Y-90013421D03*
X219000000Y-94500000D03*
X80879484Y-93013421D03*
X85500000Y-172500000D03*
X289013954Y-213009075D03*
X156911881Y-221689500D03*
X280500000Y-216000000D03*
X168000000Y-190500000D03*
X139500000Y-163500000D03*
X223500000Y-156000000D03*
X127500000Y-187500000D03*
X241500000Y-94500000D03*
X223361235Y-214325302D03*
X281979549Y-143171461D03*
X85500000Y-157500000D03*
X228078058Y-210307268D03*
X97500000Y-171000000D03*
X244500000Y-142500000D03*
X288000000Y-210000000D03*
X80879484Y-156013421D03*
X151033359Y-82406950D03*
X291000000Y-135000000D03*
X256500000Y-144000000D03*
X292500000Y-105000000D03*
X163500000Y-154500000D03*
X80879484Y-162013421D03*
X80879484Y-186013421D03*
X256500000Y-139500000D03*
X181344674Y-160867850D03*
X301200000Y-199500000D03*
X141000000Y-208500000D03*
X249678773Y-163290930D03*
X223419019Y-85002949D03*
D76*
X163220000Y-221530000D03*
D74*
X214500000Y-97500000D03*
X129000000Y-171000000D03*
X109500000Y-187500000D03*
X267000000Y-153000000D03*
X80879484Y-192013421D03*
X84474093Y-141480834D03*
X227798131Y-121838711D03*
X217990000Y-185350000D03*
X97500000Y-187500000D03*
X229500000Y-148500000D03*
X105000000Y-85500000D03*
X124500000Y-75000000D03*
X126000000Y-73500000D03*
X166500000Y-144000000D03*
X303000000Y-87000000D03*
X241500000Y-144000000D03*
X282000000Y-129000000D03*
X94258324Y-140672773D03*
X103500000Y-97500000D03*
X177000000Y-190500000D03*
X203742772Y-220161368D03*
X195000000Y-123000000D03*
X130500000Y-165000000D03*
X80879484Y-132013421D03*
X217532783Y-161655776D03*
X84274060Y-99524266D03*
X223500000Y-148500000D03*
X255000000Y-88500000D03*
X253500000Y-87000000D03*
X220500000Y-153000000D03*
X243000000Y-81000000D03*
X186000000Y-148500000D03*
X237000000Y-118500000D03*
X91500000Y-187500000D03*
X255000000Y-142500000D03*
X299889216Y-193453419D03*
X169500000Y-174000000D03*
X83356569Y-200245814D03*
X187554256Y-143780131D03*
X130500000Y-186000000D03*
X223500000Y-153000000D03*
X94500000Y-187500000D03*
X261000000Y-78000000D03*
X157683267Y-74636270D03*
X228000000Y-168000000D03*
X129000000Y-192000000D03*
X277500000Y-94500000D03*
X129469122Y-145885103D03*
X208900000Y-179130000D03*
X153000000Y-190500000D03*
X296776944Y-201923056D03*
X228000000Y-160500000D03*
X111000000Y-192000000D03*
X184875477Y-74920578D03*
X115500000Y-216000000D03*
X230389689Y-141818283D03*
X208500000Y-94500000D03*
X241500000Y-147000000D03*
X234000000Y-82500000D03*
X186000000Y-90000000D03*
X169500000Y-135000000D03*
X226500000Y-153000000D03*
X255000000Y-106500000D03*
X261000000Y-207000000D03*
X202003734Y-97528518D03*
X268500000Y-136500000D03*
X237000000Y-84000000D03*
X135000000Y-225000000D03*
X100500000Y-187500000D03*
X171000000Y-184500000D03*
D76*
X181970000Y-225790000D03*
D74*
X189000000Y-196500000D03*
X84000000Y-222000000D03*
X97500000Y-105000000D03*
X237000000Y-81000000D03*
X291000000Y-121500000D03*
X245500000Y-201000000D03*
X213000000Y-168000000D03*
X126000000Y-192000000D03*
X206275527Y-222924373D03*
X115500000Y-78000000D03*
X301200000Y-195500000D03*
X261000000Y-150000000D03*
X141000000Y-126000000D03*
X273000000Y-153000000D03*
X155068135Y-90551219D03*
X270000000Y-150000000D03*
X250500000Y-147000000D03*
D75*
X296600000Y-209700000D03*
D74*
X123000000Y-192000000D03*
X123000000Y-183000000D03*
X247500000Y-132000000D03*
X80759658Y-197543188D03*
X219680000Y-178450000D03*
X138331288Y-76877813D03*
X273000000Y-199500000D03*
X164034303Y-76055914D03*
X175500000Y-187500000D03*
X277500000Y-142500000D03*
X282000000Y-202500000D03*
X234000000Y-153000000D03*
X238082023Y-128658687D03*
X284447619Y-149821963D03*
X133500000Y-171000000D03*
X229880000Y-218350000D03*
X202169394Y-222962748D03*
X223128305Y-205241050D03*
X246180000Y-208690000D03*
X271555769Y-167070410D03*
X84469184Y-133352289D03*
X268610000Y-189210000D03*
X277500000Y-139500000D03*
X139500000Y-184500000D03*
X277500000Y-112500000D03*
X183984028Y-93913532D03*
X294000000Y-117000000D03*
X213000000Y-87000000D03*
X192277733Y-96379228D03*
X289500000Y-217500000D03*
X277500000Y-133500000D03*
X264000000Y-163500000D03*
X217361929Y-74825522D03*
X252630000Y-221680000D03*
X173566340Y-161303895D03*
X172029137Y-86815316D03*
X93000000Y-192000000D03*
X289500000Y-225000000D03*
X180000000Y-190500000D03*
X222000000Y-75000000D03*
X285000000Y-216000000D03*
X130500000Y-69000000D03*
X156000000Y-190500000D03*
X290750000Y-183250000D03*
X272000000Y-183250000D03*
X225000000Y-176250000D03*
X210250000Y-187750000D03*
X237250000Y-176250000D03*
X215000000Y-191250000D03*
X200750000Y-181500000D03*
X133500000Y-201000000D03*
X179500000Y-205250000D03*
X141500000Y-201000000D03*
X200750000Y-187750000D03*
X215500000Y-171500000D03*
X225000000Y-171500000D03*
X200750000Y-196750000D03*
X194100000Y-196650000D03*
X112750000Y-175910000D03*
X209200500Y-177000000D03*
X201750000Y-183500000D03*
X201750000Y-191500000D03*
X210950498Y-182250000D03*
X196000000Y-159750000D03*
X118000000Y-137000000D03*
X105000000Y-135250000D03*
X159000000Y-122250000D03*
X165250000Y-79250000D03*
X166250000Y-114500000D03*
X292375000Y-167875000D03*
X297564124Y-173064124D03*
X222000000Y-182750000D03*
X222000000Y-184500000D03*
X298235876Y-173735876D03*
X114500000Y-130750000D03*
X101500000Y-129500000D03*
X123000000Y-149500000D03*
X113750000Y-149000000D03*
X113600000Y-127100000D03*
X108500000Y-140750000D03*
X150500000Y-88750000D03*
X147000000Y-170750000D03*
X161750000Y-129750000D03*
X158750000Y-133500000D03*
X216500000Y-193250000D03*
X235500000Y-192500000D03*
X235500000Y-159250000D03*
X146500000Y-127250000D03*
X170750000Y-126750000D03*
X161750000Y-127250000D03*
X146300500Y-157500000D03*
X198750000Y-162500000D03*
X198750000Y-175000000D03*
X115500000Y-161250000D03*
X142500000Y-169500000D03*
X198250000Y-152000000D03*
X196040000Y-152040000D03*
X217250000Y-199250000D03*
X250750000Y-200250000D03*
X229750000Y-201750000D03*
X142000000Y-200250000D03*
X218009500Y-198000000D03*
X250750000Y-199000000D03*
X142500000Y-199500000D03*
X226750000Y-200750000D03*
X178000000Y-218750000D03*
X98500000Y-219250000D03*
X121000000Y-218250000D03*
X178000000Y-217750000D03*
X143500000Y-217750000D03*
X178000000Y-216750000D03*
X166000000Y-217000000D03*
X178000000Y-215750000D03*
X95750000Y-194250000D03*
X95750000Y-221000000D03*
X130500000Y-194300500D03*
X137250000Y-222500000D03*
X138500000Y-220750000D03*
X161000000Y-220750000D03*
X161000000Y-196500000D03*
X143750000Y-196500000D03*
X271615000Y-217385000D03*
X131726927Y-196018221D03*
X111000000Y-196000000D03*
X101250000Y-195000000D03*
X131117830Y-195300500D03*
X136190000Y-220810000D03*
X133250000Y-193250000D03*
X124000000Y-193250000D03*
X156000000Y-221000000D03*
X145250000Y-195000000D03*
X162500000Y-195000000D03*
X162500000Y-222250000D03*
X144500000Y-195750000D03*
X169000000Y-195750000D03*
X250250000Y-217000000D03*
X250250000Y-224250000D03*
X187500000Y-224250000D03*
X257500000Y-190000000D03*
X268000000Y-190000000D03*
X186000000Y-216000000D03*
X211000000Y-216000000D03*
X233500000Y-217250000D03*
X186000000Y-217250000D03*
X252000000Y-220750000D03*
X254500000Y-201750000D03*
X254500000Y-194250000D03*
X257060000Y-196250000D03*
X244000000Y-196250000D03*
X204250000Y-194750000D03*
X234750000Y-194000000D03*
X242000000Y-194000000D03*
X230550500Y-219250000D03*
X253500000Y-192350500D03*
X253500000Y-202250000D03*
X255750000Y-192750000D03*
X256000000Y-197250000D03*
X255250000Y-193500000D03*
X256800500Y-193125000D03*
X245250000Y-197750000D03*
X205000000Y-198750000D03*
X244750000Y-197000000D03*
X191250000Y-195500000D03*
X231250000Y-220800000D03*
X243250000Y-195500000D03*
X235000000Y-195500000D03*
X213750000Y-194050500D03*
X242500000Y-194750000D03*
X245250000Y-209250000D03*
X236250000Y-193300500D03*
X240750000Y-193000000D03*
X128250000Y-79750000D03*
X111260000Y-166740000D03*
X182450500Y-225000000D03*
X205500000Y-180500000D03*
X272500000Y-225000000D03*
X184250000Y-179500000D03*
X226000000Y-170000000D03*
X141544570Y-197528970D03*
X233750000Y-178000000D03*
X204500000Y-178550000D03*
X183250000Y-194000000D03*
X226000000Y-178000000D03*
X183250000Y-178500000D03*
X249500000Y-184250000D03*
X233750000Y-182250000D03*
X204500000Y-170000000D03*
X183250000Y-225800500D03*
X273250000Y-225750000D03*
X225500000Y-225750000D03*
X268000000Y-223500000D03*
X224750000Y-223500000D03*
X133250000Y-198250000D03*
X81750000Y-198250000D03*
X132750000Y-197500000D03*
X82500000Y-197500000D03*
X132250000Y-196750000D03*
X83250000Y-196750000D03*
X218310000Y-173310000D03*
X269250000Y-169000000D03*
X219009500Y-173949500D03*
X270000000Y-170000000D03*
D75*
X307000000Y-94700000D03*
X308000000Y-97500000D03*
D74*
X216250000Y-125000000D03*
X201000000Y-125250000D03*
X111950000Y-168800000D03*
X210750000Y-172000000D03*
X220000000Y-174699500D03*
X218350000Y-202150000D03*
X130500000Y-151500000D03*
X216250000Y-167000000D03*
X179500000Y-226500000D03*
X271500000Y-226500000D03*
X137500000Y-166250000D03*
X170500000Y-166250000D03*
X170500000Y-152250000D03*
X118000000Y-135500000D03*
X98750000Y-133750000D03*
X85450500Y-150750000D03*
X132500000Y-155250000D03*
X132500000Y-138500000D03*
X126000000Y-138500000D03*
X129500000Y-154250000D03*
X103250000Y-106250000D03*
X100250000Y-136250000D03*
X96000000Y-106250000D03*
X103250000Y-111500000D03*
X185500000Y-172500000D03*
X88250000Y-137500000D03*
X153750000Y-150000000D03*
X153750000Y-132250000D03*
X159000000Y-141250000D03*
X163000000Y-136750000D03*
X184250000Y-154500000D03*
X161750000Y-150000000D03*
X164000000Y-136000000D03*
X230000000Y-94000000D03*
X191500000Y-156500000D03*
X153750000Y-146000000D03*
X161750000Y-146000000D03*
X167800500Y-146000000D03*
X206000000Y-108750000D03*
X219000000Y-108750000D03*
X225500000Y-110000000D03*
X231000000Y-129000000D03*
X226750000Y-105500000D03*
X226500000Y-98000000D03*
X96000000Y-107500000D03*
X143695378Y-85440000D03*
X206250000Y-115000000D03*
X196000000Y-153250000D03*
X199500000Y-153250000D03*
X224784448Y-113146657D03*
X224000000Y-114000000D03*
X196500000Y-133500000D03*
X109500000Y-103750000D03*
X111700500Y-132449500D03*
X240000000Y-121750000D03*
X240000000Y-133750000D03*
X190750000Y-134250000D03*
X184000000Y-116250000D03*
X138000000Y-133250000D03*
X153750000Y-134000000D03*
X114750000Y-168000000D03*
X115750000Y-146500000D03*
X142000000Y-133500000D03*
X200000000Y-129000000D03*
X192750000Y-152250000D03*
X192300500Y-155335183D03*
X193500000Y-135750000D03*
X252250000Y-100000000D03*
X252250000Y-114250000D03*
X86250000Y-144750000D03*
X86250000Y-116500000D03*
X90750000Y-108750000D03*
X85500000Y-118000000D03*
X121750000Y-110500000D03*
X97000000Y-121250000D03*
X165500000Y-117250000D03*
X161750000Y-155000000D03*
X292600000Y-198500000D03*
X295600000Y-198500000D03*
D76*
X298100000Y-203890000D03*
X297550000Y-203890000D03*
X298650000Y-203890000D03*
D74*
X306100000Y-201500000D03*
X303700000Y-201500000D03*
X306900000Y-201500000D03*
X305300000Y-201500000D03*
X304500000Y-201500000D03*
D76*
X297550000Y-205110000D03*
D74*
X306900000Y-207500000D03*
D76*
X298650000Y-205110000D03*
X298100000Y-205110000D03*
D74*
X303700000Y-207500000D03*
X305300000Y-207500000D03*
X304500000Y-207500000D03*
X306100000Y-207500000D03*
X292500000Y-204924500D03*
X292500000Y-202300000D03*
X235750000Y-82250000D03*
X252500000Y-82250000D03*
X194500000Y-186750000D03*
X222750000Y-189500000D03*
X194500000Y-184000000D03*
X199000000Y-184000000D03*
X199000000Y-189750000D03*
X193500000Y-189000000D03*
X193500000Y-185500000D03*
X222750000Y-185000000D03*
X219250000Y-192250000D03*
X194500000Y-188000000D03*
X222009500Y-190250000D03*
M02*
