M48
; DRILL file {KiCad (6.0.10-0)} date 2023 January 28, Saturday 16:51:06
; FORMAT={-:-/ absolute / metric / decimal}
; #@! TF.CreationDate,2023-01-28T16:51:06+01:00
; #@! TF.GenerationSoftware,Kicad,Pcbnew,(6.0.10-0)
; #@! TF.FileFunction,Plated,1,2,PTH
FMAT,2
METRIC
; #@! TA.AperFunction,Plated,PTH,ViaDrill
T1C0.200
; #@! TA.AperFunction,Plated,PTH,ViaDrill
T2C0.300
; #@! TA.AperFunction,Plated,PTH,ViaDrill
T3C0.400
; #@! TA.AperFunction,Plated,PTH,ComponentDrill
T4C0.550
; #@! TA.AperFunction,Plated,PTH,ComponentDrill
T5C0.650
; #@! TA.AperFunction,Plated,PTH,ComponentDrill
T6C0.750
; #@! TA.AperFunction,Plated,PTH,ComponentDrill
T7C0.800
; #@! TA.AperFunction,Plated,PTH,ComponentDrill
T8C0.850
; #@! TA.AperFunction,Plated,PTH,ComponentDrill
T9C0.900
; #@! TA.AperFunction,Plated,PTH,ComponentDrill
T10C1.000
; #@! TA.AperFunction,Plated,PTH,ComponentDrill
T11C1.100
; #@! TA.AperFunction,Plated,PTH,ComponentDrill
T12C1.200
; #@! TA.AperFunction,Plated,PTH,ComponentDrill
T13C1.220
; #@! TA.AperFunction,Plated,PTH,ComponentDrill
T14C1.420
; #@! TA.AperFunction,Plated,PTH,ComponentDrill
T15C1.430
; #@! TA.AperFunction,Plated,PTH,ComponentDrill
T16C1.600
; #@! TA.AperFunction,Plated,PTH,ComponentDrill
T17C2.400
; #@! TA.AperFunction,Plated,PTH,ComponentDrill
T18C3.200
%
G90
G05
T1
X163.22Y-221.53
X181.97Y-225.79
X215.057Y-174.772
X251.18Y-224.27
X285.0Y-96.0
X297.05Y-204.5
X297.55Y-203.89
X297.55Y-205.11
X298.1Y-203.89
X298.1Y-205.11
X298.65Y-203.89
X298.65Y-205.11
T2
X80.76Y-194.667
X80.76Y-197.543
X80.84Y-200.299
X80.879Y-87.013
X80.879Y-90.013
X80.879Y-93.013
X80.879Y-96.013
X80.879Y-99.013
X80.879Y-102.013
X80.879Y-105.013
X80.879Y-108.013
X80.879Y-111.013
X80.879Y-114.013
X80.879Y-117.013
X80.879Y-120.013
X80.879Y-123.013
X80.879Y-126.013
X80.879Y-129.013
X80.879Y-132.013
X80.879Y-135.013
X80.879Y-138.013
X80.879Y-141.013
X80.879Y-144.013
X80.879Y-147.013
X80.879Y-150.013
X80.879Y-153.013
X80.879Y-156.013
X80.879Y-159.013
X80.879Y-162.013
X80.879Y-165.013
X80.879Y-168.013
X80.879Y-171.013
X80.879Y-174.013
X80.879Y-177.013
X80.879Y-180.013
X80.879Y-183.013
X80.879Y-186.013
X80.879Y-189.013
X80.879Y-192.013
X81.75Y-198.25
X82.5Y-197.5
X83.25Y-196.75
X83.357Y-200.246
X84.0Y-192.0
X84.0Y-207.0
X84.0Y-222.0
X84.274Y-99.524
X84.348Y-147.834
X84.364Y-151.779
X84.411Y-144.325
X84.451Y-96.981
X84.469Y-125.47
X84.469Y-130.678
X84.469Y-133.352
X84.469Y-136.027
X84.469Y-138.607
X84.474Y-141.481
X84.516Y-128.191
X85.45Y-150.75
X85.5Y-118.0
X85.5Y-154.5
X85.5Y-157.5
X85.5Y-160.5
X85.5Y-163.5
X85.5Y-166.5
X85.5Y-169.5
X85.5Y-172.5
X85.5Y-175.5
X85.5Y-178.5
X85.5Y-181.5
X85.5Y-184.5
X85.5Y-187.5
X85.5Y-214.5
X85.593Y-200.246
X85.634Y-95.0
X85.846Y-105.906
X86.25Y-116.5
X86.25Y-144.75
X86.307Y-146.791
X86.413Y-101.17
X87.0Y-94.5
X87.0Y-97.5
X87.0Y-192.0
X87.0Y-201.0
X87.235Y-155.015
X87.75Y-110.25
X87.814Y-125.304
X88.25Y-137.5
X88.5Y-187.5
X88.5Y-210.0
X88.727Y-148.715
X88.939Y-122.506
X88.977Y-140.982
X89.019Y-143.416
X89.101Y-135.165
X89.655Y-97.395
X90.0Y-94.5
X90.0Y-192.0
X90.0Y-201.0
X90.75Y-108.75
X91.5Y-127.5
X91.5Y-181.5
X91.5Y-187.5
X91.5Y-225.0
X91.812Y-146.115
X92.113Y-143.664
X92.144Y-100.964
X92.346Y-97.455
X92.402Y-103.384
X92.567Y-134.649
X93.0Y-94.5
X93.0Y-192.0
X93.0Y-201.0
X93.0Y-207.0
X93.0Y-213.0
X93.788Y-155.44
X93.849Y-162.749
X93.905Y-122.451
X93.908Y-158.96
X93.996Y-149.928
X94.258Y-140.673
X94.481Y-144.901
X94.5Y-94.5
X94.5Y-177.0
X94.5Y-187.5
X94.5Y-195.0
X95.75Y-111.25
X95.75Y-194.25
X95.75Y-221.0
X95.908Y-125.304
X96.0Y-90.0
X96.0Y-93.0
X96.0Y-95.25
X96.0Y-102.0
X96.0Y-106.25
X96.0Y-107.5
X96.0Y-192.0
X96.492Y-149.373
X96.525Y-222.081
X96.527Y-151.939
X96.527Y-155.163
X96.69Y-160.263
X97.0Y-121.25
X97.215Y-128.568
X97.243Y-87.079
X97.293Y-219.455
X97.428Y-138.141
X97.5Y-105.0
X97.5Y-163.5
X97.5Y-171.0
X97.5Y-183.0
X97.5Y-187.5
X97.5Y-201.0
X97.532Y-143.723
X98.5Y-219.25
X98.745Y-145.525
X98.746Y-120.7
X98.75Y-133.75
X99.0Y-87.0
X99.0Y-192.0
X99.372Y-115.402
X99.976Y-195.397
X100.167Y-138.107
X100.236Y-142.683
X100.25Y-136.25
X100.5Y-187.5
X101.25Y-195.0
X101.489Y-117.404
X101.5Y-129.5
X101.523Y-122.712
X101.808Y-127.447
X102.0Y-87.0
X102.0Y-160.5
X102.0Y-192.0
X103.25Y-106.25
X103.25Y-111.5
X103.5Y-97.5
X103.5Y-145.5
X103.5Y-154.5
X103.5Y-175.5
X103.5Y-184.5
X103.5Y-187.5
X103.5Y-225.0
X103.855Y-128.123
X105.0Y-85.5
X105.0Y-135.25
X105.0Y-163.5
X105.0Y-192.0
X106.5Y-187.5
X106.5Y-207.0
X106.827Y-127.82
X108.0Y-85.5
X108.0Y-147.0
X108.0Y-153.0
X108.0Y-192.0
X108.5Y-140.75
X109.5Y-84.0
X109.5Y-97.5
X109.5Y-103.75
X109.5Y-163.5
X109.5Y-184.5
X109.5Y-187.5
X111.0Y-82.5
X111.0Y-171.0
X111.0Y-192.0
X111.0Y-196.0
X111.26Y-166.74
X111.7Y-132.45
X111.95Y-168.8
X112.5Y-81.0
X112.5Y-187.5
X112.5Y-225.0
X112.75Y-175.91
X113.6Y-127.1
X113.75Y-149.0
X114.0Y-79.5
X114.0Y-118.5
X114.0Y-181.5
X114.0Y-192.0
X114.5Y-130.75
X114.75Y-168.0
X115.5Y-78.0
X115.5Y-161.25
X115.5Y-171.0
X115.5Y-187.5
X115.5Y-201.0
X115.5Y-210.0
X115.5Y-216.0
X115.75Y-131.75
X115.75Y-146.5
X117.0Y-174.0
X117.0Y-192.0
X117.617Y-142.815
X118.0Y-135.5
X118.0Y-137.0
X118.0Y-139.5
X118.5Y-78.0
X118.5Y-165.0
X118.5Y-178.5
X118.5Y-183.0
X118.5Y-187.5
X119.914Y-217.824
X120.0Y-171.0
X120.0Y-192.0
X120.0Y-225.0
X121.0Y-218.25
X121.25Y-146.0
X121.5Y-78.0
X121.5Y-187.5
X121.75Y-110.5
X123.0Y-76.5
X123.0Y-149.5
X123.0Y-174.0
X123.0Y-178.5
X123.0Y-183.0
X123.0Y-192.0
X124.0Y-193.25
X124.5Y-75.0
X124.5Y-84.0
X124.5Y-165.0
X124.5Y-171.0
X124.5Y-187.5
X126.0Y-73.5
X126.0Y-138.5
X126.0Y-192.0
X127.434Y-78.874
X127.5Y-72.0
X127.5Y-178.5
X127.5Y-183.0
X127.5Y-187.5
X127.5Y-225.0
X127.814Y-139.665
X128.188Y-136.969
X128.25Y-79.75
X129.0Y-70.5
X129.0Y-171.0
X129.0Y-174.0
X129.0Y-192.0
X129.0Y-207.0
X129.25Y-144.25
X129.469Y-145.885
X129.5Y-154.25
X129.656Y-141.641
X130.35Y-139.398
X130.486Y-92.046
X130.5Y-69.0
X130.5Y-84.0
X130.5Y-99.0
X130.5Y-112.5
X130.5Y-120.0
X130.5Y-129.0
X130.5Y-151.5
X130.5Y-165.0
X130.5Y-186.0
X130.5Y-190.5
X130.5Y-194.3
X131.118Y-195.3
X131.727Y-196.018
X132.0Y-135.0
X132.0Y-180.0
X132.0Y-189.0
X132.055Y-76.803
X132.25Y-196.75
X132.5Y-138.5
X132.5Y-155.25
X132.75Y-197.5
X133.072Y-199.443
X133.25Y-193.25
X133.25Y-198.25
X133.5Y-115.5
X133.5Y-159.0
X133.5Y-171.0
X133.5Y-174.0
X133.5Y-184.5
X133.5Y-201.0
X133.5Y-208.5
X133.5Y-214.5
X133.75Y-99.25
X133.923Y-94.212
X134.371Y-85.844
X134.5Y-142.75
X135.0Y-126.0
X135.0Y-189.0
X135.0Y-225.0
X135.113Y-220.043
X135.5Y-174.75
X136.19Y-220.81
X136.5Y-184.5
X137.25Y-222.5
X137.5Y-166.25
X138.0Y-133.25
X138.0Y-153.0
X138.0Y-189.0
X138.213Y-223.045
X138.331Y-76.878
X138.5Y-220.75
X139.408Y-220.001
X139.5Y-94.5
X139.5Y-148.5
X139.5Y-163.5
X139.5Y-184.5
X140.125Y-106.989
X140.274Y-104.075
X141.0Y-126.0
X141.0Y-189.0
X141.0Y-208.5
X141.0Y-214.5
X141.5Y-201.0
X141.545Y-197.529
X142.0Y-133.5
X142.0Y-200.25
X142.495Y-217.387
X142.5Y-147.0
X142.5Y-153.0
X142.5Y-169.5
X142.5Y-184.5
X142.5Y-199.5
X142.5Y-225.0
X143.5Y-217.75
X143.695Y-85.44
X143.75Y-196.5
X144.0Y-162.0
X144.0Y-189.0
X144.5Y-195.75
X145.08Y-197.384
X145.25Y-195.0
X145.5Y-115.5
X145.5Y-124.5
X145.5Y-174.0
X145.5Y-186.0
X145.579Y-76.355
X146.3Y-157.5
X146.5Y-127.25
X146.924Y-105.57
X147.0Y-170.75
X147.0Y-190.5
X147.595Y-197.436
X148.5Y-145.5
X148.5Y-154.5
X148.5Y-174.0
X148.5Y-178.5
X148.5Y-183.0
X148.5Y-187.5
X149.0Y-71.25
X150.0Y-190.5
X150.0Y-225.0
X150.5Y-88.75
X151.033Y-82.407
X151.5Y-145.5
X151.5Y-174.0
X151.5Y-187.5
X151.5Y-207.0
X152.079Y-94.138
X152.229Y-87.413
X152.528Y-76.355
X153.0Y-178.5
X153.0Y-183.0
X153.0Y-190.5
X153.75Y-132.25
X153.75Y-134.0
X153.75Y-146.0
X153.75Y-150.0
X154.137Y-197.359
X154.5Y-174.0
X154.5Y-187.5
X155.068Y-90.551
X156.0Y-190.5
X156.0Y-221.0
X156.912Y-221.689
X156.951Y-136.5
X157.5Y-174.0
X157.5Y-178.5
X157.5Y-183.0
X157.5Y-187.5
X157.5Y-225.0
X157.683Y-74.636
X158.0Y-102.25
X158.057Y-90.477
X158.75Y-133.5
X159.0Y-122.25
X159.0Y-141.25
X159.0Y-190.5
X160.062Y-221.287
X160.083Y-197.357
X160.5Y-174.0
X160.5Y-187.5
X161.0Y-196.5
X161.0Y-220.75
X161.419Y-90.178
X161.75Y-127.25
X161.75Y-129.75
X161.75Y-146.0
X161.75Y-150.0
X161.75Y-152.5
X161.75Y-155.0
X162.0Y-178.5
X162.0Y-183.0
X162.0Y-190.5
X162.5Y-195.0
X162.5Y-222.25
X163.0Y-136.75
X163.5Y-144.0
X163.5Y-147.0
X163.5Y-154.5
X163.5Y-174.0
X163.5Y-187.5
X163.648Y-194.862
X163.834Y-196.95
X164.0Y-136.0
X164.034Y-76.056
X164.034Y-87.264
X164.034Y-93.988
X164.055Y-105.089
X164.092Y-100.534
X165.0Y-190.5
X165.0Y-225.0
X165.25Y-79.25
X165.353Y-112.93
X165.403Y-108.161
X165.5Y-117.25
X166.0Y-217.0
X166.25Y-114.5
X166.449Y-98.136
X166.5Y-144.0
X166.5Y-154.5
X166.5Y-174.0
X166.5Y-178.5
X166.5Y-183.0
X166.5Y-187.5
X166.739Y-102.457
X167.326Y-111.906
X167.351Y-107.661
X167.493Y-197.063
X167.638Y-127.981
X167.8Y-146.0
X168.0Y-93.0
X168.0Y-117.0
X168.0Y-123.0
X168.0Y-130.5
X168.0Y-190.5
X168.093Y-125.655
X168.966Y-82.332
X169.0Y-195.75
X169.5Y-135.0
X169.5Y-139.5
X169.5Y-150.0
X169.5Y-174.0
X169.5Y-187.5
X170.139Y-197.175
X170.5Y-152.25
X170.5Y-166.25
X170.75Y-126.75
X171.0Y-106.5
X171.0Y-114.0
X171.0Y-177.0
X171.0Y-184.5
X171.0Y-190.5
X172.029Y-86.815
X172.5Y-96.0
X172.5Y-127.5
X172.5Y-187.5
X172.5Y-196.5
X172.5Y-225.0
X173.566Y-161.304
X174.0Y-190.5
X174.0Y-207.0
X174.145Y-76.745
X174.319Y-73.661
X175.5Y-108.0
X175.5Y-126.0
X175.5Y-187.5
X175.5Y-196.5
X177.0Y-190.5
X177.0Y-223.5
X178.0Y-215.75
X178.0Y-216.75
X178.0Y-217.75
X178.0Y-218.75
X178.5Y-96.0
X178.5Y-177.0
X178.5Y-184.5
X178.5Y-187.5
X178.5Y-196.5
X178.57Y-225.87
X179.5Y-205.25
X179.5Y-226.5
X180.0Y-85.5
X180.0Y-127.5
X180.0Y-190.5
X181.345Y-160.868
X181.5Y-109.5
X181.5Y-117.0
X181.5Y-148.5
X181.5Y-177.0
X181.5Y-183.0
X181.5Y-186.0
X181.5Y-189.0
X181.5Y-196.5
X181.969Y-179.982
X182.017Y-156.374
X182.419Y-153.105
X182.451Y-225.0
X182.57Y-168.044
X183.0Y-105.0
X183.0Y-112.5
X183.0Y-123.0
X183.0Y-126.0
X183.073Y-164.574
X183.25Y-178.5
X183.25Y-194.0
X183.25Y-225.8
X183.878Y-161.706
X183.984Y-93.914
X184.0Y-116.25
X184.25Y-154.5
X184.25Y-179.5
X184.5Y-84.0
X184.5Y-177.0
X184.875Y-74.921
X185.25Y-113.75
X185.25Y-124.5
X185.25Y-139.25
X185.5Y-172.5
X186.0Y-90.0
X186.0Y-148.5
X186.0Y-193.5
X186.0Y-196.5
X186.0Y-216.0
X186.0Y-217.25
X186.25Y-73.5
X186.25Y-85.5
X186.47Y-223.98
X186.78Y-218.1
X187.04Y-215.18
X187.5Y-81.0
X187.5Y-177.0
X187.5Y-181.5
X187.5Y-224.25
X187.554Y-143.78
X187.962Y-128.474
X188.304Y-140.648
X188.331Y-136.659
X188.467Y-94.437
X189.0Y-72.0
X189.0Y-196.5
X189.065Y-121.484
X189.438Y-97.948
X189.564Y-222.892
X190.5Y-177.0
X190.75Y-134.25
X191.25Y-195.5
X191.5Y-156.5
X192.0Y-123.0
X192.0Y-144.0
X192.0Y-147.0
X192.0Y-150.0
X192.0Y-193.5
X192.25Y-85.5
X192.278Y-96.379
X192.3Y-155.335
X192.376Y-80.814
X192.5Y-142.25
X192.75Y-152.25
X193.5Y-135.75
X193.5Y-177.0
X193.5Y-185.5
X193.5Y-189.0
X193.977Y-84.016
X194.1Y-196.65
X194.275Y-222.845
X194.445Y-114.76
X194.5Y-139.25
X194.5Y-184.0
X194.5Y-186.75
X194.5Y-188.0
X195.0Y-123.0
X195.416Y-95.856
X196.0Y-153.25
X196.0Y-159.75
X196.04Y-152.04
X196.5Y-72.0
X196.5Y-133.5
X196.5Y-177.0
X196.5Y-207.0
X196.646Y-83.616
X197.732Y-112.444
X197.891Y-80.503
X198.0Y-120.0
X198.0Y-130.5
X198.063Y-222.963
X198.25Y-152.0
X198.75Y-162.5
X198.75Y-175.0
X199.0Y-184.0
X199.0Y-189.75
X199.224Y-126.904
X199.227Y-98.77
X199.451Y-104.0
X199.5Y-76.5
X199.5Y-85.5
X199.5Y-88.5
X199.5Y-153.25
X199.5Y-177.0
X199.675Y-108.558
X200.0Y-129.0
X200.75Y-181.5
X200.75Y-187.75
X200.75Y-196.75
X200.865Y-214.75
X201.0Y-82.5
X201.0Y-125.25
X201.0Y-165.0
X201.0Y-169.5
X201.0Y-172.5
X201.0Y-174.0
X201.75Y-183.5
X201.75Y-191.5
X201.81Y-107.584
X201.856Y-112.238
X201.861Y-102.576
X202.004Y-97.529
X202.169Y-222.963
X202.5Y-123.0
X202.5Y-163.5
X202.5Y-177.0
X202.862Y-116.845
X203.173Y-126.702
X203.282Y-212.64
X203.743Y-220.161
X204.0Y-87.0
X204.0Y-94.5
X204.158Y-105.719
X204.25Y-194.75
X204.5Y-170.0
X204.5Y-178.55
X205.0Y-198.75
X205.5Y-84.0
X205.5Y-163.5
X205.5Y-180.5
X206.0Y-108.75
X206.25Y-115.0
X206.276Y-222.924
X206.54Y-175.39
X206.75Y-179.06
X207.772Y-214.328
X207.969Y-105.719
X208.309Y-220.085
X208.5Y-94.5
X208.5Y-163.5
X208.68Y-98.149
X208.9Y-179.13
X209.2Y-177.0
X209.4Y-181.75
X209.772Y-76.483
X209.888Y-73.633
X209.96Y-222.886
X210.0Y-174.0
X210.25Y-187.75
X210.75Y-172.0
X210.91Y-105.646
X210.95Y-182.25
X211.0Y-216.0
X211.5Y-163.5
X211.63Y-172.6
X211.88Y-215.37
X212.109Y-220.085
X212.79Y-186.65
X213.0Y-87.0
X213.0Y-168.0
X213.0Y-171.0
X213.567Y-222.848
X213.75Y-194.05
X214.5Y-97.5
X214.5Y-163.5
X214.75Y-180.0
X214.895Y-105.618
X215.0Y-191.25
X215.025Y-215.825
X215.309Y-177.783
X215.311Y-186.159
X215.5Y-171.5
X216.0Y-94.5
X216.25Y-125.0
X216.25Y-167.0
X216.33Y-183.6
X216.35Y-181.21
X216.5Y-193.25
X217.13Y-178.28
X217.25Y-199.25
X217.362Y-74.826
X217.5Y-156.0
X217.533Y-161.656
X217.711Y-222.809
X217.99Y-185.35
X218.01Y-198.0
X218.31Y-173.31
X218.35Y-202.15
X219.0Y-91.5
X219.0Y-94.5
X219.0Y-97.5
X219.0Y-100.5
X219.0Y-103.5
X219.0Y-108.75
X219.0Y-124.5
X219.0Y-127.5
X219.0Y-154.5
X219.0Y-160.5
X219.0Y-168.0
X219.0Y-207.0
X219.01Y-173.95
X219.01Y-183.57
X219.04Y-181.16
X219.25Y-192.25
X219.68Y-178.45
X219.924Y-136.176
X220.0Y-174.7
X220.129Y-215.787
X220.5Y-76.5
X220.5Y-87.0
X220.5Y-90.0
X220.5Y-105.0
X220.5Y-114.0
X220.5Y-117.0
X220.5Y-121.5
X220.5Y-153.0
X220.5Y-159.0
X221.39Y-183.6
X221.63Y-179.95
X221.664Y-222.732
X222.0Y-75.0
X222.0Y-78.0
X222.0Y-81.0
X222.0Y-84.0
X222.0Y-106.5
X222.0Y-109.5
X222.0Y-127.5
X222.0Y-130.5
X222.0Y-157.5
X222.0Y-168.0
X222.0Y-182.75
X222.0Y-184.5
X222.01Y-190.25
X222.248Y-133.579
X222.75Y-185.0
X222.75Y-189.5
X223.128Y-205.241
X223.245Y-209.492
X223.361Y-214.325
X223.419Y-85.003
X223.5Y-73.5
X223.5Y-148.5
X223.5Y-153.0
X223.5Y-156.0
X223.8Y-223.13
X224.0Y-114.0
X224.48Y-115.898
X224.75Y-223.5
X224.784Y-113.147
X225.0Y-133.5
X225.0Y-135.0
X225.0Y-156.0
X225.0Y-168.0
X225.0Y-171.5
X225.0Y-176.25
X225.25Y-97.0
X225.363Y-122.588
X225.5Y-110.0
X225.5Y-225.75
X225.825Y-141.818
X226.0Y-170.0
X226.0Y-178.0
X226.5Y-98.0
X226.5Y-135.0
X226.5Y-148.5
X226.5Y-153.0
X226.5Y-156.0
X226.5Y-159.0
X226.75Y-101.75
X226.75Y-105.5
X226.75Y-200.75
X226.97Y-201.77
X227.798Y-121.839
X227.873Y-73.018
X228.0Y-128.25
X228.0Y-160.5
X228.0Y-163.5
X228.0Y-168.0
X228.0Y-171.0
X228.039Y-115.577
X228.078Y-205.241
X228.078Y-210.307
X228.195Y-214.966
X229.32Y-202.69
X229.5Y-135.0
X229.5Y-148.5
X229.5Y-156.0
X229.75Y-201.75
X229.88Y-218.35
X230.0Y-94.0
X230.39Y-141.818
X230.55Y-219.25
X230.902Y-117.664
X231.0Y-121.5
X231.0Y-129.0
X231.0Y-135.0
X231.0Y-153.0
X231.0Y-156.0
X231.25Y-220.8
X231.558Y-73.463
X231.89Y-221.77
X232.5Y-115.5
X232.92Y-218.22
X233.218Y-74.637
X233.5Y-217.25
X233.75Y-178.0
X233.75Y-182.25
X233.774Y-167.072
X233.855Y-163.999
X234.0Y-82.5
X234.0Y-135.0
X234.0Y-148.5
X234.0Y-153.0
X234.0Y-156.0
X234.0Y-159.0
X234.059Y-79.16
X234.189Y-76.662
X234.5Y-103.5
X234.75Y-194.0
X235.0Y-195.5
X235.472Y-141.775
X235.5Y-135.0
X235.5Y-159.25
X235.5Y-192.5
X235.75Y-82.25
X236.25Y-193.3
X236.603Y-121.949
X236.987Y-92.268
X237.0Y-78.0
X237.0Y-81.0
X237.0Y-84.0
X237.0Y-87.0
X237.0Y-90.0
X237.0Y-96.0
X237.0Y-99.0
X237.0Y-103.5
X237.0Y-106.5
X237.0Y-112.5
X237.0Y-115.5
X237.0Y-118.5
X237.0Y-148.5
X237.0Y-153.0
X237.0Y-156.0
X237.0Y-160.5
X237.141Y-126.218
X237.219Y-162.295
X237.25Y-176.25
X237.29Y-124.009
X237.44Y-164.043
X237.443Y-167.065
X238.082Y-128.659
X238.5Y-108.0
X238.5Y-132.0
X238.5Y-135.0
X238.5Y-207.0
X240.0Y-109.5
X240.0Y-112.5
X240.0Y-115.5
X240.0Y-121.75
X240.0Y-133.75
X240.0Y-148.5
X240.0Y-153.0
X240.0Y-156.0
X240.0Y-160.5
X240.007Y-162.339
X240.054Y-118.173
X240.295Y-163.999
X240.445Y-167.1
X240.75Y-193.0
X241.244Y-124.028
X241.5Y-94.5
X241.5Y-144.0
X241.5Y-147.0
X241.544Y-139.837
X242.0Y-194.0
X242.5Y-194.75
X243.0Y-81.0
X243.0Y-157.5
X243.0Y-160.5
X243.25Y-195.5
X243.371Y-164.021
X243.817Y-167.1
X244.0Y-196.25
X244.035Y-162.295
X244.5Y-78.0
X244.5Y-142.5
X244.75Y-197.0
X245.25Y-197.75
X245.25Y-209.25
X245.5Y-201.0
X246.0Y-70.5
X246.0Y-75.0
X246.0Y-157.5
X246.049Y-163.999
X246.18Y-208.69
X246.183Y-167.065
X247.5Y-94.5
X247.5Y-132.0
X247.5Y-135.0
X247.5Y-142.5
X247.5Y-156.0
X247.5Y-163.0
X248.153Y-137.174
X249.0Y-81.0
X249.0Y-130.5
X249.0Y-160.5
X249.5Y-184.25
X249.578Y-138.935
X249.61Y-167.037
X249.679Y-163.291
X249.859Y-155.865
X249.91Y-215.97
X250.25Y-217.0
X250.25Y-224.25
X250.5Y-124.5
X250.5Y-127.5
X250.5Y-144.0
X250.5Y-147.0
X250.5Y-150.0
X250.5Y-153.0
X250.75Y-199.0
X250.75Y-200.25
X252.0Y-123.0
X252.0Y-139.5
X252.0Y-157.5
X252.0Y-160.5
X252.0Y-163.5
X252.0Y-220.75
X252.25Y-100.0
X252.25Y-114.25
X252.439Y-167.037
X252.5Y-82.25
X252.63Y-221.68
X253.5Y-70.5
X253.5Y-87.0
X253.5Y-93.0
X253.5Y-99.0
X253.5Y-112.5
X253.5Y-115.5
X253.5Y-118.5
X253.5Y-121.5
X253.5Y-141.0
X253.5Y-192.35
X253.5Y-202.25
X254.5Y-194.25
X254.5Y-201.75
X254.95Y-191.82
X255.0Y-76.5
X255.0Y-85.5
X255.0Y-88.5
X255.0Y-91.5
X255.0Y-94.5
X255.0Y-97.5
X255.0Y-100.5
X255.0Y-103.5
X255.0Y-106.5
X255.0Y-111.0
X255.0Y-136.5
X255.0Y-142.5
X255.0Y-157.5
X255.0Y-160.5
X255.0Y-163.5
X255.122Y-167.085
X255.25Y-193.5
X255.75Y-192.75
X256.0Y-197.25
X256.5Y-72.0
X256.5Y-109.5
X256.5Y-133.5
X256.5Y-139.5
X256.5Y-144.0
X256.8Y-193.125
X257.03Y-197.29
X257.06Y-196.25
X257.23Y-190.95
X257.439Y-167.037
X257.5Y-190.0
X258.0Y-81.0
X258.0Y-108.0
X258.0Y-130.5
X258.0Y-145.5
X258.0Y-157.5
X258.0Y-163.5
X259.5Y-142.5
X259.5Y-148.5
X259.5Y-156.0
X260.024Y-167.037
X261.0Y-78.0
X261.0Y-87.0
X261.0Y-94.5
X261.0Y-108.0
X261.0Y-150.0
X261.0Y-153.0
X261.0Y-154.5
X261.0Y-160.5
X261.0Y-163.5
X261.0Y-207.0
X262.5Y-72.0
X262.5Y-156.75
X262.781Y-167.037
X264.0Y-108.0
X264.0Y-150.0
X264.0Y-153.0
X264.0Y-159.0
X264.0Y-163.5
X265.439Y-166.988
X265.5Y-123.0
X265.5Y-126.0
X265.5Y-129.0
X265.5Y-132.0
X265.5Y-135.0
X267.0Y-87.0
X267.0Y-108.0
X267.0Y-150.0
X267.0Y-153.0
X267.878Y-167.037
X268.0Y-190.0
X268.0Y-223.5
X268.5Y-94.5
X268.5Y-136.5
X268.61Y-189.21
X268.87Y-222.93
X269.25Y-169.0
X270.0Y-73.5
X270.0Y-108.0
X270.0Y-139.5
X270.0Y-142.5
X270.0Y-145.5
X270.0Y-150.0
X270.0Y-153.0
X270.0Y-170.0
X271.5Y-148.5
X271.5Y-195.0
X271.5Y-226.5
X271.556Y-167.07
X271.615Y-217.385
X272.0Y-183.25
X272.274Y-161.381
X272.385Y-158.147
X272.5Y-225.0
X272.6Y-226.64
X273.0Y-69.0
X273.0Y-94.5
X273.0Y-108.049
X273.0Y-147.0
X273.0Y-153.0
X273.0Y-199.5
X273.0Y-204.0
X273.25Y-225.75
X273.837Y-166.989
X274.09Y-224.71
X274.5Y-73.5
X274.5Y-145.5
X275.022Y-160.301
X275.229Y-108.036
X276.0Y-87.0
X276.0Y-144.0
X276.0Y-153.0
X276.445Y-167.03
X276.97Y-109.624
X277.5Y-94.5
X277.5Y-97.5
X277.5Y-105.0
X277.5Y-112.5
X277.5Y-115.5
X277.5Y-118.5
X277.5Y-121.5
X277.5Y-124.5
X277.5Y-127.5
X277.5Y-130.5
X277.5Y-133.5
X277.5Y-136.5
X277.5Y-139.5
X277.5Y-142.5
X277.5Y-225.0
X277.881Y-161.892
X278.266Y-149.722
X278.319Y-167.07
X279.0Y-102.0
X279.0Y-153.0
X279.51Y-160.177
X280.5Y-99.0
X280.5Y-108.0
X280.5Y-114.0
X280.5Y-216.0
X280.5Y-220.5
X281.456Y-166.989
X281.574Y-149.789
X281.98Y-134.903
X281.98Y-143.171
X282.0Y-87.0
X282.0Y-129.0
X282.0Y-153.0
X282.0Y-157.5
X282.0Y-202.5
X283.5Y-78.0
X283.5Y-93.0
X283.5Y-111.0
X283.5Y-118.5
X283.5Y-156.0
X283.5Y-159.0
X283.5Y-207.0
X283.5Y-225.0
X283.616Y-166.989
X284.448Y-149.822
X285.0Y-84.0
X285.0Y-103.5
X285.0Y-216.0
X285.0Y-220.5
X285.612Y-166.989
X286.5Y-87.0
X286.5Y-108.0
X286.5Y-114.0
X286.5Y-153.0
X286.729Y-162.392
X288.0Y-204.0
X288.0Y-207.0
X288.0Y-210.0
X288.301Y-167.03
X288.505Y-164.911
X288.558Y-149.789
X289.014Y-213.009
X289.5Y-84.0
X289.5Y-85.75
X289.5Y-112.5
X289.5Y-117.0
X289.5Y-153.0
X289.5Y-159.0
X289.5Y-196.5
X289.5Y-199.5
X289.5Y-202.5
X289.5Y-217.5
X289.5Y-225.0
X289.75Y-161.0
X290.679Y-156.843
X290.75Y-183.25
X291.0Y-90.0
X291.0Y-121.5
X291.0Y-127.5
X291.0Y-135.0
X291.0Y-144.0
X291.0Y-195.0
X291.153Y-166.867
X291.932Y-149.822
X292.143Y-213.672
X292.293Y-193.746
X292.375Y-167.875
X292.457Y-169.556
X292.5Y-94.5
X292.5Y-105.0
X292.5Y-154.5
X292.5Y-162.0
X292.5Y-202.3
X292.5Y-204.924
X292.6Y-198.5
X293.0Y-180.5
X293.468Y-217.095
X293.965Y-166.907
X293.983Y-221.511
X294.0Y-82.5
X294.0Y-109.5
X294.0Y-117.0
X294.1Y-197.7
X294.535Y-171.308
X294.773Y-149.789
X295.0Y-203.0
X295.164Y-194.031
X295.5Y-69.0
X295.5Y-93.0
X295.5Y-99.0
X295.5Y-153.0
X295.535Y-157.205
X295.6Y-198.5
X295.676Y-224.787
X295.961Y-172.286
X296.777Y-201.923
X297.0Y-87.0
X297.0Y-102.0
X297.564Y-173.064
X297.642Y-162.89
X298.236Y-173.736
X298.31Y-159.708
X298.381Y-150.49
X298.5Y-120.0
X298.5Y-126.0
X298.5Y-132.0
X298.5Y-138.0
X298.5Y-145.5
X298.5Y-154.5
X299.889Y-193.453
X300.0Y-114.0
X300.0Y-156.0
X300.019Y-224.566
X300.1Y-174.3
X300.33Y-158.502
X300.453Y-148.419
X301.2Y-195.5
X301.2Y-197.5
X301.2Y-199.5
X301.5Y-123.0
X301.5Y-132.0
X301.5Y-141.0
X301.5Y-161.0
X301.709Y-162.831
X302.934Y-193.434
X303.0Y-87.0
X303.0Y-156.0
X303.26Y-152.629
X303.7Y-201.5
X303.7Y-207.5
X304.105Y-222.505
X304.5Y-79.5
X304.5Y-94.5
X304.5Y-103.5
X304.5Y-118.5
X304.5Y-144.0
X304.5Y-150.0
X304.5Y-201.5
X304.5Y-207.5
X304.833Y-162.713
X305.246Y-159.472
X305.3Y-201.5
X305.3Y-207.5
X305.77Y-193.434
X306.0Y-112.5
X306.0Y-127.5
X306.0Y-136.5
X306.0Y-156.0
X306.019Y-218.898
X306.1Y-201.5
X306.1Y-207.5
X306.126Y-97.547
X306.9Y-201.5
X306.9Y-207.5
X307.012Y-214.408
X307.5Y-150.0
X307.5Y-195.0
X307.721Y-162.537
X308.667Y-210.869
T3
X295.9Y-206.1
X296.6Y-209.7
X296.6Y-211.5
X300.3Y-204.5
X307.0Y-94.7
X308.0Y-97.5
T5
X187.75Y-185.25
X187.75Y-186.52
X187.75Y-187.79
X187.75Y-189.06
X187.75Y-190.33
X189.02Y-185.25
X189.02Y-186.52
X189.02Y-187.79
X189.02Y-189.06
X189.02Y-190.33
T6
X98.36Y-107.98
X98.36Y-109.25
X98.36Y-110.52
X118.8Y-102.56
X118.8Y-103.83
X118.8Y-105.1
X123.8Y-102.56
X123.8Y-103.83
X123.8Y-105.1
X155.86Y-101.0
X155.86Y-102.27
X155.86Y-103.54
X160.97Y-100.98
X160.97Y-102.25
X160.97Y-103.52
X180.25Y-73.46
X180.25Y-74.73
X180.25Y-76.0
X190.24Y-102.335
X190.24Y-103.605
X190.24Y-104.875
X190.24Y-107.98
X190.24Y-109.25
X190.24Y-110.52
X190.24Y-113.68
X190.24Y-114.95
X190.24Y-116.22
X207.86Y-135.23
X207.86Y-136.5
X207.86Y-137.77
X212.14Y-135.23
X212.14Y-136.5
X212.14Y-137.77
X215.39Y-73.48
X215.39Y-74.75
X215.39Y-76.02
X225.91Y-89.23
X225.91Y-90.5
X225.91Y-91.77
X230.66Y-89.23
X230.66Y-90.5
X230.66Y-91.77
X259.98Y-101.14
X261.25Y-101.14
X262.52Y-101.14
X270.23Y-101.14
X271.5Y-101.14
X272.77Y-101.14
T7
X85.5Y-111.95
X85.5Y-114.45
X85.69Y-86.25
X85.69Y-89.5
X85.69Y-92.75
X86.0Y-104.0
X86.0Y-109.0
X89.2Y-103.5
X89.2Y-116.5
X89.2Y-119.6
X90.5Y-131.22
X90.5Y-133.76
X90.5Y-136.3
X90.5Y-142.2
X90.5Y-144.74
X90.5Y-147.28
X90.5Y-153.2
X90.5Y-155.74
X90.5Y-158.28
X90.5Y-164.2
X90.5Y-166.74
X90.5Y-169.28
X93.31Y-86.25
X93.31Y-89.5
X93.31Y-92.75
X94.2Y-103.5
X94.2Y-116.5
X94.2Y-119.6
X94.9Y-129.94
X94.9Y-137.56
X98.4Y-118.19
X98.4Y-125.81
X98.5Y-203.69
X98.5Y-211.31
X100.3Y-104.4
X101.19Y-201.0
X102.5Y-213.19
X102.5Y-220.81
X104.1Y-204.529
X104.1Y-210.329
X105.3Y-104.4
X105.9Y-204.529
X105.9Y-210.329
X107.5Y-213.19
X107.5Y-220.81
X108.81Y-201.0
X113.2Y-105.4
X113.2Y-113.02
X114.75Y-137.25
X114.75Y-142.25
X117.0Y-81.42
X117.0Y-83.96
X117.0Y-86.5
X117.2Y-151.39
X117.2Y-159.01
X117.99Y-108.7
X118.5Y-113.765
X118.5Y-121.385
X119.5Y-133.4
X119.525Y-145.9
X120.2Y-92.09
X120.2Y-99.71
X120.4Y-151.39
X120.4Y-159.01
X121.0Y-203.69
X121.0Y-211.31
X121.75Y-113.765
X121.75Y-121.385
X123.2Y-92.09
X123.2Y-99.71
X123.6Y-151.39
X123.6Y-159.01
X123.88Y-201.0
X124.5Y-133.4
X124.525Y-145.9
X125.0Y-113.79
X125.0Y-121.41
X125.0Y-213.19
X125.0Y-220.81
X125.61Y-108.7
X126.6Y-204.529
X126.6Y-210.329
X126.8Y-151.39
X126.8Y-159.01
X128.4Y-204.529
X128.4Y-210.329
X130.0Y-213.19
X130.0Y-220.81
X131.5Y-201.0
X134.887Y-203.625
X136.065Y-136.85
X136.19Y-104.25
X136.19Y-107.25
X139.887Y-203.625
X143.5Y-203.69
X143.5Y-211.31
X143.685Y-136.85
X143.81Y-104.25
X143.81Y-107.25
X146.19Y-201.0
X147.5Y-213.19
X147.5Y-220.81
X148.94Y-162.5
X149.0Y-141.19
X149.0Y-148.81
X149.0Y-151.19
X149.0Y-158.81
X149.1Y-204.6
X149.1Y-210.4
X150.9Y-204.6
X150.9Y-210.4
X152.0Y-113.19
X152.0Y-120.81
X152.0Y-123.19
X152.0Y-130.81
X152.0Y-133.5
X152.0Y-138.5
X152.0Y-141.19
X152.0Y-148.81
X152.0Y-151.19
X152.0Y-158.81
X152.5Y-213.19
X152.5Y-220.81
X153.81Y-201.0
X154.19Y-97.75
X154.19Y-107.0
X154.75Y-85.44
X154.75Y-93.06
X155.25Y-111.75
X155.25Y-114.25
X155.25Y-124.5
X155.25Y-137.5
X155.25Y-143.5
X155.25Y-157.5
X156.56Y-162.5
X158.0Y-85.44
X158.0Y-93.06
X158.94Y-162.5
X158.958Y-117.25
X160.25Y-124.5
X160.25Y-137.5
X160.25Y-143.5
X160.25Y-157.5
X161.25Y-85.44
X161.25Y-93.06
X161.81Y-97.75
X161.81Y-107.0
X162.458Y-117.25
X163.5Y-123.19
X163.5Y-130.81
X163.5Y-133.5
X163.5Y-138.5
X163.5Y-141.19
X163.5Y-148.81
X163.5Y-151.19
X163.5Y-158.81
X166.0Y-203.69
X166.0Y-211.31
X166.5Y-141.19
X166.5Y-148.81
X166.5Y-151.19
X166.5Y-158.81
X166.56Y-162.5
X168.88Y-201.0
X169.44Y-73.25
X169.44Y-76.5
X170.0Y-213.19
X170.0Y-220.81
X170.94Y-104.0
X171.19Y-133.45
X171.19Y-136.2
X171.19Y-139.2
X171.19Y-142.2
X171.6Y-204.6
X171.6Y-210.4
X173.4Y-204.6
X173.4Y-210.4
X175.0Y-213.19
X175.0Y-220.81
X176.5Y-201.0
X177.06Y-73.25
X177.06Y-76.5
X178.56Y-104.0
X178.81Y-133.45
X178.81Y-136.2
X178.81Y-139.2
X178.81Y-142.2
X179.19Y-158.5
X179.19Y-161.5
X179.19Y-164.5
X179.19Y-167.5
X179.5Y-209.75
X184.5Y-209.75
X186.81Y-158.5
X186.81Y-161.5
X186.81Y-164.5
X186.81Y-167.5
X188.5Y-203.69
X188.5Y-211.31
X189.0Y-91.915
X189.0Y-99.535
X189.0Y-118.99
X189.0Y-126.61
X189.047Y-132.3
X189.5Y-149.6
X189.5Y-162.1
X190.63Y-81.94
X190.63Y-89.56
X191.19Y-201.0
X192.2Y-91.915
X192.2Y-99.535
X192.2Y-118.99
X192.2Y-126.61
X192.5Y-213.19
X192.5Y-220.81
X192.547Y-132.3
X193.77Y-81.94
X193.77Y-89.56
X194.1Y-204.6
X194.1Y-210.4
X194.5Y-149.6
X194.5Y-162.1
X195.0Y-102.69
X195.0Y-110.31
X195.4Y-91.94
X195.4Y-99.56
X195.4Y-118.99
X195.4Y-126.61
X195.9Y-204.6
X195.9Y-210.4
X197.5Y-213.19
X197.5Y-220.81
X198.81Y-201.0
X199.6Y-148.19
X199.6Y-155.81
X200.0Y-135.7
X200.0Y-140.7
X202.6Y-148.19
X202.6Y-155.81
X202.81Y-165.25
X202.81Y-168.5
X202.81Y-173.25
X204.44Y-73.25
X204.44Y-76.5
X207.75Y-203.69
X207.75Y-211.31
X207.81Y-165.25
X207.81Y-168.5
X207.81Y-173.25
X211.0Y-203.69
X211.0Y-211.31
X212.06Y-73.25
X212.06Y-76.5
X213.69Y-201.0
X215.0Y-213.19
X215.0Y-220.81
X216.6Y-204.6
X216.6Y-210.4
X218.0Y-140.99
X218.0Y-148.61
X218.4Y-204.6
X218.4Y-210.4
X220.0Y-213.19
X220.0Y-220.81
X221.0Y-95.89
X221.0Y-103.51
X221.0Y-111.8
X221.0Y-119.42
X221.0Y-124.79
X221.0Y-132.41
X221.0Y-140.98
X221.0Y-148.6
X221.31Y-201.0
X223.41Y-78.94
X223.41Y-86.56
X225.38Y-75.0
X226.4Y-111.79
X226.4Y-119.41
X226.41Y-78.94
X226.41Y-86.56
X226.5Y-124.885
X226.5Y-132.505
X226.8Y-190.39
X226.8Y-198.01
X227.92Y-75.0
X228.1Y-95.275
X228.1Y-108.275
X229.4Y-111.79
X229.4Y-119.41
X229.41Y-78.94
X229.41Y-86.56
X229.5Y-124.885
X229.5Y-132.505
X229.8Y-190.39
X229.8Y-198.01
X230.46Y-75.0
X232.4Y-111.79
X232.4Y-119.41
X232.41Y-78.94
X232.41Y-86.56
X232.5Y-124.885
X232.5Y-132.505
X233.1Y-95.275
X233.1Y-108.275
X233.5Y-203.69
X233.5Y-211.31
X235.4Y-111.79
X235.4Y-119.41
X235.5Y-124.885
X235.5Y-132.505
X236.19Y-201.0
X237.0Y-93.94
X237.0Y-101.56
X237.2Y-188.147
X237.2Y-191.647
X237.5Y-213.19
X237.5Y-220.81
X239.1Y-204.6
X239.1Y-210.4
X240.9Y-204.6
X240.9Y-210.4
X241.19Y-71.45
X241.44Y-106.0
X242.5Y-76.2
X242.5Y-213.19
X242.5Y-220.81
X243.81Y-201.0
X247.0Y-203.5
X247.5Y-76.2
X248.81Y-71.45
X249.06Y-106.0
X250.94Y-136.75
X251.19Y-71.45
X252.0Y-203.5
X252.5Y-76.2
X253.25Y-126.5
X253.5Y-133.5
X256.0Y-176.19
X256.0Y-183.81
X256.0Y-203.69
X256.0Y-211.31
X256.5Y-114.25
X256.75Y-126.5
X257.44Y-97.5
X257.44Y-105.5
X257.5Y-76.2
X258.5Y-133.5
X258.56Y-136.75
X258.69Y-173.5
X258.69Y-201.0
X258.81Y-71.45
X260.0Y-185.69
X260.0Y-193.31
X260.0Y-213.19
X260.0Y-220.81
X261.43Y-125.7
X261.43Y-128.24
X261.43Y-130.78
X261.43Y-133.32
X261.5Y-114.25
X261.6Y-177.1
X261.6Y-182.9
X261.6Y-204.6
X261.6Y-210.4
X262.5Y-138.0
X263.4Y-177.1
X263.4Y-182.9
X263.4Y-204.6
X263.4Y-210.4
X264.14Y-82.5
X265.0Y-143.097
X265.0Y-146.597
X265.0Y-185.69
X265.0Y-193.31
X265.0Y-213.19
X265.0Y-220.81
X265.06Y-97.5
X265.06Y-105.5
X266.31Y-173.5
X266.31Y-201.0
X267.44Y-97.5
X267.44Y-105.5
X267.5Y-138.0
X269.05Y-125.7
X269.05Y-128.24
X269.05Y-130.78
X269.05Y-133.32
X269.75Y-109.94
X269.75Y-117.56
X270.0Y-209.75
X271.76Y-82.5
X272.25Y-140.25
X273.5Y-122.75
X273.5Y-127.75
X273.5Y-131.0
X273.5Y-136.0
X274.5Y-109.94
X274.5Y-117.56
X274.75Y-140.25
X275.0Y-209.75
X275.06Y-97.5
X275.06Y-105.5
X275.25Y-172.75
X275.25Y-177.75
X277.25Y-159.5
X277.25Y-164.5
X278.19Y-154.6
X278.79Y-202.2
X284.0Y-190.347
X284.0Y-193.847
X285.81Y-154.6
X286.41Y-202.2
X286.75Y-159.5
X286.75Y-164.5
X302.147Y-185.4
X305.647Y-185.4
T9
X103.23Y-82.45
X104.5Y-82.45
X105.77Y-82.45
X107.04Y-82.45
X138.735Y-82.45
X138.735Y-112.45
X141.275Y-82.45
X141.275Y-112.45
X173.735Y-82.5
X173.735Y-112.5
X176.275Y-82.5
X176.275Y-112.5
X208.735Y-82.5
X208.735Y-112.5
X211.275Y-82.5
X211.275Y-112.5
X268.5Y-76.082
X272.5Y-76.082
X276.5Y-76.082
X294.917Y-155.042
X294.917Y-159.042
X294.917Y-163.042
T10
X100.949Y-101.0
X101.75Y-205.179
X101.75Y-209.679
X102.449Y-157.5
X102.5Y-172.5
X104.949Y-101.0
X104.949Y-157.5
X105.0Y-172.5
X107.449Y-157.5
X107.5Y-172.5
X108.25Y-205.179
X108.25Y-209.679
X108.949Y-101.0
X118.0Y-124.56
X118.0Y-127.1
X121.75Y-124.56
X121.75Y-127.1
X124.25Y-205.179
X124.25Y-209.679
X125.5Y-124.56
X125.5Y-127.1
X130.75Y-205.179
X130.75Y-209.679
X135.949Y-101.0
X135.949Y-131.0
X137.449Y-157.5
X137.5Y-172.5
X138.6Y-140.8
X139.949Y-101.0
X139.949Y-131.0
X139.949Y-157.5
X140.0Y-172.5
X141.14Y-140.8
X142.449Y-157.5
X142.5Y-172.5
X143.949Y-101.0
X143.949Y-131.0
X146.75Y-205.25
X146.75Y-209.75
X153.25Y-205.25
X153.25Y-209.75
X156.25Y-79.725
X156.25Y-82.265
X160.0Y-79.705
X160.0Y-82.245
X169.25Y-205.25
X169.25Y-209.75
X170.949Y-101.0
X170.949Y-131.0
X172.5Y-172.5
X174.949Y-101.0
X174.949Y-131.0
X175.0Y-172.5
X175.75Y-205.25
X175.75Y-209.75
X177.5Y-172.5
X178.949Y-101.0
X178.949Y-131.0
X190.735Y-166.9
X190.985Y-78.75
X191.75Y-205.25
X191.75Y-209.75
X193.275Y-166.9
X193.525Y-78.75
X196.75Y-181.4
X196.75Y-183.94
X196.75Y-186.48
X196.75Y-189.02
X196.75Y-191.56
X196.75Y-194.1
X198.25Y-205.25
X198.25Y-209.75
X205.949Y-101.0
X205.949Y-131.0
X209.949Y-101.0
X209.949Y-131.0
X213.949Y-101.0
X213.949Y-131.0
X214.25Y-205.25
X214.25Y-209.75
X216.925Y-81.0
X219.465Y-81.0
X220.75Y-205.25
X220.75Y-209.75
X228.235Y-180.0
X230.25Y-158.0
X230.25Y-160.54
X230.25Y-163.08
X230.25Y-165.62
X230.25Y-168.16
X230.25Y-170.7
X230.775Y-180.0
X236.75Y-205.25
X236.75Y-209.75
X239.0Y-74.925
X239.0Y-77.465
X242.449Y-97.5
X242.449Y-127.5
X242.5Y-173.25
X243.25Y-205.25
X243.25Y-209.75
X243.46Y-133.75
X243.735Y-102.595
X244.949Y-97.5
X244.949Y-127.5
X245.0Y-173.25
X246.0Y-133.75
X246.275Y-102.595
X247.449Y-97.5
X247.449Y-127.5
X247.5Y-173.25
X255.5Y-150.725
X255.5Y-153.265
X259.25Y-177.75
X259.25Y-182.25
X259.25Y-205.25
X259.25Y-209.75
X263.985Y-120.5
X265.75Y-177.75
X265.75Y-182.25
X265.75Y-205.25
X265.75Y-209.75
X266.525Y-120.5
X271.985Y-191.25
X274.525Y-191.25
X280.0Y-172.5
X282.5Y-172.5
X285.0Y-172.5
X293.25Y-191.75
X295.79Y-191.75
T11
X279.25Y-205.25
X279.25Y-209.75
X285.75Y-205.25
X285.75Y-209.75
T12
X266.5Y-71.832
X266.5Y-77.832
X278.5Y-71.832
X278.5Y-77.832
X293.167Y-153.042
X293.167Y-165.042
X299.167Y-153.042
X299.167Y-165.042
T13
X270.78Y-90.7
X286.48Y-90.8
X305.28Y-90.8
T14
X267.68Y-90.7
X283.38Y-90.8
X302.18Y-90.8
T15
X259.38Y-90.7
X275.08Y-90.8
X293.88Y-90.8
T16
X287.25Y-74.515
X287.25Y-80.515
X291.95Y-77.515
T17
X286.15Y-99.6
X298.85Y-99.6
T18
X268.35Y-161.107
X299.65Y-106.893
T4
G00X307.275Y-169.12
M15
G01X306.625Y-169.12
M16
G05
G00X307.275Y-176.87
M15
G01X306.625Y-176.87
M16
G05
T8
G00X303.425Y-169.27
M15
G01X302.875Y-169.27
M16
G05
G00X303.425Y-176.72
M15
G01X302.875Y-176.72
M16
G05
T10
G00X104.248Y-115.55
M15
G01X105.548Y-115.55
M16
G05
G00X104.248Y-120.0
M15
G01X105.548Y-120.0
M16
G05
G00X104.248Y-124.45
M15
G01X105.548Y-124.45
M16
G05
G00X174.299Y-145.55
M15
G01X175.599Y-145.55
M16
G05
G00X174.299Y-150.0
M15
G01X175.599Y-150.0
M16
G05
G00X174.299Y-154.45
M15
G01X175.599Y-154.45
M16
G05
G00X210.599Y-145.55
M15
G01X209.299Y-145.55
M16
G05
G00X210.599Y-150.0
M15
G01X209.299Y-150.0
M16
G05
G00X210.599Y-154.45
M15
G01X209.299Y-154.45
M16
G05
G00X244.299Y-145.55
M15
G01X245.599Y-145.55
M16
G05
G00X244.299Y-150.0
M15
G01X245.599Y-150.0
M16
G05
G00X244.299Y-154.45
M15
G01X245.599Y-154.45
M16
G05
T11
G00X99.799Y-150.0
M15
G01X100.499Y-150.0
M16
G05
G00X100.55Y-180.0
M15
G01X99.85Y-180.0
M16
G05
G00X109.399Y-150.0
M15
G01X110.099Y-150.0
M16
G05
G00X110.15Y-180.0
M15
G01X109.45Y-180.0
M16
G05
G00X134.799Y-150.0
M15
G01X135.499Y-150.0
M16
G05
G00X135.55Y-180.0
M15
G01X134.85Y-180.0
M16
G05
G00X144.399Y-150.0
M15
G01X145.099Y-150.0
M16
G05
G00X145.15Y-180.0
M15
G01X144.45Y-180.0
M16
G05
G00X170.55Y-180.0
M15
G01X169.85Y-180.0
M16
G05
G00X180.15Y-180.0
M15
G01X179.45Y-180.0
M16
G05
G00X239.799Y-90.0
M15
G01X240.499Y-90.0
M16
G05
G00X239.799Y-120.0
M15
G01X240.499Y-120.0
M16
G05
G00X240.55Y-180.75
M15
G01X239.85Y-180.75
M16
G05
G00X249.399Y-90.0
M15
G01X250.099Y-90.0
M16
G05
G00X249.399Y-120.0
M15
G01X250.099Y-120.0
M16
G05
G00X250.15Y-180.75
M15
G01X249.45Y-180.75
M16
G05
G00X278.05Y-180.0
M15
G01X277.35Y-180.0
M16
G05
G00X287.65Y-180.0
M15
G01X286.95Y-180.0
M16
G05
T16
G00X98.249Y-89.75
M15
G01X98.249Y-90.25
M16
G05
G00X111.649Y-89.75
M15
G01X111.649Y-90.25
M16
G05
G00X133.249Y-89.75
M15
G01X133.249Y-90.25
M16
G05
G00X133.249Y-119.75
M15
G01X133.249Y-120.25
M16
G05
G00X146.649Y-89.75
M15
G01X146.649Y-90.25
M16
G05
G00X146.649Y-119.75
M15
G01X146.649Y-120.25
M16
G05
G00X168.249Y-89.75
M15
G01X168.249Y-90.25
M16
G05
G00X168.249Y-119.75
M15
G01X168.249Y-120.25
M16
G05
G00X181.649Y-89.75
M15
G01X181.649Y-90.25
M16
G05
G00X181.649Y-119.75
M15
G01X181.649Y-120.25
M16
G05
G00X203.249Y-89.75
M15
G01X203.249Y-90.25
M16
G05
G00X203.249Y-119.75
M15
G01X203.249Y-120.25
M16
G05
G00X216.649Y-89.75
M15
G01X216.649Y-90.25
M16
G05
G00X216.649Y-119.75
M15
G01X216.649Y-120.25
M16
G05
T0
M30
